G04 #@! TF.GenerationSoftware,KiCad,Pcbnew,(5.1.5)-3*
G04 #@! TF.CreationDate,2020-05-18T19:59:14+02:00*
G04 #@! TF.ProjectId,PONG_Display,504f4e47-5f44-4697-9370-6c61792e6b69,rev?*
G04 #@! TF.SameCoordinates,Original*
G04 #@! TF.FileFunction,Soldermask,Bot*
G04 #@! TF.FilePolarity,Negative*
%FSLAX46Y46*%
G04 Gerber Fmt 4.6, Leading zero omitted, Abs format (unit mm)*
G04 Created by KiCad (PCBNEW (5.1.5)-3) date 2020-05-18 19:59:14*
%MOMM*%
%LPD*%
G04 APERTURE LIST*
%ADD10C,0.300000*%
%ADD11C,0.100000*%
G04 APERTURE END LIST*
D10*
X99821428Y-70071428D02*
X101321428Y-70071428D01*
X101321428Y-69500000D01*
X101250000Y-69357142D01*
X101178571Y-69285714D01*
X101035714Y-69214285D01*
X100821428Y-69214285D01*
X100678571Y-69285714D01*
X100607142Y-69357142D01*
X100535714Y-69500000D01*
X100535714Y-70071428D01*
X101321428Y-68285714D02*
X101321428Y-68000000D01*
X101250000Y-67857142D01*
X101107142Y-67714285D01*
X100821428Y-67642857D01*
X100321428Y-67642857D01*
X100035714Y-67714285D01*
X99892857Y-67857142D01*
X99821428Y-68000000D01*
X99821428Y-68285714D01*
X99892857Y-68428571D01*
X100035714Y-68571428D01*
X100321428Y-68642857D01*
X100821428Y-68642857D01*
X101107142Y-68571428D01*
X101250000Y-68428571D01*
X101321428Y-68285714D01*
X99821428Y-67000000D02*
X101321428Y-67000000D01*
X99821428Y-66142857D01*
X101321428Y-66142857D01*
X101250000Y-64642857D02*
X101321428Y-64785714D01*
X101321428Y-65000000D01*
X101250000Y-65214285D01*
X101107142Y-65357142D01*
X100964285Y-65428571D01*
X100678571Y-65500000D01*
X100464285Y-65500000D01*
X100178571Y-65428571D01*
X100035714Y-65357142D01*
X99892857Y-65214285D01*
X99821428Y-65000000D01*
X99821428Y-64857142D01*
X99892857Y-64642857D01*
X99964285Y-64571428D01*
X100464285Y-64571428D01*
X100464285Y-64857142D01*
X99678571Y-64285714D02*
X99678571Y-63142857D01*
X99821428Y-62785714D02*
X101321428Y-62785714D01*
X101321428Y-62428571D01*
X101250000Y-62214285D01*
X101107142Y-62071428D01*
X100964285Y-62000000D01*
X100678571Y-61928571D01*
X100464285Y-61928571D01*
X100178571Y-62000000D01*
X100035714Y-62071428D01*
X99892857Y-62214285D01*
X99821428Y-62428571D01*
X99821428Y-62785714D01*
X99821428Y-61285714D02*
X100821428Y-61285714D01*
X101321428Y-61285714D02*
X101250000Y-61357142D01*
X101178571Y-61285714D01*
X101250000Y-61214285D01*
X101321428Y-61285714D01*
X101178571Y-61285714D01*
X99892857Y-60642857D02*
X99821428Y-60500000D01*
X99821428Y-60214285D01*
X99892857Y-60071428D01*
X100035714Y-60000000D01*
X100107142Y-60000000D01*
X100250000Y-60071428D01*
X100321428Y-60214285D01*
X100321428Y-60428571D01*
X100392857Y-60571428D01*
X100535714Y-60642857D01*
X100607142Y-60642857D01*
X100750000Y-60571428D01*
X100821428Y-60428571D01*
X100821428Y-60214285D01*
X100750000Y-60071428D01*
X100821428Y-59357142D02*
X99321428Y-59357142D01*
X100750000Y-59357142D02*
X100821428Y-59214285D01*
X100821428Y-58928571D01*
X100750000Y-58785714D01*
X100678571Y-58714285D01*
X100535714Y-58642857D01*
X100107142Y-58642857D01*
X99964285Y-58714285D01*
X99892857Y-58785714D01*
X99821428Y-58928571D01*
X99821428Y-59214285D01*
X99892857Y-59357142D01*
X99821428Y-57785714D02*
X99892857Y-57928571D01*
X100035714Y-58000000D01*
X101321428Y-58000000D01*
X99821428Y-56571428D02*
X100607142Y-56571428D01*
X100750000Y-56642857D01*
X100821428Y-56785714D01*
X100821428Y-57071428D01*
X100750000Y-57214285D01*
X99892857Y-56571428D02*
X99821428Y-56714285D01*
X99821428Y-57071428D01*
X99892857Y-57214285D01*
X100035714Y-57285714D01*
X100178571Y-57285714D01*
X100321428Y-57214285D01*
X100392857Y-57071428D01*
X100392857Y-56714285D01*
X100464285Y-56571428D01*
X100821428Y-56000000D02*
X99821428Y-55642857D01*
X100821428Y-55285714D02*
X99821428Y-55642857D01*
X99464285Y-55785714D01*
X99392857Y-55857142D01*
X99321428Y-56000000D01*
X100821428Y-53714285D02*
X99821428Y-53357142D01*
X100821428Y-53000000D01*
X99821428Y-51642857D02*
X99821428Y-52500000D01*
X99821428Y-52071428D02*
X101321428Y-52071428D01*
X101107142Y-52214285D01*
X100964285Y-52357142D01*
X100892857Y-52500000D01*
X99964285Y-51000000D02*
X99892857Y-50928571D01*
X99821428Y-51000000D01*
X99892857Y-51071428D01*
X99964285Y-51000000D01*
X99821428Y-51000000D01*
X101321428Y-50000000D02*
X101321428Y-49857142D01*
X101250000Y-49714285D01*
X101178571Y-49642857D01*
X101035714Y-49571428D01*
X100750000Y-49500000D01*
X100392857Y-49500000D01*
X100107142Y-49571428D01*
X99964285Y-49642857D01*
X99892857Y-49714285D01*
X99821428Y-49857142D01*
X99821428Y-50000000D01*
X99892857Y-50142857D01*
X99964285Y-50214285D01*
X100107142Y-50285714D01*
X100392857Y-50357142D01*
X100750000Y-50357142D01*
X101035714Y-50285714D01*
X101178571Y-50214285D01*
X101250000Y-50142857D01*
X101321428Y-50000000D01*
X99964285Y-48857142D02*
X99892857Y-48785714D01*
X99821428Y-48857142D01*
X99892857Y-48928571D01*
X99964285Y-48857142D01*
X99821428Y-48857142D01*
X101321428Y-47857142D02*
X101321428Y-47714285D01*
X101250000Y-47571428D01*
X101178571Y-47500000D01*
X101035714Y-47428571D01*
X100750000Y-47357142D01*
X100392857Y-47357142D01*
X100107142Y-47428571D01*
X99964285Y-47500000D01*
X99892857Y-47571428D01*
X99821428Y-47714285D01*
X99821428Y-47857142D01*
X99892857Y-48000000D01*
X99964285Y-48071428D01*
X100107142Y-48142857D01*
X100392857Y-48214285D01*
X100750000Y-48214285D01*
X101035714Y-48142857D01*
X101178571Y-48071428D01*
X101250000Y-48000000D01*
X101321428Y-47857142D01*
X102821428Y-70178571D02*
X104321428Y-70178571D01*
X104321428Y-69607142D01*
X104250000Y-69464285D01*
X104178571Y-69392857D01*
X104035714Y-69321428D01*
X103821428Y-69321428D01*
X103678571Y-69392857D01*
X103607142Y-69464285D01*
X103535714Y-69607142D01*
X103535714Y-70178571D01*
X102821428Y-68678571D02*
X103821428Y-68678571D01*
X103535714Y-68678571D02*
X103678571Y-68607142D01*
X103750000Y-68535714D01*
X103821428Y-68392857D01*
X103821428Y-68250000D01*
X102821428Y-67535714D02*
X102892857Y-67678571D01*
X102964285Y-67750000D01*
X103107142Y-67821428D01*
X103535714Y-67821428D01*
X103678571Y-67750000D01*
X103750000Y-67678571D01*
X103821428Y-67535714D01*
X103821428Y-67321428D01*
X103750000Y-67178571D01*
X103678571Y-67107142D01*
X103535714Y-67035714D01*
X103107142Y-67035714D01*
X102964285Y-67107142D01*
X102892857Y-67178571D01*
X102821428Y-67321428D01*
X102821428Y-67535714D01*
X103821428Y-66392857D02*
X102535714Y-66392857D01*
X102392857Y-66464285D01*
X102321428Y-66607142D01*
X102321428Y-66678571D01*
X104321428Y-66392857D02*
X104250000Y-66464285D01*
X104178571Y-66392857D01*
X104250000Y-66321428D01*
X104321428Y-66392857D01*
X104178571Y-66392857D01*
X102892857Y-65107142D02*
X102821428Y-65250000D01*
X102821428Y-65535714D01*
X102892857Y-65678571D01*
X103035714Y-65750000D01*
X103607142Y-65750000D01*
X103750000Y-65678571D01*
X103821428Y-65535714D01*
X103821428Y-65250000D01*
X103750000Y-65107142D01*
X103607142Y-65035714D01*
X103464285Y-65035714D01*
X103321428Y-65750000D01*
X102821428Y-64392857D02*
X104321428Y-64392857D01*
X103392857Y-64250000D02*
X102821428Y-63821428D01*
X103821428Y-63821428D02*
X103250000Y-64392857D01*
X103821428Y-63392857D02*
X103821428Y-62821428D01*
X104321428Y-63178571D02*
X103035714Y-63178571D01*
X102892857Y-63107142D01*
X102821428Y-62964285D01*
X102821428Y-62821428D01*
X103821428Y-60535714D02*
X102607142Y-60535714D01*
X102464285Y-60607142D01*
X102392857Y-60678571D01*
X102321428Y-60821428D01*
X102321428Y-61035714D01*
X102392857Y-61178571D01*
X102892857Y-60535714D02*
X102821428Y-60678571D01*
X102821428Y-60964285D01*
X102892857Y-61107142D01*
X102964285Y-61178571D01*
X103107142Y-61250000D01*
X103535714Y-61250000D01*
X103678571Y-61178571D01*
X103750000Y-61107142D01*
X103821428Y-60964285D01*
X103821428Y-60678571D01*
X103750000Y-60535714D01*
X102821428Y-59821428D02*
X103821428Y-59821428D01*
X103535714Y-59821428D02*
X103678571Y-59750000D01*
X103750000Y-59678571D01*
X103821428Y-59535714D01*
X103821428Y-59392857D01*
X103821428Y-58250000D02*
X102821428Y-58250000D01*
X103821428Y-58892857D02*
X103035714Y-58892857D01*
X102892857Y-58821428D01*
X102821428Y-58678571D01*
X102821428Y-58464285D01*
X102892857Y-58321428D01*
X102964285Y-58250000D01*
X103821428Y-57535714D02*
X102321428Y-57535714D01*
X103750000Y-57535714D02*
X103821428Y-57392857D01*
X103821428Y-57107142D01*
X103750000Y-56964285D01*
X103678571Y-56892857D01*
X103535714Y-56821428D01*
X103107142Y-56821428D01*
X102964285Y-56892857D01*
X102892857Y-56964285D01*
X102821428Y-57107142D01*
X102821428Y-57392857D01*
X102892857Y-57535714D01*
X102821428Y-55964285D02*
X102892857Y-56107142D01*
X102964285Y-56178571D01*
X103107142Y-56250000D01*
X103535714Y-56250000D01*
X103678571Y-56178571D01*
X103750000Y-56107142D01*
X103821428Y-55964285D01*
X103821428Y-55750000D01*
X103750000Y-55607142D01*
X103678571Y-55535714D01*
X103535714Y-55464285D01*
X103107142Y-55464285D01*
X102964285Y-55535714D01*
X102892857Y-55607142D01*
X102821428Y-55750000D01*
X102821428Y-55964285D01*
X103821428Y-54964285D02*
X102821428Y-54678571D01*
X103535714Y-54392857D01*
X102821428Y-54107142D01*
X103821428Y-53821428D01*
X103821428Y-53392857D02*
X102821428Y-53035714D01*
X103821428Y-52678571D02*
X102821428Y-53035714D01*
X102464285Y-53178571D01*
X102392857Y-53250000D01*
X102321428Y-53392857D01*
X104178571Y-51035714D02*
X104250000Y-50964285D01*
X104321428Y-50821428D01*
X104321428Y-50464285D01*
X104250000Y-50321428D01*
X104178571Y-50250000D01*
X104035714Y-50178571D01*
X103892857Y-50178571D01*
X103678571Y-50250000D01*
X102821428Y-51107142D01*
X102821428Y-50178571D01*
X104321428Y-49250000D02*
X104321428Y-49107142D01*
X104250000Y-48964285D01*
X104178571Y-48892857D01*
X104035714Y-48821428D01*
X103750000Y-48750000D01*
X103392857Y-48750000D01*
X103107142Y-48821428D01*
X102964285Y-48892857D01*
X102892857Y-48964285D01*
X102821428Y-49107142D01*
X102821428Y-49250000D01*
X102892857Y-49392857D01*
X102964285Y-49464285D01*
X103107142Y-49535714D01*
X103392857Y-49607142D01*
X103750000Y-49607142D01*
X104035714Y-49535714D01*
X104178571Y-49464285D01*
X104250000Y-49392857D01*
X104321428Y-49250000D01*
X104178571Y-48178571D02*
X104250000Y-48107142D01*
X104321428Y-47964285D01*
X104321428Y-47607142D01*
X104250000Y-47464285D01*
X104178571Y-47392857D01*
X104035714Y-47321428D01*
X103892857Y-47321428D01*
X103678571Y-47392857D01*
X102821428Y-48250000D01*
X102821428Y-47321428D01*
X104321428Y-46392857D02*
X104321428Y-46250000D01*
X104250000Y-46107142D01*
X104178571Y-46035714D01*
X104035714Y-45964285D01*
X103750000Y-45892857D01*
X103392857Y-45892857D01*
X103107142Y-45964285D01*
X102964285Y-46035714D01*
X102892857Y-46107142D01*
X102821428Y-46250000D01*
X102821428Y-46392857D01*
X102892857Y-46535714D01*
X102964285Y-46607142D01*
X103107142Y-46678571D01*
X103392857Y-46750000D01*
X103750000Y-46750000D01*
X104035714Y-46678571D01*
X104178571Y-46607142D01*
X104250000Y-46535714D01*
X104321428Y-46392857D01*
X104392857Y-44178571D02*
X102464285Y-45464285D01*
X104178571Y-43750000D02*
X104250000Y-43678571D01*
X104321428Y-43535714D01*
X104321428Y-43178571D01*
X104250000Y-43035714D01*
X104178571Y-42964285D01*
X104035714Y-42892857D01*
X103892857Y-42892857D01*
X103678571Y-42964285D01*
X102821428Y-43821428D01*
X102821428Y-42892857D01*
X102821428Y-41464285D02*
X102821428Y-42321428D01*
X102821428Y-41892857D02*
X104321428Y-41892857D01*
X104107142Y-42035714D01*
X103964285Y-42178571D01*
X103892857Y-42321428D01*
X104321428Y-39821428D02*
X102821428Y-39464285D01*
X103892857Y-39178571D01*
X102821428Y-38892857D01*
X104321428Y-38535714D01*
X103607142Y-37964285D02*
X103607142Y-37464285D01*
X102821428Y-37250000D02*
X102821428Y-37964285D01*
X104321428Y-37964285D01*
X104321428Y-37250000D01*
X104321428Y-36821428D02*
X104321428Y-35964285D01*
X102821428Y-36392857D02*
X104321428Y-36392857D01*
X102821428Y-35464285D02*
X104321428Y-35464285D01*
X102821428Y-33607142D02*
X104321428Y-33607142D01*
X104321428Y-33035714D01*
X104250000Y-32892857D01*
X104178571Y-32821428D01*
X104035714Y-32750000D01*
X103821428Y-32750000D01*
X103678571Y-32821428D01*
X103607142Y-32892857D01*
X103535714Y-33035714D01*
X103535714Y-33607142D01*
X104250000Y-31321428D02*
X104321428Y-31464285D01*
X104321428Y-31678571D01*
X104250000Y-31892857D01*
X104107142Y-32035714D01*
X103964285Y-32107142D01*
X103678571Y-32178571D01*
X103464285Y-32178571D01*
X103178571Y-32107142D01*
X103035714Y-32035714D01*
X102892857Y-31892857D01*
X102821428Y-31678571D01*
X102821428Y-31535714D01*
X102892857Y-31321428D01*
X102964285Y-31250000D01*
X103464285Y-31250000D01*
X103464285Y-31535714D01*
X105571428Y-70142857D02*
X107071428Y-70142857D01*
X106000000Y-69642857D01*
X107071428Y-69142857D01*
X105571428Y-69142857D01*
X105571428Y-67785714D02*
X106357142Y-67785714D01*
X106500000Y-67857142D01*
X106571428Y-68000000D01*
X106571428Y-68285714D01*
X106500000Y-68428571D01*
X105642857Y-67785714D02*
X105571428Y-67928571D01*
X105571428Y-68285714D01*
X105642857Y-68428571D01*
X105785714Y-68500000D01*
X105928571Y-68500000D01*
X106071428Y-68428571D01*
X106142857Y-68285714D01*
X106142857Y-67928571D01*
X106214285Y-67785714D01*
X106571428Y-67071428D02*
X105571428Y-67071428D01*
X106428571Y-67071428D02*
X106500000Y-67000000D01*
X106571428Y-66857142D01*
X106571428Y-66642857D01*
X106500000Y-66500000D01*
X106357142Y-66428571D01*
X105571428Y-66428571D01*
X107142857Y-66642857D02*
X106928571Y-66857142D01*
X105642857Y-65785714D02*
X105571428Y-65642857D01*
X105571428Y-65357142D01*
X105642857Y-65214285D01*
X105785714Y-65142857D01*
X105857142Y-65142857D01*
X106000000Y-65214285D01*
X106071428Y-65357142D01*
X106071428Y-65571428D01*
X106142857Y-65714285D01*
X106285714Y-65785714D01*
X106357142Y-65785714D01*
X106500000Y-65714285D01*
X106571428Y-65571428D01*
X106571428Y-65357142D01*
X106500000Y-65214285D01*
X105571428Y-64500000D02*
X107071428Y-64500000D01*
X106142857Y-64357142D02*
X105571428Y-63928571D01*
X106571428Y-63928571D02*
X106000000Y-64500000D01*
X105571428Y-63285714D02*
X106571428Y-63285714D01*
X107071428Y-63285714D02*
X107000000Y-63357142D01*
X106928571Y-63285714D01*
X107000000Y-63214285D01*
X107071428Y-63285714D01*
X106928571Y-63285714D01*
X105642857Y-62500000D02*
X105571428Y-62500000D01*
X105428571Y-62571428D01*
X105357142Y-62642857D01*
X105571428Y-60714285D02*
X107071428Y-60714285D01*
X106000000Y-60214285D01*
X107071428Y-59714285D01*
X105571428Y-59714285D01*
X105571428Y-59000000D02*
X106571428Y-59000000D01*
X107071428Y-59000000D02*
X107000000Y-59071428D01*
X106928571Y-59000000D01*
X107000000Y-58928571D01*
X107071428Y-59000000D01*
X106928571Y-59000000D01*
X105571428Y-58285714D02*
X107071428Y-58285714D01*
X106142857Y-58142857D02*
X105571428Y-57714285D01*
X106571428Y-57714285D02*
X106000000Y-58285714D01*
X105571428Y-56857142D02*
X105642857Y-57000000D01*
X105714285Y-57071428D01*
X105857142Y-57142857D01*
X106285714Y-57142857D01*
X106428571Y-57071428D01*
X106500000Y-57000000D01*
X106571428Y-56857142D01*
X106571428Y-56642857D01*
X106500000Y-56500000D01*
X106428571Y-56428571D01*
X106285714Y-56357142D01*
X105857142Y-56357142D01*
X105714285Y-56428571D01*
X105642857Y-56500000D01*
X105571428Y-56642857D01*
X105571428Y-56857142D01*
X105642857Y-55785714D02*
X105571428Y-55642857D01*
X105571428Y-55357142D01*
X105642857Y-55214285D01*
X105785714Y-55142857D01*
X105857142Y-55142857D01*
X106000000Y-55214285D01*
X106071428Y-55357142D01*
X106071428Y-55571428D01*
X106142857Y-55714285D01*
X106285714Y-55785714D01*
X106357142Y-55785714D01*
X106500000Y-55714285D01*
X106571428Y-55571428D01*
X106571428Y-55357142D01*
X106500000Y-55214285D01*
X105642857Y-54428571D02*
X105571428Y-54428571D01*
X105428571Y-54499999D01*
X105357142Y-54571428D01*
X105571428Y-52642857D02*
X107071428Y-52642857D01*
X107071428Y-52071428D01*
X107000000Y-51928571D01*
X106928571Y-51857142D01*
X106785714Y-51785714D01*
X106571428Y-51785714D01*
X106428571Y-51857142D01*
X106357142Y-51928571D01*
X106285714Y-52071428D01*
X106285714Y-52642857D01*
X105571428Y-50928571D02*
X105642857Y-51071428D01*
X105785714Y-51142857D01*
X107071428Y-51142857D01*
X105571428Y-50357142D02*
X106571428Y-50357142D01*
X107071428Y-50357142D02*
X107000000Y-50428571D01*
X106928571Y-50357142D01*
X107000000Y-50285714D01*
X107071428Y-50357142D01*
X106928571Y-50357142D01*
X105642857Y-49714285D02*
X105571428Y-49571428D01*
X105571428Y-49285714D01*
X105642857Y-49142857D01*
X105785714Y-49071428D01*
X105857142Y-49071428D01*
X106000000Y-49142857D01*
X106071428Y-49285714D01*
X106071428Y-49499999D01*
X106142857Y-49642857D01*
X106285714Y-49714285D01*
X106357142Y-49714285D01*
X106500000Y-49642857D01*
X106571428Y-49499999D01*
X106571428Y-49285714D01*
X106500000Y-49142857D01*
X106571428Y-48571428D02*
X106571428Y-47785714D01*
X105571428Y-48571428D01*
X105571428Y-47785714D01*
X105571428Y-47214285D02*
X107071428Y-47214285D01*
X106142857Y-47071428D02*
X105571428Y-46642857D01*
X106571428Y-46642857D02*
X106000000Y-47214285D01*
X105571428Y-45357142D02*
X106357142Y-45357142D01*
X106500000Y-45428571D01*
X106571428Y-45571428D01*
X106571428Y-45857142D01*
X106500000Y-45999999D01*
X105642857Y-45357142D02*
X105571428Y-45499999D01*
X105571428Y-45857142D01*
X105642857Y-45999999D01*
X105785714Y-46071428D01*
X105928571Y-46071428D01*
X106071428Y-45999999D01*
X106142857Y-45857142D01*
X106142857Y-45499999D01*
X106214285Y-45357142D01*
X105642857Y-44571428D02*
X105571428Y-44571428D01*
X105428571Y-44642857D01*
X105357142Y-44714285D01*
X105642857Y-42857142D02*
X105571428Y-42642857D01*
X105571428Y-42285714D01*
X105642857Y-42142857D01*
X105714285Y-42071428D01*
X105857142Y-42000000D01*
X106000000Y-42000000D01*
X106142857Y-42071428D01*
X106214285Y-42142857D01*
X106285714Y-42285714D01*
X106357142Y-42571428D01*
X106428571Y-42714285D01*
X106500000Y-42785714D01*
X106642857Y-42857142D01*
X106785714Y-42857142D01*
X106928571Y-42785714D01*
X107000000Y-42714285D01*
X107071428Y-42571428D01*
X107071428Y-42214285D01*
X107000000Y-42000000D01*
X105571428Y-41142857D02*
X105642857Y-41285714D01*
X105714285Y-41357142D01*
X105857142Y-41428571D01*
X106285714Y-41428571D01*
X106428571Y-41357142D01*
X106500000Y-41285714D01*
X106571428Y-41142857D01*
X106571428Y-40928571D01*
X106500000Y-40785714D01*
X106428571Y-40714285D01*
X106285714Y-40642857D01*
X105857142Y-40642857D01*
X105714285Y-40714285D01*
X105642857Y-40785714D01*
X105571428Y-40928571D01*
X105571428Y-41142857D01*
X105571428Y-39999999D02*
X107071428Y-39999999D01*
X106142857Y-39857142D02*
X105571428Y-39428571D01*
X106571428Y-39428571D02*
X106000000Y-39999999D01*
X105571428Y-38571428D02*
X105642857Y-38714285D01*
X105714285Y-38785714D01*
X105857142Y-38857142D01*
X106285714Y-38857142D01*
X106428571Y-38785714D01*
X106500000Y-38714285D01*
X106571428Y-38571428D01*
X106571428Y-38357142D01*
X106500000Y-38214285D01*
X106428571Y-38142857D01*
X106285714Y-38071428D01*
X105857142Y-38071428D01*
X105714285Y-38142857D01*
X105642857Y-38214285D01*
X105571428Y-38357142D01*
X105571428Y-38571428D01*
X105571428Y-37214285D02*
X105642857Y-37357142D01*
X105785714Y-37428571D01*
X107071428Y-37428571D01*
X106285714Y-37642857D02*
X106571428Y-37214285D01*
X105571428Y-36428571D02*
X105642857Y-36571428D01*
X105714285Y-36642857D01*
X105857142Y-36714285D01*
X106285714Y-36714285D01*
X106428571Y-36642857D01*
X106500000Y-36571428D01*
X106571428Y-36428571D01*
X106571428Y-36214285D01*
X106500000Y-36071428D01*
X106428571Y-35999999D01*
X106285714Y-35928571D01*
X105857142Y-35928571D01*
X105714285Y-35999999D01*
X105642857Y-36071428D01*
X105571428Y-36214285D01*
X105571428Y-36428571D01*
X106571428Y-35428571D02*
X105571428Y-35142857D01*
X106285714Y-34857142D01*
X105571428Y-34571428D01*
X106571428Y-34285714D01*
X105642857Y-33785714D02*
X105571428Y-33642857D01*
X105571428Y-33357142D01*
X105642857Y-33214285D01*
X105785714Y-33142857D01*
X105857142Y-33142857D01*
X106000000Y-33214285D01*
X106071428Y-33357142D01*
X106071428Y-33571428D01*
X106142857Y-33714285D01*
X106285714Y-33785714D01*
X106357142Y-33785714D01*
X106500000Y-33714285D01*
X106571428Y-33571428D01*
X106571428Y-33357142D01*
X106500000Y-33214285D01*
X105571428Y-32499999D02*
X107071428Y-32499999D01*
X106142857Y-32357142D02*
X105571428Y-31928571D01*
X106571428Y-31928571D02*
X106000000Y-32499999D01*
X105571428Y-31285714D02*
X106571428Y-31285714D01*
X107071428Y-31285714D02*
X107000000Y-31357142D01*
X106928571Y-31285714D01*
X107000000Y-31214285D01*
X107071428Y-31285714D01*
X106928571Y-31285714D01*
X105642857Y-30499999D02*
X105571428Y-30499999D01*
X105428571Y-30571428D01*
X105357142Y-30642857D01*
X107071428Y-28928571D02*
X107071428Y-28071428D01*
X105571428Y-28499999D02*
X107071428Y-28499999D01*
X106571428Y-27714285D02*
X105571428Y-27357142D01*
X106571428Y-26999999D02*
X105571428Y-27357142D01*
X105214285Y-27499999D01*
X105142857Y-27571428D01*
X105071428Y-27714285D01*
X105571428Y-26428571D02*
X107071428Y-26428571D01*
X106500000Y-26428571D02*
X106571428Y-26285714D01*
X106571428Y-25999999D01*
X106500000Y-25857142D01*
X106428571Y-25785714D01*
X106285714Y-25714285D01*
X105857142Y-25714285D01*
X105714285Y-25785714D01*
X105642857Y-25857142D01*
X105571428Y-25999999D01*
X105571428Y-26285714D01*
X105642857Y-26428571D01*
X106571428Y-24428571D02*
X105571428Y-24428571D01*
X106571428Y-25071428D02*
X105785714Y-25071428D01*
X105642857Y-24999999D01*
X105571428Y-24857142D01*
X105571428Y-24642857D01*
X105642857Y-24499999D01*
X105714285Y-24428571D01*
X105571428Y-23714285D02*
X106571428Y-23714285D01*
X106285714Y-23714285D02*
X106428571Y-23642857D01*
X106500000Y-23571428D01*
X106571428Y-23428571D01*
X106571428Y-23285714D01*
X105642857Y-22857142D02*
X105571428Y-22714285D01*
X105571428Y-22428571D01*
X105642857Y-22285714D01*
X105785714Y-22214285D01*
X105857142Y-22214285D01*
X106000000Y-22285714D01*
X106071428Y-22428571D01*
X106071428Y-22642857D01*
X106142857Y-22785714D01*
X106285714Y-22857142D01*
X106357142Y-22857142D01*
X106500000Y-22785714D01*
X106571428Y-22642857D01*
X106571428Y-22428571D01*
X106500000Y-22285714D01*
X105571428Y-21571428D02*
X107071428Y-21571428D01*
X106142857Y-21428571D02*
X105571428Y-20999999D01*
X106571428Y-20999999D02*
X106000000Y-21571428D01*
X105571428Y-20357142D02*
X106571428Y-20357142D01*
X107071428Y-20357142D02*
X107000000Y-20428571D01*
X106928571Y-20357142D01*
X107000000Y-20285714D01*
X107071428Y-20357142D01*
X106928571Y-20357142D01*
D11*
G36*
X104917056Y-71822885D02*
G01*
X105323437Y-71903719D01*
X105824087Y-72111095D01*
X106004561Y-72231684D01*
X106274660Y-72412158D01*
X106657842Y-72795340D01*
X106838316Y-73065439D01*
X106958905Y-73245913D01*
X107152793Y-73714000D01*
X107166281Y-73746564D01*
X107272000Y-74278049D01*
X107272000Y-74819951D01*
X107236186Y-75000000D01*
X107166281Y-75351437D01*
X106958905Y-75852087D01*
X106902521Y-75936471D01*
X106657842Y-76302660D01*
X106274660Y-76685842D01*
X106011774Y-76861496D01*
X105824087Y-76986905D01*
X105323437Y-77194281D01*
X105057693Y-77247141D01*
X104791951Y-77300000D01*
X104250049Y-77300000D01*
X103984307Y-77247141D01*
X103718563Y-77194281D01*
X103217913Y-76986905D01*
X103030226Y-76861496D01*
X102767340Y-76685842D01*
X102384158Y-76302660D01*
X102139479Y-75936471D01*
X102083095Y-75852087D01*
X101875719Y-75351437D01*
X101805814Y-75000000D01*
X101770000Y-74819951D01*
X101770000Y-74278049D01*
X101875719Y-73746564D01*
X101889207Y-73714000D01*
X102083095Y-73245913D01*
X102203684Y-73065439D01*
X102384158Y-72795340D01*
X102767340Y-72412158D01*
X103037439Y-72231684D01*
X103217913Y-72111095D01*
X103718563Y-71903719D01*
X104124944Y-71822885D01*
X104250049Y-71798000D01*
X104791951Y-71798000D01*
X104917056Y-71822885D01*
G37*
G36*
X16518056Y-71822885D02*
G01*
X16924437Y-71903719D01*
X17425087Y-72111095D01*
X17605561Y-72231684D01*
X17875660Y-72412158D01*
X18258842Y-72795340D01*
X18439316Y-73065439D01*
X18559905Y-73245913D01*
X18753793Y-73714000D01*
X18767281Y-73746564D01*
X18873000Y-74278049D01*
X18873000Y-74819951D01*
X18837186Y-75000000D01*
X18767281Y-75351437D01*
X18559905Y-75852087D01*
X18503521Y-75936471D01*
X18258842Y-76302660D01*
X17875660Y-76685842D01*
X17612774Y-76861496D01*
X17425087Y-76986905D01*
X16924437Y-77194281D01*
X16658693Y-77247141D01*
X16392951Y-77300000D01*
X15851049Y-77300000D01*
X15585307Y-77247141D01*
X15319563Y-77194281D01*
X14818913Y-76986905D01*
X14631226Y-76861496D01*
X14368340Y-76685842D01*
X13985158Y-76302660D01*
X13740479Y-75936471D01*
X13684095Y-75852087D01*
X13476719Y-75351437D01*
X13406814Y-75000000D01*
X13371000Y-74819951D01*
X13371000Y-74278049D01*
X13476719Y-73746564D01*
X13490207Y-73714000D01*
X13684095Y-73245913D01*
X13804684Y-73065439D01*
X13985158Y-72795340D01*
X14368340Y-72412158D01*
X14638439Y-72231684D01*
X14818913Y-72111095D01*
X15319563Y-71903719D01*
X15725944Y-71822885D01*
X15851049Y-71798000D01*
X16392951Y-71798000D01*
X16518056Y-71822885D01*
G37*
G36*
X93166564Y-73339389D02*
G01*
X93357833Y-73418615D01*
X93357835Y-73418616D01*
X93529973Y-73533635D01*
X93676365Y-73680027D01*
X93720824Y-73746564D01*
X93791385Y-73852167D01*
X93870611Y-74043436D01*
X93911000Y-74246484D01*
X93911000Y-74453516D01*
X93870611Y-74656564D01*
X93802934Y-74819950D01*
X93791384Y-74847835D01*
X93676365Y-75019973D01*
X93529973Y-75166365D01*
X93357835Y-75281384D01*
X93357834Y-75281385D01*
X93357833Y-75281385D01*
X93166564Y-75360611D01*
X92963516Y-75401000D01*
X92756484Y-75401000D01*
X92553436Y-75360611D01*
X92362167Y-75281385D01*
X92362166Y-75281385D01*
X92362165Y-75281384D01*
X92190027Y-75166365D01*
X92043635Y-75019973D01*
X91928616Y-74847835D01*
X91917066Y-74819950D01*
X91849389Y-74656564D01*
X91809000Y-74453516D01*
X91809000Y-74246484D01*
X91849389Y-74043436D01*
X91928615Y-73852167D01*
X91999177Y-73746564D01*
X92043635Y-73680027D01*
X92190027Y-73533635D01*
X92362165Y-73418616D01*
X92362167Y-73418615D01*
X92553436Y-73339389D01*
X92756484Y-73299000D01*
X92963516Y-73299000D01*
X93166564Y-73339389D01*
G37*
G36*
X86666564Y-73339389D02*
G01*
X86857833Y-73418615D01*
X86857835Y-73418616D01*
X87029973Y-73533635D01*
X87176365Y-73680027D01*
X87220824Y-73746564D01*
X87291385Y-73852167D01*
X87370611Y-74043436D01*
X87411000Y-74246484D01*
X87411000Y-74453516D01*
X87370611Y-74656564D01*
X87302934Y-74819950D01*
X87291384Y-74847835D01*
X87176365Y-75019973D01*
X87029973Y-75166365D01*
X86857835Y-75281384D01*
X86857834Y-75281385D01*
X86857833Y-75281385D01*
X86666564Y-75360611D01*
X86463516Y-75401000D01*
X86256484Y-75401000D01*
X86053436Y-75360611D01*
X85862167Y-75281385D01*
X85862166Y-75281385D01*
X85862165Y-75281384D01*
X85690027Y-75166365D01*
X85543635Y-75019973D01*
X85428616Y-74847835D01*
X85417066Y-74819950D01*
X85349389Y-74656564D01*
X85309000Y-74453516D01*
X85309000Y-74246484D01*
X85349389Y-74043436D01*
X85428615Y-73852167D01*
X85499177Y-73746564D01*
X85543635Y-73680027D01*
X85690027Y-73533635D01*
X85862165Y-73418616D01*
X85862167Y-73418615D01*
X86053436Y-73339389D01*
X86256484Y-73299000D01*
X86463516Y-73299000D01*
X86666564Y-73339389D01*
G37*
G36*
X33857564Y-73181389D02*
G01*
X34019973Y-73248661D01*
X34048835Y-73260616D01*
X34220973Y-73375635D01*
X34367365Y-73522027D01*
X34474924Y-73683000D01*
X34482385Y-73694167D01*
X34561611Y-73885436D01*
X34602000Y-74088484D01*
X34602000Y-74295516D01*
X34561611Y-74498564D01*
X34559119Y-74504580D01*
X34482384Y-74689835D01*
X34367365Y-74861973D01*
X34220973Y-75008365D01*
X34048835Y-75123384D01*
X34048834Y-75123385D01*
X34048833Y-75123385D01*
X33857564Y-75202611D01*
X33654516Y-75243000D01*
X33447484Y-75243000D01*
X33244436Y-75202611D01*
X33053167Y-75123385D01*
X33053166Y-75123385D01*
X33053165Y-75123384D01*
X32881027Y-75008365D01*
X32734635Y-74861973D01*
X32619616Y-74689835D01*
X32542881Y-74504580D01*
X32540389Y-74498564D01*
X32500000Y-74295516D01*
X32500000Y-74088484D01*
X32540389Y-73885436D01*
X32619615Y-73694167D01*
X32627077Y-73683000D01*
X32734635Y-73522027D01*
X32881027Y-73375635D01*
X33053165Y-73260616D01*
X33082027Y-73248661D01*
X33244436Y-73181389D01*
X33447484Y-73141000D01*
X33654516Y-73141000D01*
X33857564Y-73181389D01*
G37*
G36*
X27357564Y-73181389D02*
G01*
X27519973Y-73248661D01*
X27548835Y-73260616D01*
X27720973Y-73375635D01*
X27867365Y-73522027D01*
X27974924Y-73683000D01*
X27982385Y-73694167D01*
X28061611Y-73885436D01*
X28102000Y-74088484D01*
X28102000Y-74295516D01*
X28061611Y-74498564D01*
X28059119Y-74504580D01*
X27982384Y-74689835D01*
X27867365Y-74861973D01*
X27720973Y-75008365D01*
X27548835Y-75123384D01*
X27548834Y-75123385D01*
X27548833Y-75123385D01*
X27357564Y-75202611D01*
X27154516Y-75243000D01*
X26947484Y-75243000D01*
X26744436Y-75202611D01*
X26553167Y-75123385D01*
X26553166Y-75123385D01*
X26553165Y-75123384D01*
X26381027Y-75008365D01*
X26234635Y-74861973D01*
X26119616Y-74689835D01*
X26042881Y-74504580D01*
X26040389Y-74498564D01*
X26000000Y-74295516D01*
X26000000Y-74088484D01*
X26040389Y-73885436D01*
X26119615Y-73694167D01*
X26127077Y-73683000D01*
X26234635Y-73522027D01*
X26381027Y-73375635D01*
X26553165Y-73260616D01*
X26582027Y-73248661D01*
X26744436Y-73181389D01*
X26947484Y-73141000D01*
X27154516Y-73141000D01*
X27357564Y-73181389D01*
G37*
G36*
X82660499Y-72566445D02*
G01*
X82697995Y-72577820D01*
X82732554Y-72596292D01*
X82762847Y-72621153D01*
X82787708Y-72651446D01*
X82806180Y-72686005D01*
X82817555Y-72723501D01*
X82822000Y-72768638D01*
X82822000Y-73507362D01*
X82817555Y-73552499D01*
X82806180Y-73589995D01*
X82787708Y-73624554D01*
X82762847Y-73654847D01*
X82732554Y-73679708D01*
X82697995Y-73698180D01*
X82660499Y-73709555D01*
X82615362Y-73714000D01*
X81976638Y-73714000D01*
X81931501Y-73709555D01*
X81894005Y-73698180D01*
X81859446Y-73679708D01*
X81829153Y-73654847D01*
X81804292Y-73624554D01*
X81785820Y-73589995D01*
X81774445Y-73552499D01*
X81770000Y-73507362D01*
X81770000Y-72768638D01*
X81774445Y-72723501D01*
X81785820Y-72686005D01*
X81804292Y-72651446D01*
X81829153Y-72621153D01*
X81859446Y-72596292D01*
X81894005Y-72577820D01*
X81931501Y-72566445D01*
X81976638Y-72562000D01*
X82615362Y-72562000D01*
X82660499Y-72566445D01*
G37*
G36*
X23605499Y-72535445D02*
G01*
X23642995Y-72546820D01*
X23677554Y-72565292D01*
X23707847Y-72590153D01*
X23732708Y-72620446D01*
X23751180Y-72655005D01*
X23762555Y-72692501D01*
X23767000Y-72737638D01*
X23767000Y-73476362D01*
X23762555Y-73521499D01*
X23751180Y-73558995D01*
X23732708Y-73593554D01*
X23707847Y-73623847D01*
X23677554Y-73648708D01*
X23642995Y-73667180D01*
X23605499Y-73678555D01*
X23560362Y-73683000D01*
X22921638Y-73683000D01*
X22876501Y-73678555D01*
X22839005Y-73667180D01*
X22804446Y-73648708D01*
X22774153Y-73623847D01*
X22749292Y-73593554D01*
X22730820Y-73558995D01*
X22719445Y-73521499D01*
X22715000Y-73476362D01*
X22715000Y-72737638D01*
X22719445Y-72692501D01*
X22730820Y-72655005D01*
X22749292Y-72620446D01*
X22774153Y-72590153D01*
X22804446Y-72565292D01*
X22839005Y-72546820D01*
X22876501Y-72535445D01*
X22921638Y-72531000D01*
X23560362Y-72531000D01*
X23605499Y-72535445D01*
G37*
G36*
X31755499Y-71710445D02*
G01*
X31792995Y-71721820D01*
X31827554Y-71740292D01*
X31857847Y-71765153D01*
X31882708Y-71795446D01*
X31901180Y-71830005D01*
X31912555Y-71867501D01*
X31917000Y-71912638D01*
X31917000Y-72551362D01*
X31912555Y-72596499D01*
X31901180Y-72633995D01*
X31882708Y-72668554D01*
X31857847Y-72698847D01*
X31827554Y-72723708D01*
X31792995Y-72742180D01*
X31755499Y-72753555D01*
X31710362Y-72758000D01*
X30971638Y-72758000D01*
X30926501Y-72753555D01*
X30889005Y-72742180D01*
X30854446Y-72723708D01*
X30824153Y-72698847D01*
X30799292Y-72668554D01*
X30780820Y-72633995D01*
X30769445Y-72596499D01*
X30765000Y-72551362D01*
X30765000Y-71912638D01*
X30769445Y-71867501D01*
X30780820Y-71830005D01*
X30799292Y-71795446D01*
X30824153Y-71765153D01*
X30854446Y-71740292D01*
X30889005Y-71721820D01*
X30926501Y-71710445D01*
X30971638Y-71706000D01*
X31710362Y-71706000D01*
X31755499Y-71710445D01*
G37*
G36*
X30005499Y-71710445D02*
G01*
X30042995Y-71721820D01*
X30077554Y-71740292D01*
X30107847Y-71765153D01*
X30132708Y-71795446D01*
X30151180Y-71830005D01*
X30162555Y-71867501D01*
X30167000Y-71912638D01*
X30167000Y-72551362D01*
X30162555Y-72596499D01*
X30151180Y-72633995D01*
X30132708Y-72668554D01*
X30107847Y-72698847D01*
X30077554Y-72723708D01*
X30042995Y-72742180D01*
X30005499Y-72753555D01*
X29960362Y-72758000D01*
X29221638Y-72758000D01*
X29176501Y-72753555D01*
X29139005Y-72742180D01*
X29104446Y-72723708D01*
X29074153Y-72698847D01*
X29049292Y-72668554D01*
X29030820Y-72633995D01*
X29019445Y-72596499D01*
X29015000Y-72551362D01*
X29015000Y-71912638D01*
X29019445Y-71867501D01*
X29030820Y-71830005D01*
X29049292Y-71795446D01*
X29074153Y-71765153D01*
X29104446Y-71740292D01*
X29139005Y-71721820D01*
X29176501Y-71710445D01*
X29221638Y-71706000D01*
X29960362Y-71706000D01*
X30005499Y-71710445D01*
G37*
G36*
X63879903Y-70267075D02*
G01*
X64074876Y-70347835D01*
X64107571Y-70361378D01*
X64312466Y-70498285D01*
X64486715Y-70672534D01*
X64618956Y-70870446D01*
X64623623Y-70877431D01*
X64717925Y-71105097D01*
X64766000Y-71346786D01*
X64766000Y-71593214D01*
X64717925Y-71834903D01*
X64704423Y-71867501D01*
X64623622Y-72062571D01*
X64486715Y-72267466D01*
X64312466Y-72441715D01*
X64107571Y-72578622D01*
X64107570Y-72578623D01*
X64107569Y-72578623D01*
X63879903Y-72672925D01*
X63638214Y-72721000D01*
X63391786Y-72721000D01*
X63150097Y-72672925D01*
X62922431Y-72578623D01*
X62922430Y-72578623D01*
X62922429Y-72578622D01*
X62717534Y-72441715D01*
X62543285Y-72267466D01*
X62406378Y-72062571D01*
X62325578Y-71867501D01*
X62312075Y-71834903D01*
X62264000Y-71593214D01*
X62264000Y-71346786D01*
X62312075Y-71105097D01*
X62406377Y-70877431D01*
X62411044Y-70870446D01*
X62543285Y-70672534D01*
X62717534Y-70498285D01*
X62922429Y-70361378D01*
X62955125Y-70347835D01*
X63150097Y-70267075D01*
X63391786Y-70219000D01*
X63638214Y-70219000D01*
X63879903Y-70267075D01*
G37*
G36*
X60379903Y-70267075D02*
G01*
X60574876Y-70347835D01*
X60607571Y-70361378D01*
X60812466Y-70498285D01*
X60986715Y-70672534D01*
X61118956Y-70870446D01*
X61123623Y-70877431D01*
X61217925Y-71105097D01*
X61266000Y-71346786D01*
X61266000Y-71593214D01*
X61217925Y-71834903D01*
X61204423Y-71867501D01*
X61123622Y-72062571D01*
X60986715Y-72267466D01*
X60812466Y-72441715D01*
X60607571Y-72578622D01*
X60607570Y-72578623D01*
X60607569Y-72578623D01*
X60379903Y-72672925D01*
X60138214Y-72721000D01*
X59891786Y-72721000D01*
X59650097Y-72672925D01*
X59422431Y-72578623D01*
X59422430Y-72578623D01*
X59422429Y-72578622D01*
X59217534Y-72441715D01*
X59043285Y-72267466D01*
X58906378Y-72062571D01*
X58825578Y-71867501D01*
X58812075Y-71834903D01*
X58764000Y-71593214D01*
X58764000Y-71346786D01*
X58812075Y-71105097D01*
X58906377Y-70877431D01*
X58911044Y-70870446D01*
X59043285Y-70672534D01*
X59217534Y-70498285D01*
X59422429Y-70361378D01*
X59455125Y-70347835D01*
X59650097Y-70267075D01*
X59891786Y-70219000D01*
X60138214Y-70219000D01*
X60379903Y-70267075D01*
G37*
G36*
X45701000Y-72721000D02*
G01*
X43199000Y-72721000D01*
X43199000Y-70219000D01*
X45701000Y-70219000D01*
X45701000Y-72721000D01*
G37*
G36*
X48314903Y-70267075D02*
G01*
X48509876Y-70347835D01*
X48542571Y-70361378D01*
X48747466Y-70498285D01*
X48921715Y-70672534D01*
X49053956Y-70870446D01*
X49058623Y-70877431D01*
X49152925Y-71105097D01*
X49201000Y-71346786D01*
X49201000Y-71593214D01*
X49152925Y-71834903D01*
X49139423Y-71867501D01*
X49058622Y-72062571D01*
X48921715Y-72267466D01*
X48747466Y-72441715D01*
X48542571Y-72578622D01*
X48542570Y-72578623D01*
X48542569Y-72578623D01*
X48314903Y-72672925D01*
X48073214Y-72721000D01*
X47826786Y-72721000D01*
X47585097Y-72672925D01*
X47357431Y-72578623D01*
X47357430Y-72578623D01*
X47357429Y-72578622D01*
X47152534Y-72441715D01*
X46978285Y-72267466D01*
X46841378Y-72062571D01*
X46760578Y-71867501D01*
X46747075Y-71834903D01*
X46699000Y-71593214D01*
X46699000Y-71346786D01*
X46747075Y-71105097D01*
X46841377Y-70877431D01*
X46846044Y-70870446D01*
X46978285Y-70672534D01*
X47152534Y-70498285D01*
X47357429Y-70361378D01*
X47390125Y-70347835D01*
X47585097Y-70267075D01*
X47826786Y-70219000D01*
X48073214Y-70219000D01*
X48314903Y-70267075D01*
G37*
G36*
X69831000Y-72721000D02*
G01*
X67329000Y-72721000D01*
X67329000Y-70219000D01*
X69831000Y-70219000D01*
X69831000Y-72721000D01*
G37*
G36*
X72444903Y-70267075D02*
G01*
X72639876Y-70347835D01*
X72672571Y-70361378D01*
X72877466Y-70498285D01*
X73051715Y-70672534D01*
X73183956Y-70870446D01*
X73188623Y-70877431D01*
X73282925Y-71105097D01*
X73331000Y-71346786D01*
X73331000Y-71593214D01*
X73282925Y-71834903D01*
X73269423Y-71867501D01*
X73188622Y-72062571D01*
X73051715Y-72267466D01*
X72877466Y-72441715D01*
X72672571Y-72578622D01*
X72672570Y-72578623D01*
X72672569Y-72578623D01*
X72444903Y-72672925D01*
X72203214Y-72721000D01*
X71956786Y-72721000D01*
X71715097Y-72672925D01*
X71487431Y-72578623D01*
X71487430Y-72578623D01*
X71487429Y-72578622D01*
X71282534Y-72441715D01*
X71108285Y-72267466D01*
X70971378Y-72062571D01*
X70890578Y-71867501D01*
X70877075Y-71834903D01*
X70829000Y-71593214D01*
X70829000Y-71346786D01*
X70877075Y-71105097D01*
X70971377Y-70877431D01*
X70976044Y-70870446D01*
X71108285Y-70672534D01*
X71282534Y-70498285D01*
X71487429Y-70361378D01*
X71520125Y-70347835D01*
X71715097Y-70267075D01*
X71956786Y-70219000D01*
X72203214Y-70219000D01*
X72444903Y-70267075D01*
G37*
G36*
X75944903Y-70267075D02*
G01*
X76139876Y-70347835D01*
X76172571Y-70361378D01*
X76377466Y-70498285D01*
X76551715Y-70672534D01*
X76683956Y-70870446D01*
X76688623Y-70877431D01*
X76782925Y-71105097D01*
X76831000Y-71346786D01*
X76831000Y-71593214D01*
X76782925Y-71834903D01*
X76769423Y-71867501D01*
X76688622Y-72062571D01*
X76551715Y-72267466D01*
X76377466Y-72441715D01*
X76172571Y-72578622D01*
X76172570Y-72578623D01*
X76172569Y-72578623D01*
X75944903Y-72672925D01*
X75703214Y-72721000D01*
X75456786Y-72721000D01*
X75215097Y-72672925D01*
X74987431Y-72578623D01*
X74987430Y-72578623D01*
X74987429Y-72578622D01*
X74782534Y-72441715D01*
X74608285Y-72267466D01*
X74471378Y-72062571D01*
X74390578Y-71867501D01*
X74377075Y-71834903D01*
X74329000Y-71593214D01*
X74329000Y-71346786D01*
X74377075Y-71105097D01*
X74471377Y-70877431D01*
X74476044Y-70870446D01*
X74608285Y-70672534D01*
X74782534Y-70498285D01*
X74987429Y-70361378D01*
X75020125Y-70347835D01*
X75215097Y-70267075D01*
X75456786Y-70219000D01*
X75703214Y-70219000D01*
X75944903Y-70267075D01*
G37*
G36*
X57766000Y-72721000D02*
G01*
X55264000Y-72721000D01*
X55264000Y-70219000D01*
X57766000Y-70219000D01*
X57766000Y-72721000D01*
G37*
G36*
X51814903Y-70267075D02*
G01*
X52009876Y-70347835D01*
X52042571Y-70361378D01*
X52247466Y-70498285D01*
X52421715Y-70672534D01*
X52553956Y-70870446D01*
X52558623Y-70877431D01*
X52652925Y-71105097D01*
X52701000Y-71346786D01*
X52701000Y-71593214D01*
X52652925Y-71834903D01*
X52639423Y-71867501D01*
X52558622Y-72062571D01*
X52421715Y-72267466D01*
X52247466Y-72441715D01*
X52042571Y-72578622D01*
X52042570Y-72578623D01*
X52042569Y-72578623D01*
X51814903Y-72672925D01*
X51573214Y-72721000D01*
X51326786Y-72721000D01*
X51085097Y-72672925D01*
X50857431Y-72578623D01*
X50857430Y-72578623D01*
X50857429Y-72578622D01*
X50652534Y-72441715D01*
X50478285Y-72267466D01*
X50341378Y-72062571D01*
X50260578Y-71867501D01*
X50247075Y-71834903D01*
X50199000Y-71593214D01*
X50199000Y-71346786D01*
X50247075Y-71105097D01*
X50341377Y-70877431D01*
X50346044Y-70870446D01*
X50478285Y-70672534D01*
X50652534Y-70498285D01*
X50857429Y-70361378D01*
X50890125Y-70347835D01*
X51085097Y-70267075D01*
X51326786Y-70219000D01*
X51573214Y-70219000D01*
X51814903Y-70267075D01*
G37*
G36*
X90937499Y-71614445D02*
G01*
X90974995Y-71625820D01*
X91009554Y-71644292D01*
X91039847Y-71669153D01*
X91064708Y-71699446D01*
X91083180Y-71734005D01*
X91094555Y-71771501D01*
X91099000Y-71816638D01*
X91099000Y-72455362D01*
X91094555Y-72500499D01*
X91083180Y-72537995D01*
X91064708Y-72572554D01*
X91039847Y-72602847D01*
X91009554Y-72627708D01*
X90974995Y-72646180D01*
X90937499Y-72657555D01*
X90892362Y-72662000D01*
X90153638Y-72662000D01*
X90108501Y-72657555D01*
X90071005Y-72646180D01*
X90036446Y-72627708D01*
X90006153Y-72602847D01*
X89981292Y-72572554D01*
X89962820Y-72537995D01*
X89951445Y-72500499D01*
X89947000Y-72455362D01*
X89947000Y-71816638D01*
X89951445Y-71771501D01*
X89962820Y-71734005D01*
X89981292Y-71699446D01*
X90006153Y-71669153D01*
X90036446Y-71644292D01*
X90071005Y-71625820D01*
X90108501Y-71614445D01*
X90153638Y-71610000D01*
X90892362Y-71610000D01*
X90937499Y-71614445D01*
G37*
G36*
X89187499Y-71614445D02*
G01*
X89224995Y-71625820D01*
X89259554Y-71644292D01*
X89289847Y-71669153D01*
X89314708Y-71699446D01*
X89333180Y-71734005D01*
X89344555Y-71771501D01*
X89349000Y-71816638D01*
X89349000Y-72455362D01*
X89344555Y-72500499D01*
X89333180Y-72537995D01*
X89314708Y-72572554D01*
X89289847Y-72602847D01*
X89259554Y-72627708D01*
X89224995Y-72646180D01*
X89187499Y-72657555D01*
X89142362Y-72662000D01*
X88403638Y-72662000D01*
X88358501Y-72657555D01*
X88321005Y-72646180D01*
X88286446Y-72627708D01*
X88256153Y-72602847D01*
X88231292Y-72572554D01*
X88212820Y-72537995D01*
X88201445Y-72500499D01*
X88197000Y-72455362D01*
X88197000Y-71816638D01*
X88201445Y-71771501D01*
X88212820Y-71734005D01*
X88231292Y-71699446D01*
X88256153Y-71669153D01*
X88286446Y-71644292D01*
X88321005Y-71625820D01*
X88358501Y-71614445D01*
X88403638Y-71610000D01*
X89142362Y-71610000D01*
X89187499Y-71614445D01*
G37*
G36*
X82660499Y-70816445D02*
G01*
X82697995Y-70827820D01*
X82732554Y-70846292D01*
X82762847Y-70871153D01*
X82787708Y-70901446D01*
X82806180Y-70936005D01*
X82817555Y-70973501D01*
X82822000Y-71018638D01*
X82822000Y-71757362D01*
X82817555Y-71802499D01*
X82806180Y-71839995D01*
X82787708Y-71874554D01*
X82762847Y-71904847D01*
X82732554Y-71929708D01*
X82697995Y-71948180D01*
X82660499Y-71959555D01*
X82615362Y-71964000D01*
X81976638Y-71964000D01*
X81931501Y-71959555D01*
X81894005Y-71948180D01*
X81859446Y-71929708D01*
X81829153Y-71904847D01*
X81804292Y-71874554D01*
X81785820Y-71839995D01*
X81774445Y-71802499D01*
X81770000Y-71757362D01*
X81770000Y-71018638D01*
X81774445Y-70973501D01*
X81785820Y-70936005D01*
X81804292Y-70901446D01*
X81829153Y-70871153D01*
X81859446Y-70846292D01*
X81894005Y-70827820D01*
X81931501Y-70816445D01*
X81976638Y-70812000D01*
X82615362Y-70812000D01*
X82660499Y-70816445D01*
G37*
G36*
X23605499Y-70785445D02*
G01*
X23642995Y-70796820D01*
X23677554Y-70815292D01*
X23707847Y-70840153D01*
X23732708Y-70870446D01*
X23751180Y-70905005D01*
X23762555Y-70942501D01*
X23767000Y-70987638D01*
X23767000Y-71726362D01*
X23762555Y-71771499D01*
X23751180Y-71808995D01*
X23732708Y-71843554D01*
X23707847Y-71873847D01*
X23677554Y-71898708D01*
X23642995Y-71917180D01*
X23605499Y-71928555D01*
X23560362Y-71933000D01*
X22921638Y-71933000D01*
X22876501Y-71928555D01*
X22839005Y-71917180D01*
X22804446Y-71898708D01*
X22774153Y-71873847D01*
X22749292Y-71843554D01*
X22730820Y-71808995D01*
X22719445Y-71771499D01*
X22715000Y-71726362D01*
X22715000Y-70987638D01*
X22719445Y-70942501D01*
X22730820Y-70905005D01*
X22749292Y-70870446D01*
X22774153Y-70840153D01*
X22804446Y-70815292D01*
X22839005Y-70796820D01*
X22876501Y-70785445D01*
X22921638Y-70781000D01*
X23560362Y-70781000D01*
X23605499Y-70785445D01*
G37*
G36*
X93166564Y-68839389D02*
G01*
X93357833Y-68918615D01*
X93357835Y-68918616D01*
X93512600Y-69022027D01*
X93529973Y-69033635D01*
X93676365Y-69180027D01*
X93791385Y-69352167D01*
X93870611Y-69543436D01*
X93911000Y-69746484D01*
X93911000Y-69953516D01*
X93870611Y-70156564D01*
X93844749Y-70219000D01*
X93791384Y-70347835D01*
X93676365Y-70519973D01*
X93529973Y-70666365D01*
X93357835Y-70781384D01*
X93357834Y-70781385D01*
X93357833Y-70781385D01*
X93166564Y-70860611D01*
X92963516Y-70901000D01*
X92756484Y-70901000D01*
X92553436Y-70860611D01*
X92362167Y-70781385D01*
X92362166Y-70781385D01*
X92362165Y-70781384D01*
X92190027Y-70666365D01*
X92043635Y-70519973D01*
X91928616Y-70347835D01*
X91875251Y-70219000D01*
X91849389Y-70156564D01*
X91809000Y-69953516D01*
X91809000Y-69746484D01*
X91849389Y-69543436D01*
X91928615Y-69352167D01*
X92043635Y-69180027D01*
X92190027Y-69033635D01*
X92207400Y-69022027D01*
X92362165Y-68918616D01*
X92362167Y-68918615D01*
X92553436Y-68839389D01*
X92756484Y-68799000D01*
X92963516Y-68799000D01*
X93166564Y-68839389D01*
G37*
G36*
X86666564Y-68839389D02*
G01*
X86857833Y-68918615D01*
X86857835Y-68918616D01*
X87012600Y-69022027D01*
X87029973Y-69033635D01*
X87176365Y-69180027D01*
X87291385Y-69352167D01*
X87370611Y-69543436D01*
X87411000Y-69746484D01*
X87411000Y-69953516D01*
X87370611Y-70156564D01*
X87344749Y-70219000D01*
X87291384Y-70347835D01*
X87176365Y-70519973D01*
X87029973Y-70666365D01*
X86857835Y-70781384D01*
X86857834Y-70781385D01*
X86857833Y-70781385D01*
X86666564Y-70860611D01*
X86463516Y-70901000D01*
X86256484Y-70901000D01*
X86053436Y-70860611D01*
X85862167Y-70781385D01*
X85862166Y-70781385D01*
X85862165Y-70781384D01*
X85690027Y-70666365D01*
X85543635Y-70519973D01*
X85428616Y-70347835D01*
X85375251Y-70219000D01*
X85349389Y-70156564D01*
X85309000Y-69953516D01*
X85309000Y-69746484D01*
X85349389Y-69543436D01*
X85428615Y-69352167D01*
X85543635Y-69180027D01*
X85690027Y-69033635D01*
X85707400Y-69022027D01*
X85862165Y-68918616D01*
X85862167Y-68918615D01*
X86053436Y-68839389D01*
X86256484Y-68799000D01*
X86463516Y-68799000D01*
X86666564Y-68839389D01*
G37*
G36*
X27357564Y-68681389D02*
G01*
X27548833Y-68760615D01*
X27548835Y-68760616D01*
X27720973Y-68875635D01*
X27867365Y-69022027D01*
X27982385Y-69194167D01*
X28061611Y-69385436D01*
X28102000Y-69588484D01*
X28102000Y-69795516D01*
X28061611Y-69998564D01*
X27996165Y-70156564D01*
X27982384Y-70189835D01*
X27867365Y-70361973D01*
X27720973Y-70508365D01*
X27548835Y-70623384D01*
X27548834Y-70623385D01*
X27548833Y-70623385D01*
X27357564Y-70702611D01*
X27154516Y-70743000D01*
X26947484Y-70743000D01*
X26744436Y-70702611D01*
X26553167Y-70623385D01*
X26553166Y-70623385D01*
X26553165Y-70623384D01*
X26381027Y-70508365D01*
X26234635Y-70361973D01*
X26119616Y-70189835D01*
X26105835Y-70156564D01*
X26040389Y-69998564D01*
X26000000Y-69795516D01*
X26000000Y-69588484D01*
X26040389Y-69385436D01*
X26119615Y-69194167D01*
X26234635Y-69022027D01*
X26381027Y-68875635D01*
X26553165Y-68760616D01*
X26553167Y-68760615D01*
X26744436Y-68681389D01*
X26947484Y-68641000D01*
X27154516Y-68641000D01*
X27357564Y-68681389D01*
G37*
G36*
X33857564Y-68681389D02*
G01*
X34048833Y-68760615D01*
X34048835Y-68760616D01*
X34220973Y-68875635D01*
X34367365Y-69022027D01*
X34482385Y-69194167D01*
X34561611Y-69385436D01*
X34602000Y-69588484D01*
X34602000Y-69795516D01*
X34561611Y-69998564D01*
X34496165Y-70156564D01*
X34482384Y-70189835D01*
X34367365Y-70361973D01*
X34220973Y-70508365D01*
X34048835Y-70623384D01*
X34048834Y-70623385D01*
X34048833Y-70623385D01*
X33857564Y-70702611D01*
X33654516Y-70743000D01*
X33447484Y-70743000D01*
X33244436Y-70702611D01*
X33053167Y-70623385D01*
X33053166Y-70623385D01*
X33053165Y-70623384D01*
X32881027Y-70508365D01*
X32734635Y-70361973D01*
X32619616Y-70189835D01*
X32605835Y-70156564D01*
X32540389Y-69998564D01*
X32500000Y-69795516D01*
X32500000Y-69588484D01*
X32540389Y-69385436D01*
X32619615Y-69194167D01*
X32734635Y-69022027D01*
X32881027Y-68875635D01*
X33053165Y-68760616D01*
X33053167Y-68760615D01*
X33244436Y-68681389D01*
X33447484Y-68641000D01*
X33654516Y-68641000D01*
X33857564Y-68681389D01*
G37*
G36*
X97138499Y-67486445D02*
G01*
X97175995Y-67497820D01*
X97210554Y-67516292D01*
X97240847Y-67541153D01*
X97265708Y-67571446D01*
X97284180Y-67606005D01*
X97295555Y-67643501D01*
X97300000Y-67688638D01*
X97300000Y-68427362D01*
X97295555Y-68472499D01*
X97284180Y-68509995D01*
X97265708Y-68544554D01*
X97240847Y-68574847D01*
X97210554Y-68599708D01*
X97175995Y-68618180D01*
X97138499Y-68629555D01*
X97093362Y-68634000D01*
X96454638Y-68634000D01*
X96409501Y-68629555D01*
X96372005Y-68618180D01*
X96337446Y-68599708D01*
X96307153Y-68574847D01*
X96282292Y-68544554D01*
X96263820Y-68509995D01*
X96252445Y-68472499D01*
X96248000Y-68427362D01*
X96248000Y-67688638D01*
X96252445Y-67643501D01*
X96263820Y-67606005D01*
X96282292Y-67571446D01*
X96307153Y-67541153D01*
X96337446Y-67516292D01*
X96372005Y-67497820D01*
X96409501Y-67486445D01*
X96454638Y-67482000D01*
X97093362Y-67482000D01*
X97138499Y-67486445D01*
G37*
G36*
X72804499Y-65899445D02*
G01*
X72841995Y-65910820D01*
X72876554Y-65929292D01*
X72906847Y-65954153D01*
X72931708Y-65984446D01*
X72950180Y-66019005D01*
X72961555Y-66056501D01*
X72966000Y-66101638D01*
X72966000Y-66740362D01*
X72961555Y-66785499D01*
X72950180Y-66822995D01*
X72931708Y-66857554D01*
X72906847Y-66887847D01*
X72876554Y-66912708D01*
X72841995Y-66931180D01*
X72804499Y-66942555D01*
X72759362Y-66947000D01*
X72020638Y-66947000D01*
X71975501Y-66942555D01*
X71938005Y-66931180D01*
X71903446Y-66912708D01*
X71873153Y-66887847D01*
X71848292Y-66857554D01*
X71829820Y-66822995D01*
X71818445Y-66785499D01*
X71814000Y-66740362D01*
X71814000Y-66101638D01*
X71818445Y-66056501D01*
X71829820Y-66019005D01*
X71848292Y-65984446D01*
X71873153Y-65954153D01*
X71903446Y-65929292D01*
X71938005Y-65910820D01*
X71975501Y-65899445D01*
X72020638Y-65895000D01*
X72759362Y-65895000D01*
X72804499Y-65899445D01*
G37*
G36*
X74554499Y-65899445D02*
G01*
X74591995Y-65910820D01*
X74626554Y-65929292D01*
X74656847Y-65954153D01*
X74681708Y-65984446D01*
X74700180Y-66019005D01*
X74711555Y-66056501D01*
X74716000Y-66101638D01*
X74716000Y-66740362D01*
X74711555Y-66785499D01*
X74700180Y-66822995D01*
X74681708Y-66857554D01*
X74656847Y-66887847D01*
X74626554Y-66912708D01*
X74591995Y-66931180D01*
X74554499Y-66942555D01*
X74509362Y-66947000D01*
X73770638Y-66947000D01*
X73725501Y-66942555D01*
X73688005Y-66931180D01*
X73653446Y-66912708D01*
X73623153Y-66887847D01*
X73598292Y-66857554D01*
X73579820Y-66822995D01*
X73568445Y-66785499D01*
X73564000Y-66740362D01*
X73564000Y-66101638D01*
X73568445Y-66056501D01*
X73579820Y-66019005D01*
X73598292Y-65984446D01*
X73623153Y-65954153D01*
X73653446Y-65929292D01*
X73688005Y-65910820D01*
X73725501Y-65899445D01*
X73770638Y-65895000D01*
X74509362Y-65895000D01*
X74554499Y-65899445D01*
G37*
G36*
X97138499Y-65736445D02*
G01*
X97175995Y-65747820D01*
X97210554Y-65766292D01*
X97240847Y-65791153D01*
X97265708Y-65821446D01*
X97284180Y-65856005D01*
X97295555Y-65893501D01*
X97300000Y-65938638D01*
X97300000Y-66677362D01*
X97295555Y-66722499D01*
X97284180Y-66759995D01*
X97265708Y-66794554D01*
X97240847Y-66824847D01*
X97210554Y-66849708D01*
X97175995Y-66868180D01*
X97138499Y-66879555D01*
X97093362Y-66884000D01*
X96454638Y-66884000D01*
X96409501Y-66879555D01*
X96372005Y-66868180D01*
X96337446Y-66849708D01*
X96307153Y-66824847D01*
X96282292Y-66794554D01*
X96263820Y-66759995D01*
X96252445Y-66722499D01*
X96248000Y-66677362D01*
X96248000Y-65938638D01*
X96252445Y-65893501D01*
X96263820Y-65856005D01*
X96282292Y-65821446D01*
X96307153Y-65791153D01*
X96337446Y-65766292D01*
X96372005Y-65747820D01*
X96409501Y-65736445D01*
X96454638Y-65732000D01*
X97093362Y-65732000D01*
X97138499Y-65736445D01*
G37*
G36*
X48787499Y-65772445D02*
G01*
X48824995Y-65783820D01*
X48859554Y-65802292D01*
X48889847Y-65827153D01*
X48914708Y-65857446D01*
X48933180Y-65892005D01*
X48944555Y-65929501D01*
X48949000Y-65974638D01*
X48949000Y-66613362D01*
X48944555Y-66658499D01*
X48933180Y-66695995D01*
X48914708Y-66730554D01*
X48889847Y-66760847D01*
X48859554Y-66785708D01*
X48824995Y-66804180D01*
X48787499Y-66815555D01*
X48742362Y-66820000D01*
X48003638Y-66820000D01*
X47958501Y-66815555D01*
X47921005Y-66804180D01*
X47886446Y-66785708D01*
X47856153Y-66760847D01*
X47831292Y-66730554D01*
X47812820Y-66695995D01*
X47801445Y-66658499D01*
X47797000Y-66613362D01*
X47797000Y-65974638D01*
X47801445Y-65929501D01*
X47812820Y-65892005D01*
X47831292Y-65857446D01*
X47856153Y-65827153D01*
X47886446Y-65802292D01*
X47921005Y-65783820D01*
X47958501Y-65772445D01*
X48003638Y-65768000D01*
X48742362Y-65768000D01*
X48787499Y-65772445D01*
G37*
G36*
X47037499Y-65772445D02*
G01*
X47074995Y-65783820D01*
X47109554Y-65802292D01*
X47139847Y-65827153D01*
X47164708Y-65857446D01*
X47183180Y-65892005D01*
X47194555Y-65929501D01*
X47199000Y-65974638D01*
X47199000Y-66613362D01*
X47194555Y-66658499D01*
X47183180Y-66695995D01*
X47164708Y-66730554D01*
X47139847Y-66760847D01*
X47109554Y-66785708D01*
X47074995Y-66804180D01*
X47037499Y-66815555D01*
X46992362Y-66820000D01*
X46253638Y-66820000D01*
X46208501Y-66815555D01*
X46171005Y-66804180D01*
X46136446Y-66785708D01*
X46106153Y-66760847D01*
X46081292Y-66730554D01*
X46062820Y-66695995D01*
X46051445Y-66658499D01*
X46047000Y-66613362D01*
X46047000Y-65974638D01*
X46051445Y-65929501D01*
X46062820Y-65892005D01*
X46081292Y-65857446D01*
X46106153Y-65827153D01*
X46136446Y-65802292D01*
X46171005Y-65783820D01*
X46208501Y-65772445D01*
X46253638Y-65768000D01*
X46992362Y-65768000D01*
X47037499Y-65772445D01*
G37*
G36*
X19771142Y-64496242D02*
G01*
X19919101Y-64557529D01*
X20052255Y-64646499D01*
X20165501Y-64759745D01*
X20254471Y-64892899D01*
X20315758Y-65040858D01*
X20347000Y-65197925D01*
X20347000Y-65358075D01*
X20315758Y-65515142D01*
X20254471Y-65663101D01*
X20165501Y-65796255D01*
X20052255Y-65909501D01*
X19919101Y-65998471D01*
X19771142Y-66059758D01*
X19614075Y-66091000D01*
X19453925Y-66091000D01*
X19296858Y-66059758D01*
X19148899Y-65998471D01*
X19015745Y-65909501D01*
X18902499Y-65796255D01*
X18813529Y-65663101D01*
X18752242Y-65515142D01*
X18721000Y-65358075D01*
X18721000Y-65197925D01*
X18752242Y-65040858D01*
X18813529Y-64892899D01*
X18902499Y-64759745D01*
X19015745Y-64646499D01*
X19148899Y-64557529D01*
X19296858Y-64496242D01*
X19453925Y-64465000D01*
X19614075Y-64465000D01*
X19771142Y-64496242D01*
G37*
G36*
X59894143Y-63815087D02*
G01*
X60050838Y-63879992D01*
X60191853Y-63974215D01*
X60311785Y-64094147D01*
X60406008Y-64235162D01*
X60470913Y-64391857D01*
X60504000Y-64558198D01*
X60504000Y-64727802D01*
X60470913Y-64894143D01*
X60406008Y-65050838D01*
X60311785Y-65191853D01*
X60191853Y-65311785D01*
X60050838Y-65406008D01*
X59894143Y-65470913D01*
X59727802Y-65504000D01*
X59558198Y-65504000D01*
X59391857Y-65470913D01*
X59235162Y-65406008D01*
X59094147Y-65311785D01*
X58974215Y-65191853D01*
X58879992Y-65050838D01*
X58815087Y-64894143D01*
X58782000Y-64727802D01*
X58782000Y-64558198D01*
X58815087Y-64391857D01*
X58879992Y-64235162D01*
X58974215Y-64094147D01*
X59094147Y-63974215D01*
X59235162Y-63879992D01*
X59391857Y-63815087D01*
X59558198Y-63782000D01*
X59727802Y-63782000D01*
X59894143Y-63815087D01*
G37*
G36*
X64894143Y-63815087D02*
G01*
X65050838Y-63879992D01*
X65191853Y-63974215D01*
X65311785Y-64094147D01*
X65406008Y-64235162D01*
X65470913Y-64391857D01*
X65504000Y-64558198D01*
X65504000Y-64727802D01*
X65470913Y-64894143D01*
X65406008Y-65050838D01*
X65311785Y-65191853D01*
X65191853Y-65311785D01*
X65050838Y-65406008D01*
X64894143Y-65470913D01*
X64727802Y-65504000D01*
X64558198Y-65504000D01*
X64391857Y-65470913D01*
X64235162Y-65406008D01*
X64094147Y-65311785D01*
X63974215Y-65191853D01*
X63879992Y-65050838D01*
X63815087Y-64894143D01*
X63782000Y-64727802D01*
X63782000Y-64558198D01*
X63815087Y-64391857D01*
X63879992Y-64235162D01*
X63974215Y-64094147D01*
X64094147Y-63974215D01*
X64235162Y-63879992D01*
X64391857Y-63815087D01*
X64558198Y-63782000D01*
X64727802Y-63782000D01*
X64894143Y-63815087D01*
G37*
G36*
X86212642Y-63872781D02*
G01*
X86358414Y-63933162D01*
X86358416Y-63933163D01*
X86489608Y-64020822D01*
X86601178Y-64132392D01*
X86670648Y-64236362D01*
X86688838Y-64263586D01*
X86749219Y-64409358D01*
X86780000Y-64564107D01*
X86780000Y-64721893D01*
X86749219Y-64876642D01*
X86688838Y-65022414D01*
X86688837Y-65022416D01*
X86601178Y-65153608D01*
X86489608Y-65265178D01*
X86358416Y-65352837D01*
X86358415Y-65352838D01*
X86358414Y-65352838D01*
X86212642Y-65413219D01*
X86057893Y-65444000D01*
X85900107Y-65444000D01*
X85745358Y-65413219D01*
X85599586Y-65352838D01*
X85599585Y-65352838D01*
X85599584Y-65352837D01*
X85468392Y-65265178D01*
X85356822Y-65153608D01*
X85269163Y-65022416D01*
X85269162Y-65022414D01*
X85208781Y-64876642D01*
X85178000Y-64721893D01*
X85178000Y-64564107D01*
X85208781Y-64409358D01*
X85269162Y-64263586D01*
X85287352Y-64236362D01*
X85356822Y-64132392D01*
X85468392Y-64020822D01*
X85599584Y-63933163D01*
X85599586Y-63933162D01*
X85745358Y-63872781D01*
X85900107Y-63842000D01*
X86057893Y-63842000D01*
X86212642Y-63872781D01*
G37*
G36*
X94400000Y-65444000D02*
G01*
X92798000Y-65444000D01*
X92798000Y-63842000D01*
X94400000Y-63842000D01*
X94400000Y-65444000D01*
G37*
G36*
X27217000Y-65380500D02*
G01*
X25615000Y-65380500D01*
X25615000Y-63778500D01*
X27217000Y-63778500D01*
X27217000Y-65380500D01*
G37*
G36*
X34269642Y-63809281D02*
G01*
X34415414Y-63869662D01*
X34415416Y-63869663D01*
X34546608Y-63957322D01*
X34658178Y-64068892D01*
X34732417Y-64180000D01*
X34745838Y-64200086D01*
X34806219Y-64345858D01*
X34837000Y-64500607D01*
X34837000Y-64658393D01*
X34806219Y-64813142D01*
X34745838Y-64958914D01*
X34745837Y-64958916D01*
X34658178Y-65090108D01*
X34546608Y-65201678D01*
X34415416Y-65289337D01*
X34415415Y-65289338D01*
X34415414Y-65289338D01*
X34269642Y-65349719D01*
X34114893Y-65380500D01*
X33957107Y-65380500D01*
X33802358Y-65349719D01*
X33656586Y-65289338D01*
X33656585Y-65289338D01*
X33656584Y-65289337D01*
X33525392Y-65201678D01*
X33413822Y-65090108D01*
X33326163Y-64958916D01*
X33326162Y-64958914D01*
X33265781Y-64813142D01*
X33235000Y-64658393D01*
X33235000Y-64500607D01*
X33265781Y-64345858D01*
X33326162Y-64200086D01*
X33339583Y-64180000D01*
X33413822Y-64068892D01*
X33525392Y-63957322D01*
X33656584Y-63869663D01*
X33656586Y-63869662D01*
X33802358Y-63809281D01*
X33957107Y-63778500D01*
X34114893Y-63778500D01*
X34269642Y-63809281D01*
G37*
G36*
X23986499Y-63295445D02*
G01*
X24023995Y-63306820D01*
X24058554Y-63325292D01*
X24088847Y-63350153D01*
X24113708Y-63380446D01*
X24132180Y-63415005D01*
X24143555Y-63452501D01*
X24148000Y-63497638D01*
X24148000Y-64236362D01*
X24143555Y-64281499D01*
X24132180Y-64318995D01*
X24113708Y-64353554D01*
X24088847Y-64383847D01*
X24058554Y-64408708D01*
X24023995Y-64427180D01*
X23986499Y-64438555D01*
X23941362Y-64443000D01*
X23302638Y-64443000D01*
X23257501Y-64438555D01*
X23220005Y-64427180D01*
X23185446Y-64408708D01*
X23155153Y-64383847D01*
X23130292Y-64353554D01*
X23111820Y-64318995D01*
X23100445Y-64281499D01*
X23096000Y-64236362D01*
X23096000Y-63497638D01*
X23100445Y-63452501D01*
X23111820Y-63415005D01*
X23130292Y-63380446D01*
X23155153Y-63350153D01*
X23185446Y-63325292D01*
X23220005Y-63306820D01*
X23257501Y-63295445D01*
X23302638Y-63291000D01*
X23941362Y-63291000D01*
X23986499Y-63295445D01*
G37*
G36*
X19771142Y-61956242D02*
G01*
X19919101Y-62017529D01*
X20052255Y-62106499D01*
X20165501Y-62219745D01*
X20254471Y-62352899D01*
X20315758Y-62500858D01*
X20347000Y-62657925D01*
X20347000Y-62818075D01*
X20315758Y-62975142D01*
X20254471Y-63123101D01*
X20165501Y-63256255D01*
X20052255Y-63369501D01*
X19919101Y-63458471D01*
X19771142Y-63519758D01*
X19614075Y-63551000D01*
X19453925Y-63551000D01*
X19296858Y-63519758D01*
X19148899Y-63458471D01*
X19015745Y-63369501D01*
X18902499Y-63256255D01*
X18813529Y-63123101D01*
X18752242Y-62975142D01*
X18721000Y-62818075D01*
X18721000Y-62657925D01*
X18752242Y-62500858D01*
X18813529Y-62352899D01*
X18902499Y-62219745D01*
X19015745Y-62106499D01*
X19148899Y-62017529D01*
X19296858Y-61956242D01*
X19453925Y-61925000D01*
X19614075Y-61925000D01*
X19771142Y-61956242D01*
G37*
G36*
X75932512Y-61079927D02*
G01*
X76081812Y-61109624D01*
X76245784Y-61177544D01*
X76393354Y-61276147D01*
X76518853Y-61401646D01*
X76617456Y-61549216D01*
X76685376Y-61713188D01*
X76720000Y-61887259D01*
X76720000Y-62064741D01*
X76685376Y-62238812D01*
X76617456Y-62402784D01*
X76518853Y-62550354D01*
X76393354Y-62675853D01*
X76245784Y-62774456D01*
X76081812Y-62842376D01*
X75932512Y-62872073D01*
X75907742Y-62877000D01*
X75730258Y-62877000D01*
X75705488Y-62872073D01*
X75556188Y-62842376D01*
X75392216Y-62774456D01*
X75244646Y-62675853D01*
X75119147Y-62550354D01*
X75020544Y-62402784D01*
X74952624Y-62238812D01*
X74918000Y-62064741D01*
X74918000Y-61887259D01*
X74952624Y-61713188D01*
X75020544Y-61549216D01*
X75119147Y-61401646D01*
X75244646Y-61276147D01*
X75392216Y-61177544D01*
X75556188Y-61109624D01*
X75705488Y-61079927D01*
X75730258Y-61075000D01*
X75907742Y-61075000D01*
X75932512Y-61079927D01*
G37*
G36*
X78472512Y-61079927D02*
G01*
X78621812Y-61109624D01*
X78785784Y-61177544D01*
X78933354Y-61276147D01*
X79058853Y-61401646D01*
X79157456Y-61549216D01*
X79225376Y-61713188D01*
X79260000Y-61887259D01*
X79260000Y-62064741D01*
X79225376Y-62238812D01*
X79157456Y-62402784D01*
X79058853Y-62550354D01*
X78933354Y-62675853D01*
X78785784Y-62774456D01*
X78621812Y-62842376D01*
X78472512Y-62872073D01*
X78447742Y-62877000D01*
X78270258Y-62877000D01*
X78245488Y-62872073D01*
X78096188Y-62842376D01*
X77932216Y-62774456D01*
X77784646Y-62675853D01*
X77659147Y-62550354D01*
X77560544Y-62402784D01*
X77492624Y-62238812D01*
X77458000Y-62064741D01*
X77458000Y-61887259D01*
X77492624Y-61713188D01*
X77560544Y-61549216D01*
X77659147Y-61401646D01*
X77784646Y-61276147D01*
X77932216Y-61177544D01*
X78096188Y-61109624D01*
X78245488Y-61079927D01*
X78270258Y-61075000D01*
X78447742Y-61075000D01*
X78472512Y-61079927D01*
G37*
G36*
X73392512Y-61079927D02*
G01*
X73541812Y-61109624D01*
X73705784Y-61177544D01*
X73853354Y-61276147D01*
X73978853Y-61401646D01*
X74077456Y-61549216D01*
X74145376Y-61713188D01*
X74180000Y-61887259D01*
X74180000Y-62064741D01*
X74145376Y-62238812D01*
X74077456Y-62402784D01*
X73978853Y-62550354D01*
X73853354Y-62675853D01*
X73705784Y-62774456D01*
X73541812Y-62842376D01*
X73392512Y-62872073D01*
X73367742Y-62877000D01*
X73190258Y-62877000D01*
X73165488Y-62872073D01*
X73016188Y-62842376D01*
X72852216Y-62774456D01*
X72704646Y-62675853D01*
X72579147Y-62550354D01*
X72480544Y-62402784D01*
X72412624Y-62238812D01*
X72378000Y-62064741D01*
X72378000Y-61887259D01*
X72412624Y-61713188D01*
X72480544Y-61549216D01*
X72579147Y-61401646D01*
X72704646Y-61276147D01*
X72852216Y-61177544D01*
X73016188Y-61109624D01*
X73165488Y-61079927D01*
X73190258Y-61075000D01*
X73367742Y-61075000D01*
X73392512Y-61079927D01*
G37*
G36*
X71640000Y-62877000D02*
G01*
X69838000Y-62877000D01*
X69838000Y-61075000D01*
X71640000Y-61075000D01*
X71640000Y-62877000D01*
G37*
G36*
X23986499Y-61545445D02*
G01*
X24023995Y-61556820D01*
X24058554Y-61575292D01*
X24088847Y-61600153D01*
X24113708Y-61630446D01*
X24132180Y-61665005D01*
X24143555Y-61702501D01*
X24148000Y-61747638D01*
X24148000Y-62486362D01*
X24143555Y-62531499D01*
X24132180Y-62568995D01*
X24113708Y-62603554D01*
X24088847Y-62633847D01*
X24058554Y-62658708D01*
X24023995Y-62677180D01*
X23986499Y-62688555D01*
X23941362Y-62693000D01*
X23302638Y-62693000D01*
X23257501Y-62688555D01*
X23220005Y-62677180D01*
X23185446Y-62658708D01*
X23155153Y-62633847D01*
X23130292Y-62603554D01*
X23111820Y-62568995D01*
X23100445Y-62531499D01*
X23096000Y-62486362D01*
X23096000Y-61747638D01*
X23100445Y-61702501D01*
X23111820Y-61665005D01*
X23130292Y-61630446D01*
X23155153Y-61600153D01*
X23185446Y-61575292D01*
X23220005Y-61556820D01*
X23257501Y-61545445D01*
X23302638Y-61541000D01*
X23941362Y-61541000D01*
X23986499Y-61545445D01*
G37*
G36*
X52938642Y-59989781D02*
G01*
X53084414Y-60050162D01*
X53084416Y-60050163D01*
X53215608Y-60137822D01*
X53327178Y-60249392D01*
X53346343Y-60278075D01*
X53414838Y-60380586D01*
X53475219Y-60526358D01*
X53506000Y-60681107D01*
X53506000Y-60838893D01*
X53475219Y-60993642D01*
X53468029Y-61011000D01*
X53414837Y-61139416D01*
X53327178Y-61270608D01*
X53215608Y-61382178D01*
X53084416Y-61469837D01*
X53084415Y-61469838D01*
X53084414Y-61469838D01*
X52938642Y-61530219D01*
X52783893Y-61561000D01*
X52626107Y-61561000D01*
X52471358Y-61530219D01*
X52325586Y-61469838D01*
X52325585Y-61469838D01*
X52325584Y-61469837D01*
X52194392Y-61382178D01*
X52082822Y-61270608D01*
X51995163Y-61139416D01*
X51941971Y-61011000D01*
X51934781Y-60993642D01*
X51904000Y-60838893D01*
X51904000Y-60681107D01*
X51934781Y-60526358D01*
X51995162Y-60380586D01*
X52063657Y-60278075D01*
X52082822Y-60249392D01*
X52194392Y-60137822D01*
X52325584Y-60050163D01*
X52325586Y-60050162D01*
X52471358Y-59989781D01*
X52626107Y-59959000D01*
X52783893Y-59959000D01*
X52938642Y-59989781D01*
G37*
G36*
X19771142Y-59416242D02*
G01*
X19919101Y-59477529D01*
X20052255Y-59566499D01*
X20165501Y-59679745D01*
X20254471Y-59812899D01*
X20315758Y-59960858D01*
X20347000Y-60117925D01*
X20347000Y-60278075D01*
X20315758Y-60435142D01*
X20254471Y-60583101D01*
X20165501Y-60716255D01*
X20052255Y-60829501D01*
X19919101Y-60918471D01*
X19771142Y-60979758D01*
X19614075Y-61011000D01*
X19453925Y-61011000D01*
X19296858Y-60979758D01*
X19148899Y-60918471D01*
X19015745Y-60829501D01*
X18902499Y-60716255D01*
X18813529Y-60583101D01*
X18752242Y-60435142D01*
X18721000Y-60278075D01*
X18721000Y-60117925D01*
X18752242Y-59960858D01*
X18813529Y-59812899D01*
X18902499Y-59679745D01*
X19015745Y-59566499D01*
X19148899Y-59477529D01*
X19296858Y-59416242D01*
X19453925Y-59385000D01*
X19614075Y-59385000D01*
X19771142Y-59416242D01*
G37*
G36*
X62394143Y-58815087D02*
G01*
X62550838Y-58879992D01*
X62691853Y-58974215D01*
X62811785Y-59094147D01*
X62906008Y-59235162D01*
X62970913Y-59391857D01*
X63004000Y-59558198D01*
X63004000Y-59727802D01*
X62970913Y-59894143D01*
X62906008Y-60050838D01*
X62811785Y-60191853D01*
X62691853Y-60311785D01*
X62550838Y-60406008D01*
X62394143Y-60470913D01*
X62227802Y-60504000D01*
X62058198Y-60504000D01*
X61891857Y-60470913D01*
X61735162Y-60406008D01*
X61594147Y-60311785D01*
X61474215Y-60191853D01*
X61379992Y-60050838D01*
X61315087Y-59894143D01*
X61282000Y-59727802D01*
X61282000Y-59558198D01*
X61315087Y-59391857D01*
X61379992Y-59235162D01*
X61474215Y-59094147D01*
X61594147Y-58974215D01*
X61735162Y-58879992D01*
X61891857Y-58815087D01*
X62058198Y-58782000D01*
X62227802Y-58782000D01*
X62394143Y-58815087D01*
G37*
G36*
X91107585Y-54878802D02*
G01*
X91257410Y-54908604D01*
X91539674Y-55025521D01*
X91793705Y-55195259D01*
X92009741Y-55411295D01*
X92179479Y-55665326D01*
X92296396Y-55947590D01*
X92356000Y-56247240D01*
X92356000Y-56552760D01*
X92296396Y-56852410D01*
X92179479Y-57134674D01*
X92009741Y-57388705D01*
X91793705Y-57604741D01*
X91539674Y-57774479D01*
X91257410Y-57891396D01*
X91107585Y-57921198D01*
X90957761Y-57951000D01*
X90652239Y-57951000D01*
X90502415Y-57921198D01*
X90352590Y-57891396D01*
X90070326Y-57774479D01*
X89816295Y-57604741D01*
X89600259Y-57388705D01*
X89430521Y-57134674D01*
X89313604Y-56852410D01*
X89254000Y-56552760D01*
X89254000Y-56247240D01*
X89313604Y-55947590D01*
X89430521Y-55665326D01*
X89600259Y-55411295D01*
X89816295Y-55195259D01*
X90070326Y-55025521D01*
X90352590Y-54908604D01*
X90502415Y-54878802D01*
X90652239Y-54849000D01*
X90957761Y-54849000D01*
X91107585Y-54878802D01*
G37*
G36*
X26689499Y-56628445D02*
G01*
X26726995Y-56639820D01*
X26761554Y-56658292D01*
X26791847Y-56683153D01*
X26816708Y-56713446D01*
X26835180Y-56748005D01*
X26846555Y-56785501D01*
X26851000Y-56830638D01*
X26851000Y-57469362D01*
X26846555Y-57514499D01*
X26835180Y-57551995D01*
X26816708Y-57586554D01*
X26791847Y-57616847D01*
X26761554Y-57641708D01*
X26726995Y-57660180D01*
X26689499Y-57671555D01*
X26644362Y-57676000D01*
X25905638Y-57676000D01*
X25860501Y-57671555D01*
X25823005Y-57660180D01*
X25788446Y-57641708D01*
X25758153Y-57616847D01*
X25733292Y-57586554D01*
X25714820Y-57551995D01*
X25703445Y-57514499D01*
X25699000Y-57469362D01*
X25699000Y-56830638D01*
X25703445Y-56785501D01*
X25714820Y-56748005D01*
X25733292Y-56713446D01*
X25758153Y-56683153D01*
X25788446Y-56658292D01*
X25823005Y-56639820D01*
X25860501Y-56628445D01*
X25905638Y-56624000D01*
X26644362Y-56624000D01*
X26689499Y-56628445D01*
G37*
G36*
X37066999Y-56628445D02*
G01*
X37104495Y-56639820D01*
X37139054Y-56658292D01*
X37169347Y-56683153D01*
X37194208Y-56713446D01*
X37212680Y-56748005D01*
X37224055Y-56785501D01*
X37228500Y-56830638D01*
X37228500Y-57469362D01*
X37224055Y-57514499D01*
X37212680Y-57551995D01*
X37194208Y-57586554D01*
X37169347Y-57616847D01*
X37139054Y-57641708D01*
X37104495Y-57660180D01*
X37066999Y-57671555D01*
X37021862Y-57676000D01*
X36283138Y-57676000D01*
X36238001Y-57671555D01*
X36200505Y-57660180D01*
X36165946Y-57641708D01*
X36135653Y-57616847D01*
X36110792Y-57586554D01*
X36092320Y-57551995D01*
X36080945Y-57514499D01*
X36076500Y-57469362D01*
X36076500Y-56830638D01*
X36080945Y-56785501D01*
X36092320Y-56748005D01*
X36110792Y-56713446D01*
X36135653Y-56683153D01*
X36165946Y-56658292D01*
X36200505Y-56639820D01*
X36238001Y-56628445D01*
X36283138Y-56624000D01*
X37021862Y-56624000D01*
X37066999Y-56628445D01*
G37*
G36*
X35316999Y-56628445D02*
G01*
X35354495Y-56639820D01*
X35389054Y-56658292D01*
X35419347Y-56683153D01*
X35444208Y-56713446D01*
X35462680Y-56748005D01*
X35474055Y-56785501D01*
X35478500Y-56830638D01*
X35478500Y-57469362D01*
X35474055Y-57514499D01*
X35462680Y-57551995D01*
X35444208Y-57586554D01*
X35419347Y-57616847D01*
X35389054Y-57641708D01*
X35354495Y-57660180D01*
X35316999Y-57671555D01*
X35271862Y-57676000D01*
X34533138Y-57676000D01*
X34488001Y-57671555D01*
X34450505Y-57660180D01*
X34415946Y-57641708D01*
X34385653Y-57616847D01*
X34360792Y-57586554D01*
X34342320Y-57551995D01*
X34330945Y-57514499D01*
X34326500Y-57469362D01*
X34326500Y-56830638D01*
X34330945Y-56785501D01*
X34342320Y-56748005D01*
X34360792Y-56713446D01*
X34385653Y-56683153D01*
X34415946Y-56658292D01*
X34450505Y-56639820D01*
X34488001Y-56628445D01*
X34533138Y-56624000D01*
X35271862Y-56624000D01*
X35316999Y-56628445D01*
G37*
G36*
X24939499Y-56628445D02*
G01*
X24976995Y-56639820D01*
X25011554Y-56658292D01*
X25041847Y-56683153D01*
X25066708Y-56713446D01*
X25085180Y-56748005D01*
X25096555Y-56785501D01*
X25101000Y-56830638D01*
X25101000Y-57469362D01*
X25096555Y-57514499D01*
X25085180Y-57551995D01*
X25066708Y-57586554D01*
X25041847Y-57616847D01*
X25011554Y-57641708D01*
X24976995Y-57660180D01*
X24939499Y-57671555D01*
X24894362Y-57676000D01*
X24155638Y-57676000D01*
X24110501Y-57671555D01*
X24073005Y-57660180D01*
X24038446Y-57641708D01*
X24008153Y-57616847D01*
X23983292Y-57586554D01*
X23964820Y-57551995D01*
X23953445Y-57514499D01*
X23949000Y-57469362D01*
X23949000Y-56830638D01*
X23953445Y-56785501D01*
X23964820Y-56748005D01*
X23983292Y-56713446D01*
X24008153Y-56683153D01*
X24038446Y-56658292D01*
X24073005Y-56639820D01*
X24110501Y-56628445D01*
X24155638Y-56624000D01*
X24894362Y-56624000D01*
X24939499Y-56628445D01*
G37*
G36*
X52938642Y-55109781D02*
G01*
X53084414Y-55170162D01*
X53084416Y-55170163D01*
X53215608Y-55257822D01*
X53327178Y-55369392D01*
X53355176Y-55411295D01*
X53414838Y-55500586D01*
X53475219Y-55646358D01*
X53506000Y-55801107D01*
X53506000Y-55958893D01*
X53475219Y-56113642D01*
X53414838Y-56259414D01*
X53414837Y-56259416D01*
X53327178Y-56390608D01*
X53215608Y-56502178D01*
X53084416Y-56589837D01*
X53084415Y-56589838D01*
X53084414Y-56589838D01*
X52938642Y-56650219D01*
X52783893Y-56681000D01*
X52626107Y-56681000D01*
X52471358Y-56650219D01*
X52325586Y-56589838D01*
X52325585Y-56589838D01*
X52325584Y-56589837D01*
X52194392Y-56502178D01*
X52082822Y-56390608D01*
X51995163Y-56259416D01*
X51995162Y-56259414D01*
X51934781Y-56113642D01*
X51904000Y-55958893D01*
X51904000Y-55801107D01*
X51934781Y-55646358D01*
X51995162Y-55500586D01*
X52054824Y-55411295D01*
X52082822Y-55369392D01*
X52194392Y-55257822D01*
X52325584Y-55170163D01*
X52325586Y-55170162D01*
X52471358Y-55109781D01*
X52626107Y-55079000D01*
X52783893Y-55079000D01*
X52938642Y-55109781D01*
G37*
G36*
X20205000Y-54241000D02*
G01*
X18403000Y-54241000D01*
X18403000Y-52439000D01*
X20205000Y-52439000D01*
X20205000Y-54241000D01*
G37*
G36*
X25851000Y-53571000D02*
G01*
X24949000Y-53571000D01*
X24949000Y-52569000D01*
X25851000Y-52569000D01*
X25851000Y-53571000D01*
G37*
G36*
X36011000Y-53571000D02*
G01*
X35109000Y-53571000D01*
X35109000Y-52569000D01*
X36011000Y-52569000D01*
X36011000Y-53571000D01*
G37*
G36*
X19417512Y-49903927D02*
G01*
X19566812Y-49933624D01*
X19730784Y-50001544D01*
X19878354Y-50100147D01*
X20003853Y-50225646D01*
X20102456Y-50373216D01*
X20170376Y-50537188D01*
X20205000Y-50711259D01*
X20205000Y-50888741D01*
X20170376Y-51062812D01*
X20102456Y-51226784D01*
X20003853Y-51374354D01*
X19878354Y-51499853D01*
X19730784Y-51598456D01*
X19566812Y-51666376D01*
X19417512Y-51696073D01*
X19392742Y-51701000D01*
X19215258Y-51701000D01*
X19190488Y-51696073D01*
X19041188Y-51666376D01*
X18877216Y-51598456D01*
X18729646Y-51499853D01*
X18604147Y-51374354D01*
X18505544Y-51226784D01*
X18437624Y-51062812D01*
X18403000Y-50888741D01*
X18403000Y-50711259D01*
X18437624Y-50537188D01*
X18505544Y-50373216D01*
X18604147Y-50225646D01*
X18729646Y-50100147D01*
X18877216Y-50001544D01*
X19041188Y-49933624D01*
X19190488Y-49903927D01*
X19215258Y-49899000D01*
X19392742Y-49899000D01*
X19417512Y-49903927D01*
G37*
G36*
X35061000Y-51571000D02*
G01*
X34159000Y-51571000D01*
X34159000Y-50569000D01*
X35061000Y-50569000D01*
X35061000Y-51571000D01*
G37*
G36*
X26801000Y-51571000D02*
G01*
X25899000Y-51571000D01*
X25899000Y-50569000D01*
X26801000Y-50569000D01*
X26801000Y-51571000D01*
G37*
G36*
X24901000Y-51571000D02*
G01*
X23999000Y-51571000D01*
X23999000Y-50569000D01*
X24901000Y-50569000D01*
X24901000Y-51571000D01*
G37*
G36*
X36961000Y-51571000D02*
G01*
X36059000Y-51571000D01*
X36059000Y-50569000D01*
X36961000Y-50569000D01*
X36961000Y-51571000D01*
G37*
G36*
X19417512Y-47363927D02*
G01*
X19566812Y-47393624D01*
X19730784Y-47461544D01*
X19878354Y-47560147D01*
X20003853Y-47685646D01*
X20102456Y-47833216D01*
X20170376Y-47997188D01*
X20205000Y-48171259D01*
X20205000Y-48348741D01*
X20170376Y-48522812D01*
X20102456Y-48686784D01*
X20003853Y-48834354D01*
X19878354Y-48959853D01*
X19730784Y-49058456D01*
X19566812Y-49126376D01*
X19417512Y-49156073D01*
X19392742Y-49161000D01*
X19215258Y-49161000D01*
X19190488Y-49156073D01*
X19041188Y-49126376D01*
X18877216Y-49058456D01*
X18729646Y-48959853D01*
X18604147Y-48834354D01*
X18505544Y-48686784D01*
X18437624Y-48522812D01*
X18403000Y-48348741D01*
X18403000Y-48171259D01*
X18437624Y-47997188D01*
X18505544Y-47833216D01*
X18604147Y-47685646D01*
X18729646Y-47560147D01*
X18877216Y-47461544D01*
X19041188Y-47393624D01*
X19190488Y-47363927D01*
X19215258Y-47359000D01*
X19392742Y-47359000D01*
X19417512Y-47363927D01*
G37*
G36*
X24721999Y-47738445D02*
G01*
X24759495Y-47749820D01*
X24794054Y-47768292D01*
X24824347Y-47793153D01*
X24849208Y-47823446D01*
X24867680Y-47858005D01*
X24879055Y-47895501D01*
X24883500Y-47940638D01*
X24883500Y-48579362D01*
X24879055Y-48624499D01*
X24867680Y-48661995D01*
X24849208Y-48696554D01*
X24824347Y-48726847D01*
X24794054Y-48751708D01*
X24759495Y-48770180D01*
X24721999Y-48781555D01*
X24676862Y-48786000D01*
X23938138Y-48786000D01*
X23893001Y-48781555D01*
X23855505Y-48770180D01*
X23820946Y-48751708D01*
X23790653Y-48726847D01*
X23765792Y-48696554D01*
X23747320Y-48661995D01*
X23735945Y-48624499D01*
X23731500Y-48579362D01*
X23731500Y-47940638D01*
X23735945Y-47895501D01*
X23747320Y-47858005D01*
X23765792Y-47823446D01*
X23790653Y-47793153D01*
X23820946Y-47768292D01*
X23855505Y-47749820D01*
X23893001Y-47738445D01*
X23938138Y-47734000D01*
X24676862Y-47734000D01*
X24721999Y-47738445D01*
G37*
G36*
X61515499Y-47738445D02*
G01*
X61552995Y-47749820D01*
X61587554Y-47768292D01*
X61617847Y-47793153D01*
X61642708Y-47823446D01*
X61661180Y-47858005D01*
X61672555Y-47895501D01*
X61677000Y-47940638D01*
X61677000Y-48579362D01*
X61672555Y-48624499D01*
X61661180Y-48661995D01*
X61642708Y-48696554D01*
X61617847Y-48726847D01*
X61587554Y-48751708D01*
X61552995Y-48770180D01*
X61515499Y-48781555D01*
X61470362Y-48786000D01*
X60731638Y-48786000D01*
X60686501Y-48781555D01*
X60649005Y-48770180D01*
X60614446Y-48751708D01*
X60584153Y-48726847D01*
X60559292Y-48696554D01*
X60540820Y-48661995D01*
X60529445Y-48624499D01*
X60525000Y-48579362D01*
X60525000Y-47940638D01*
X60529445Y-47895501D01*
X60540820Y-47858005D01*
X60559292Y-47823446D01*
X60584153Y-47793153D01*
X60614446Y-47768292D01*
X60649005Y-47749820D01*
X60686501Y-47738445D01*
X60731638Y-47734000D01*
X61470362Y-47734000D01*
X61515499Y-47738445D01*
G37*
G36*
X26471999Y-47738445D02*
G01*
X26509495Y-47749820D01*
X26544054Y-47768292D01*
X26574347Y-47793153D01*
X26599208Y-47823446D01*
X26617680Y-47858005D01*
X26629055Y-47895501D01*
X26633500Y-47940638D01*
X26633500Y-48579362D01*
X26629055Y-48624499D01*
X26617680Y-48661995D01*
X26599208Y-48696554D01*
X26574347Y-48726847D01*
X26544054Y-48751708D01*
X26509495Y-48770180D01*
X26471999Y-48781555D01*
X26426862Y-48786000D01*
X25688138Y-48786000D01*
X25643001Y-48781555D01*
X25605505Y-48770180D01*
X25570946Y-48751708D01*
X25540653Y-48726847D01*
X25515792Y-48696554D01*
X25497320Y-48661995D01*
X25485945Y-48624499D01*
X25481500Y-48579362D01*
X25481500Y-47940638D01*
X25485945Y-47895501D01*
X25497320Y-47858005D01*
X25515792Y-47823446D01*
X25540653Y-47793153D01*
X25570946Y-47768292D01*
X25605505Y-47749820D01*
X25643001Y-47738445D01*
X25688138Y-47734000D01*
X26426862Y-47734000D01*
X26471999Y-47738445D01*
G37*
G36*
X35099499Y-47738445D02*
G01*
X35136995Y-47749820D01*
X35171554Y-47768292D01*
X35201847Y-47793153D01*
X35226708Y-47823446D01*
X35245180Y-47858005D01*
X35256555Y-47895501D01*
X35261000Y-47940638D01*
X35261000Y-48579362D01*
X35256555Y-48624499D01*
X35245180Y-48661995D01*
X35226708Y-48696554D01*
X35201847Y-48726847D01*
X35171554Y-48751708D01*
X35136995Y-48770180D01*
X35099499Y-48781555D01*
X35054362Y-48786000D01*
X34315638Y-48786000D01*
X34270501Y-48781555D01*
X34233005Y-48770180D01*
X34198446Y-48751708D01*
X34168153Y-48726847D01*
X34143292Y-48696554D01*
X34124820Y-48661995D01*
X34113445Y-48624499D01*
X34109000Y-48579362D01*
X34109000Y-47940638D01*
X34113445Y-47895501D01*
X34124820Y-47858005D01*
X34143292Y-47823446D01*
X34168153Y-47793153D01*
X34198446Y-47768292D01*
X34233005Y-47749820D01*
X34270501Y-47738445D01*
X34315638Y-47734000D01*
X35054362Y-47734000D01*
X35099499Y-47738445D01*
G37*
G36*
X36849499Y-47738445D02*
G01*
X36886995Y-47749820D01*
X36921554Y-47768292D01*
X36951847Y-47793153D01*
X36976708Y-47823446D01*
X36995180Y-47858005D01*
X37006555Y-47895501D01*
X37011000Y-47940638D01*
X37011000Y-48579362D01*
X37006555Y-48624499D01*
X36995180Y-48661995D01*
X36976708Y-48696554D01*
X36951847Y-48726847D01*
X36921554Y-48751708D01*
X36886995Y-48770180D01*
X36849499Y-48781555D01*
X36804362Y-48786000D01*
X36065638Y-48786000D01*
X36020501Y-48781555D01*
X35983005Y-48770180D01*
X35948446Y-48751708D01*
X35918153Y-48726847D01*
X35893292Y-48696554D01*
X35874820Y-48661995D01*
X35863445Y-48624499D01*
X35859000Y-48579362D01*
X35859000Y-47940638D01*
X35863445Y-47895501D01*
X35874820Y-47858005D01*
X35893292Y-47823446D01*
X35918153Y-47793153D01*
X35948446Y-47768292D01*
X35983005Y-47749820D01*
X36020501Y-47738445D01*
X36065638Y-47734000D01*
X36804362Y-47734000D01*
X36849499Y-47738445D01*
G37*
G36*
X63265499Y-47738445D02*
G01*
X63302995Y-47749820D01*
X63337554Y-47768292D01*
X63367847Y-47793153D01*
X63392708Y-47823446D01*
X63411180Y-47858005D01*
X63422555Y-47895501D01*
X63427000Y-47940638D01*
X63427000Y-48579362D01*
X63422555Y-48624499D01*
X63411180Y-48661995D01*
X63392708Y-48696554D01*
X63367847Y-48726847D01*
X63337554Y-48751708D01*
X63302995Y-48770180D01*
X63265499Y-48781555D01*
X63220362Y-48786000D01*
X62481638Y-48786000D01*
X62436501Y-48781555D01*
X62399005Y-48770180D01*
X62364446Y-48751708D01*
X62334153Y-48726847D01*
X62309292Y-48696554D01*
X62290820Y-48661995D01*
X62279445Y-48624499D01*
X62275000Y-48579362D01*
X62275000Y-47940638D01*
X62279445Y-47895501D01*
X62290820Y-47858005D01*
X62309292Y-47823446D01*
X62334153Y-47793153D01*
X62364446Y-47768292D01*
X62399005Y-47749820D01*
X62436501Y-47738445D01*
X62481638Y-47734000D01*
X63220362Y-47734000D01*
X63265499Y-47738445D01*
G37*
G36*
X19417512Y-44823927D02*
G01*
X19566812Y-44853624D01*
X19730784Y-44921544D01*
X19878354Y-45020147D01*
X20003853Y-45145646D01*
X20102456Y-45293216D01*
X20170376Y-45457188D01*
X20205000Y-45631259D01*
X20205000Y-45808741D01*
X20170376Y-45982812D01*
X20102456Y-46146784D01*
X20003853Y-46294354D01*
X19878354Y-46419853D01*
X19730784Y-46518456D01*
X19566812Y-46586376D01*
X19417512Y-46616073D01*
X19392742Y-46621000D01*
X19215258Y-46621000D01*
X19190488Y-46616073D01*
X19041188Y-46586376D01*
X18877216Y-46518456D01*
X18729646Y-46419853D01*
X18604147Y-46294354D01*
X18505544Y-46146784D01*
X18437624Y-45982812D01*
X18403000Y-45808741D01*
X18403000Y-45631259D01*
X18437624Y-45457188D01*
X18505544Y-45293216D01*
X18604147Y-45145646D01*
X18729646Y-45020147D01*
X18877216Y-44921544D01*
X19041188Y-44853624D01*
X19190488Y-44823927D01*
X19215258Y-44819000D01*
X19392742Y-44819000D01*
X19417512Y-44823927D01*
G37*
G36*
X34403512Y-42283927D02*
G01*
X34552812Y-42313624D01*
X34716784Y-42381544D01*
X34864354Y-42480147D01*
X34989853Y-42605646D01*
X35088456Y-42753216D01*
X35156376Y-42917188D01*
X35191000Y-43091259D01*
X35191000Y-43268741D01*
X35156376Y-43442812D01*
X35088456Y-43606784D01*
X34989853Y-43754354D01*
X34864354Y-43879853D01*
X34716784Y-43978456D01*
X34552812Y-44046376D01*
X34403512Y-44076073D01*
X34378742Y-44081000D01*
X34201258Y-44081000D01*
X34176488Y-44076073D01*
X34027188Y-44046376D01*
X33863216Y-43978456D01*
X33715646Y-43879853D01*
X33590147Y-43754354D01*
X33491544Y-43606784D01*
X33423624Y-43442812D01*
X33389000Y-43268741D01*
X33389000Y-43091259D01*
X33423624Y-42917188D01*
X33491544Y-42753216D01*
X33590147Y-42605646D01*
X33715646Y-42480147D01*
X33863216Y-42381544D01*
X34027188Y-42313624D01*
X34176488Y-42283927D01*
X34201258Y-42279000D01*
X34378742Y-42279000D01*
X34403512Y-42283927D01*
G37*
G36*
X27571000Y-44081000D02*
G01*
X25769000Y-44081000D01*
X25769000Y-42279000D01*
X27571000Y-42279000D01*
X27571000Y-44081000D01*
G37*
G36*
X31863512Y-42283927D02*
G01*
X32012812Y-42313624D01*
X32176784Y-42381544D01*
X32324354Y-42480147D01*
X32449853Y-42605646D01*
X32548456Y-42753216D01*
X32616376Y-42917188D01*
X32651000Y-43091259D01*
X32651000Y-43268741D01*
X32616376Y-43442812D01*
X32548456Y-43606784D01*
X32449853Y-43754354D01*
X32324354Y-43879853D01*
X32176784Y-43978456D01*
X32012812Y-44046376D01*
X31863512Y-44076073D01*
X31838742Y-44081000D01*
X31661258Y-44081000D01*
X31636488Y-44076073D01*
X31487188Y-44046376D01*
X31323216Y-43978456D01*
X31175646Y-43879853D01*
X31050147Y-43754354D01*
X30951544Y-43606784D01*
X30883624Y-43442812D01*
X30849000Y-43268741D01*
X30849000Y-43091259D01*
X30883624Y-42917188D01*
X30951544Y-42753216D01*
X31050147Y-42605646D01*
X31175646Y-42480147D01*
X31323216Y-42381544D01*
X31487188Y-42313624D01*
X31636488Y-42283927D01*
X31661258Y-42279000D01*
X31838742Y-42279000D01*
X31863512Y-42283927D01*
G37*
G36*
X29323512Y-42283927D02*
G01*
X29472812Y-42313624D01*
X29636784Y-42381544D01*
X29784354Y-42480147D01*
X29909853Y-42605646D01*
X30008456Y-42753216D01*
X30076376Y-42917188D01*
X30111000Y-43091259D01*
X30111000Y-43268741D01*
X30076376Y-43442812D01*
X30008456Y-43606784D01*
X29909853Y-43754354D01*
X29784354Y-43879853D01*
X29636784Y-43978456D01*
X29472812Y-44046376D01*
X29323512Y-44076073D01*
X29298742Y-44081000D01*
X29121258Y-44081000D01*
X29096488Y-44076073D01*
X28947188Y-44046376D01*
X28783216Y-43978456D01*
X28635646Y-43879853D01*
X28510147Y-43754354D01*
X28411544Y-43606784D01*
X28343624Y-43442812D01*
X28309000Y-43268741D01*
X28309000Y-43091259D01*
X28343624Y-42917188D01*
X28411544Y-42753216D01*
X28510147Y-42605646D01*
X28635646Y-42480147D01*
X28783216Y-42381544D01*
X28947188Y-42313624D01*
X29096488Y-42283927D01*
X29121258Y-42279000D01*
X29298742Y-42279000D01*
X29323512Y-42283927D01*
G37*
G36*
X26783512Y-39743927D02*
G01*
X26932812Y-39773624D01*
X27096784Y-39841544D01*
X27244354Y-39940147D01*
X27369853Y-40065646D01*
X27468456Y-40213216D01*
X27536376Y-40377188D01*
X27571000Y-40551259D01*
X27571000Y-40728741D01*
X27536376Y-40902812D01*
X27468456Y-41066784D01*
X27369853Y-41214354D01*
X27244354Y-41339853D01*
X27096784Y-41438456D01*
X26932812Y-41506376D01*
X26783512Y-41536073D01*
X26758742Y-41541000D01*
X26581258Y-41541000D01*
X26556488Y-41536073D01*
X26407188Y-41506376D01*
X26243216Y-41438456D01*
X26095646Y-41339853D01*
X25970147Y-41214354D01*
X25871544Y-41066784D01*
X25803624Y-40902812D01*
X25769000Y-40728741D01*
X25769000Y-40551259D01*
X25803624Y-40377188D01*
X25871544Y-40213216D01*
X25970147Y-40065646D01*
X26095646Y-39940147D01*
X26243216Y-39841544D01*
X26407188Y-39773624D01*
X26556488Y-39743927D01*
X26581258Y-39739000D01*
X26758742Y-39739000D01*
X26783512Y-39743927D01*
G37*
G36*
X34403512Y-39743927D02*
G01*
X34552812Y-39773624D01*
X34716784Y-39841544D01*
X34864354Y-39940147D01*
X34989853Y-40065646D01*
X35088456Y-40213216D01*
X35156376Y-40377188D01*
X35191000Y-40551259D01*
X35191000Y-40728741D01*
X35156376Y-40902812D01*
X35088456Y-41066784D01*
X34989853Y-41214354D01*
X34864354Y-41339853D01*
X34716784Y-41438456D01*
X34552812Y-41506376D01*
X34403512Y-41536073D01*
X34378742Y-41541000D01*
X34201258Y-41541000D01*
X34176488Y-41536073D01*
X34027188Y-41506376D01*
X33863216Y-41438456D01*
X33715646Y-41339853D01*
X33590147Y-41214354D01*
X33491544Y-41066784D01*
X33423624Y-40902812D01*
X33389000Y-40728741D01*
X33389000Y-40551259D01*
X33423624Y-40377188D01*
X33491544Y-40213216D01*
X33590147Y-40065646D01*
X33715646Y-39940147D01*
X33863216Y-39841544D01*
X34027188Y-39773624D01*
X34176488Y-39743927D01*
X34201258Y-39739000D01*
X34378742Y-39739000D01*
X34403512Y-39743927D01*
G37*
G36*
X31863512Y-39743927D02*
G01*
X32012812Y-39773624D01*
X32176784Y-39841544D01*
X32324354Y-39940147D01*
X32449853Y-40065646D01*
X32548456Y-40213216D01*
X32616376Y-40377188D01*
X32651000Y-40551259D01*
X32651000Y-40728741D01*
X32616376Y-40902812D01*
X32548456Y-41066784D01*
X32449853Y-41214354D01*
X32324354Y-41339853D01*
X32176784Y-41438456D01*
X32012812Y-41506376D01*
X31863512Y-41536073D01*
X31838742Y-41541000D01*
X31661258Y-41541000D01*
X31636488Y-41536073D01*
X31487188Y-41506376D01*
X31323216Y-41438456D01*
X31175646Y-41339853D01*
X31050147Y-41214354D01*
X30951544Y-41066784D01*
X30883624Y-40902812D01*
X30849000Y-40728741D01*
X30849000Y-40551259D01*
X30883624Y-40377188D01*
X30951544Y-40213216D01*
X31050147Y-40065646D01*
X31175646Y-39940147D01*
X31323216Y-39841544D01*
X31487188Y-39773624D01*
X31636488Y-39743927D01*
X31661258Y-39739000D01*
X31838742Y-39739000D01*
X31863512Y-39743927D01*
G37*
G36*
X29323512Y-39743927D02*
G01*
X29472812Y-39773624D01*
X29636784Y-39841544D01*
X29784354Y-39940147D01*
X29909853Y-40065646D01*
X30008456Y-40213216D01*
X30076376Y-40377188D01*
X30111000Y-40551259D01*
X30111000Y-40728741D01*
X30076376Y-40902812D01*
X30008456Y-41066784D01*
X29909853Y-41214354D01*
X29784354Y-41339853D01*
X29636784Y-41438456D01*
X29472812Y-41506376D01*
X29323512Y-41536073D01*
X29298742Y-41541000D01*
X29121258Y-41541000D01*
X29096488Y-41536073D01*
X28947188Y-41506376D01*
X28783216Y-41438456D01*
X28635646Y-41339853D01*
X28510147Y-41214354D01*
X28411544Y-41066784D01*
X28343624Y-40902812D01*
X28309000Y-40728741D01*
X28309000Y-40551259D01*
X28343624Y-40377188D01*
X28411544Y-40213216D01*
X28510147Y-40065646D01*
X28635646Y-39940147D01*
X28783216Y-39841544D01*
X28947188Y-39773624D01*
X29096488Y-39743927D01*
X29121258Y-39739000D01*
X29298742Y-39739000D01*
X29323512Y-39743927D01*
G37*
G36*
X92356000Y-37461000D02*
G01*
X89254000Y-37461000D01*
X89254000Y-34359000D01*
X92356000Y-34359000D01*
X92356000Y-37461000D01*
G37*
G36*
X68309499Y-35863445D02*
G01*
X68346995Y-35874820D01*
X68381554Y-35893292D01*
X68411847Y-35918153D01*
X68436708Y-35948446D01*
X68455180Y-35983005D01*
X68466555Y-36020501D01*
X68471000Y-36065638D01*
X68471000Y-36804362D01*
X68466555Y-36849499D01*
X68455180Y-36886995D01*
X68436708Y-36921554D01*
X68411847Y-36951847D01*
X68381554Y-36976708D01*
X68346995Y-36995180D01*
X68309499Y-37006555D01*
X68264362Y-37011000D01*
X67625638Y-37011000D01*
X67580501Y-37006555D01*
X67543005Y-36995180D01*
X67508446Y-36976708D01*
X67478153Y-36951847D01*
X67453292Y-36921554D01*
X67434820Y-36886995D01*
X67423445Y-36849499D01*
X67419000Y-36804362D01*
X67419000Y-36065638D01*
X67423445Y-36020501D01*
X67434820Y-35983005D01*
X67453292Y-35948446D01*
X67478153Y-35918153D01*
X67508446Y-35893292D01*
X67543005Y-35874820D01*
X67580501Y-35863445D01*
X67625638Y-35859000D01*
X68264362Y-35859000D01*
X68309499Y-35863445D01*
G37*
G36*
X55405721Y-35660174D02*
G01*
X55505995Y-35701709D01*
X55550812Y-35731655D01*
X55596242Y-35762010D01*
X55672990Y-35838758D01*
X55693915Y-35870075D01*
X55733291Y-35929005D01*
X55774826Y-36029279D01*
X55796000Y-36135730D01*
X55796000Y-36244270D01*
X55774826Y-36350721D01*
X55733291Y-36450995D01*
X55733290Y-36450996D01*
X55672990Y-36541242D01*
X55596242Y-36617990D01*
X55550812Y-36648345D01*
X55505995Y-36678291D01*
X55405721Y-36719826D01*
X55299270Y-36741000D01*
X55190730Y-36741000D01*
X55084279Y-36719826D01*
X54984005Y-36678291D01*
X54939188Y-36648345D01*
X54893758Y-36617990D01*
X54817010Y-36541242D01*
X54756710Y-36450996D01*
X54756709Y-36450995D01*
X54715174Y-36350721D01*
X54694000Y-36244270D01*
X54694000Y-36135730D01*
X54715174Y-36029279D01*
X54756709Y-35929005D01*
X54796085Y-35870075D01*
X54817010Y-35838758D01*
X54893758Y-35762010D01*
X54939188Y-35731655D01*
X54984005Y-35701709D01*
X55084279Y-35660174D01*
X55190730Y-35639000D01*
X55299270Y-35639000D01*
X55405721Y-35660174D01*
G37*
G36*
X30463142Y-35008242D02*
G01*
X30611101Y-35069529D01*
X30744255Y-35158499D01*
X30857501Y-35271745D01*
X30946471Y-35404899D01*
X31007758Y-35552858D01*
X31039000Y-35709925D01*
X31039000Y-35870075D01*
X31007758Y-36027142D01*
X30946471Y-36175101D01*
X30857501Y-36308255D01*
X30744255Y-36421501D01*
X30611101Y-36510471D01*
X30463142Y-36571758D01*
X30306075Y-36603000D01*
X30145925Y-36603000D01*
X29988858Y-36571758D01*
X29840899Y-36510471D01*
X29707745Y-36421501D01*
X29594499Y-36308255D01*
X29505529Y-36175101D01*
X29444242Y-36027142D01*
X29413000Y-35870075D01*
X29413000Y-35709925D01*
X29444242Y-35552858D01*
X29505529Y-35404899D01*
X29594499Y-35271745D01*
X29707745Y-35158499D01*
X29840899Y-35069529D01*
X29988858Y-35008242D01*
X30145925Y-34977000D01*
X30306075Y-34977000D01*
X30463142Y-35008242D01*
G37*
G36*
X27923142Y-35008242D02*
G01*
X28071101Y-35069529D01*
X28204255Y-35158499D01*
X28317501Y-35271745D01*
X28406471Y-35404899D01*
X28467758Y-35552858D01*
X28499000Y-35709925D01*
X28499000Y-35870075D01*
X28467758Y-36027142D01*
X28406471Y-36175101D01*
X28317501Y-36308255D01*
X28204255Y-36421501D01*
X28071101Y-36510471D01*
X27923142Y-36571758D01*
X27766075Y-36603000D01*
X27605925Y-36603000D01*
X27448858Y-36571758D01*
X27300899Y-36510471D01*
X27167745Y-36421501D01*
X27054499Y-36308255D01*
X26965529Y-36175101D01*
X26904242Y-36027142D01*
X26873000Y-35870075D01*
X26873000Y-35709925D01*
X26904242Y-35552858D01*
X26965529Y-35404899D01*
X27054499Y-35271745D01*
X27167745Y-35158499D01*
X27300899Y-35069529D01*
X27448858Y-35008242D01*
X27605925Y-34977000D01*
X27766075Y-34977000D01*
X27923142Y-35008242D01*
G37*
G36*
X33003142Y-35008242D02*
G01*
X33151101Y-35069529D01*
X33284255Y-35158499D01*
X33397501Y-35271745D01*
X33486471Y-35404899D01*
X33547758Y-35552858D01*
X33579000Y-35709925D01*
X33579000Y-35870075D01*
X33547758Y-36027142D01*
X33486471Y-36175101D01*
X33397501Y-36308255D01*
X33284255Y-36421501D01*
X33151101Y-36510471D01*
X33003142Y-36571758D01*
X32846075Y-36603000D01*
X32685925Y-36603000D01*
X32528858Y-36571758D01*
X32380899Y-36510471D01*
X32247745Y-36421501D01*
X32134499Y-36308255D01*
X32045529Y-36175101D01*
X31984242Y-36027142D01*
X31953000Y-35870075D01*
X31953000Y-35709925D01*
X31984242Y-35552858D01*
X32045529Y-35404899D01*
X32134499Y-35271745D01*
X32247745Y-35158499D01*
X32380899Y-35069529D01*
X32528858Y-35008242D01*
X32685925Y-34977000D01*
X32846075Y-34977000D01*
X33003142Y-35008242D01*
G37*
G36*
X76945142Y-34500242D02*
G01*
X77093101Y-34561529D01*
X77226255Y-34650499D01*
X77339501Y-34763745D01*
X77428471Y-34896899D01*
X77489758Y-35044858D01*
X77521000Y-35201925D01*
X77521000Y-35362075D01*
X77489758Y-35519142D01*
X77428471Y-35667101D01*
X77339501Y-35800255D01*
X77226255Y-35913501D01*
X77093101Y-36002471D01*
X76945142Y-36063758D01*
X76788075Y-36095000D01*
X76627925Y-36095000D01*
X76470858Y-36063758D01*
X76322899Y-36002471D01*
X76189745Y-35913501D01*
X76076499Y-35800255D01*
X75987529Y-35667101D01*
X75926242Y-35519142D01*
X75895000Y-35362075D01*
X75895000Y-35201925D01*
X75926242Y-35044858D01*
X75987529Y-34896899D01*
X76076499Y-34763745D01*
X76189745Y-34650499D01*
X76322899Y-34561529D01*
X76470858Y-34500242D01*
X76627925Y-34469000D01*
X76788075Y-34469000D01*
X76945142Y-34500242D01*
G37*
G36*
X79485142Y-34500242D02*
G01*
X79633101Y-34561529D01*
X79766255Y-34650499D01*
X79879501Y-34763745D01*
X79968471Y-34896899D01*
X80029758Y-35044858D01*
X80061000Y-35201925D01*
X80061000Y-35362075D01*
X80029758Y-35519142D01*
X79968471Y-35667101D01*
X79879501Y-35800255D01*
X79766255Y-35913501D01*
X79633101Y-36002471D01*
X79485142Y-36063758D01*
X79328075Y-36095000D01*
X79167925Y-36095000D01*
X79010858Y-36063758D01*
X78862899Y-36002471D01*
X78729745Y-35913501D01*
X78616499Y-35800255D01*
X78527529Y-35667101D01*
X78466242Y-35519142D01*
X78435000Y-35362075D01*
X78435000Y-35201925D01*
X78466242Y-35044858D01*
X78527529Y-34896899D01*
X78616499Y-34763745D01*
X78729745Y-34650499D01*
X78862899Y-34561529D01*
X79010858Y-34500242D01*
X79167925Y-34469000D01*
X79328075Y-34469000D01*
X79485142Y-34500242D01*
G37*
G36*
X82025142Y-34500242D02*
G01*
X82173101Y-34561529D01*
X82306255Y-34650499D01*
X82419501Y-34763745D01*
X82508471Y-34896899D01*
X82569758Y-35044858D01*
X82601000Y-35201925D01*
X82601000Y-35362075D01*
X82569758Y-35519142D01*
X82508471Y-35667101D01*
X82419501Y-35800255D01*
X82306255Y-35913501D01*
X82173101Y-36002471D01*
X82025142Y-36063758D01*
X81868075Y-36095000D01*
X81707925Y-36095000D01*
X81550858Y-36063758D01*
X81402899Y-36002471D01*
X81269745Y-35913501D01*
X81156499Y-35800255D01*
X81067529Y-35667101D01*
X81006242Y-35519142D01*
X80975000Y-35362075D01*
X80975000Y-35201925D01*
X81006242Y-35044858D01*
X81067529Y-34896899D01*
X81156499Y-34763745D01*
X81269745Y-34650499D01*
X81402899Y-34561529D01*
X81550858Y-34500242D01*
X81707925Y-34469000D01*
X81868075Y-34469000D01*
X82025142Y-34500242D01*
G37*
G36*
X68309499Y-34113445D02*
G01*
X68346995Y-34124820D01*
X68381554Y-34143292D01*
X68411847Y-34168153D01*
X68436708Y-34198446D01*
X68455180Y-34233005D01*
X68466555Y-34270501D01*
X68471000Y-34315638D01*
X68471000Y-35054362D01*
X68466555Y-35099499D01*
X68455180Y-35136995D01*
X68436708Y-35171554D01*
X68411847Y-35201847D01*
X68381554Y-35226708D01*
X68346995Y-35245180D01*
X68309499Y-35256555D01*
X68264362Y-35261000D01*
X67625638Y-35261000D01*
X67580501Y-35256555D01*
X67543005Y-35245180D01*
X67508446Y-35226708D01*
X67478153Y-35201847D01*
X67453292Y-35171554D01*
X67434820Y-35136995D01*
X67423445Y-35099499D01*
X67419000Y-35054362D01*
X67419000Y-34315638D01*
X67423445Y-34270501D01*
X67434820Y-34233005D01*
X67453292Y-34198446D01*
X67478153Y-34168153D01*
X67508446Y-34143292D01*
X67543005Y-34124820D01*
X67580501Y-34113445D01*
X67625638Y-34109000D01*
X68264362Y-34109000D01*
X68309499Y-34113445D01*
G37*
G36*
X55405721Y-33760174D02*
G01*
X55505995Y-33801709D01*
X55505996Y-33801710D01*
X55596242Y-33862010D01*
X55672990Y-33938758D01*
X55672991Y-33938760D01*
X55733291Y-34029005D01*
X55774826Y-34129279D01*
X55796000Y-34235730D01*
X55796000Y-34344270D01*
X55774826Y-34450721D01*
X55733291Y-34550995D01*
X55733290Y-34550996D01*
X55672990Y-34641242D01*
X55596242Y-34717990D01*
X55550812Y-34748345D01*
X55505995Y-34778291D01*
X55405721Y-34819826D01*
X55299270Y-34841000D01*
X55190730Y-34841000D01*
X55084279Y-34819826D01*
X54984005Y-34778291D01*
X54939188Y-34748345D01*
X54893758Y-34717990D01*
X54817010Y-34641242D01*
X54756710Y-34550996D01*
X54756709Y-34550995D01*
X54715174Y-34450721D01*
X54694000Y-34344270D01*
X54694000Y-34235730D01*
X54715174Y-34129279D01*
X54756709Y-34029005D01*
X54817009Y-33938760D01*
X54817010Y-33938758D01*
X54893758Y-33862010D01*
X54984004Y-33801710D01*
X54984005Y-33801709D01*
X55084279Y-33760174D01*
X55190730Y-33739000D01*
X55299270Y-33739000D01*
X55405721Y-33760174D01*
G37*
G36*
X18794487Y-29783996D02*
G01*
X19031253Y-29882068D01*
X19031255Y-29882069D01*
X19244339Y-30024447D01*
X19425553Y-30205661D01*
X19567932Y-30418747D01*
X19666004Y-30655513D01*
X19716000Y-30906861D01*
X19716000Y-31163139D01*
X19666004Y-31414487D01*
X19567932Y-31651253D01*
X19567931Y-31651255D01*
X19425553Y-31864339D01*
X19244339Y-32045553D01*
X19031255Y-32187931D01*
X19031254Y-32187932D01*
X19031253Y-32187932D01*
X18794487Y-32286004D01*
X18543139Y-32336000D01*
X18286861Y-32336000D01*
X18035513Y-32286004D01*
X17798747Y-32187932D01*
X17798746Y-32187932D01*
X17798745Y-32187931D01*
X17585661Y-32045553D01*
X17404447Y-31864339D01*
X17262069Y-31651255D01*
X17262068Y-31651253D01*
X17163996Y-31414487D01*
X17114000Y-31163139D01*
X17114000Y-30906861D01*
X17163996Y-30655513D01*
X17262068Y-30418747D01*
X17404447Y-30205661D01*
X17585661Y-30024447D01*
X17798745Y-29882069D01*
X17798747Y-29882068D01*
X18035513Y-29783996D01*
X18286861Y-29734000D01*
X18543139Y-29734000D01*
X18794487Y-29783996D01*
G37*
G36*
X36062228Y-27375703D02*
G01*
X36217100Y-27439853D01*
X36356481Y-27532985D01*
X36475015Y-27651519D01*
X36568147Y-27790900D01*
X36632297Y-27945772D01*
X36665000Y-28110184D01*
X36665000Y-28277816D01*
X36632297Y-28442228D01*
X36568147Y-28597100D01*
X36475015Y-28736481D01*
X36356481Y-28855015D01*
X36217100Y-28948147D01*
X36062228Y-29012297D01*
X35897816Y-29045000D01*
X35730184Y-29045000D01*
X35565772Y-29012297D01*
X35410900Y-28948147D01*
X35271519Y-28855015D01*
X35152985Y-28736481D01*
X35059853Y-28597100D01*
X34995703Y-28442228D01*
X34963000Y-28277816D01*
X34963000Y-28110184D01*
X34995703Y-27945772D01*
X35059853Y-27790900D01*
X35152985Y-27651519D01*
X35271519Y-27532985D01*
X35410900Y-27439853D01*
X35565772Y-27375703D01*
X35730184Y-27343000D01*
X35897816Y-27343000D01*
X36062228Y-27375703D01*
G37*
G36*
X28442228Y-27375703D02*
G01*
X28597100Y-27439853D01*
X28736481Y-27532985D01*
X28855015Y-27651519D01*
X28948147Y-27790900D01*
X29012297Y-27945772D01*
X29045000Y-28110184D01*
X29045000Y-28277816D01*
X29012297Y-28442228D01*
X28948147Y-28597100D01*
X28855015Y-28736481D01*
X28736481Y-28855015D01*
X28597100Y-28948147D01*
X28442228Y-29012297D01*
X28277816Y-29045000D01*
X28110184Y-29045000D01*
X27945772Y-29012297D01*
X27790900Y-28948147D01*
X27651519Y-28855015D01*
X27532985Y-28736481D01*
X27439853Y-28597100D01*
X27375703Y-28442228D01*
X27343000Y-28277816D01*
X27343000Y-28110184D01*
X27375703Y-27945772D01*
X27439853Y-27790900D01*
X27532985Y-27651519D01*
X27651519Y-27532985D01*
X27790900Y-27439853D01*
X27945772Y-27375703D01*
X28110184Y-27343000D01*
X28277816Y-27343000D01*
X28442228Y-27375703D01*
G37*
G36*
X45264564Y-26929389D02*
G01*
X45455833Y-27008615D01*
X45455835Y-27008616D01*
X45627973Y-27123635D01*
X45774365Y-27270027D01*
X45887839Y-27439852D01*
X45889385Y-27442167D01*
X45968611Y-27633436D01*
X46009000Y-27836484D01*
X46009000Y-28043516D01*
X45968611Y-28246564D01*
X45921964Y-28359180D01*
X45889384Y-28437835D01*
X45774365Y-28609973D01*
X45627973Y-28756365D01*
X45455835Y-28871384D01*
X45455834Y-28871385D01*
X45455833Y-28871385D01*
X45264564Y-28950611D01*
X45061516Y-28991000D01*
X44854484Y-28991000D01*
X44651436Y-28950611D01*
X44460167Y-28871385D01*
X44460166Y-28871385D01*
X44460165Y-28871384D01*
X44288027Y-28756365D01*
X44141635Y-28609973D01*
X44026616Y-28437835D01*
X43994036Y-28359180D01*
X43947389Y-28246564D01*
X43907000Y-28043516D01*
X43907000Y-27836484D01*
X43947389Y-27633436D01*
X44026615Y-27442167D01*
X44028162Y-27439852D01*
X44141635Y-27270027D01*
X44288027Y-27123635D01*
X44460165Y-27008616D01*
X44460167Y-27008615D01*
X44651436Y-26929389D01*
X44854484Y-26889000D01*
X45061516Y-26889000D01*
X45264564Y-26929389D01*
G37*
G36*
X38718499Y-27227445D02*
G01*
X38755995Y-27238820D01*
X38790554Y-27257292D01*
X38820847Y-27282153D01*
X38845708Y-27312446D01*
X38864180Y-27347005D01*
X38875555Y-27384501D01*
X38880000Y-27429638D01*
X38880000Y-28168362D01*
X38875555Y-28213499D01*
X38864180Y-28250995D01*
X38845708Y-28285554D01*
X38820847Y-28315847D01*
X38790554Y-28340708D01*
X38755995Y-28359180D01*
X38718499Y-28370555D01*
X38673362Y-28375000D01*
X38034638Y-28375000D01*
X37989501Y-28370555D01*
X37952005Y-28359180D01*
X37917446Y-28340708D01*
X37887153Y-28315847D01*
X37862292Y-28285554D01*
X37843820Y-28250995D01*
X37832445Y-28213499D01*
X37828000Y-28168362D01*
X37828000Y-27429638D01*
X37832445Y-27384501D01*
X37843820Y-27347005D01*
X37862292Y-27312446D01*
X37887153Y-27282153D01*
X37917446Y-27257292D01*
X37952005Y-27238820D01*
X37989501Y-27227445D01*
X38034638Y-27223000D01*
X38673362Y-27223000D01*
X38718499Y-27227445D01*
G37*
G36*
X31606499Y-27227445D02*
G01*
X31643995Y-27238820D01*
X31678554Y-27257292D01*
X31708847Y-27282153D01*
X31733708Y-27312446D01*
X31752180Y-27347005D01*
X31763555Y-27384501D01*
X31768000Y-27429638D01*
X31768000Y-28168362D01*
X31763555Y-28213499D01*
X31752180Y-28250995D01*
X31733708Y-28285554D01*
X31708847Y-28315847D01*
X31678554Y-28340708D01*
X31643995Y-28359180D01*
X31606499Y-28370555D01*
X31561362Y-28375000D01*
X30922638Y-28375000D01*
X30877501Y-28370555D01*
X30840005Y-28359180D01*
X30805446Y-28340708D01*
X30775153Y-28315847D01*
X30750292Y-28285554D01*
X30731820Y-28250995D01*
X30720445Y-28213499D01*
X30716000Y-28168362D01*
X30716000Y-27429638D01*
X30720445Y-27384501D01*
X30731820Y-27347005D01*
X30750292Y-27312446D01*
X30775153Y-27282153D01*
X30805446Y-27257292D01*
X30840005Y-27238820D01*
X30877501Y-27227445D01*
X30922638Y-27223000D01*
X31561362Y-27223000D01*
X31606499Y-27227445D01*
G37*
G36*
X19716000Y-27336000D02*
G01*
X17114000Y-27336000D01*
X17114000Y-24734000D01*
X19716000Y-24734000D01*
X19716000Y-27336000D01*
G37*
G36*
X38718499Y-25477445D02*
G01*
X38755995Y-25488820D01*
X38790554Y-25507292D01*
X38820847Y-25532153D01*
X38845708Y-25562446D01*
X38864180Y-25597005D01*
X38875555Y-25634501D01*
X38880000Y-25679638D01*
X38880000Y-26418362D01*
X38875555Y-26463499D01*
X38864180Y-26500995D01*
X38845708Y-26535554D01*
X38820847Y-26565847D01*
X38790554Y-26590708D01*
X38755995Y-26609180D01*
X38718499Y-26620555D01*
X38673362Y-26625000D01*
X38034638Y-26625000D01*
X37989501Y-26620555D01*
X37952005Y-26609180D01*
X37917446Y-26590708D01*
X37887153Y-26565847D01*
X37862292Y-26535554D01*
X37843820Y-26500995D01*
X37832445Y-26463499D01*
X37828000Y-26418362D01*
X37828000Y-25679638D01*
X37832445Y-25634501D01*
X37843820Y-25597005D01*
X37862292Y-25562446D01*
X37887153Y-25532153D01*
X37917446Y-25507292D01*
X37952005Y-25488820D01*
X37989501Y-25477445D01*
X38034638Y-25473000D01*
X38673362Y-25473000D01*
X38718499Y-25477445D01*
G37*
G36*
X31606499Y-25477445D02*
G01*
X31643995Y-25488820D01*
X31678554Y-25507292D01*
X31708847Y-25532153D01*
X31733708Y-25562446D01*
X31752180Y-25597005D01*
X31763555Y-25634501D01*
X31768000Y-25679638D01*
X31768000Y-26418362D01*
X31763555Y-26463499D01*
X31752180Y-26500995D01*
X31733708Y-26535554D01*
X31708847Y-26565847D01*
X31678554Y-26590708D01*
X31643995Y-26609180D01*
X31606499Y-26620555D01*
X31561362Y-26625000D01*
X30922638Y-26625000D01*
X30877501Y-26620555D01*
X30840005Y-26609180D01*
X30805446Y-26590708D01*
X30775153Y-26565847D01*
X30750292Y-26535554D01*
X30731820Y-26500995D01*
X30720445Y-26463499D01*
X30716000Y-26418362D01*
X30716000Y-25679638D01*
X30720445Y-25634501D01*
X30731820Y-25597005D01*
X30750292Y-25562446D01*
X30775153Y-25532153D01*
X30805446Y-25507292D01*
X30840005Y-25488820D01*
X30877501Y-25477445D01*
X30922638Y-25473000D01*
X31561362Y-25473000D01*
X31606499Y-25477445D01*
G37*
G36*
X36062228Y-24835703D02*
G01*
X36217100Y-24899853D01*
X36356481Y-24992985D01*
X36475015Y-25111519D01*
X36568147Y-25250900D01*
X36632297Y-25405772D01*
X36665000Y-25570184D01*
X36665000Y-25737816D01*
X36632297Y-25902228D01*
X36568147Y-26057100D01*
X36475015Y-26196481D01*
X36356481Y-26315015D01*
X36217100Y-26408147D01*
X36062228Y-26472297D01*
X35897816Y-26505000D01*
X35730184Y-26505000D01*
X35565772Y-26472297D01*
X35410900Y-26408147D01*
X35271519Y-26315015D01*
X35152985Y-26196481D01*
X35059853Y-26057100D01*
X34995703Y-25902228D01*
X34963000Y-25737816D01*
X34963000Y-25570184D01*
X34995703Y-25405772D01*
X35059853Y-25250900D01*
X35152985Y-25111519D01*
X35271519Y-24992985D01*
X35410900Y-24899853D01*
X35565772Y-24835703D01*
X35730184Y-24803000D01*
X35897816Y-24803000D01*
X36062228Y-24835703D01*
G37*
G36*
X29045000Y-26505000D02*
G01*
X27343000Y-26505000D01*
X27343000Y-24803000D01*
X29045000Y-24803000D01*
X29045000Y-26505000D01*
G37*
G36*
X93230778Y-23758547D02*
G01*
X93397224Y-23827491D01*
X93547022Y-23927583D01*
X93674417Y-24054978D01*
X93774509Y-24204776D01*
X93843453Y-24371222D01*
X93878600Y-24547918D01*
X93878600Y-24728082D01*
X93843453Y-24904778D01*
X93774509Y-25071224D01*
X93674417Y-25221022D01*
X93547022Y-25348417D01*
X93397224Y-25448509D01*
X93230778Y-25517453D01*
X93054082Y-25552600D01*
X92873918Y-25552600D01*
X92697222Y-25517453D01*
X92530776Y-25448509D01*
X92380978Y-25348417D01*
X92253583Y-25221022D01*
X92153491Y-25071224D01*
X92084547Y-24904778D01*
X92049400Y-24728082D01*
X92049400Y-24547918D01*
X92084547Y-24371222D01*
X92153491Y-24204776D01*
X92253583Y-24054978D01*
X92380978Y-23927583D01*
X92530776Y-23827491D01*
X92697222Y-23758547D01*
X92873918Y-23723400D01*
X93054082Y-23723400D01*
X93230778Y-23758547D01*
G37*
G36*
X96418600Y-25552600D02*
G01*
X94589400Y-25552600D01*
X94589400Y-23723400D01*
X96418600Y-23723400D01*
X96418600Y-25552600D01*
G37*
G36*
X45264564Y-21849389D02*
G01*
X45455833Y-21928615D01*
X45455835Y-21928616D01*
X45574519Y-22007918D01*
X45627973Y-22043635D01*
X45774365Y-22190027D01*
X45889385Y-22362167D01*
X45968611Y-22553436D01*
X46009000Y-22756484D01*
X46009000Y-22963516D01*
X45968611Y-23166564D01*
X45889385Y-23357833D01*
X45889384Y-23357835D01*
X45774365Y-23529973D01*
X45627973Y-23676365D01*
X45455835Y-23791384D01*
X45455834Y-23791385D01*
X45455833Y-23791385D01*
X45264564Y-23870611D01*
X45061516Y-23911000D01*
X44854484Y-23911000D01*
X44651436Y-23870611D01*
X44460167Y-23791385D01*
X44460166Y-23791385D01*
X44460165Y-23791384D01*
X44288027Y-23676365D01*
X44141635Y-23529973D01*
X44026616Y-23357835D01*
X44026615Y-23357833D01*
X43947389Y-23166564D01*
X43907000Y-22963516D01*
X43907000Y-22756484D01*
X43947389Y-22553436D01*
X44026615Y-22362167D01*
X44141635Y-22190027D01*
X44288027Y-22043635D01*
X44341481Y-22007918D01*
X44460165Y-21928616D01*
X44460167Y-21928615D01*
X44651436Y-21849389D01*
X44854484Y-21809000D01*
X45061516Y-21809000D01*
X45264564Y-21849389D01*
G37*
G36*
X93230778Y-21218547D02*
G01*
X93397224Y-21287491D01*
X93547022Y-21387583D01*
X93674417Y-21514978D01*
X93774509Y-21664776D01*
X93843453Y-21831222D01*
X93878600Y-22007918D01*
X93878600Y-22188082D01*
X93843453Y-22364778D01*
X93774509Y-22531224D01*
X93674417Y-22681022D01*
X93547022Y-22808417D01*
X93397224Y-22908509D01*
X93230778Y-22977453D01*
X93054082Y-23012600D01*
X92873918Y-23012600D01*
X92697222Y-22977453D01*
X92530776Y-22908509D01*
X92380978Y-22808417D01*
X92253583Y-22681022D01*
X92153491Y-22531224D01*
X92084547Y-22364778D01*
X92049400Y-22188082D01*
X92049400Y-22007918D01*
X92084547Y-21831222D01*
X92153491Y-21664776D01*
X92253583Y-21514978D01*
X92380978Y-21387583D01*
X92530776Y-21287491D01*
X92697222Y-21218547D01*
X92873918Y-21183400D01*
X93054082Y-21183400D01*
X93230778Y-21218547D01*
G37*
G36*
X95770778Y-21218547D02*
G01*
X95937224Y-21287491D01*
X96087022Y-21387583D01*
X96214417Y-21514978D01*
X96314509Y-21664776D01*
X96383453Y-21831222D01*
X96418600Y-22007918D01*
X96418600Y-22188082D01*
X96383453Y-22364778D01*
X96314509Y-22531224D01*
X96214417Y-22681022D01*
X96087022Y-22808417D01*
X95937224Y-22908509D01*
X95770778Y-22977453D01*
X95594082Y-23012600D01*
X95413918Y-23012600D01*
X95237222Y-22977453D01*
X95070776Y-22908509D01*
X94920978Y-22808417D01*
X94793583Y-22681022D01*
X94693491Y-22531224D01*
X94624547Y-22364778D01*
X94589400Y-22188082D01*
X94589400Y-22007918D01*
X94624547Y-21831222D01*
X94693491Y-21664776D01*
X94793583Y-21514978D01*
X94920978Y-21387583D01*
X95070776Y-21287491D01*
X95237222Y-21218547D01*
X95413918Y-21183400D01*
X95594082Y-21183400D01*
X95770778Y-21218547D01*
G37*
G36*
X93230778Y-18678547D02*
G01*
X93397224Y-18747491D01*
X93547022Y-18847583D01*
X93674417Y-18974978D01*
X93774509Y-19124776D01*
X93843453Y-19291222D01*
X93878600Y-19467918D01*
X93878600Y-19648082D01*
X93843453Y-19824778D01*
X93774509Y-19991224D01*
X93674417Y-20141022D01*
X93547022Y-20268417D01*
X93397224Y-20368509D01*
X93230778Y-20437453D01*
X93054082Y-20472600D01*
X92873918Y-20472600D01*
X92697222Y-20437453D01*
X92530776Y-20368509D01*
X92380978Y-20268417D01*
X92253583Y-20141022D01*
X92153491Y-19991224D01*
X92084547Y-19824778D01*
X92049400Y-19648082D01*
X92049400Y-19467918D01*
X92084547Y-19291222D01*
X92153491Y-19124776D01*
X92253583Y-18974978D01*
X92380978Y-18847583D01*
X92530776Y-18747491D01*
X92697222Y-18678547D01*
X92873918Y-18643400D01*
X93054082Y-18643400D01*
X93230778Y-18678547D01*
G37*
G36*
X95770778Y-18678547D02*
G01*
X95937224Y-18747491D01*
X96087022Y-18847583D01*
X96214417Y-18974978D01*
X96314509Y-19124776D01*
X96383453Y-19291222D01*
X96418600Y-19467918D01*
X96418600Y-19648082D01*
X96383453Y-19824778D01*
X96314509Y-19991224D01*
X96214417Y-20141022D01*
X96087022Y-20268417D01*
X95937224Y-20368509D01*
X95770778Y-20437453D01*
X95594082Y-20472600D01*
X95413918Y-20472600D01*
X95237222Y-20437453D01*
X95070776Y-20368509D01*
X94920978Y-20268417D01*
X94793583Y-20141022D01*
X94693491Y-19991224D01*
X94624547Y-19824778D01*
X94589400Y-19648082D01*
X94589400Y-19467918D01*
X94624547Y-19291222D01*
X94693491Y-19124776D01*
X94793583Y-18974978D01*
X94920978Y-18847583D01*
X95070776Y-18747491D01*
X95237222Y-18678547D01*
X95413918Y-18643400D01*
X95594082Y-18643400D01*
X95770778Y-18678547D01*
G37*
G36*
X35464000Y-18700000D02*
G01*
X32862000Y-18700000D01*
X32862000Y-16098000D01*
X35464000Y-16098000D01*
X35464000Y-18700000D01*
G37*
G36*
X24542487Y-16147996D02*
G01*
X24779253Y-16246068D01*
X24779255Y-16246069D01*
X24992339Y-16388447D01*
X25173553Y-16569661D01*
X25306216Y-16768205D01*
X25315932Y-16782747D01*
X25414004Y-17019513D01*
X25464000Y-17270861D01*
X25464000Y-17527139D01*
X25414004Y-17778487D01*
X25397968Y-17817201D01*
X25315931Y-18015255D01*
X25173553Y-18228339D01*
X24992339Y-18409553D01*
X24779255Y-18551931D01*
X24779254Y-18551932D01*
X24779253Y-18551932D01*
X24542487Y-18650004D01*
X24291139Y-18700000D01*
X24034861Y-18700000D01*
X23783513Y-18650004D01*
X23546747Y-18551932D01*
X23546746Y-18551932D01*
X23546745Y-18551931D01*
X23333661Y-18409553D01*
X23152447Y-18228339D01*
X23010069Y-18015255D01*
X22928032Y-17817201D01*
X22911996Y-17778487D01*
X22862000Y-17527139D01*
X22862000Y-17270861D01*
X22911996Y-17019513D01*
X23010068Y-16782747D01*
X23019785Y-16768205D01*
X23152447Y-16569661D01*
X23333661Y-16388447D01*
X23546745Y-16246069D01*
X23546747Y-16246068D01*
X23783513Y-16147996D01*
X24034861Y-16098000D01*
X24291139Y-16098000D01*
X24542487Y-16147996D01*
G37*
G36*
X29542487Y-16147996D02*
G01*
X29779253Y-16246068D01*
X29779255Y-16246069D01*
X29992339Y-16388447D01*
X30173553Y-16569661D01*
X30306216Y-16768205D01*
X30315932Y-16782747D01*
X30414004Y-17019513D01*
X30464000Y-17270861D01*
X30464000Y-17527139D01*
X30414004Y-17778487D01*
X30397968Y-17817201D01*
X30315931Y-18015255D01*
X30173553Y-18228339D01*
X29992339Y-18409553D01*
X29779255Y-18551931D01*
X29779254Y-18551932D01*
X29779253Y-18551932D01*
X29542487Y-18650004D01*
X29291139Y-18700000D01*
X29034861Y-18700000D01*
X28783513Y-18650004D01*
X28546747Y-18551932D01*
X28546746Y-18551932D01*
X28546745Y-18551931D01*
X28333661Y-18409553D01*
X28152447Y-18228339D01*
X28010069Y-18015255D01*
X27928032Y-17817201D01*
X27911996Y-17778487D01*
X27862000Y-17527139D01*
X27862000Y-17270861D01*
X27911996Y-17019513D01*
X28010068Y-16782747D01*
X28019785Y-16768205D01*
X28152447Y-16569661D01*
X28333661Y-16388447D01*
X28546745Y-16246069D01*
X28546747Y-16246068D01*
X28783513Y-16147996D01*
X29034861Y-16098000D01*
X29291139Y-16098000D01*
X29542487Y-16147996D01*
G37*
G36*
X49919000Y-18423000D02*
G01*
X47617000Y-18423000D01*
X47617000Y-16121000D01*
X49919000Y-16121000D01*
X49919000Y-18423000D01*
G37*
G36*
X38832549Y-16143116D02*
G01*
X38943734Y-16165232D01*
X39153203Y-16251997D01*
X39341720Y-16377960D01*
X39502040Y-16538280D01*
X39628003Y-16726797D01*
X39714768Y-16936266D01*
X39759000Y-17158636D01*
X39759000Y-17385364D01*
X39714768Y-17607734D01*
X39628003Y-17817203D01*
X39502040Y-18005720D01*
X39341720Y-18166040D01*
X39153203Y-18292003D01*
X38943734Y-18378768D01*
X38832549Y-18400884D01*
X38721365Y-18423000D01*
X38494635Y-18423000D01*
X38383451Y-18400884D01*
X38272266Y-18378768D01*
X38062797Y-18292003D01*
X37874280Y-18166040D01*
X37713960Y-18005720D01*
X37587997Y-17817203D01*
X37501232Y-17607734D01*
X37457000Y-17385364D01*
X37457000Y-17158636D01*
X37501232Y-16936266D01*
X37587997Y-16726797D01*
X37713960Y-16538280D01*
X37874280Y-16377960D01*
X38062797Y-16251997D01*
X38272266Y-16165232D01*
X38383451Y-16143116D01*
X38494635Y-16121000D01*
X38721365Y-16121000D01*
X38832549Y-16143116D01*
G37*
G36*
X16665693Y-12287859D02*
G01*
X16931437Y-12340719D01*
X17432087Y-12548095D01*
X17612561Y-12668684D01*
X17882660Y-12849158D01*
X18265842Y-13232340D01*
X18446316Y-13502439D01*
X18566905Y-13682913D01*
X18700363Y-14005109D01*
X18774281Y-14183564D01*
X18880000Y-14715049D01*
X18880000Y-15256951D01*
X18844186Y-15437000D01*
X18774281Y-15788437D01*
X18566905Y-16289087D01*
X18451160Y-16462311D01*
X18265842Y-16739660D01*
X17882660Y-17122842D01*
X17661133Y-17270861D01*
X17432087Y-17423905D01*
X16931437Y-17631281D01*
X16665693Y-17684141D01*
X16399951Y-17737000D01*
X15858049Y-17737000D01*
X15592307Y-17684141D01*
X15326563Y-17631281D01*
X14825913Y-17423905D01*
X14596867Y-17270861D01*
X14375340Y-17122842D01*
X13992158Y-16739660D01*
X13806840Y-16462311D01*
X13691095Y-16289087D01*
X13483719Y-15788437D01*
X13413814Y-15437000D01*
X13378000Y-15256951D01*
X13378000Y-14715049D01*
X13483719Y-14183564D01*
X13557637Y-14005109D01*
X13691095Y-13682913D01*
X13811684Y-13502439D01*
X13992158Y-13232340D01*
X14375340Y-12849158D01*
X14645439Y-12668684D01*
X14825913Y-12548095D01*
X15326563Y-12340719D01*
X15592307Y-12287859D01*
X15858049Y-12235000D01*
X16399951Y-12235000D01*
X16665693Y-12287859D01*
G37*
G36*
X105057693Y-12287859D02*
G01*
X105323437Y-12340719D01*
X105824087Y-12548095D01*
X106004561Y-12668684D01*
X106274660Y-12849158D01*
X106657842Y-13232340D01*
X106838316Y-13502439D01*
X106958905Y-13682913D01*
X107092363Y-14005109D01*
X107166281Y-14183564D01*
X107272000Y-14715049D01*
X107272000Y-15256951D01*
X107236186Y-15437000D01*
X107166281Y-15788437D01*
X106958905Y-16289087D01*
X106843160Y-16462311D01*
X106657842Y-16739660D01*
X106274660Y-17122842D01*
X106053133Y-17270861D01*
X105824087Y-17423905D01*
X105323437Y-17631281D01*
X105057694Y-17684140D01*
X104791951Y-17737000D01*
X104250049Y-17737000D01*
X103984307Y-17684141D01*
X103718563Y-17631281D01*
X103217913Y-17423905D01*
X102988867Y-17270861D01*
X102767340Y-17122842D01*
X102384158Y-16739660D01*
X102198840Y-16462311D01*
X102083095Y-16289087D01*
X101875719Y-15788437D01*
X101805814Y-15437000D01*
X101770000Y-15256951D01*
X101770000Y-14715049D01*
X101875719Y-14183564D01*
X101949637Y-14005109D01*
X102083095Y-13682913D01*
X102203684Y-13502439D01*
X102384158Y-13232340D01*
X102767340Y-12849158D01*
X103037439Y-12668684D01*
X103217913Y-12548095D01*
X103718563Y-12340719D01*
X103984307Y-12287859D01*
X104250049Y-12235000D01*
X104791951Y-12235000D01*
X105057693Y-12287859D01*
G37*
M02*
