G04 #@! TF.GenerationSoftware,KiCad,Pcbnew,(5.1.5)-3*
G04 #@! TF.CreationDate,2021-01-23T10:44:03+01:00*
G04 #@! TF.ProjectId,PONG_Display,504f4e47-5f44-4697-9370-6c61792e6b69,rev?*
G04 #@! TF.SameCoordinates,Original*
G04 #@! TF.FileFunction,Paste,Bot*
G04 #@! TF.FilePolarity,Positive*
%FSLAX46Y46*%
G04 Gerber Fmt 4.6, Leading zero omitted, Abs format (unit mm)*
G04 Created by KiCad (PCBNEW (5.1.5)-3) date 2021-01-23 10:44:03*
%MOMM*%
%LPD*%
G04 APERTURE LIST*
%ADD10C,0.100000*%
%ADD11R,0.800000X0.900000*%
G04 APERTURE END LIST*
D10*
G36*
X36745779Y-47786144D02*
G01*
X36768834Y-47789563D01*
X36791443Y-47795227D01*
X36813387Y-47803079D01*
X36834457Y-47813044D01*
X36854448Y-47825026D01*
X36873168Y-47838910D01*
X36890438Y-47854562D01*
X36906090Y-47871832D01*
X36919974Y-47890552D01*
X36931956Y-47910543D01*
X36941921Y-47931613D01*
X36949773Y-47953557D01*
X36955437Y-47976166D01*
X36958856Y-47999221D01*
X36960000Y-48022500D01*
X36960000Y-48497500D01*
X36958856Y-48520779D01*
X36955437Y-48543834D01*
X36949773Y-48566443D01*
X36941921Y-48588387D01*
X36931956Y-48609457D01*
X36919974Y-48629448D01*
X36906090Y-48648168D01*
X36890438Y-48665438D01*
X36873168Y-48681090D01*
X36854448Y-48694974D01*
X36834457Y-48706956D01*
X36813387Y-48716921D01*
X36791443Y-48724773D01*
X36768834Y-48730437D01*
X36745779Y-48733856D01*
X36722500Y-48735000D01*
X36147500Y-48735000D01*
X36124221Y-48733856D01*
X36101166Y-48730437D01*
X36078557Y-48724773D01*
X36056613Y-48716921D01*
X36035543Y-48706956D01*
X36015552Y-48694974D01*
X35996832Y-48681090D01*
X35979562Y-48665438D01*
X35963910Y-48648168D01*
X35950026Y-48629448D01*
X35938044Y-48609457D01*
X35928079Y-48588387D01*
X35920227Y-48566443D01*
X35914563Y-48543834D01*
X35911144Y-48520779D01*
X35910000Y-48497500D01*
X35910000Y-48022500D01*
X35911144Y-47999221D01*
X35914563Y-47976166D01*
X35920227Y-47953557D01*
X35928079Y-47931613D01*
X35938044Y-47910543D01*
X35950026Y-47890552D01*
X35963910Y-47871832D01*
X35979562Y-47854562D01*
X35996832Y-47838910D01*
X36015552Y-47825026D01*
X36035543Y-47813044D01*
X36056613Y-47803079D01*
X36078557Y-47795227D01*
X36101166Y-47789563D01*
X36124221Y-47786144D01*
X36147500Y-47785000D01*
X36722500Y-47785000D01*
X36745779Y-47786144D01*
G37*
G36*
X34995779Y-47786144D02*
G01*
X35018834Y-47789563D01*
X35041443Y-47795227D01*
X35063387Y-47803079D01*
X35084457Y-47813044D01*
X35104448Y-47825026D01*
X35123168Y-47838910D01*
X35140438Y-47854562D01*
X35156090Y-47871832D01*
X35169974Y-47890552D01*
X35181956Y-47910543D01*
X35191921Y-47931613D01*
X35199773Y-47953557D01*
X35205437Y-47976166D01*
X35208856Y-47999221D01*
X35210000Y-48022500D01*
X35210000Y-48497500D01*
X35208856Y-48520779D01*
X35205437Y-48543834D01*
X35199773Y-48566443D01*
X35191921Y-48588387D01*
X35181956Y-48609457D01*
X35169974Y-48629448D01*
X35156090Y-48648168D01*
X35140438Y-48665438D01*
X35123168Y-48681090D01*
X35104448Y-48694974D01*
X35084457Y-48706956D01*
X35063387Y-48716921D01*
X35041443Y-48724773D01*
X35018834Y-48730437D01*
X34995779Y-48733856D01*
X34972500Y-48735000D01*
X34397500Y-48735000D01*
X34374221Y-48733856D01*
X34351166Y-48730437D01*
X34328557Y-48724773D01*
X34306613Y-48716921D01*
X34285543Y-48706956D01*
X34265552Y-48694974D01*
X34246832Y-48681090D01*
X34229562Y-48665438D01*
X34213910Y-48648168D01*
X34200026Y-48629448D01*
X34188044Y-48609457D01*
X34178079Y-48588387D01*
X34170227Y-48566443D01*
X34164563Y-48543834D01*
X34161144Y-48520779D01*
X34160000Y-48497500D01*
X34160000Y-48022500D01*
X34161144Y-47999221D01*
X34164563Y-47976166D01*
X34170227Y-47953557D01*
X34178079Y-47931613D01*
X34188044Y-47910543D01*
X34200026Y-47890552D01*
X34213910Y-47871832D01*
X34229562Y-47854562D01*
X34246832Y-47838910D01*
X34265552Y-47825026D01*
X34285543Y-47813044D01*
X34306613Y-47803079D01*
X34328557Y-47795227D01*
X34351166Y-47789563D01*
X34374221Y-47786144D01*
X34397500Y-47785000D01*
X34972500Y-47785000D01*
X34995779Y-47786144D01*
G37*
D11*
X25400000Y-53070000D03*
X26350000Y-51070000D03*
X24450000Y-51070000D03*
X34610000Y-51070000D03*
X36510000Y-51070000D03*
X35560000Y-53070000D03*
D10*
G36*
X61411779Y-47786144D02*
G01*
X61434834Y-47789563D01*
X61457443Y-47795227D01*
X61479387Y-47803079D01*
X61500457Y-47813044D01*
X61520448Y-47825026D01*
X61539168Y-47838910D01*
X61556438Y-47854562D01*
X61572090Y-47871832D01*
X61585974Y-47890552D01*
X61597956Y-47910543D01*
X61607921Y-47931613D01*
X61615773Y-47953557D01*
X61621437Y-47976166D01*
X61624856Y-47999221D01*
X61626000Y-48022500D01*
X61626000Y-48497500D01*
X61624856Y-48520779D01*
X61621437Y-48543834D01*
X61615773Y-48566443D01*
X61607921Y-48588387D01*
X61597956Y-48609457D01*
X61585974Y-48629448D01*
X61572090Y-48648168D01*
X61556438Y-48665438D01*
X61539168Y-48681090D01*
X61520448Y-48694974D01*
X61500457Y-48706956D01*
X61479387Y-48716921D01*
X61457443Y-48724773D01*
X61434834Y-48730437D01*
X61411779Y-48733856D01*
X61388500Y-48735000D01*
X60813500Y-48735000D01*
X60790221Y-48733856D01*
X60767166Y-48730437D01*
X60744557Y-48724773D01*
X60722613Y-48716921D01*
X60701543Y-48706956D01*
X60681552Y-48694974D01*
X60662832Y-48681090D01*
X60645562Y-48665438D01*
X60629910Y-48648168D01*
X60616026Y-48629448D01*
X60604044Y-48609457D01*
X60594079Y-48588387D01*
X60586227Y-48566443D01*
X60580563Y-48543834D01*
X60577144Y-48520779D01*
X60576000Y-48497500D01*
X60576000Y-48022500D01*
X60577144Y-47999221D01*
X60580563Y-47976166D01*
X60586227Y-47953557D01*
X60594079Y-47931613D01*
X60604044Y-47910543D01*
X60616026Y-47890552D01*
X60629910Y-47871832D01*
X60645562Y-47854562D01*
X60662832Y-47838910D01*
X60681552Y-47825026D01*
X60701543Y-47813044D01*
X60722613Y-47803079D01*
X60744557Y-47795227D01*
X60767166Y-47789563D01*
X60790221Y-47786144D01*
X60813500Y-47785000D01*
X61388500Y-47785000D01*
X61411779Y-47786144D01*
G37*
G36*
X63161779Y-47786144D02*
G01*
X63184834Y-47789563D01*
X63207443Y-47795227D01*
X63229387Y-47803079D01*
X63250457Y-47813044D01*
X63270448Y-47825026D01*
X63289168Y-47838910D01*
X63306438Y-47854562D01*
X63322090Y-47871832D01*
X63335974Y-47890552D01*
X63347956Y-47910543D01*
X63357921Y-47931613D01*
X63365773Y-47953557D01*
X63371437Y-47976166D01*
X63374856Y-47999221D01*
X63376000Y-48022500D01*
X63376000Y-48497500D01*
X63374856Y-48520779D01*
X63371437Y-48543834D01*
X63365773Y-48566443D01*
X63357921Y-48588387D01*
X63347956Y-48609457D01*
X63335974Y-48629448D01*
X63322090Y-48648168D01*
X63306438Y-48665438D01*
X63289168Y-48681090D01*
X63270448Y-48694974D01*
X63250457Y-48706956D01*
X63229387Y-48716921D01*
X63207443Y-48724773D01*
X63184834Y-48730437D01*
X63161779Y-48733856D01*
X63138500Y-48735000D01*
X62563500Y-48735000D01*
X62540221Y-48733856D01*
X62517166Y-48730437D01*
X62494557Y-48724773D01*
X62472613Y-48716921D01*
X62451543Y-48706956D01*
X62431552Y-48694974D01*
X62412832Y-48681090D01*
X62395562Y-48665438D01*
X62379910Y-48648168D01*
X62366026Y-48629448D01*
X62354044Y-48609457D01*
X62344079Y-48588387D01*
X62336227Y-48566443D01*
X62330563Y-48543834D01*
X62327144Y-48520779D01*
X62326000Y-48497500D01*
X62326000Y-48022500D01*
X62327144Y-47999221D01*
X62330563Y-47976166D01*
X62336227Y-47953557D01*
X62344079Y-47931613D01*
X62354044Y-47910543D01*
X62366026Y-47890552D01*
X62379910Y-47871832D01*
X62395562Y-47854562D01*
X62412832Y-47838910D01*
X62431552Y-47825026D01*
X62451543Y-47813044D01*
X62472613Y-47803079D01*
X62494557Y-47795227D01*
X62517166Y-47789563D01*
X62540221Y-47786144D01*
X62563500Y-47785000D01*
X63138500Y-47785000D01*
X63161779Y-47786144D01*
G37*
G36*
X48683779Y-65820144D02*
G01*
X48706834Y-65823563D01*
X48729443Y-65829227D01*
X48751387Y-65837079D01*
X48772457Y-65847044D01*
X48792448Y-65859026D01*
X48811168Y-65872910D01*
X48828438Y-65888562D01*
X48844090Y-65905832D01*
X48857974Y-65924552D01*
X48869956Y-65944543D01*
X48879921Y-65965613D01*
X48887773Y-65987557D01*
X48893437Y-66010166D01*
X48896856Y-66033221D01*
X48898000Y-66056500D01*
X48898000Y-66531500D01*
X48896856Y-66554779D01*
X48893437Y-66577834D01*
X48887773Y-66600443D01*
X48879921Y-66622387D01*
X48869956Y-66643457D01*
X48857974Y-66663448D01*
X48844090Y-66682168D01*
X48828438Y-66699438D01*
X48811168Y-66715090D01*
X48792448Y-66728974D01*
X48772457Y-66740956D01*
X48751387Y-66750921D01*
X48729443Y-66758773D01*
X48706834Y-66764437D01*
X48683779Y-66767856D01*
X48660500Y-66769000D01*
X48085500Y-66769000D01*
X48062221Y-66767856D01*
X48039166Y-66764437D01*
X48016557Y-66758773D01*
X47994613Y-66750921D01*
X47973543Y-66740956D01*
X47953552Y-66728974D01*
X47934832Y-66715090D01*
X47917562Y-66699438D01*
X47901910Y-66682168D01*
X47888026Y-66663448D01*
X47876044Y-66643457D01*
X47866079Y-66622387D01*
X47858227Y-66600443D01*
X47852563Y-66577834D01*
X47849144Y-66554779D01*
X47848000Y-66531500D01*
X47848000Y-66056500D01*
X47849144Y-66033221D01*
X47852563Y-66010166D01*
X47858227Y-65987557D01*
X47866079Y-65965613D01*
X47876044Y-65944543D01*
X47888026Y-65924552D01*
X47901910Y-65905832D01*
X47917562Y-65888562D01*
X47934832Y-65872910D01*
X47953552Y-65859026D01*
X47973543Y-65847044D01*
X47994613Y-65837079D01*
X48016557Y-65829227D01*
X48039166Y-65823563D01*
X48062221Y-65820144D01*
X48085500Y-65819000D01*
X48660500Y-65819000D01*
X48683779Y-65820144D01*
G37*
G36*
X46933779Y-65820144D02*
G01*
X46956834Y-65823563D01*
X46979443Y-65829227D01*
X47001387Y-65837079D01*
X47022457Y-65847044D01*
X47042448Y-65859026D01*
X47061168Y-65872910D01*
X47078438Y-65888562D01*
X47094090Y-65905832D01*
X47107974Y-65924552D01*
X47119956Y-65944543D01*
X47129921Y-65965613D01*
X47137773Y-65987557D01*
X47143437Y-66010166D01*
X47146856Y-66033221D01*
X47148000Y-66056500D01*
X47148000Y-66531500D01*
X47146856Y-66554779D01*
X47143437Y-66577834D01*
X47137773Y-66600443D01*
X47129921Y-66622387D01*
X47119956Y-66643457D01*
X47107974Y-66663448D01*
X47094090Y-66682168D01*
X47078438Y-66699438D01*
X47061168Y-66715090D01*
X47042448Y-66728974D01*
X47022457Y-66740956D01*
X47001387Y-66750921D01*
X46979443Y-66758773D01*
X46956834Y-66764437D01*
X46933779Y-66767856D01*
X46910500Y-66769000D01*
X46335500Y-66769000D01*
X46312221Y-66767856D01*
X46289166Y-66764437D01*
X46266557Y-66758773D01*
X46244613Y-66750921D01*
X46223543Y-66740956D01*
X46203552Y-66728974D01*
X46184832Y-66715090D01*
X46167562Y-66699438D01*
X46151910Y-66682168D01*
X46138026Y-66663448D01*
X46126044Y-66643457D01*
X46116079Y-66622387D01*
X46108227Y-66600443D01*
X46102563Y-66577834D01*
X46099144Y-66554779D01*
X46098000Y-66531500D01*
X46098000Y-66056500D01*
X46099144Y-66033221D01*
X46102563Y-66010166D01*
X46108227Y-65987557D01*
X46116079Y-65965613D01*
X46126044Y-65944543D01*
X46138026Y-65924552D01*
X46151910Y-65905832D01*
X46167562Y-65888562D01*
X46184832Y-65872910D01*
X46203552Y-65859026D01*
X46223543Y-65847044D01*
X46244613Y-65837079D01*
X46266557Y-65829227D01*
X46289166Y-65823563D01*
X46312221Y-65820144D01*
X46335500Y-65819000D01*
X46910500Y-65819000D01*
X46933779Y-65820144D01*
G37*
G36*
X31665779Y-71408144D02*
G01*
X31688834Y-71411563D01*
X31711443Y-71417227D01*
X31733387Y-71425079D01*
X31754457Y-71435044D01*
X31774448Y-71447026D01*
X31793168Y-71460910D01*
X31810438Y-71476562D01*
X31826090Y-71493832D01*
X31839974Y-71512552D01*
X31851956Y-71532543D01*
X31861921Y-71553613D01*
X31869773Y-71575557D01*
X31875437Y-71598166D01*
X31878856Y-71621221D01*
X31880000Y-71644500D01*
X31880000Y-72119500D01*
X31878856Y-72142779D01*
X31875437Y-72165834D01*
X31869773Y-72188443D01*
X31861921Y-72210387D01*
X31851956Y-72231457D01*
X31839974Y-72251448D01*
X31826090Y-72270168D01*
X31810438Y-72287438D01*
X31793168Y-72303090D01*
X31774448Y-72316974D01*
X31754457Y-72328956D01*
X31733387Y-72338921D01*
X31711443Y-72346773D01*
X31688834Y-72352437D01*
X31665779Y-72355856D01*
X31642500Y-72357000D01*
X31067500Y-72357000D01*
X31044221Y-72355856D01*
X31021166Y-72352437D01*
X30998557Y-72346773D01*
X30976613Y-72338921D01*
X30955543Y-72328956D01*
X30935552Y-72316974D01*
X30916832Y-72303090D01*
X30899562Y-72287438D01*
X30883910Y-72270168D01*
X30870026Y-72251448D01*
X30858044Y-72231457D01*
X30848079Y-72210387D01*
X30840227Y-72188443D01*
X30834563Y-72165834D01*
X30831144Y-72142779D01*
X30830000Y-72119500D01*
X30830000Y-71644500D01*
X30831144Y-71621221D01*
X30834563Y-71598166D01*
X30840227Y-71575557D01*
X30848079Y-71553613D01*
X30858044Y-71532543D01*
X30870026Y-71512552D01*
X30883910Y-71493832D01*
X30899562Y-71476562D01*
X30916832Y-71460910D01*
X30935552Y-71447026D01*
X30955543Y-71435044D01*
X30976613Y-71425079D01*
X30998557Y-71417227D01*
X31021166Y-71411563D01*
X31044221Y-71408144D01*
X31067500Y-71407000D01*
X31642500Y-71407000D01*
X31665779Y-71408144D01*
G37*
G36*
X29915779Y-71408144D02*
G01*
X29938834Y-71411563D01*
X29961443Y-71417227D01*
X29983387Y-71425079D01*
X30004457Y-71435044D01*
X30024448Y-71447026D01*
X30043168Y-71460910D01*
X30060438Y-71476562D01*
X30076090Y-71493832D01*
X30089974Y-71512552D01*
X30101956Y-71532543D01*
X30111921Y-71553613D01*
X30119773Y-71575557D01*
X30125437Y-71598166D01*
X30128856Y-71621221D01*
X30130000Y-71644500D01*
X30130000Y-72119500D01*
X30128856Y-72142779D01*
X30125437Y-72165834D01*
X30119773Y-72188443D01*
X30111921Y-72210387D01*
X30101956Y-72231457D01*
X30089974Y-72251448D01*
X30076090Y-72270168D01*
X30060438Y-72287438D01*
X30043168Y-72303090D01*
X30024448Y-72316974D01*
X30004457Y-72328956D01*
X29983387Y-72338921D01*
X29961443Y-72346773D01*
X29938834Y-72352437D01*
X29915779Y-72355856D01*
X29892500Y-72357000D01*
X29317500Y-72357000D01*
X29294221Y-72355856D01*
X29271166Y-72352437D01*
X29248557Y-72346773D01*
X29226613Y-72338921D01*
X29205543Y-72328956D01*
X29185552Y-72316974D01*
X29166832Y-72303090D01*
X29149562Y-72287438D01*
X29133910Y-72270168D01*
X29120026Y-72251448D01*
X29108044Y-72231457D01*
X29098079Y-72210387D01*
X29090227Y-72188443D01*
X29084563Y-72165834D01*
X29081144Y-72142779D01*
X29080000Y-72119500D01*
X29080000Y-71644500D01*
X29081144Y-71621221D01*
X29084563Y-71598166D01*
X29090227Y-71575557D01*
X29098079Y-71553613D01*
X29108044Y-71532543D01*
X29120026Y-71512552D01*
X29133910Y-71493832D01*
X29149562Y-71476562D01*
X29166832Y-71460910D01*
X29185552Y-71447026D01*
X29205543Y-71435044D01*
X29226613Y-71425079D01*
X29248557Y-71417227D01*
X29271166Y-71411563D01*
X29294221Y-71408144D01*
X29317500Y-71407000D01*
X29892500Y-71407000D01*
X29915779Y-71408144D01*
G37*
G36*
X72700779Y-65947144D02*
G01*
X72723834Y-65950563D01*
X72746443Y-65956227D01*
X72768387Y-65964079D01*
X72789457Y-65974044D01*
X72809448Y-65986026D01*
X72828168Y-65999910D01*
X72845438Y-66015562D01*
X72861090Y-66032832D01*
X72874974Y-66051552D01*
X72886956Y-66071543D01*
X72896921Y-66092613D01*
X72904773Y-66114557D01*
X72910437Y-66137166D01*
X72913856Y-66160221D01*
X72915000Y-66183500D01*
X72915000Y-66658500D01*
X72913856Y-66681779D01*
X72910437Y-66704834D01*
X72904773Y-66727443D01*
X72896921Y-66749387D01*
X72886956Y-66770457D01*
X72874974Y-66790448D01*
X72861090Y-66809168D01*
X72845438Y-66826438D01*
X72828168Y-66842090D01*
X72809448Y-66855974D01*
X72789457Y-66867956D01*
X72768387Y-66877921D01*
X72746443Y-66885773D01*
X72723834Y-66891437D01*
X72700779Y-66894856D01*
X72677500Y-66896000D01*
X72102500Y-66896000D01*
X72079221Y-66894856D01*
X72056166Y-66891437D01*
X72033557Y-66885773D01*
X72011613Y-66877921D01*
X71990543Y-66867956D01*
X71970552Y-66855974D01*
X71951832Y-66842090D01*
X71934562Y-66826438D01*
X71918910Y-66809168D01*
X71905026Y-66790448D01*
X71893044Y-66770457D01*
X71883079Y-66749387D01*
X71875227Y-66727443D01*
X71869563Y-66704834D01*
X71866144Y-66681779D01*
X71865000Y-66658500D01*
X71865000Y-66183500D01*
X71866144Y-66160221D01*
X71869563Y-66137166D01*
X71875227Y-66114557D01*
X71883079Y-66092613D01*
X71893044Y-66071543D01*
X71905026Y-66051552D01*
X71918910Y-66032832D01*
X71934562Y-66015562D01*
X71951832Y-65999910D01*
X71970552Y-65986026D01*
X71990543Y-65974044D01*
X72011613Y-65964079D01*
X72033557Y-65956227D01*
X72056166Y-65950563D01*
X72079221Y-65947144D01*
X72102500Y-65946000D01*
X72677500Y-65946000D01*
X72700779Y-65947144D01*
G37*
G36*
X74450779Y-65947144D02*
G01*
X74473834Y-65950563D01*
X74496443Y-65956227D01*
X74518387Y-65964079D01*
X74539457Y-65974044D01*
X74559448Y-65986026D01*
X74578168Y-65999910D01*
X74595438Y-66015562D01*
X74611090Y-66032832D01*
X74624974Y-66051552D01*
X74636956Y-66071543D01*
X74646921Y-66092613D01*
X74654773Y-66114557D01*
X74660437Y-66137166D01*
X74663856Y-66160221D01*
X74665000Y-66183500D01*
X74665000Y-66658500D01*
X74663856Y-66681779D01*
X74660437Y-66704834D01*
X74654773Y-66727443D01*
X74646921Y-66749387D01*
X74636956Y-66770457D01*
X74624974Y-66790448D01*
X74611090Y-66809168D01*
X74595438Y-66826438D01*
X74578168Y-66842090D01*
X74559448Y-66855974D01*
X74539457Y-66867956D01*
X74518387Y-66877921D01*
X74496443Y-66885773D01*
X74473834Y-66891437D01*
X74450779Y-66894856D01*
X74427500Y-66896000D01*
X73852500Y-66896000D01*
X73829221Y-66894856D01*
X73806166Y-66891437D01*
X73783557Y-66885773D01*
X73761613Y-66877921D01*
X73740543Y-66867956D01*
X73720552Y-66855974D01*
X73701832Y-66842090D01*
X73684562Y-66826438D01*
X73668910Y-66809168D01*
X73655026Y-66790448D01*
X73643044Y-66770457D01*
X73633079Y-66749387D01*
X73625227Y-66727443D01*
X73619563Y-66704834D01*
X73616144Y-66681779D01*
X73615000Y-66658500D01*
X73615000Y-66183500D01*
X73616144Y-66160221D01*
X73619563Y-66137166D01*
X73625227Y-66114557D01*
X73633079Y-66092613D01*
X73643044Y-66071543D01*
X73655026Y-66051552D01*
X73668910Y-66032832D01*
X73684562Y-66015562D01*
X73701832Y-65999910D01*
X73720552Y-65986026D01*
X73740543Y-65974044D01*
X73761613Y-65964079D01*
X73783557Y-65956227D01*
X73806166Y-65950563D01*
X73829221Y-65947144D01*
X73852500Y-65946000D01*
X74427500Y-65946000D01*
X74450779Y-65947144D01*
G37*
G36*
X23882779Y-61593144D02*
G01*
X23905834Y-61596563D01*
X23928443Y-61602227D01*
X23950387Y-61610079D01*
X23971457Y-61620044D01*
X23991448Y-61632026D01*
X24010168Y-61645910D01*
X24027438Y-61661562D01*
X24043090Y-61678832D01*
X24056974Y-61697552D01*
X24068956Y-61717543D01*
X24078921Y-61738613D01*
X24086773Y-61760557D01*
X24092437Y-61783166D01*
X24095856Y-61806221D01*
X24097000Y-61829500D01*
X24097000Y-62404500D01*
X24095856Y-62427779D01*
X24092437Y-62450834D01*
X24086773Y-62473443D01*
X24078921Y-62495387D01*
X24068956Y-62516457D01*
X24056974Y-62536448D01*
X24043090Y-62555168D01*
X24027438Y-62572438D01*
X24010168Y-62588090D01*
X23991448Y-62601974D01*
X23971457Y-62613956D01*
X23950387Y-62623921D01*
X23928443Y-62631773D01*
X23905834Y-62637437D01*
X23882779Y-62640856D01*
X23859500Y-62642000D01*
X23384500Y-62642000D01*
X23361221Y-62640856D01*
X23338166Y-62637437D01*
X23315557Y-62631773D01*
X23293613Y-62623921D01*
X23272543Y-62613956D01*
X23252552Y-62601974D01*
X23233832Y-62588090D01*
X23216562Y-62572438D01*
X23200910Y-62555168D01*
X23187026Y-62536448D01*
X23175044Y-62516457D01*
X23165079Y-62495387D01*
X23157227Y-62473443D01*
X23151563Y-62450834D01*
X23148144Y-62427779D01*
X23147000Y-62404500D01*
X23147000Y-61829500D01*
X23148144Y-61806221D01*
X23151563Y-61783166D01*
X23157227Y-61760557D01*
X23165079Y-61738613D01*
X23175044Y-61717543D01*
X23187026Y-61697552D01*
X23200910Y-61678832D01*
X23216562Y-61661562D01*
X23233832Y-61645910D01*
X23252552Y-61632026D01*
X23272543Y-61620044D01*
X23293613Y-61610079D01*
X23315557Y-61602227D01*
X23338166Y-61596563D01*
X23361221Y-61593144D01*
X23384500Y-61592000D01*
X23859500Y-61592000D01*
X23882779Y-61593144D01*
G37*
G36*
X23882779Y-63343144D02*
G01*
X23905834Y-63346563D01*
X23928443Y-63352227D01*
X23950387Y-63360079D01*
X23971457Y-63370044D01*
X23991448Y-63382026D01*
X24010168Y-63395910D01*
X24027438Y-63411562D01*
X24043090Y-63428832D01*
X24056974Y-63447552D01*
X24068956Y-63467543D01*
X24078921Y-63488613D01*
X24086773Y-63510557D01*
X24092437Y-63533166D01*
X24095856Y-63556221D01*
X24097000Y-63579500D01*
X24097000Y-64154500D01*
X24095856Y-64177779D01*
X24092437Y-64200834D01*
X24086773Y-64223443D01*
X24078921Y-64245387D01*
X24068956Y-64266457D01*
X24056974Y-64286448D01*
X24043090Y-64305168D01*
X24027438Y-64322438D01*
X24010168Y-64338090D01*
X23991448Y-64351974D01*
X23971457Y-64363956D01*
X23950387Y-64373921D01*
X23928443Y-64381773D01*
X23905834Y-64387437D01*
X23882779Y-64390856D01*
X23859500Y-64392000D01*
X23384500Y-64392000D01*
X23361221Y-64390856D01*
X23338166Y-64387437D01*
X23315557Y-64381773D01*
X23293613Y-64373921D01*
X23272543Y-64363956D01*
X23252552Y-64351974D01*
X23233832Y-64338090D01*
X23216562Y-64322438D01*
X23200910Y-64305168D01*
X23187026Y-64286448D01*
X23175044Y-64266457D01*
X23165079Y-64245387D01*
X23157227Y-64223443D01*
X23151563Y-64200834D01*
X23148144Y-64177779D01*
X23147000Y-64154500D01*
X23147000Y-63579500D01*
X23148144Y-63556221D01*
X23151563Y-63533166D01*
X23157227Y-63510557D01*
X23165079Y-63488613D01*
X23175044Y-63467543D01*
X23187026Y-63447552D01*
X23200910Y-63428832D01*
X23216562Y-63411562D01*
X23233832Y-63395910D01*
X23252552Y-63382026D01*
X23272543Y-63370044D01*
X23293613Y-63360079D01*
X23315557Y-63352227D01*
X23338166Y-63346563D01*
X23361221Y-63343144D01*
X23384500Y-63342000D01*
X23859500Y-63342000D01*
X23882779Y-63343144D01*
G37*
G36*
X90833779Y-71662144D02*
G01*
X90856834Y-71665563D01*
X90879443Y-71671227D01*
X90901387Y-71679079D01*
X90922457Y-71689044D01*
X90942448Y-71701026D01*
X90961168Y-71714910D01*
X90978438Y-71730562D01*
X90994090Y-71747832D01*
X91007974Y-71766552D01*
X91019956Y-71786543D01*
X91029921Y-71807613D01*
X91037773Y-71829557D01*
X91043437Y-71852166D01*
X91046856Y-71875221D01*
X91048000Y-71898500D01*
X91048000Y-72373500D01*
X91046856Y-72396779D01*
X91043437Y-72419834D01*
X91037773Y-72442443D01*
X91029921Y-72464387D01*
X91019956Y-72485457D01*
X91007974Y-72505448D01*
X90994090Y-72524168D01*
X90978438Y-72541438D01*
X90961168Y-72557090D01*
X90942448Y-72570974D01*
X90922457Y-72582956D01*
X90901387Y-72592921D01*
X90879443Y-72600773D01*
X90856834Y-72606437D01*
X90833779Y-72609856D01*
X90810500Y-72611000D01*
X90235500Y-72611000D01*
X90212221Y-72609856D01*
X90189166Y-72606437D01*
X90166557Y-72600773D01*
X90144613Y-72592921D01*
X90123543Y-72582956D01*
X90103552Y-72570974D01*
X90084832Y-72557090D01*
X90067562Y-72541438D01*
X90051910Y-72524168D01*
X90038026Y-72505448D01*
X90026044Y-72485457D01*
X90016079Y-72464387D01*
X90008227Y-72442443D01*
X90002563Y-72419834D01*
X89999144Y-72396779D01*
X89998000Y-72373500D01*
X89998000Y-71898500D01*
X89999144Y-71875221D01*
X90002563Y-71852166D01*
X90008227Y-71829557D01*
X90016079Y-71807613D01*
X90026044Y-71786543D01*
X90038026Y-71766552D01*
X90051910Y-71747832D01*
X90067562Y-71730562D01*
X90084832Y-71714910D01*
X90103552Y-71701026D01*
X90123543Y-71689044D01*
X90144613Y-71679079D01*
X90166557Y-71671227D01*
X90189166Y-71665563D01*
X90212221Y-71662144D01*
X90235500Y-71661000D01*
X90810500Y-71661000D01*
X90833779Y-71662144D01*
G37*
G36*
X89083779Y-71662144D02*
G01*
X89106834Y-71665563D01*
X89129443Y-71671227D01*
X89151387Y-71679079D01*
X89172457Y-71689044D01*
X89192448Y-71701026D01*
X89211168Y-71714910D01*
X89228438Y-71730562D01*
X89244090Y-71747832D01*
X89257974Y-71766552D01*
X89269956Y-71786543D01*
X89279921Y-71807613D01*
X89287773Y-71829557D01*
X89293437Y-71852166D01*
X89296856Y-71875221D01*
X89298000Y-71898500D01*
X89298000Y-72373500D01*
X89296856Y-72396779D01*
X89293437Y-72419834D01*
X89287773Y-72442443D01*
X89279921Y-72464387D01*
X89269956Y-72485457D01*
X89257974Y-72505448D01*
X89244090Y-72524168D01*
X89228438Y-72541438D01*
X89211168Y-72557090D01*
X89192448Y-72570974D01*
X89172457Y-72582956D01*
X89151387Y-72592921D01*
X89129443Y-72600773D01*
X89106834Y-72606437D01*
X89083779Y-72609856D01*
X89060500Y-72611000D01*
X88485500Y-72611000D01*
X88462221Y-72609856D01*
X88439166Y-72606437D01*
X88416557Y-72600773D01*
X88394613Y-72592921D01*
X88373543Y-72582956D01*
X88353552Y-72570974D01*
X88334832Y-72557090D01*
X88317562Y-72541438D01*
X88301910Y-72524168D01*
X88288026Y-72505448D01*
X88276044Y-72485457D01*
X88266079Y-72464387D01*
X88258227Y-72442443D01*
X88252563Y-72419834D01*
X88249144Y-72396779D01*
X88248000Y-72373500D01*
X88248000Y-71898500D01*
X88249144Y-71875221D01*
X88252563Y-71852166D01*
X88258227Y-71829557D01*
X88266079Y-71807613D01*
X88276044Y-71786543D01*
X88288026Y-71766552D01*
X88301910Y-71747832D01*
X88317562Y-71730562D01*
X88334832Y-71714910D01*
X88353552Y-71701026D01*
X88373543Y-71689044D01*
X88394613Y-71679079D01*
X88416557Y-71671227D01*
X88439166Y-71665563D01*
X88462221Y-71662144D01*
X88485500Y-71661000D01*
X89060500Y-71661000D01*
X89083779Y-71662144D01*
G37*
G36*
X97034779Y-67534144D02*
G01*
X97057834Y-67537563D01*
X97080443Y-67543227D01*
X97102387Y-67551079D01*
X97123457Y-67561044D01*
X97143448Y-67573026D01*
X97162168Y-67586910D01*
X97179438Y-67602562D01*
X97195090Y-67619832D01*
X97208974Y-67638552D01*
X97220956Y-67658543D01*
X97230921Y-67679613D01*
X97238773Y-67701557D01*
X97244437Y-67724166D01*
X97247856Y-67747221D01*
X97249000Y-67770500D01*
X97249000Y-68345500D01*
X97247856Y-68368779D01*
X97244437Y-68391834D01*
X97238773Y-68414443D01*
X97230921Y-68436387D01*
X97220956Y-68457457D01*
X97208974Y-68477448D01*
X97195090Y-68496168D01*
X97179438Y-68513438D01*
X97162168Y-68529090D01*
X97143448Y-68542974D01*
X97123457Y-68554956D01*
X97102387Y-68564921D01*
X97080443Y-68572773D01*
X97057834Y-68578437D01*
X97034779Y-68581856D01*
X97011500Y-68583000D01*
X96536500Y-68583000D01*
X96513221Y-68581856D01*
X96490166Y-68578437D01*
X96467557Y-68572773D01*
X96445613Y-68564921D01*
X96424543Y-68554956D01*
X96404552Y-68542974D01*
X96385832Y-68529090D01*
X96368562Y-68513438D01*
X96352910Y-68496168D01*
X96339026Y-68477448D01*
X96327044Y-68457457D01*
X96317079Y-68436387D01*
X96309227Y-68414443D01*
X96303563Y-68391834D01*
X96300144Y-68368779D01*
X96299000Y-68345500D01*
X96299000Y-67770500D01*
X96300144Y-67747221D01*
X96303563Y-67724166D01*
X96309227Y-67701557D01*
X96317079Y-67679613D01*
X96327044Y-67658543D01*
X96339026Y-67638552D01*
X96352910Y-67619832D01*
X96368562Y-67602562D01*
X96385832Y-67586910D01*
X96404552Y-67573026D01*
X96424543Y-67561044D01*
X96445613Y-67551079D01*
X96467557Y-67543227D01*
X96490166Y-67537563D01*
X96513221Y-67534144D01*
X96536500Y-67533000D01*
X97011500Y-67533000D01*
X97034779Y-67534144D01*
G37*
G36*
X97034779Y-65784144D02*
G01*
X97057834Y-65787563D01*
X97080443Y-65793227D01*
X97102387Y-65801079D01*
X97123457Y-65811044D01*
X97143448Y-65823026D01*
X97162168Y-65836910D01*
X97179438Y-65852562D01*
X97195090Y-65869832D01*
X97208974Y-65888552D01*
X97220956Y-65908543D01*
X97230921Y-65929613D01*
X97238773Y-65951557D01*
X97244437Y-65974166D01*
X97247856Y-65997221D01*
X97249000Y-66020500D01*
X97249000Y-66595500D01*
X97247856Y-66618779D01*
X97244437Y-66641834D01*
X97238773Y-66664443D01*
X97230921Y-66686387D01*
X97220956Y-66707457D01*
X97208974Y-66727448D01*
X97195090Y-66746168D01*
X97179438Y-66763438D01*
X97162168Y-66779090D01*
X97143448Y-66792974D01*
X97123457Y-66804956D01*
X97102387Y-66814921D01*
X97080443Y-66822773D01*
X97057834Y-66828437D01*
X97034779Y-66831856D01*
X97011500Y-66833000D01*
X96536500Y-66833000D01*
X96513221Y-66831856D01*
X96490166Y-66828437D01*
X96467557Y-66822773D01*
X96445613Y-66814921D01*
X96424543Y-66804956D01*
X96404552Y-66792974D01*
X96385832Y-66779090D01*
X96368562Y-66763438D01*
X96352910Y-66746168D01*
X96339026Y-66727448D01*
X96327044Y-66707457D01*
X96317079Y-66686387D01*
X96309227Y-66664443D01*
X96303563Y-66641834D01*
X96300144Y-66618779D01*
X96299000Y-66595500D01*
X96299000Y-66020500D01*
X96300144Y-65997221D01*
X96303563Y-65974166D01*
X96309227Y-65951557D01*
X96317079Y-65929613D01*
X96327044Y-65908543D01*
X96339026Y-65888552D01*
X96352910Y-65869832D01*
X96368562Y-65852562D01*
X96385832Y-65836910D01*
X96404552Y-65823026D01*
X96424543Y-65811044D01*
X96445613Y-65801079D01*
X96467557Y-65793227D01*
X96490166Y-65787563D01*
X96513221Y-65784144D01*
X96536500Y-65783000D01*
X97011500Y-65783000D01*
X97034779Y-65784144D01*
G37*
G36*
X82556779Y-72614144D02*
G01*
X82579834Y-72617563D01*
X82602443Y-72623227D01*
X82624387Y-72631079D01*
X82645457Y-72641044D01*
X82665448Y-72653026D01*
X82684168Y-72666910D01*
X82701438Y-72682562D01*
X82717090Y-72699832D01*
X82730974Y-72718552D01*
X82742956Y-72738543D01*
X82752921Y-72759613D01*
X82760773Y-72781557D01*
X82766437Y-72804166D01*
X82769856Y-72827221D01*
X82771000Y-72850500D01*
X82771000Y-73425500D01*
X82769856Y-73448779D01*
X82766437Y-73471834D01*
X82760773Y-73494443D01*
X82752921Y-73516387D01*
X82742956Y-73537457D01*
X82730974Y-73557448D01*
X82717090Y-73576168D01*
X82701438Y-73593438D01*
X82684168Y-73609090D01*
X82665448Y-73622974D01*
X82645457Y-73634956D01*
X82624387Y-73644921D01*
X82602443Y-73652773D01*
X82579834Y-73658437D01*
X82556779Y-73661856D01*
X82533500Y-73663000D01*
X82058500Y-73663000D01*
X82035221Y-73661856D01*
X82012166Y-73658437D01*
X81989557Y-73652773D01*
X81967613Y-73644921D01*
X81946543Y-73634956D01*
X81926552Y-73622974D01*
X81907832Y-73609090D01*
X81890562Y-73593438D01*
X81874910Y-73576168D01*
X81861026Y-73557448D01*
X81849044Y-73537457D01*
X81839079Y-73516387D01*
X81831227Y-73494443D01*
X81825563Y-73471834D01*
X81822144Y-73448779D01*
X81821000Y-73425500D01*
X81821000Y-72850500D01*
X81822144Y-72827221D01*
X81825563Y-72804166D01*
X81831227Y-72781557D01*
X81839079Y-72759613D01*
X81849044Y-72738543D01*
X81861026Y-72718552D01*
X81874910Y-72699832D01*
X81890562Y-72682562D01*
X81907832Y-72666910D01*
X81926552Y-72653026D01*
X81946543Y-72641044D01*
X81967613Y-72631079D01*
X81989557Y-72623227D01*
X82012166Y-72617563D01*
X82035221Y-72614144D01*
X82058500Y-72613000D01*
X82533500Y-72613000D01*
X82556779Y-72614144D01*
G37*
G36*
X82556779Y-70864144D02*
G01*
X82579834Y-70867563D01*
X82602443Y-70873227D01*
X82624387Y-70881079D01*
X82645457Y-70891044D01*
X82665448Y-70903026D01*
X82684168Y-70916910D01*
X82701438Y-70932562D01*
X82717090Y-70949832D01*
X82730974Y-70968552D01*
X82742956Y-70988543D01*
X82752921Y-71009613D01*
X82760773Y-71031557D01*
X82766437Y-71054166D01*
X82769856Y-71077221D01*
X82771000Y-71100500D01*
X82771000Y-71675500D01*
X82769856Y-71698779D01*
X82766437Y-71721834D01*
X82760773Y-71744443D01*
X82752921Y-71766387D01*
X82742956Y-71787457D01*
X82730974Y-71807448D01*
X82717090Y-71826168D01*
X82701438Y-71843438D01*
X82684168Y-71859090D01*
X82665448Y-71872974D01*
X82645457Y-71884956D01*
X82624387Y-71894921D01*
X82602443Y-71902773D01*
X82579834Y-71908437D01*
X82556779Y-71911856D01*
X82533500Y-71913000D01*
X82058500Y-71913000D01*
X82035221Y-71911856D01*
X82012166Y-71908437D01*
X81989557Y-71902773D01*
X81967613Y-71894921D01*
X81946543Y-71884956D01*
X81926552Y-71872974D01*
X81907832Y-71859090D01*
X81890562Y-71843438D01*
X81874910Y-71826168D01*
X81861026Y-71807448D01*
X81849044Y-71787457D01*
X81839079Y-71766387D01*
X81831227Y-71744443D01*
X81825563Y-71721834D01*
X81822144Y-71698779D01*
X81821000Y-71675500D01*
X81821000Y-71100500D01*
X81822144Y-71077221D01*
X81825563Y-71054166D01*
X81831227Y-71031557D01*
X81839079Y-71009613D01*
X81849044Y-70988543D01*
X81861026Y-70968552D01*
X81874910Y-70949832D01*
X81890562Y-70932562D01*
X81907832Y-70916910D01*
X81926552Y-70903026D01*
X81946543Y-70891044D01*
X81967613Y-70881079D01*
X81989557Y-70873227D01*
X82012166Y-70867563D01*
X82035221Y-70864144D01*
X82058500Y-70863000D01*
X82533500Y-70863000D01*
X82556779Y-70864144D01*
G37*
G36*
X68205779Y-35911144D02*
G01*
X68228834Y-35914563D01*
X68251443Y-35920227D01*
X68273387Y-35928079D01*
X68294457Y-35938044D01*
X68314448Y-35950026D01*
X68333168Y-35963910D01*
X68350438Y-35979562D01*
X68366090Y-35996832D01*
X68379974Y-36015552D01*
X68391956Y-36035543D01*
X68401921Y-36056613D01*
X68409773Y-36078557D01*
X68415437Y-36101166D01*
X68418856Y-36124221D01*
X68420000Y-36147500D01*
X68420000Y-36722500D01*
X68418856Y-36745779D01*
X68415437Y-36768834D01*
X68409773Y-36791443D01*
X68401921Y-36813387D01*
X68391956Y-36834457D01*
X68379974Y-36854448D01*
X68366090Y-36873168D01*
X68350438Y-36890438D01*
X68333168Y-36906090D01*
X68314448Y-36919974D01*
X68294457Y-36931956D01*
X68273387Y-36941921D01*
X68251443Y-36949773D01*
X68228834Y-36955437D01*
X68205779Y-36958856D01*
X68182500Y-36960000D01*
X67707500Y-36960000D01*
X67684221Y-36958856D01*
X67661166Y-36955437D01*
X67638557Y-36949773D01*
X67616613Y-36941921D01*
X67595543Y-36931956D01*
X67575552Y-36919974D01*
X67556832Y-36906090D01*
X67539562Y-36890438D01*
X67523910Y-36873168D01*
X67510026Y-36854448D01*
X67498044Y-36834457D01*
X67488079Y-36813387D01*
X67480227Y-36791443D01*
X67474563Y-36768834D01*
X67471144Y-36745779D01*
X67470000Y-36722500D01*
X67470000Y-36147500D01*
X67471144Y-36124221D01*
X67474563Y-36101166D01*
X67480227Y-36078557D01*
X67488079Y-36056613D01*
X67498044Y-36035543D01*
X67510026Y-36015552D01*
X67523910Y-35996832D01*
X67539562Y-35979562D01*
X67556832Y-35963910D01*
X67575552Y-35950026D01*
X67595543Y-35938044D01*
X67616613Y-35928079D01*
X67638557Y-35920227D01*
X67661166Y-35914563D01*
X67684221Y-35911144D01*
X67707500Y-35910000D01*
X68182500Y-35910000D01*
X68205779Y-35911144D01*
G37*
G36*
X68205779Y-34161144D02*
G01*
X68228834Y-34164563D01*
X68251443Y-34170227D01*
X68273387Y-34178079D01*
X68294457Y-34188044D01*
X68314448Y-34200026D01*
X68333168Y-34213910D01*
X68350438Y-34229562D01*
X68366090Y-34246832D01*
X68379974Y-34265552D01*
X68391956Y-34285543D01*
X68401921Y-34306613D01*
X68409773Y-34328557D01*
X68415437Y-34351166D01*
X68418856Y-34374221D01*
X68420000Y-34397500D01*
X68420000Y-34972500D01*
X68418856Y-34995779D01*
X68415437Y-35018834D01*
X68409773Y-35041443D01*
X68401921Y-35063387D01*
X68391956Y-35084457D01*
X68379974Y-35104448D01*
X68366090Y-35123168D01*
X68350438Y-35140438D01*
X68333168Y-35156090D01*
X68314448Y-35169974D01*
X68294457Y-35181956D01*
X68273387Y-35191921D01*
X68251443Y-35199773D01*
X68228834Y-35205437D01*
X68205779Y-35208856D01*
X68182500Y-35210000D01*
X67707500Y-35210000D01*
X67684221Y-35208856D01*
X67661166Y-35205437D01*
X67638557Y-35199773D01*
X67616613Y-35191921D01*
X67595543Y-35181956D01*
X67575552Y-35169974D01*
X67556832Y-35156090D01*
X67539562Y-35140438D01*
X67523910Y-35123168D01*
X67510026Y-35104448D01*
X67498044Y-35084457D01*
X67488079Y-35063387D01*
X67480227Y-35041443D01*
X67474563Y-35018834D01*
X67471144Y-34995779D01*
X67470000Y-34972500D01*
X67470000Y-34397500D01*
X67471144Y-34374221D01*
X67474563Y-34351166D01*
X67480227Y-34328557D01*
X67488079Y-34306613D01*
X67498044Y-34285543D01*
X67510026Y-34265552D01*
X67523910Y-34246832D01*
X67539562Y-34229562D01*
X67556832Y-34213910D01*
X67575552Y-34200026D01*
X67595543Y-34188044D01*
X67616613Y-34178079D01*
X67638557Y-34170227D01*
X67661166Y-34164563D01*
X67684221Y-34161144D01*
X67707500Y-34160000D01*
X68182500Y-34160000D01*
X68205779Y-34161144D01*
G37*
G36*
X23501779Y-72583144D02*
G01*
X23524834Y-72586563D01*
X23547443Y-72592227D01*
X23569387Y-72600079D01*
X23590457Y-72610044D01*
X23610448Y-72622026D01*
X23629168Y-72635910D01*
X23646438Y-72651562D01*
X23662090Y-72668832D01*
X23675974Y-72687552D01*
X23687956Y-72707543D01*
X23697921Y-72728613D01*
X23705773Y-72750557D01*
X23711437Y-72773166D01*
X23714856Y-72796221D01*
X23716000Y-72819500D01*
X23716000Y-73394500D01*
X23714856Y-73417779D01*
X23711437Y-73440834D01*
X23705773Y-73463443D01*
X23697921Y-73485387D01*
X23687956Y-73506457D01*
X23675974Y-73526448D01*
X23662090Y-73545168D01*
X23646438Y-73562438D01*
X23629168Y-73578090D01*
X23610448Y-73591974D01*
X23590457Y-73603956D01*
X23569387Y-73613921D01*
X23547443Y-73621773D01*
X23524834Y-73627437D01*
X23501779Y-73630856D01*
X23478500Y-73632000D01*
X23003500Y-73632000D01*
X22980221Y-73630856D01*
X22957166Y-73627437D01*
X22934557Y-73621773D01*
X22912613Y-73613921D01*
X22891543Y-73603956D01*
X22871552Y-73591974D01*
X22852832Y-73578090D01*
X22835562Y-73562438D01*
X22819910Y-73545168D01*
X22806026Y-73526448D01*
X22794044Y-73506457D01*
X22784079Y-73485387D01*
X22776227Y-73463443D01*
X22770563Y-73440834D01*
X22767144Y-73417779D01*
X22766000Y-73394500D01*
X22766000Y-72819500D01*
X22767144Y-72796221D01*
X22770563Y-72773166D01*
X22776227Y-72750557D01*
X22784079Y-72728613D01*
X22794044Y-72707543D01*
X22806026Y-72687552D01*
X22819910Y-72668832D01*
X22835562Y-72651562D01*
X22852832Y-72635910D01*
X22871552Y-72622026D01*
X22891543Y-72610044D01*
X22912613Y-72600079D01*
X22934557Y-72592227D01*
X22957166Y-72586563D01*
X22980221Y-72583144D01*
X23003500Y-72582000D01*
X23478500Y-72582000D01*
X23501779Y-72583144D01*
G37*
G36*
X23501779Y-70833144D02*
G01*
X23524834Y-70836563D01*
X23547443Y-70842227D01*
X23569387Y-70850079D01*
X23590457Y-70860044D01*
X23610448Y-70872026D01*
X23629168Y-70885910D01*
X23646438Y-70901562D01*
X23662090Y-70918832D01*
X23675974Y-70937552D01*
X23687956Y-70957543D01*
X23697921Y-70978613D01*
X23705773Y-71000557D01*
X23711437Y-71023166D01*
X23714856Y-71046221D01*
X23716000Y-71069500D01*
X23716000Y-71644500D01*
X23714856Y-71667779D01*
X23711437Y-71690834D01*
X23705773Y-71713443D01*
X23697921Y-71735387D01*
X23687956Y-71756457D01*
X23675974Y-71776448D01*
X23662090Y-71795168D01*
X23646438Y-71812438D01*
X23629168Y-71828090D01*
X23610448Y-71841974D01*
X23590457Y-71853956D01*
X23569387Y-71863921D01*
X23547443Y-71871773D01*
X23524834Y-71877437D01*
X23501779Y-71880856D01*
X23478500Y-71882000D01*
X23003500Y-71882000D01*
X22980221Y-71880856D01*
X22957166Y-71877437D01*
X22934557Y-71871773D01*
X22912613Y-71863921D01*
X22891543Y-71853956D01*
X22871552Y-71841974D01*
X22852832Y-71828090D01*
X22835562Y-71812438D01*
X22819910Y-71795168D01*
X22806026Y-71776448D01*
X22794044Y-71756457D01*
X22784079Y-71735387D01*
X22776227Y-71713443D01*
X22770563Y-71690834D01*
X22767144Y-71667779D01*
X22766000Y-71644500D01*
X22766000Y-71069500D01*
X22767144Y-71046221D01*
X22770563Y-71023166D01*
X22776227Y-71000557D01*
X22784079Y-70978613D01*
X22794044Y-70957543D01*
X22806026Y-70937552D01*
X22819910Y-70918832D01*
X22835562Y-70901562D01*
X22852832Y-70885910D01*
X22871552Y-70872026D01*
X22891543Y-70860044D01*
X22912613Y-70850079D01*
X22934557Y-70842227D01*
X22957166Y-70836563D01*
X22980221Y-70833144D01*
X23003500Y-70832000D01*
X23478500Y-70832000D01*
X23501779Y-70833144D01*
G37*
G36*
X24618279Y-47786144D02*
G01*
X24641334Y-47789563D01*
X24663943Y-47795227D01*
X24685887Y-47803079D01*
X24706957Y-47813044D01*
X24726948Y-47825026D01*
X24745668Y-47838910D01*
X24762938Y-47854562D01*
X24778590Y-47871832D01*
X24792474Y-47890552D01*
X24804456Y-47910543D01*
X24814421Y-47931613D01*
X24822273Y-47953557D01*
X24827937Y-47976166D01*
X24831356Y-47999221D01*
X24832500Y-48022500D01*
X24832500Y-48497500D01*
X24831356Y-48520779D01*
X24827937Y-48543834D01*
X24822273Y-48566443D01*
X24814421Y-48588387D01*
X24804456Y-48609457D01*
X24792474Y-48629448D01*
X24778590Y-48648168D01*
X24762938Y-48665438D01*
X24745668Y-48681090D01*
X24726948Y-48694974D01*
X24706957Y-48706956D01*
X24685887Y-48716921D01*
X24663943Y-48724773D01*
X24641334Y-48730437D01*
X24618279Y-48733856D01*
X24595000Y-48735000D01*
X24020000Y-48735000D01*
X23996721Y-48733856D01*
X23973666Y-48730437D01*
X23951057Y-48724773D01*
X23929113Y-48716921D01*
X23908043Y-48706956D01*
X23888052Y-48694974D01*
X23869332Y-48681090D01*
X23852062Y-48665438D01*
X23836410Y-48648168D01*
X23822526Y-48629448D01*
X23810544Y-48609457D01*
X23800579Y-48588387D01*
X23792727Y-48566443D01*
X23787063Y-48543834D01*
X23783644Y-48520779D01*
X23782500Y-48497500D01*
X23782500Y-48022500D01*
X23783644Y-47999221D01*
X23787063Y-47976166D01*
X23792727Y-47953557D01*
X23800579Y-47931613D01*
X23810544Y-47910543D01*
X23822526Y-47890552D01*
X23836410Y-47871832D01*
X23852062Y-47854562D01*
X23869332Y-47838910D01*
X23888052Y-47825026D01*
X23908043Y-47813044D01*
X23929113Y-47803079D01*
X23951057Y-47795227D01*
X23973666Y-47789563D01*
X23996721Y-47786144D01*
X24020000Y-47785000D01*
X24595000Y-47785000D01*
X24618279Y-47786144D01*
G37*
G36*
X26368279Y-47786144D02*
G01*
X26391334Y-47789563D01*
X26413943Y-47795227D01*
X26435887Y-47803079D01*
X26456957Y-47813044D01*
X26476948Y-47825026D01*
X26495668Y-47838910D01*
X26512938Y-47854562D01*
X26528590Y-47871832D01*
X26542474Y-47890552D01*
X26554456Y-47910543D01*
X26564421Y-47931613D01*
X26572273Y-47953557D01*
X26577937Y-47976166D01*
X26581356Y-47999221D01*
X26582500Y-48022500D01*
X26582500Y-48497500D01*
X26581356Y-48520779D01*
X26577937Y-48543834D01*
X26572273Y-48566443D01*
X26564421Y-48588387D01*
X26554456Y-48609457D01*
X26542474Y-48629448D01*
X26528590Y-48648168D01*
X26512938Y-48665438D01*
X26495668Y-48681090D01*
X26476948Y-48694974D01*
X26456957Y-48706956D01*
X26435887Y-48716921D01*
X26413943Y-48724773D01*
X26391334Y-48730437D01*
X26368279Y-48733856D01*
X26345000Y-48735000D01*
X25770000Y-48735000D01*
X25746721Y-48733856D01*
X25723666Y-48730437D01*
X25701057Y-48724773D01*
X25679113Y-48716921D01*
X25658043Y-48706956D01*
X25638052Y-48694974D01*
X25619332Y-48681090D01*
X25602062Y-48665438D01*
X25586410Y-48648168D01*
X25572526Y-48629448D01*
X25560544Y-48609457D01*
X25550579Y-48588387D01*
X25542727Y-48566443D01*
X25537063Y-48543834D01*
X25533644Y-48520779D01*
X25532500Y-48497500D01*
X25532500Y-48022500D01*
X25533644Y-47999221D01*
X25537063Y-47976166D01*
X25542727Y-47953557D01*
X25550579Y-47931613D01*
X25560544Y-47910543D01*
X25572526Y-47890552D01*
X25586410Y-47871832D01*
X25602062Y-47854562D01*
X25619332Y-47838910D01*
X25638052Y-47825026D01*
X25658043Y-47813044D01*
X25679113Y-47803079D01*
X25701057Y-47795227D01*
X25723666Y-47789563D01*
X25746721Y-47786144D01*
X25770000Y-47785000D01*
X26345000Y-47785000D01*
X26368279Y-47786144D01*
G37*
G36*
X26585779Y-56676144D02*
G01*
X26608834Y-56679563D01*
X26631443Y-56685227D01*
X26653387Y-56693079D01*
X26674457Y-56703044D01*
X26694448Y-56715026D01*
X26713168Y-56728910D01*
X26730438Y-56744562D01*
X26746090Y-56761832D01*
X26759974Y-56780552D01*
X26771956Y-56800543D01*
X26781921Y-56821613D01*
X26789773Y-56843557D01*
X26795437Y-56866166D01*
X26798856Y-56889221D01*
X26800000Y-56912500D01*
X26800000Y-57387500D01*
X26798856Y-57410779D01*
X26795437Y-57433834D01*
X26789773Y-57456443D01*
X26781921Y-57478387D01*
X26771956Y-57499457D01*
X26759974Y-57519448D01*
X26746090Y-57538168D01*
X26730438Y-57555438D01*
X26713168Y-57571090D01*
X26694448Y-57584974D01*
X26674457Y-57596956D01*
X26653387Y-57606921D01*
X26631443Y-57614773D01*
X26608834Y-57620437D01*
X26585779Y-57623856D01*
X26562500Y-57625000D01*
X25987500Y-57625000D01*
X25964221Y-57623856D01*
X25941166Y-57620437D01*
X25918557Y-57614773D01*
X25896613Y-57606921D01*
X25875543Y-57596956D01*
X25855552Y-57584974D01*
X25836832Y-57571090D01*
X25819562Y-57555438D01*
X25803910Y-57538168D01*
X25790026Y-57519448D01*
X25778044Y-57499457D01*
X25768079Y-57478387D01*
X25760227Y-57456443D01*
X25754563Y-57433834D01*
X25751144Y-57410779D01*
X25750000Y-57387500D01*
X25750000Y-56912500D01*
X25751144Y-56889221D01*
X25754563Y-56866166D01*
X25760227Y-56843557D01*
X25768079Y-56821613D01*
X25778044Y-56800543D01*
X25790026Y-56780552D01*
X25803910Y-56761832D01*
X25819562Y-56744562D01*
X25836832Y-56728910D01*
X25855552Y-56715026D01*
X25875543Y-56703044D01*
X25896613Y-56693079D01*
X25918557Y-56685227D01*
X25941166Y-56679563D01*
X25964221Y-56676144D01*
X25987500Y-56675000D01*
X26562500Y-56675000D01*
X26585779Y-56676144D01*
G37*
G36*
X24835779Y-56676144D02*
G01*
X24858834Y-56679563D01*
X24881443Y-56685227D01*
X24903387Y-56693079D01*
X24924457Y-56703044D01*
X24944448Y-56715026D01*
X24963168Y-56728910D01*
X24980438Y-56744562D01*
X24996090Y-56761832D01*
X25009974Y-56780552D01*
X25021956Y-56800543D01*
X25031921Y-56821613D01*
X25039773Y-56843557D01*
X25045437Y-56866166D01*
X25048856Y-56889221D01*
X25050000Y-56912500D01*
X25050000Y-57387500D01*
X25048856Y-57410779D01*
X25045437Y-57433834D01*
X25039773Y-57456443D01*
X25031921Y-57478387D01*
X25021956Y-57499457D01*
X25009974Y-57519448D01*
X24996090Y-57538168D01*
X24980438Y-57555438D01*
X24963168Y-57571090D01*
X24944448Y-57584974D01*
X24924457Y-57596956D01*
X24903387Y-57606921D01*
X24881443Y-57614773D01*
X24858834Y-57620437D01*
X24835779Y-57623856D01*
X24812500Y-57625000D01*
X24237500Y-57625000D01*
X24214221Y-57623856D01*
X24191166Y-57620437D01*
X24168557Y-57614773D01*
X24146613Y-57606921D01*
X24125543Y-57596956D01*
X24105552Y-57584974D01*
X24086832Y-57571090D01*
X24069562Y-57555438D01*
X24053910Y-57538168D01*
X24040026Y-57519448D01*
X24028044Y-57499457D01*
X24018079Y-57478387D01*
X24010227Y-57456443D01*
X24004563Y-57433834D01*
X24001144Y-57410779D01*
X24000000Y-57387500D01*
X24000000Y-56912500D01*
X24001144Y-56889221D01*
X24004563Y-56866166D01*
X24010227Y-56843557D01*
X24018079Y-56821613D01*
X24028044Y-56800543D01*
X24040026Y-56780552D01*
X24053910Y-56761832D01*
X24069562Y-56744562D01*
X24086832Y-56728910D01*
X24105552Y-56715026D01*
X24125543Y-56703044D01*
X24146613Y-56693079D01*
X24168557Y-56685227D01*
X24191166Y-56679563D01*
X24214221Y-56676144D01*
X24237500Y-56675000D01*
X24812500Y-56675000D01*
X24835779Y-56676144D01*
G37*
G36*
X35213279Y-56676144D02*
G01*
X35236334Y-56679563D01*
X35258943Y-56685227D01*
X35280887Y-56693079D01*
X35301957Y-56703044D01*
X35321948Y-56715026D01*
X35340668Y-56728910D01*
X35357938Y-56744562D01*
X35373590Y-56761832D01*
X35387474Y-56780552D01*
X35399456Y-56800543D01*
X35409421Y-56821613D01*
X35417273Y-56843557D01*
X35422937Y-56866166D01*
X35426356Y-56889221D01*
X35427500Y-56912500D01*
X35427500Y-57387500D01*
X35426356Y-57410779D01*
X35422937Y-57433834D01*
X35417273Y-57456443D01*
X35409421Y-57478387D01*
X35399456Y-57499457D01*
X35387474Y-57519448D01*
X35373590Y-57538168D01*
X35357938Y-57555438D01*
X35340668Y-57571090D01*
X35321948Y-57584974D01*
X35301957Y-57596956D01*
X35280887Y-57606921D01*
X35258943Y-57614773D01*
X35236334Y-57620437D01*
X35213279Y-57623856D01*
X35190000Y-57625000D01*
X34615000Y-57625000D01*
X34591721Y-57623856D01*
X34568666Y-57620437D01*
X34546057Y-57614773D01*
X34524113Y-57606921D01*
X34503043Y-57596956D01*
X34483052Y-57584974D01*
X34464332Y-57571090D01*
X34447062Y-57555438D01*
X34431410Y-57538168D01*
X34417526Y-57519448D01*
X34405544Y-57499457D01*
X34395579Y-57478387D01*
X34387727Y-57456443D01*
X34382063Y-57433834D01*
X34378644Y-57410779D01*
X34377500Y-57387500D01*
X34377500Y-56912500D01*
X34378644Y-56889221D01*
X34382063Y-56866166D01*
X34387727Y-56843557D01*
X34395579Y-56821613D01*
X34405544Y-56800543D01*
X34417526Y-56780552D01*
X34431410Y-56761832D01*
X34447062Y-56744562D01*
X34464332Y-56728910D01*
X34483052Y-56715026D01*
X34503043Y-56703044D01*
X34524113Y-56693079D01*
X34546057Y-56685227D01*
X34568666Y-56679563D01*
X34591721Y-56676144D01*
X34615000Y-56675000D01*
X35190000Y-56675000D01*
X35213279Y-56676144D01*
G37*
G36*
X36963279Y-56676144D02*
G01*
X36986334Y-56679563D01*
X37008943Y-56685227D01*
X37030887Y-56693079D01*
X37051957Y-56703044D01*
X37071948Y-56715026D01*
X37090668Y-56728910D01*
X37107938Y-56744562D01*
X37123590Y-56761832D01*
X37137474Y-56780552D01*
X37149456Y-56800543D01*
X37159421Y-56821613D01*
X37167273Y-56843557D01*
X37172937Y-56866166D01*
X37176356Y-56889221D01*
X37177500Y-56912500D01*
X37177500Y-57387500D01*
X37176356Y-57410779D01*
X37172937Y-57433834D01*
X37167273Y-57456443D01*
X37159421Y-57478387D01*
X37149456Y-57499457D01*
X37137474Y-57519448D01*
X37123590Y-57538168D01*
X37107938Y-57555438D01*
X37090668Y-57571090D01*
X37071948Y-57584974D01*
X37051957Y-57596956D01*
X37030887Y-57606921D01*
X37008943Y-57614773D01*
X36986334Y-57620437D01*
X36963279Y-57623856D01*
X36940000Y-57625000D01*
X36365000Y-57625000D01*
X36341721Y-57623856D01*
X36318666Y-57620437D01*
X36296057Y-57614773D01*
X36274113Y-57606921D01*
X36253043Y-57596956D01*
X36233052Y-57584974D01*
X36214332Y-57571090D01*
X36197062Y-57555438D01*
X36181410Y-57538168D01*
X36167526Y-57519448D01*
X36155544Y-57499457D01*
X36145579Y-57478387D01*
X36137727Y-57456443D01*
X36132063Y-57433834D01*
X36128644Y-57410779D01*
X36127500Y-57387500D01*
X36127500Y-56912500D01*
X36128644Y-56889221D01*
X36132063Y-56866166D01*
X36137727Y-56843557D01*
X36145579Y-56821613D01*
X36155544Y-56800543D01*
X36167526Y-56780552D01*
X36181410Y-56761832D01*
X36197062Y-56744562D01*
X36214332Y-56728910D01*
X36233052Y-56715026D01*
X36253043Y-56703044D01*
X36274113Y-56693079D01*
X36296057Y-56685227D01*
X36318666Y-56679563D01*
X36341721Y-56676144D01*
X36365000Y-56675000D01*
X36940000Y-56675000D01*
X36963279Y-56676144D01*
G37*
G36*
X18739779Y-55787144D02*
G01*
X18762834Y-55790563D01*
X18785443Y-55796227D01*
X18807387Y-55804079D01*
X18828457Y-55814044D01*
X18848448Y-55826026D01*
X18867168Y-55839910D01*
X18884438Y-55855562D01*
X18900090Y-55872832D01*
X18913974Y-55891552D01*
X18925956Y-55911543D01*
X18935921Y-55932613D01*
X18943773Y-55954557D01*
X18949437Y-55977166D01*
X18952856Y-56000221D01*
X18954000Y-56023500D01*
X18954000Y-56498500D01*
X18952856Y-56521779D01*
X18949437Y-56544834D01*
X18943773Y-56567443D01*
X18935921Y-56589387D01*
X18925956Y-56610457D01*
X18913974Y-56630448D01*
X18900090Y-56649168D01*
X18884438Y-56666438D01*
X18867168Y-56682090D01*
X18848448Y-56695974D01*
X18828457Y-56707956D01*
X18807387Y-56717921D01*
X18785443Y-56725773D01*
X18762834Y-56731437D01*
X18739779Y-56734856D01*
X18716500Y-56736000D01*
X18141500Y-56736000D01*
X18118221Y-56734856D01*
X18095166Y-56731437D01*
X18072557Y-56725773D01*
X18050613Y-56717921D01*
X18029543Y-56707956D01*
X18009552Y-56695974D01*
X17990832Y-56682090D01*
X17973562Y-56666438D01*
X17957910Y-56649168D01*
X17944026Y-56630448D01*
X17932044Y-56610457D01*
X17922079Y-56589387D01*
X17914227Y-56567443D01*
X17908563Y-56544834D01*
X17905144Y-56521779D01*
X17904000Y-56498500D01*
X17904000Y-56023500D01*
X17905144Y-56000221D01*
X17908563Y-55977166D01*
X17914227Y-55954557D01*
X17922079Y-55932613D01*
X17932044Y-55911543D01*
X17944026Y-55891552D01*
X17957910Y-55872832D01*
X17973562Y-55855562D01*
X17990832Y-55839910D01*
X18009552Y-55826026D01*
X18029543Y-55814044D01*
X18050613Y-55804079D01*
X18072557Y-55796227D01*
X18095166Y-55790563D01*
X18118221Y-55787144D01*
X18141500Y-55786000D01*
X18716500Y-55786000D01*
X18739779Y-55787144D01*
G37*
G36*
X20489779Y-55787144D02*
G01*
X20512834Y-55790563D01*
X20535443Y-55796227D01*
X20557387Y-55804079D01*
X20578457Y-55814044D01*
X20598448Y-55826026D01*
X20617168Y-55839910D01*
X20634438Y-55855562D01*
X20650090Y-55872832D01*
X20663974Y-55891552D01*
X20675956Y-55911543D01*
X20685921Y-55932613D01*
X20693773Y-55954557D01*
X20699437Y-55977166D01*
X20702856Y-56000221D01*
X20704000Y-56023500D01*
X20704000Y-56498500D01*
X20702856Y-56521779D01*
X20699437Y-56544834D01*
X20693773Y-56567443D01*
X20685921Y-56589387D01*
X20675956Y-56610457D01*
X20663974Y-56630448D01*
X20650090Y-56649168D01*
X20634438Y-56666438D01*
X20617168Y-56682090D01*
X20598448Y-56695974D01*
X20578457Y-56707956D01*
X20557387Y-56717921D01*
X20535443Y-56725773D01*
X20512834Y-56731437D01*
X20489779Y-56734856D01*
X20466500Y-56736000D01*
X19891500Y-56736000D01*
X19868221Y-56734856D01*
X19845166Y-56731437D01*
X19822557Y-56725773D01*
X19800613Y-56717921D01*
X19779543Y-56707956D01*
X19759552Y-56695974D01*
X19740832Y-56682090D01*
X19723562Y-56666438D01*
X19707910Y-56649168D01*
X19694026Y-56630448D01*
X19682044Y-56610457D01*
X19672079Y-56589387D01*
X19664227Y-56567443D01*
X19658563Y-56544834D01*
X19655144Y-56521779D01*
X19654000Y-56498500D01*
X19654000Y-56023500D01*
X19655144Y-56000221D01*
X19658563Y-55977166D01*
X19664227Y-55954557D01*
X19672079Y-55932613D01*
X19682044Y-55911543D01*
X19694026Y-55891552D01*
X19707910Y-55872832D01*
X19723562Y-55855562D01*
X19740832Y-55839910D01*
X19759552Y-55826026D01*
X19779543Y-55814044D01*
X19800613Y-55804079D01*
X19822557Y-55796227D01*
X19845166Y-55790563D01*
X19868221Y-55787144D01*
X19891500Y-55786000D01*
X20466500Y-55786000D01*
X20489779Y-55787144D01*
G37*
M02*
