G04 #@! TF.GenerationSoftware,KiCad,Pcbnew,(5.1.5)-3*
G04 #@! TF.CreationDate,2020-04-29T21:26:39+02:00*
G04 #@! TF.ProjectId,PONG_Display,504f4e47-5f44-4697-9370-6c61792e6b69,rev?*
G04 #@! TF.SameCoordinates,Original*
G04 #@! TF.FileFunction,Legend,Top*
G04 #@! TF.FilePolarity,Positive*
%FSLAX46Y46*%
G04 Gerber Fmt 4.6, Leading zero omitted, Abs format (unit mm)*
G04 Created by KiCad (PCBNEW (5.1.5)-3) date 2020-04-29 21:26:39*
%MOMM*%
%LPD*%
G04 APERTURE LIST*
%ADD10C,0.250000*%
%ADD11C,0.120000*%
%ADD12C,0.220000*%
%ADD13C,0.150000*%
G04 APERTURE END LIST*
D10*
X62738095Y-76500000D02*
X62642857Y-76452380D01*
X62500000Y-76452380D01*
X62357142Y-76500000D01*
X62261904Y-76595238D01*
X62214285Y-76690476D01*
X62166666Y-76880952D01*
X62166666Y-77023809D01*
X62214285Y-77214285D01*
X62261904Y-77309523D01*
X62357142Y-77404761D01*
X62500000Y-77452380D01*
X62595238Y-77452380D01*
X62738095Y-77404761D01*
X62785714Y-77357142D01*
X62785714Y-77023809D01*
X62595238Y-77023809D01*
X63214285Y-77452380D02*
X63214285Y-76452380D01*
X63785714Y-77452380D01*
X63785714Y-76452380D01*
X64261904Y-77452380D02*
X64261904Y-76452380D01*
X64500000Y-76452380D01*
X64642857Y-76500000D01*
X64738095Y-76595238D01*
X64785714Y-76690476D01*
X64833333Y-76880952D01*
X64833333Y-77023809D01*
X64785714Y-77214285D01*
X64738095Y-77309523D01*
X64642857Y-77404761D01*
X64500000Y-77452380D01*
X64261904Y-77452380D01*
X77605000Y-59007142D02*
X77557380Y-59102380D01*
X77557380Y-59245238D01*
X77605000Y-59388095D01*
X77700238Y-59483333D01*
X77795476Y-59530952D01*
X77985952Y-59578571D01*
X78128809Y-59578571D01*
X78319285Y-59530952D01*
X78414523Y-59483333D01*
X78509761Y-59388095D01*
X78557380Y-59245238D01*
X78557380Y-59150000D01*
X78509761Y-59007142D01*
X78462142Y-58959523D01*
X78128809Y-58959523D01*
X78128809Y-59150000D01*
X78557380Y-58530952D02*
X77557380Y-58530952D01*
X77557380Y-58150000D01*
X77605000Y-58054761D01*
X77652619Y-58007142D01*
X77747857Y-57959523D01*
X77890714Y-57959523D01*
X77985952Y-58007142D01*
X78033571Y-58054761D01*
X78081190Y-58150000D01*
X78081190Y-58530952D01*
X78557380Y-57530952D02*
X77557380Y-57530952D01*
X77557380Y-56864285D02*
X77557380Y-56673809D01*
X77605000Y-56578571D01*
X77700238Y-56483333D01*
X77890714Y-56435714D01*
X78224047Y-56435714D01*
X78414523Y-56483333D01*
X78509761Y-56578571D01*
X78557380Y-56673809D01*
X78557380Y-56864285D01*
X78509761Y-56959523D01*
X78414523Y-57054761D01*
X78224047Y-57102380D01*
X77890714Y-57102380D01*
X77700238Y-57054761D01*
X77605000Y-56959523D01*
X77557380Y-56864285D01*
X77557380Y-55340476D02*
X77557380Y-54721428D01*
X77938333Y-55054761D01*
X77938333Y-54911904D01*
X77985952Y-54816666D01*
X78033571Y-54769047D01*
X78128809Y-54721428D01*
X78366904Y-54721428D01*
X78462142Y-54769047D01*
X78509761Y-54816666D01*
X78557380Y-54911904D01*
X78557380Y-55197619D01*
X78509761Y-55292857D01*
X78462142Y-55340476D01*
X75065000Y-59007142D02*
X75017380Y-59102380D01*
X75017380Y-59245238D01*
X75065000Y-59388095D01*
X75160238Y-59483333D01*
X75255476Y-59530952D01*
X75445952Y-59578571D01*
X75588809Y-59578571D01*
X75779285Y-59530952D01*
X75874523Y-59483333D01*
X75969761Y-59388095D01*
X76017380Y-59245238D01*
X76017380Y-59150000D01*
X75969761Y-59007142D01*
X75922142Y-58959523D01*
X75588809Y-58959523D01*
X75588809Y-59150000D01*
X76017380Y-58530952D02*
X75017380Y-58530952D01*
X75017380Y-58150000D01*
X75065000Y-58054761D01*
X75112619Y-58007142D01*
X75207857Y-57959523D01*
X75350714Y-57959523D01*
X75445952Y-58007142D01*
X75493571Y-58054761D01*
X75541190Y-58150000D01*
X75541190Y-58530952D01*
X76017380Y-57530952D02*
X75017380Y-57530952D01*
X75017380Y-56864285D02*
X75017380Y-56673809D01*
X75065000Y-56578571D01*
X75160238Y-56483333D01*
X75350714Y-56435714D01*
X75684047Y-56435714D01*
X75874523Y-56483333D01*
X75969761Y-56578571D01*
X76017380Y-56673809D01*
X76017380Y-56864285D01*
X75969761Y-56959523D01*
X75874523Y-57054761D01*
X75684047Y-57102380D01*
X75350714Y-57102380D01*
X75160238Y-57054761D01*
X75065000Y-56959523D01*
X75017380Y-56864285D01*
X75112619Y-55292857D02*
X75065000Y-55245238D01*
X75017380Y-55150000D01*
X75017380Y-54911904D01*
X75065000Y-54816666D01*
X75112619Y-54769047D01*
X75207857Y-54721428D01*
X75303095Y-54721428D01*
X75445952Y-54769047D01*
X76017380Y-55340476D01*
X76017380Y-54721428D01*
X72525000Y-59007142D02*
X72477380Y-59102380D01*
X72477380Y-59245238D01*
X72525000Y-59388095D01*
X72620238Y-59483333D01*
X72715476Y-59530952D01*
X72905952Y-59578571D01*
X73048809Y-59578571D01*
X73239285Y-59530952D01*
X73334523Y-59483333D01*
X73429761Y-59388095D01*
X73477380Y-59245238D01*
X73477380Y-59150000D01*
X73429761Y-59007142D01*
X73382142Y-58959523D01*
X73048809Y-58959523D01*
X73048809Y-59150000D01*
X73477380Y-58530952D02*
X72477380Y-58530952D01*
X72477380Y-58150000D01*
X72525000Y-58054761D01*
X72572619Y-58007142D01*
X72667857Y-57959523D01*
X72810714Y-57959523D01*
X72905952Y-58007142D01*
X72953571Y-58054761D01*
X73001190Y-58150000D01*
X73001190Y-58530952D01*
X73477380Y-57530952D02*
X72477380Y-57530952D01*
X72477380Y-56864285D02*
X72477380Y-56673809D01*
X72525000Y-56578571D01*
X72620238Y-56483333D01*
X72810714Y-56435714D01*
X73144047Y-56435714D01*
X73334523Y-56483333D01*
X73429761Y-56578571D01*
X73477380Y-56673809D01*
X73477380Y-56864285D01*
X73429761Y-56959523D01*
X73334523Y-57054761D01*
X73144047Y-57102380D01*
X72810714Y-57102380D01*
X72620238Y-57054761D01*
X72525000Y-56959523D01*
X72477380Y-56864285D01*
X73477380Y-54721428D02*
X73477380Y-55292857D01*
X73477380Y-55007142D02*
X72477380Y-55007142D01*
X72620238Y-55102380D01*
X72715476Y-55197619D01*
X72763095Y-55292857D01*
X69985000Y-59007142D02*
X69937380Y-59102380D01*
X69937380Y-59245238D01*
X69985000Y-59388095D01*
X70080238Y-59483333D01*
X70175476Y-59530952D01*
X70365952Y-59578571D01*
X70508809Y-59578571D01*
X70699285Y-59530952D01*
X70794523Y-59483333D01*
X70889761Y-59388095D01*
X70937380Y-59245238D01*
X70937380Y-59150000D01*
X70889761Y-59007142D01*
X70842142Y-58959523D01*
X70508809Y-58959523D01*
X70508809Y-59150000D01*
X70937380Y-58530952D02*
X69937380Y-58530952D01*
X69937380Y-58150000D01*
X69985000Y-58054761D01*
X70032619Y-58007142D01*
X70127857Y-57959523D01*
X70270714Y-57959523D01*
X70365952Y-58007142D01*
X70413571Y-58054761D01*
X70461190Y-58150000D01*
X70461190Y-58530952D01*
X70937380Y-57530952D02*
X69937380Y-57530952D01*
X69937380Y-56864285D02*
X69937380Y-56673809D01*
X69985000Y-56578571D01*
X70080238Y-56483333D01*
X70270714Y-56435714D01*
X70604047Y-56435714D01*
X70794523Y-56483333D01*
X70889761Y-56578571D01*
X70937380Y-56673809D01*
X70937380Y-56864285D01*
X70889761Y-56959523D01*
X70794523Y-57054761D01*
X70604047Y-57102380D01*
X70270714Y-57102380D01*
X70080238Y-57054761D01*
X69985000Y-56959523D01*
X69937380Y-56864285D01*
X69937380Y-55054761D02*
X69937380Y-54959523D01*
X69985000Y-54864285D01*
X70032619Y-54816666D01*
X70127857Y-54769047D01*
X70318333Y-54721428D01*
X70556428Y-54721428D01*
X70746904Y-54769047D01*
X70842142Y-54816666D01*
X70889761Y-54864285D01*
X70937380Y-54959523D01*
X70937380Y-55054761D01*
X70889761Y-55150000D01*
X70842142Y-55197619D01*
X70746904Y-55245238D01*
X70556428Y-55292857D01*
X70318333Y-55292857D01*
X70127857Y-55245238D01*
X70032619Y-55197619D01*
X69985000Y-55150000D01*
X69937380Y-55054761D01*
X20256595Y-45664500D02*
X20161357Y-45616880D01*
X20018500Y-45616880D01*
X19875642Y-45664500D01*
X19780404Y-45759738D01*
X19732785Y-45854976D01*
X19685166Y-46045452D01*
X19685166Y-46188309D01*
X19732785Y-46378785D01*
X19780404Y-46474023D01*
X19875642Y-46569261D01*
X20018500Y-46616880D01*
X20113738Y-46616880D01*
X20256595Y-46569261D01*
X20304214Y-46521642D01*
X20304214Y-46188309D01*
X20113738Y-46188309D01*
X20732785Y-46616880D02*
X20732785Y-45616880D01*
X21304214Y-46616880D01*
X21304214Y-45616880D01*
X21780404Y-46616880D02*
X21780404Y-45616880D01*
X22018500Y-45616880D01*
X22161357Y-45664500D01*
X22256595Y-45759738D01*
X22304214Y-45854976D01*
X22351833Y-46045452D01*
X22351833Y-46188309D01*
X22304214Y-46378785D01*
X22256595Y-46474023D01*
X22161357Y-46569261D01*
X22018500Y-46616880D01*
X21780404Y-46616880D01*
X19875595Y-42822880D02*
X20447023Y-42822880D01*
X20161309Y-43822880D02*
X20161309Y-42822880D01*
X20685119Y-42822880D02*
X21351785Y-43822880D01*
X21351785Y-42822880D02*
X20685119Y-43822880D01*
X20407333Y-41155880D02*
X20074000Y-40679690D01*
X19835904Y-41155880D02*
X19835904Y-40155880D01*
X20216857Y-40155880D01*
X20312095Y-40203500D01*
X20359714Y-40251119D01*
X20407333Y-40346357D01*
X20407333Y-40489214D01*
X20359714Y-40584452D01*
X20312095Y-40632071D01*
X20216857Y-40679690D01*
X19835904Y-40679690D01*
X20740666Y-40155880D02*
X21407333Y-41155880D01*
X21407333Y-40155880D02*
X20740666Y-41155880D01*
X19812095Y-37679380D02*
X20431142Y-37679380D01*
X20097809Y-38060333D01*
X20240666Y-38060333D01*
X20335904Y-38107952D01*
X20383523Y-38155571D01*
X20431142Y-38250809D01*
X20431142Y-38488904D01*
X20383523Y-38584142D01*
X20335904Y-38631761D01*
X20240666Y-38679380D01*
X19954952Y-38679380D01*
X19859714Y-38631761D01*
X19812095Y-38584142D01*
X20716857Y-37679380D02*
X21050190Y-38679380D01*
X21383523Y-37679380D01*
X55911714Y-45600880D02*
X55340285Y-45600880D01*
X55626000Y-45600880D02*
X55626000Y-44600880D01*
X55530761Y-44743738D01*
X55435523Y-44838976D01*
X55340285Y-44886595D01*
X59404214Y-33853380D02*
X58832785Y-33853380D01*
X59118500Y-33853380D02*
X59118500Y-32853380D01*
X59023261Y-32996238D01*
X58928023Y-33091476D01*
X58832785Y-33139095D01*
X46482476Y-37361880D02*
X47101523Y-37361880D01*
X46768190Y-37742833D01*
X46911047Y-37742833D01*
X47006285Y-37790452D01*
X47053904Y-37838071D01*
X47101523Y-37933309D01*
X47101523Y-38171404D01*
X47053904Y-38266642D01*
X47006285Y-38314261D01*
X46911047Y-38361880D01*
X46625333Y-38361880D01*
X46530095Y-38314261D01*
X46482476Y-38266642D01*
X47482476Y-37457119D02*
X47530095Y-37409500D01*
X47625333Y-37361880D01*
X47863428Y-37361880D01*
X47958666Y-37409500D01*
X48006285Y-37457119D01*
X48053904Y-37552357D01*
X48053904Y-37647595D01*
X48006285Y-37790452D01*
X47434857Y-38361880D01*
X48053904Y-38361880D01*
X48482476Y-38266642D02*
X48530095Y-38314261D01*
X48482476Y-38361880D01*
X48434857Y-38314261D01*
X48482476Y-38266642D01*
X48482476Y-38361880D01*
X48863428Y-37361880D02*
X49530095Y-37361880D01*
X49101523Y-38361880D01*
X50339619Y-37361880D02*
X50149142Y-37361880D01*
X50053904Y-37409500D01*
X50006285Y-37457119D01*
X49911047Y-37599976D01*
X49863428Y-37790452D01*
X49863428Y-38171404D01*
X49911047Y-38266642D01*
X49958666Y-38314261D01*
X50053904Y-38361880D01*
X50244380Y-38361880D01*
X50339619Y-38314261D01*
X50387238Y-38266642D01*
X50434857Y-38171404D01*
X50434857Y-37933309D01*
X50387238Y-37838071D01*
X50339619Y-37790452D01*
X50244380Y-37742833D01*
X50053904Y-37742833D01*
X49958666Y-37790452D01*
X49911047Y-37838071D01*
X49863428Y-37933309D01*
X51006285Y-37790452D02*
X50911047Y-37742833D01*
X50863428Y-37695214D01*
X50815809Y-37599976D01*
X50815809Y-37552357D01*
X50863428Y-37457119D01*
X50911047Y-37409500D01*
X51006285Y-37361880D01*
X51196761Y-37361880D01*
X51292000Y-37409500D01*
X51339619Y-37457119D01*
X51387238Y-37552357D01*
X51387238Y-37599976D01*
X51339619Y-37695214D01*
X51292000Y-37742833D01*
X51196761Y-37790452D01*
X51006285Y-37790452D01*
X50911047Y-37838071D01*
X50863428Y-37885690D01*
X50815809Y-37980928D01*
X50815809Y-38171404D01*
X50863428Y-38266642D01*
X50911047Y-38314261D01*
X51006285Y-38361880D01*
X51196761Y-38361880D01*
X51292000Y-38314261D01*
X51339619Y-38266642D01*
X51387238Y-38171404D01*
X51387238Y-37980928D01*
X51339619Y-37885690D01*
X51292000Y-37838071D01*
X51196761Y-37790452D01*
X51815809Y-38361880D02*
X51815809Y-37361880D01*
X51911047Y-37980928D02*
X52196761Y-38361880D01*
X52196761Y-37695214D02*
X51815809Y-38076166D01*
X52625333Y-38361880D02*
X52625333Y-37361880D01*
X52625333Y-37838071D02*
X53196761Y-37838071D01*
X53196761Y-38361880D02*
X53196761Y-37361880D01*
X53577714Y-37695214D02*
X54101523Y-37695214D01*
X53577714Y-38361880D01*
X54101523Y-38361880D01*
X97416880Y-30956285D02*
X97416880Y-31527714D01*
X97416880Y-31242000D02*
X96416880Y-31242000D01*
X96559738Y-31337238D01*
X96654976Y-31432476D01*
X96702595Y-31527714D01*
X24796714Y-44013380D02*
X24225285Y-44013380D01*
X24511000Y-44013380D02*
X24511000Y-43013380D01*
X24415761Y-43156238D01*
X24320523Y-43251476D01*
X24225285Y-43299095D01*
X26591095Y-46235880D02*
X26591095Y-45235880D01*
X26924428Y-45950166D01*
X27257761Y-45235880D01*
X27257761Y-46235880D01*
X27876809Y-46235880D02*
X27781571Y-46188261D01*
X27733952Y-46140642D01*
X27686333Y-46045404D01*
X27686333Y-45759690D01*
X27733952Y-45664452D01*
X27781571Y-45616833D01*
X27876809Y-45569214D01*
X28019666Y-45569214D01*
X28114904Y-45616833D01*
X28162523Y-45664452D01*
X28210142Y-45759690D01*
X28210142Y-46045404D01*
X28162523Y-46140642D01*
X28114904Y-46188261D01*
X28019666Y-46235880D01*
X27876809Y-46235880D01*
X29067285Y-46235880D02*
X29067285Y-45235880D01*
X29067285Y-46188261D02*
X28972047Y-46235880D01*
X28781571Y-46235880D01*
X28686333Y-46188261D01*
X28638714Y-46140642D01*
X28591095Y-46045404D01*
X28591095Y-45759690D01*
X28638714Y-45664452D01*
X28686333Y-45616833D01*
X28781571Y-45569214D01*
X28972047Y-45569214D01*
X29067285Y-45616833D01*
X29972047Y-45569214D02*
X29972047Y-46235880D01*
X29543476Y-45569214D02*
X29543476Y-46093023D01*
X29591095Y-46188261D01*
X29686333Y-46235880D01*
X29829190Y-46235880D01*
X29924428Y-46188261D01*
X29972047Y-46140642D01*
X30591095Y-46235880D02*
X30495857Y-46188261D01*
X30448238Y-46093023D01*
X30448238Y-45235880D01*
X30305380Y-45759690D02*
X30591095Y-45569214D01*
X31733952Y-45712071D02*
X32067285Y-45712071D01*
X32210142Y-46235880D02*
X31733952Y-46235880D01*
X31733952Y-45235880D01*
X32210142Y-45235880D01*
X32591095Y-46188261D02*
X32733952Y-46235880D01*
X32972047Y-46235880D01*
X33067285Y-46188261D01*
X33114904Y-46140642D01*
X33162523Y-46045404D01*
X33162523Y-45950166D01*
X33114904Y-45854928D01*
X33067285Y-45807309D01*
X32972047Y-45759690D01*
X32781571Y-45712071D01*
X32686333Y-45664452D01*
X32638714Y-45616833D01*
X32591095Y-45521595D01*
X32591095Y-45426357D01*
X32638714Y-45331119D01*
X32686333Y-45283500D01*
X32781571Y-45235880D01*
X33019666Y-45235880D01*
X33162523Y-45283500D01*
X33591095Y-46235880D02*
X33591095Y-45235880D01*
X33972047Y-45235880D01*
X34067285Y-45283500D01*
X34114904Y-45331119D01*
X34162523Y-45426357D01*
X34162523Y-45569214D01*
X34114904Y-45664452D01*
X34067285Y-45712071D01*
X33972047Y-45759690D01*
X33591095Y-45759690D01*
X24852380Y-37099690D02*
X24852380Y-36480642D01*
X25233333Y-36813976D01*
X25233333Y-36671119D01*
X25280952Y-36575880D01*
X25328571Y-36528261D01*
X25423809Y-36480642D01*
X25661904Y-36480642D01*
X25757142Y-36528261D01*
X25804761Y-36575880D01*
X25852380Y-36671119D01*
X25852380Y-36956833D01*
X25804761Y-37052071D01*
X25757142Y-37099690D01*
X25757142Y-36052071D02*
X25804761Y-36004452D01*
X25852380Y-36052071D01*
X25804761Y-36099690D01*
X25757142Y-36052071D01*
X25852380Y-36052071D01*
X24852380Y-35671119D02*
X24852380Y-35052071D01*
X25233333Y-35385404D01*
X25233333Y-35242547D01*
X25280952Y-35147309D01*
X25328571Y-35099690D01*
X25423809Y-35052071D01*
X25661904Y-35052071D01*
X25757142Y-35099690D01*
X25804761Y-35147309D01*
X25852380Y-35242547D01*
X25852380Y-35528261D01*
X25804761Y-35623500D01*
X25757142Y-35671119D01*
X24852380Y-34766357D02*
X25852380Y-34433023D01*
X24852380Y-34099690D01*
X24852380Y-32591190D02*
X24852380Y-31972142D01*
X25233333Y-32305476D01*
X25233333Y-32162619D01*
X25280952Y-32067380D01*
X25328571Y-32019761D01*
X25423809Y-31972142D01*
X25661904Y-31972142D01*
X25757142Y-32019761D01*
X25804761Y-32067380D01*
X25852380Y-32162619D01*
X25852380Y-32448333D01*
X25804761Y-32543571D01*
X25757142Y-32591190D01*
X25757142Y-31543571D02*
X25804761Y-31495952D01*
X25852380Y-31543571D01*
X25804761Y-31591190D01*
X25757142Y-31543571D01*
X25852380Y-31543571D01*
X24852380Y-31162619D02*
X24852380Y-30543571D01*
X25233333Y-30876904D01*
X25233333Y-30734047D01*
X25280952Y-30638809D01*
X25328571Y-30591190D01*
X25423809Y-30543571D01*
X25661904Y-30543571D01*
X25757142Y-30591190D01*
X25804761Y-30638809D01*
X25852380Y-30734047D01*
X25852380Y-31019761D01*
X25804761Y-31115000D01*
X25757142Y-31162619D01*
X24852380Y-30257857D02*
X25852380Y-29924523D01*
X24852380Y-29591190D01*
X34552000Y-36385404D02*
X34504380Y-36480642D01*
X34504380Y-36623500D01*
X34552000Y-36766357D01*
X34647238Y-36861595D01*
X34742476Y-36909214D01*
X34932952Y-36956833D01*
X35075809Y-36956833D01*
X35266285Y-36909214D01*
X35361523Y-36861595D01*
X35456761Y-36766357D01*
X35504380Y-36623500D01*
X35504380Y-36528261D01*
X35456761Y-36385404D01*
X35409142Y-36337785D01*
X35075809Y-36337785D01*
X35075809Y-36528261D01*
X35504380Y-35909214D02*
X34504380Y-35909214D01*
X35504380Y-35337785D01*
X34504380Y-35337785D01*
X35504380Y-34861595D02*
X34504380Y-34861595D01*
X34504380Y-34623500D01*
X34552000Y-34480642D01*
X34647238Y-34385404D01*
X34742476Y-34337785D01*
X34932952Y-34290166D01*
X35075809Y-34290166D01*
X35266285Y-34337785D01*
X35361523Y-34385404D01*
X35456761Y-34480642D01*
X35504380Y-34623500D01*
X35504380Y-34861595D01*
X34615500Y-32067404D02*
X34567880Y-32162642D01*
X34567880Y-32305500D01*
X34615500Y-32448357D01*
X34710738Y-32543595D01*
X34805976Y-32591214D01*
X34996452Y-32638833D01*
X35139309Y-32638833D01*
X35329785Y-32591214D01*
X35425023Y-32543595D01*
X35520261Y-32448357D01*
X35567880Y-32305500D01*
X35567880Y-32210261D01*
X35520261Y-32067404D01*
X35472642Y-32019785D01*
X35139309Y-32019785D01*
X35139309Y-32210261D01*
X35567880Y-31591214D02*
X34567880Y-31591214D01*
X35567880Y-31019785D01*
X34567880Y-31019785D01*
X35567880Y-30543595D02*
X34567880Y-30543595D01*
X34567880Y-30305500D01*
X34615500Y-30162642D01*
X34710738Y-30067404D01*
X34805976Y-30019785D01*
X34996452Y-29972166D01*
X35139309Y-29972166D01*
X35329785Y-30019785D01*
X35425023Y-30067404D01*
X35520261Y-30162642D01*
X35567880Y-30305500D01*
X35567880Y-30543595D01*
X27368880Y-76906380D02*
X27035547Y-76430190D01*
X26797452Y-76906380D02*
X26797452Y-75906380D01*
X27178404Y-75906380D01*
X27273642Y-75954000D01*
X27321261Y-76001619D01*
X27368880Y-76096857D01*
X27368880Y-76239714D01*
X27321261Y-76334952D01*
X27273642Y-76382571D01*
X27178404Y-76430190D01*
X26797452Y-76430190D01*
X28178404Y-76858761D02*
X28083166Y-76906380D01*
X27892690Y-76906380D01*
X27797452Y-76858761D01*
X27749833Y-76763523D01*
X27749833Y-76382571D01*
X27797452Y-76287333D01*
X27892690Y-76239714D01*
X28083166Y-76239714D01*
X28178404Y-76287333D01*
X28226023Y-76382571D01*
X28226023Y-76477809D01*
X27749833Y-76573047D01*
X28606976Y-76858761D02*
X28702214Y-76906380D01*
X28892690Y-76906380D01*
X28987928Y-76858761D01*
X29035547Y-76763523D01*
X29035547Y-76715904D01*
X28987928Y-76620666D01*
X28892690Y-76573047D01*
X28749833Y-76573047D01*
X28654595Y-76525428D01*
X28606976Y-76430190D01*
X28606976Y-76382571D01*
X28654595Y-76287333D01*
X28749833Y-76239714D01*
X28892690Y-76239714D01*
X28987928Y-76287333D01*
X29845071Y-76858761D02*
X29749833Y-76906380D01*
X29559357Y-76906380D01*
X29464119Y-76858761D01*
X29416500Y-76763523D01*
X29416500Y-76382571D01*
X29464119Y-76287333D01*
X29559357Y-76239714D01*
X29749833Y-76239714D01*
X29845071Y-76287333D01*
X29892690Y-76382571D01*
X29892690Y-76477809D01*
X29416500Y-76573047D01*
X30178404Y-76239714D02*
X30559357Y-76239714D01*
X30321261Y-75906380D02*
X30321261Y-76763523D01*
X30368880Y-76858761D01*
X30464119Y-76906380D01*
X30559357Y-76906380D01*
X31654595Y-76382571D02*
X31987928Y-76382571D01*
X32130785Y-76906380D02*
X31654595Y-76906380D01*
X31654595Y-75906380D01*
X32130785Y-75906380D01*
X32511738Y-76858761D02*
X32654595Y-76906380D01*
X32892690Y-76906380D01*
X32987928Y-76858761D01*
X33035547Y-76811142D01*
X33083166Y-76715904D01*
X33083166Y-76620666D01*
X33035547Y-76525428D01*
X32987928Y-76477809D01*
X32892690Y-76430190D01*
X32702214Y-76382571D01*
X32606976Y-76334952D01*
X32559357Y-76287333D01*
X32511738Y-76192095D01*
X32511738Y-76096857D01*
X32559357Y-76001619D01*
X32606976Y-75954000D01*
X32702214Y-75906380D01*
X32940309Y-75906380D01*
X33083166Y-75954000D01*
X33511738Y-76906380D02*
X33511738Y-75906380D01*
X33892690Y-75906380D01*
X33987928Y-75954000D01*
X34035547Y-76001619D01*
X34083166Y-76096857D01*
X34083166Y-76239714D01*
X34035547Y-76334952D01*
X33987928Y-76382571D01*
X33892690Y-76430190D01*
X33511738Y-76430190D01*
X85455666Y-77033380D02*
X85122333Y-76557190D01*
X84884238Y-77033380D02*
X84884238Y-76033380D01*
X85265190Y-76033380D01*
X85360428Y-76081000D01*
X85408047Y-76128619D01*
X85455666Y-76223857D01*
X85455666Y-76366714D01*
X85408047Y-76461952D01*
X85360428Y-76509571D01*
X85265190Y-76557190D01*
X84884238Y-76557190D01*
X86265190Y-76985761D02*
X86169952Y-77033380D01*
X85979476Y-77033380D01*
X85884238Y-76985761D01*
X85836619Y-76890523D01*
X85836619Y-76509571D01*
X85884238Y-76414333D01*
X85979476Y-76366714D01*
X86169952Y-76366714D01*
X86265190Y-76414333D01*
X86312809Y-76509571D01*
X86312809Y-76604809D01*
X85836619Y-76700047D01*
X86693761Y-76985761D02*
X86789000Y-77033380D01*
X86979476Y-77033380D01*
X87074714Y-76985761D01*
X87122333Y-76890523D01*
X87122333Y-76842904D01*
X87074714Y-76747666D01*
X86979476Y-76700047D01*
X86836619Y-76700047D01*
X86741380Y-76652428D01*
X86693761Y-76557190D01*
X86693761Y-76509571D01*
X86741380Y-76414333D01*
X86836619Y-76366714D01*
X86979476Y-76366714D01*
X87074714Y-76414333D01*
X87931857Y-76985761D02*
X87836619Y-77033380D01*
X87646142Y-77033380D01*
X87550904Y-76985761D01*
X87503285Y-76890523D01*
X87503285Y-76509571D01*
X87550904Y-76414333D01*
X87646142Y-76366714D01*
X87836619Y-76366714D01*
X87931857Y-76414333D01*
X87979476Y-76509571D01*
X87979476Y-76604809D01*
X87503285Y-76700047D01*
X88265190Y-76366714D02*
X88646142Y-76366714D01*
X88408047Y-76033380D02*
X88408047Y-76890523D01*
X88455666Y-76985761D01*
X88550904Y-77033380D01*
X88646142Y-77033380D01*
X89693761Y-76747666D02*
X90169952Y-76747666D01*
X89598523Y-77033380D02*
X89931857Y-76033380D01*
X90265190Y-77033380D01*
X90455666Y-76366714D02*
X90836619Y-76366714D01*
X90598523Y-76033380D02*
X90598523Y-76890523D01*
X90646142Y-76985761D01*
X90741380Y-77033380D01*
X90836619Y-77033380D01*
X91169952Y-77033380D02*
X91169952Y-76366714D01*
X91169952Y-76461952D02*
X91217571Y-76414333D01*
X91312809Y-76366714D01*
X91455666Y-76366714D01*
X91550904Y-76414333D01*
X91598523Y-76509571D01*
X91598523Y-77033380D01*
X91598523Y-76509571D02*
X91646142Y-76414333D01*
X91741380Y-76366714D01*
X91884238Y-76366714D01*
X91979476Y-76414333D01*
X92027095Y-76509571D01*
X92027095Y-77033380D01*
X92884238Y-76985761D02*
X92789000Y-77033380D01*
X92598523Y-77033380D01*
X92503285Y-76985761D01*
X92455666Y-76890523D01*
X92455666Y-76509571D01*
X92503285Y-76414333D01*
X92598523Y-76366714D01*
X92789000Y-76366714D01*
X92884238Y-76414333D01*
X92931857Y-76509571D01*
X92931857Y-76604809D01*
X92455666Y-76700047D01*
X93789000Y-76366714D02*
X93789000Y-77176238D01*
X93741380Y-77271476D01*
X93693761Y-77319095D01*
X93598523Y-77366714D01*
X93455666Y-77366714D01*
X93360428Y-77319095D01*
X93789000Y-76985761D02*
X93693761Y-77033380D01*
X93503285Y-77033380D01*
X93408047Y-76985761D01*
X93360428Y-76938142D01*
X93312809Y-76842904D01*
X93312809Y-76557190D01*
X93360428Y-76461952D01*
X93408047Y-76414333D01*
X93503285Y-76366714D01*
X93693761Y-76366714D01*
X93789000Y-76414333D01*
X94693761Y-77033380D02*
X94693761Y-76509571D01*
X94646142Y-76414333D01*
X94550904Y-76366714D01*
X94360428Y-76366714D01*
X94265190Y-76414333D01*
X94693761Y-76985761D02*
X94598523Y-77033380D01*
X94360428Y-77033380D01*
X94265190Y-76985761D01*
X94217571Y-76890523D01*
X94217571Y-76795285D01*
X94265190Y-76700047D01*
X94360428Y-76652428D01*
X94598523Y-76652428D01*
X94693761Y-76604809D01*
X15041619Y-39783190D02*
X16041619Y-39783190D01*
X16041619Y-40164142D01*
X15994000Y-40259380D01*
X15946380Y-40307000D01*
X15851142Y-40354619D01*
X15708285Y-40354619D01*
X15613047Y-40307000D01*
X15565428Y-40259380D01*
X15517809Y-40164142D01*
X15517809Y-39783190D01*
X15041619Y-40783190D02*
X15708285Y-40783190D01*
X15517809Y-40783190D02*
X15613047Y-40830809D01*
X15660666Y-40878428D01*
X15708285Y-40973666D01*
X15708285Y-41068904D01*
X15041619Y-41545095D02*
X15089238Y-41449857D01*
X15136857Y-41402238D01*
X15232095Y-41354619D01*
X15517809Y-41354619D01*
X15613047Y-41402238D01*
X15660666Y-41449857D01*
X15708285Y-41545095D01*
X15708285Y-41687952D01*
X15660666Y-41783190D01*
X15613047Y-41830809D01*
X15517809Y-41878428D01*
X15232095Y-41878428D01*
X15136857Y-41830809D01*
X15089238Y-41783190D01*
X15041619Y-41687952D01*
X15041619Y-41545095D01*
X15708285Y-42735571D02*
X14898761Y-42735571D01*
X14803523Y-42687952D01*
X14755904Y-42640333D01*
X14708285Y-42545095D01*
X14708285Y-42402238D01*
X14755904Y-42307000D01*
X15089238Y-42735571D02*
X15041619Y-42640333D01*
X15041619Y-42449857D01*
X15089238Y-42354619D01*
X15136857Y-42307000D01*
X15232095Y-42259380D01*
X15517809Y-42259380D01*
X15613047Y-42307000D01*
X15660666Y-42354619D01*
X15708285Y-42449857D01*
X15708285Y-42640333D01*
X15660666Y-42735571D01*
X15136857Y-43211761D02*
X15089238Y-43259380D01*
X15041619Y-43211761D01*
X15089238Y-43164142D01*
X15136857Y-43211761D01*
X15041619Y-43211761D01*
X15565428Y-44449857D02*
X15565428Y-44783190D01*
X15041619Y-44926047D02*
X15041619Y-44449857D01*
X16041619Y-44449857D01*
X16041619Y-44926047D01*
X15089238Y-45307000D02*
X15041619Y-45449857D01*
X15041619Y-45687952D01*
X15089238Y-45783190D01*
X15136857Y-45830809D01*
X15232095Y-45878428D01*
X15327333Y-45878428D01*
X15422571Y-45830809D01*
X15470190Y-45783190D01*
X15517809Y-45687952D01*
X15565428Y-45497476D01*
X15613047Y-45402238D01*
X15660666Y-45354619D01*
X15755904Y-45307000D01*
X15851142Y-45307000D01*
X15946380Y-45354619D01*
X15994000Y-45402238D01*
X16041619Y-45497476D01*
X16041619Y-45735571D01*
X15994000Y-45878428D01*
X15041619Y-46307000D02*
X16041619Y-46307000D01*
X16041619Y-46687952D01*
X15994000Y-46783190D01*
X15946380Y-46830809D01*
X15851142Y-46878428D01*
X15708285Y-46878428D01*
X15613047Y-46830809D01*
X15565428Y-46783190D01*
X15517809Y-46687952D01*
X15517809Y-46307000D01*
X101734880Y-26931333D02*
X100734880Y-26931333D01*
X100734880Y-26550380D01*
X100782500Y-26455142D01*
X100830119Y-26407523D01*
X100925357Y-26359904D01*
X101068214Y-26359904D01*
X101163452Y-26407523D01*
X101211071Y-26455142D01*
X101258690Y-26550380D01*
X101258690Y-26931333D01*
X101734880Y-25931333D02*
X101068214Y-25931333D01*
X101258690Y-25931333D02*
X101163452Y-25883714D01*
X101115833Y-25836095D01*
X101068214Y-25740857D01*
X101068214Y-25645619D01*
X101734880Y-25169428D02*
X101687261Y-25264666D01*
X101639642Y-25312285D01*
X101544404Y-25359904D01*
X101258690Y-25359904D01*
X101163452Y-25312285D01*
X101115833Y-25264666D01*
X101068214Y-25169428D01*
X101068214Y-25026571D01*
X101115833Y-24931333D01*
X101163452Y-24883714D01*
X101258690Y-24836095D01*
X101544404Y-24836095D01*
X101639642Y-24883714D01*
X101687261Y-24931333D01*
X101734880Y-25026571D01*
X101734880Y-25169428D01*
X101068214Y-23978952D02*
X101877738Y-23978952D01*
X101972976Y-24026571D01*
X102020595Y-24074190D01*
X102068214Y-24169428D01*
X102068214Y-24312285D01*
X102020595Y-24407523D01*
X101687261Y-23978952D02*
X101734880Y-24074190D01*
X101734880Y-24264666D01*
X101687261Y-24359904D01*
X101639642Y-24407523D01*
X101544404Y-24455142D01*
X101258690Y-24455142D01*
X101163452Y-24407523D01*
X101115833Y-24359904D01*
X101068214Y-24264666D01*
X101068214Y-24074190D01*
X101115833Y-23978952D01*
X101639642Y-23502761D02*
X101687261Y-23455142D01*
X101734880Y-23502761D01*
X101687261Y-23550380D01*
X101639642Y-23502761D01*
X101734880Y-23502761D01*
X101734880Y-21836095D02*
X101211071Y-21836095D01*
X101115833Y-21883714D01*
X101068214Y-21978952D01*
X101068214Y-22169428D01*
X101115833Y-22264666D01*
X101687261Y-21836095D02*
X101734880Y-21931333D01*
X101734880Y-22169428D01*
X101687261Y-22264666D01*
X101592023Y-22312285D01*
X101496785Y-22312285D01*
X101401547Y-22264666D01*
X101353928Y-22169428D01*
X101353928Y-21931333D01*
X101306309Y-21836095D01*
X101068214Y-21502761D02*
X101068214Y-21121809D01*
X100734880Y-21359904D02*
X101592023Y-21359904D01*
X101687261Y-21312285D01*
X101734880Y-21217047D01*
X101734880Y-21121809D01*
X101734880Y-20788476D02*
X101068214Y-20788476D01*
X101163452Y-20788476D02*
X101115833Y-20740857D01*
X101068214Y-20645619D01*
X101068214Y-20502761D01*
X101115833Y-20407523D01*
X101211071Y-20359904D01*
X101734880Y-20359904D01*
X101211071Y-20359904D02*
X101115833Y-20312285D01*
X101068214Y-20217047D01*
X101068214Y-20074190D01*
X101115833Y-19978952D01*
X101211071Y-19931333D01*
X101734880Y-19931333D01*
X101687261Y-19074190D02*
X101734880Y-19169428D01*
X101734880Y-19359904D01*
X101687261Y-19455142D01*
X101592023Y-19502761D01*
X101211071Y-19502761D01*
X101115833Y-19455142D01*
X101068214Y-19359904D01*
X101068214Y-19169428D01*
X101115833Y-19074190D01*
X101211071Y-19026571D01*
X101306309Y-19026571D01*
X101401547Y-19502761D01*
X101068214Y-18169428D02*
X101877738Y-18169428D01*
X101972976Y-18217047D01*
X102020595Y-18264666D01*
X102068214Y-18359904D01*
X102068214Y-18502761D01*
X102020595Y-18598000D01*
X101687261Y-18169428D02*
X101734880Y-18264666D01*
X101734880Y-18455142D01*
X101687261Y-18550380D01*
X101639642Y-18598000D01*
X101544404Y-18645619D01*
X101258690Y-18645619D01*
X101163452Y-18598000D01*
X101115833Y-18550380D01*
X101068214Y-18455142D01*
X101068214Y-18264666D01*
X101115833Y-18169428D01*
X101734880Y-17264666D02*
X101211071Y-17264666D01*
X101115833Y-17312285D01*
X101068214Y-17407523D01*
X101068214Y-17598000D01*
X101115833Y-17693238D01*
X101687261Y-17264666D02*
X101734880Y-17359904D01*
X101734880Y-17598000D01*
X101687261Y-17693238D01*
X101592023Y-17740857D01*
X101496785Y-17740857D01*
X101401547Y-17693238D01*
X101353928Y-17598000D01*
X101353928Y-17359904D01*
X101306309Y-17264666D01*
X49347380Y-59983476D02*
X49347380Y-60554904D01*
X49347380Y-60269190D02*
X48347380Y-60269190D01*
X48490238Y-60364428D01*
X48585476Y-60459666D01*
X48633095Y-60554904D01*
X48347380Y-59126333D02*
X48347380Y-59316809D01*
X48395000Y-59412047D01*
X48442619Y-59459666D01*
X48585476Y-59554904D01*
X48775952Y-59602523D01*
X49156904Y-59602523D01*
X49252142Y-59554904D01*
X49299761Y-59507285D01*
X49347380Y-59412047D01*
X49347380Y-59221571D01*
X49299761Y-59126333D01*
X49252142Y-59078714D01*
X49156904Y-59031095D01*
X48918809Y-59031095D01*
X48823571Y-59078714D01*
X48775952Y-59126333D01*
X48728333Y-59221571D01*
X48728333Y-59412047D01*
X48775952Y-59507285D01*
X48823571Y-59554904D01*
X48918809Y-59602523D01*
X49347380Y-58602523D02*
X48347380Y-58602523D01*
X49061666Y-58269190D01*
X48347380Y-57935857D01*
X49347380Y-57935857D01*
X49347380Y-57459666D02*
X48347380Y-57459666D01*
X48823571Y-57459666D02*
X48823571Y-56888238D01*
X49347380Y-56888238D02*
X48347380Y-56888238D01*
X48680714Y-56507285D02*
X48680714Y-55983476D01*
X49347380Y-56507285D01*
X49347380Y-55983476D01*
X67802666Y-67667142D02*
X67755047Y-67714761D01*
X67612190Y-67762380D01*
X67516952Y-67762380D01*
X67374095Y-67714761D01*
X67278857Y-67619523D01*
X67231238Y-67524285D01*
X67183619Y-67333809D01*
X67183619Y-67190952D01*
X67231238Y-67000476D01*
X67278857Y-66905238D01*
X67374095Y-66810000D01*
X67516952Y-66762380D01*
X67612190Y-66762380D01*
X67755047Y-66810000D01*
X67802666Y-66857619D01*
X68136000Y-67095714D02*
X68659809Y-67095714D01*
X68136000Y-67762380D01*
X68659809Y-67762380D01*
X69469333Y-67095714D02*
X69469333Y-67762380D01*
X69040761Y-67095714D02*
X69040761Y-67619523D01*
X69088380Y-67714761D01*
X69183619Y-67762380D01*
X69326476Y-67762380D01*
X69421714Y-67714761D01*
X69469333Y-67667142D01*
X69945523Y-67095714D02*
X69945523Y-67952857D01*
X69897904Y-68048095D01*
X69802666Y-68095714D01*
X69755047Y-68095714D01*
X69945523Y-66762380D02*
X69897904Y-66810000D01*
X69945523Y-66857619D01*
X69993142Y-66810000D01*
X69945523Y-66762380D01*
X69945523Y-66857619D01*
X70421714Y-67095714D02*
X70421714Y-67762380D01*
X70421714Y-67190952D02*
X70469333Y-67143333D01*
X70564571Y-67095714D01*
X70707428Y-67095714D01*
X70802666Y-67143333D01*
X70850285Y-67238571D01*
X70850285Y-67762380D01*
X71326476Y-67762380D02*
X71326476Y-67095714D01*
X71326476Y-66762380D02*
X71278857Y-66810000D01*
X71326476Y-66857619D01*
X71374095Y-66810000D01*
X71326476Y-66762380D01*
X71326476Y-66857619D01*
X71802666Y-67762380D02*
X71802666Y-66762380D01*
X71897904Y-67381428D02*
X72183619Y-67762380D01*
X72183619Y-67095714D02*
X71802666Y-67476666D01*
X73231238Y-67095714D02*
X73612190Y-67095714D01*
X73374095Y-66762380D02*
X73374095Y-67619523D01*
X73421714Y-67714761D01*
X73516952Y-67762380D01*
X73612190Y-67762380D01*
X74326476Y-67714761D02*
X74231238Y-67762380D01*
X74040761Y-67762380D01*
X73945523Y-67714761D01*
X73897904Y-67619523D01*
X73897904Y-67238571D01*
X73945523Y-67143333D01*
X74040761Y-67095714D01*
X74231238Y-67095714D01*
X74326476Y-67143333D01*
X74374095Y-67238571D01*
X74374095Y-67333809D01*
X73897904Y-67429047D01*
X74802666Y-67762380D02*
X74802666Y-67095714D01*
X74802666Y-67190952D02*
X74850285Y-67143333D01*
X74945523Y-67095714D01*
X75088380Y-67095714D01*
X75183619Y-67143333D01*
X75231238Y-67238571D01*
X75231238Y-67762380D01*
X75231238Y-67238571D02*
X75278857Y-67143333D01*
X75374095Y-67095714D01*
X75516952Y-67095714D01*
X75612190Y-67143333D01*
X75659809Y-67238571D01*
X75659809Y-67762380D01*
X76136000Y-67095714D02*
X76136000Y-68095714D01*
X76136000Y-67143333D02*
X76231238Y-67095714D01*
X76421714Y-67095714D01*
X76516952Y-67143333D01*
X76564571Y-67190952D01*
X76612190Y-67286190D01*
X76612190Y-67571904D01*
X76564571Y-67667142D01*
X76516952Y-67714761D01*
X76421714Y-67762380D01*
X76231238Y-67762380D01*
X76136000Y-67714761D01*
X77040761Y-67667142D02*
X77088380Y-67714761D01*
X77040761Y-67762380D01*
X76993142Y-67714761D01*
X77040761Y-67667142D01*
X77040761Y-67762380D01*
X55063047Y-67667142D02*
X55015428Y-67714761D01*
X54872571Y-67762380D01*
X54777333Y-67762380D01*
X54634476Y-67714761D01*
X54539238Y-67619523D01*
X54491619Y-67524285D01*
X54444000Y-67333809D01*
X54444000Y-67190952D01*
X54491619Y-67000476D01*
X54539238Y-66905238D01*
X54634476Y-66810000D01*
X54777333Y-66762380D01*
X54872571Y-66762380D01*
X55015428Y-66810000D01*
X55063047Y-66857619D01*
X55396380Y-67095714D02*
X55920190Y-67095714D01*
X55396380Y-67762380D01*
X55920190Y-67762380D01*
X56729714Y-67095714D02*
X56729714Y-67762380D01*
X56301142Y-67095714D02*
X56301142Y-67619523D01*
X56348761Y-67714761D01*
X56444000Y-67762380D01*
X56586857Y-67762380D01*
X56682095Y-67714761D01*
X56729714Y-67667142D01*
X57205904Y-67095714D02*
X57205904Y-67952857D01*
X57158285Y-68048095D01*
X57063047Y-68095714D01*
X57015428Y-68095714D01*
X57205904Y-66762380D02*
X57158285Y-66810000D01*
X57205904Y-66857619D01*
X57253523Y-66810000D01*
X57205904Y-66762380D01*
X57205904Y-66857619D01*
X57682095Y-67095714D02*
X57682095Y-67762380D01*
X57682095Y-67190952D02*
X57729714Y-67143333D01*
X57824952Y-67095714D01*
X57967809Y-67095714D01*
X58063047Y-67143333D01*
X58110666Y-67238571D01*
X58110666Y-67762380D01*
X58586857Y-67762380D02*
X58586857Y-67095714D01*
X58586857Y-66762380D02*
X58539238Y-66810000D01*
X58586857Y-66857619D01*
X58634476Y-66810000D01*
X58586857Y-66762380D01*
X58586857Y-66857619D01*
X59063047Y-67762380D02*
X59063047Y-66762380D01*
X59158285Y-67381428D02*
X59444000Y-67762380D01*
X59444000Y-67095714D02*
X59063047Y-67476666D01*
X60586857Y-67714761D02*
X60682095Y-67762380D01*
X60872571Y-67762380D01*
X60967809Y-67714761D01*
X61015428Y-67619523D01*
X61015428Y-67571904D01*
X60967809Y-67476666D01*
X60872571Y-67429047D01*
X60729714Y-67429047D01*
X60634476Y-67381428D01*
X60586857Y-67286190D01*
X60586857Y-67238571D01*
X60634476Y-67143333D01*
X60729714Y-67095714D01*
X60872571Y-67095714D01*
X60967809Y-67143333D01*
X60872571Y-66714761D02*
X60729714Y-66857619D01*
X61348761Y-67095714D02*
X61539238Y-67762380D01*
X61729714Y-67286190D01*
X61920190Y-67762380D01*
X62110666Y-67095714D01*
X62491619Y-67762380D02*
X62491619Y-67095714D01*
X62491619Y-66762380D02*
X62444000Y-66810000D01*
X62491619Y-66857619D01*
X62539238Y-66810000D01*
X62491619Y-66762380D01*
X62491619Y-66857619D01*
X63396380Y-67762380D02*
X63396380Y-67238571D01*
X63348761Y-67143333D01*
X63253523Y-67095714D01*
X63063047Y-67095714D01*
X62967809Y-67143333D01*
X63396380Y-67714761D02*
X63301142Y-67762380D01*
X63063047Y-67762380D01*
X62967809Y-67714761D01*
X62920190Y-67619523D01*
X62920190Y-67524285D01*
X62967809Y-67429047D01*
X63063047Y-67381428D01*
X63301142Y-67381428D01*
X63396380Y-67333809D01*
X63729714Y-67095714D02*
X64110666Y-67095714D01*
X63872571Y-66762380D02*
X63872571Y-67619523D01*
X63920190Y-67714761D01*
X64015428Y-67762380D01*
X64110666Y-67762380D01*
X64586857Y-67762380D02*
X64491619Y-67714761D01*
X64444000Y-67619523D01*
X64444000Y-66762380D01*
X64301142Y-67286190D02*
X64586857Y-67095714D01*
X65396380Y-67762380D02*
X65396380Y-67238571D01*
X65348761Y-67143333D01*
X65253523Y-67095714D01*
X65063047Y-67095714D01*
X64967809Y-67143333D01*
X65396380Y-67714761D02*
X65301142Y-67762380D01*
X65063047Y-67762380D01*
X64967809Y-67714761D01*
X64920190Y-67619523D01*
X64920190Y-67524285D01*
X64967809Y-67429047D01*
X65063047Y-67381428D01*
X65301142Y-67381428D01*
X65396380Y-67333809D01*
X43521857Y-67667142D02*
X43474238Y-67714761D01*
X43331380Y-67762380D01*
X43236142Y-67762380D01*
X43093285Y-67714761D01*
X42998047Y-67619523D01*
X42950428Y-67524285D01*
X42902809Y-67333809D01*
X42902809Y-67190952D01*
X42950428Y-67000476D01*
X42998047Y-66905238D01*
X43093285Y-66810000D01*
X43236142Y-66762380D01*
X43331380Y-66762380D01*
X43474238Y-66810000D01*
X43521857Y-66857619D01*
X43855190Y-67095714D02*
X44379000Y-67095714D01*
X43855190Y-67762380D01*
X44379000Y-67762380D01*
X45188523Y-67095714D02*
X45188523Y-67762380D01*
X44759952Y-67095714D02*
X44759952Y-67619523D01*
X44807571Y-67714761D01*
X44902809Y-67762380D01*
X45045666Y-67762380D01*
X45140904Y-67714761D01*
X45188523Y-67667142D01*
X45664714Y-67095714D02*
X45664714Y-67952857D01*
X45617095Y-68048095D01*
X45521857Y-68095714D01*
X45474238Y-68095714D01*
X45664714Y-66762380D02*
X45617095Y-66810000D01*
X45664714Y-66857619D01*
X45712333Y-66810000D01*
X45664714Y-66762380D01*
X45664714Y-66857619D01*
X46140904Y-67095714D02*
X46140904Y-67762380D01*
X46140904Y-67190952D02*
X46188523Y-67143333D01*
X46283761Y-67095714D01*
X46426619Y-67095714D01*
X46521857Y-67143333D01*
X46569476Y-67238571D01*
X46569476Y-67762380D01*
X47045666Y-67762380D02*
X47045666Y-67095714D01*
X47045666Y-66762380D02*
X46998047Y-66810000D01*
X47045666Y-66857619D01*
X47093285Y-66810000D01*
X47045666Y-66762380D01*
X47045666Y-66857619D01*
X47521857Y-67762380D02*
X47521857Y-66762380D01*
X47617095Y-67381428D02*
X47902809Y-67762380D01*
X47902809Y-67095714D02*
X47521857Y-67476666D01*
X49093285Y-67762380D02*
X49093285Y-67095714D01*
X49093285Y-67286190D02*
X49140904Y-67190952D01*
X49188523Y-67143333D01*
X49283761Y-67095714D01*
X49379000Y-67095714D01*
X50140904Y-67095714D02*
X50140904Y-67762380D01*
X49712333Y-67095714D02*
X49712333Y-67619523D01*
X49759952Y-67714761D01*
X49855190Y-67762380D01*
X49998047Y-67762380D01*
X50093285Y-67714761D01*
X50140904Y-67667142D01*
X51045666Y-67714761D02*
X50950428Y-67762380D01*
X50759952Y-67762380D01*
X50664714Y-67714761D01*
X50617095Y-67667142D01*
X50569476Y-67571904D01*
X50569476Y-67286190D01*
X50617095Y-67190952D01*
X50664714Y-67143333D01*
X50759952Y-67095714D01*
X50950428Y-67095714D01*
X51045666Y-67143333D01*
X51474238Y-67762380D02*
X51474238Y-66762380D01*
X51902809Y-67762380D02*
X51902809Y-67238571D01*
X51855190Y-67143333D01*
X51759952Y-67095714D01*
X51617095Y-67095714D01*
X51521857Y-67143333D01*
X51474238Y-67190952D01*
X52807571Y-67095714D02*
X52807571Y-67762380D01*
X52379000Y-67095714D02*
X52379000Y-67619523D01*
X52426619Y-67714761D01*
X52521857Y-67762380D01*
X52664714Y-67762380D01*
X52759952Y-67714761D01*
X52807571Y-67667142D01*
X96964761Y-39219142D02*
X96917142Y-39266761D01*
X96774285Y-39314380D01*
X96679047Y-39314380D01*
X96536190Y-39266761D01*
X96440952Y-39171523D01*
X96393333Y-39076285D01*
X96345714Y-38885809D01*
X96345714Y-38742952D01*
X96393333Y-38552476D01*
X96440952Y-38457238D01*
X96536190Y-38362000D01*
X96679047Y-38314380D01*
X96774285Y-38314380D01*
X96917142Y-38362000D01*
X96964761Y-38409619D01*
X97964761Y-39314380D02*
X97631428Y-38838190D01*
X97393333Y-39314380D02*
X97393333Y-38314380D01*
X97774285Y-38314380D01*
X97869523Y-38362000D01*
X97917142Y-38409619D01*
X97964761Y-38504857D01*
X97964761Y-38647714D01*
X97917142Y-38742952D01*
X97869523Y-38790571D01*
X97774285Y-38838190D01*
X97393333Y-38838190D01*
X98345714Y-38409619D02*
X98393333Y-38362000D01*
X98488571Y-38314380D01*
X98726666Y-38314380D01*
X98821904Y-38362000D01*
X98869523Y-38409619D01*
X98917142Y-38504857D01*
X98917142Y-38600095D01*
X98869523Y-38742952D01*
X98298095Y-39314380D01*
X98917142Y-39314380D01*
X99536190Y-38314380D02*
X99631428Y-38314380D01*
X99726666Y-38362000D01*
X99774285Y-38409619D01*
X99821904Y-38504857D01*
X99869523Y-38695333D01*
X99869523Y-38933428D01*
X99821904Y-39123904D01*
X99774285Y-39219142D01*
X99726666Y-39266761D01*
X99631428Y-39314380D01*
X99536190Y-39314380D01*
X99440952Y-39266761D01*
X99393333Y-39219142D01*
X99345714Y-39123904D01*
X99298095Y-38933428D01*
X99298095Y-38695333D01*
X99345714Y-38504857D01*
X99393333Y-38409619D01*
X99440952Y-38362000D01*
X99536190Y-38314380D01*
X100202857Y-38314380D02*
X100821904Y-38314380D01*
X100488571Y-38695333D01*
X100631428Y-38695333D01*
X100726666Y-38742952D01*
X100774285Y-38790571D01*
X100821904Y-38885809D01*
X100821904Y-39123904D01*
X100774285Y-39219142D01*
X100726666Y-39266761D01*
X100631428Y-39314380D01*
X100345714Y-39314380D01*
X100250476Y-39266761D01*
X100202857Y-39219142D01*
X101202857Y-38409619D02*
X101250476Y-38362000D01*
X101345714Y-38314380D01*
X101583809Y-38314380D01*
X101679047Y-38362000D01*
X101726666Y-38409619D01*
X101774285Y-38504857D01*
X101774285Y-38600095D01*
X101726666Y-38742952D01*
X101155238Y-39314380D01*
X101774285Y-39314380D01*
X46339142Y-14041380D02*
X45767714Y-14041380D01*
X46053428Y-14041380D02*
X46053428Y-13041380D01*
X45958190Y-13184238D01*
X45862952Y-13279476D01*
X45767714Y-13327095D01*
X46720095Y-13755666D02*
X47196285Y-13755666D01*
X46624857Y-14041380D02*
X46958190Y-13041380D01*
X47291523Y-14041380D01*
X35940904Y-12819000D02*
X36036142Y-12866619D01*
X36179000Y-12866619D01*
X36321857Y-12819000D01*
X36417095Y-12723761D01*
X36464714Y-12628523D01*
X36512333Y-12438047D01*
X36512333Y-12295190D01*
X36464714Y-12104714D01*
X36417095Y-12009476D01*
X36321857Y-11914238D01*
X36179000Y-11866619D01*
X36083761Y-11866619D01*
X35940904Y-11914238D01*
X35893285Y-11961857D01*
X35893285Y-12295190D01*
X36083761Y-12295190D01*
X35464714Y-11866619D02*
X35464714Y-12866619D01*
X34893285Y-11866619D01*
X34893285Y-12866619D01*
X34417095Y-11866619D02*
X34417095Y-12866619D01*
X34179000Y-12866619D01*
X34036142Y-12819000D01*
X33940904Y-12723761D01*
X33893285Y-12628523D01*
X33845666Y-12438047D01*
X33845666Y-12295190D01*
X33893285Y-12104714D01*
X33940904Y-12009476D01*
X34036142Y-11914238D01*
X34179000Y-11866619D01*
X34417095Y-11866619D01*
X32606809Y-11866619D02*
X32606809Y-12866619D01*
X32368714Y-12866619D01*
X32225857Y-12819000D01*
X32130619Y-12723761D01*
X32083000Y-12628523D01*
X32035380Y-12438047D01*
X32035380Y-12295190D01*
X32083000Y-12104714D01*
X32130619Y-12009476D01*
X32225857Y-11914238D01*
X32368714Y-11866619D01*
X32606809Y-11866619D01*
X31606809Y-11866619D02*
X31606809Y-12866619D01*
X31178238Y-11914238D02*
X31035380Y-11866619D01*
X30797285Y-11866619D01*
X30702047Y-11914238D01*
X30654428Y-11961857D01*
X30606809Y-12057095D01*
X30606809Y-12152333D01*
X30654428Y-12247571D01*
X30702047Y-12295190D01*
X30797285Y-12342809D01*
X30987761Y-12390428D01*
X31083000Y-12438047D01*
X31130619Y-12485666D01*
X31178238Y-12580904D01*
X31178238Y-12676142D01*
X31130619Y-12771380D01*
X31083000Y-12819000D01*
X30987761Y-12866619D01*
X30749666Y-12866619D01*
X30606809Y-12819000D01*
X30178238Y-11866619D02*
X30178238Y-12866619D01*
X29797285Y-12866619D01*
X29702047Y-12819000D01*
X29654428Y-12771380D01*
X29606809Y-12676142D01*
X29606809Y-12533285D01*
X29654428Y-12438047D01*
X29702047Y-12390428D01*
X29797285Y-12342809D01*
X30178238Y-12342809D01*
X29178238Y-11961857D02*
X29130619Y-11914238D01*
X29178238Y-11866619D01*
X29225857Y-11914238D01*
X29178238Y-11961857D01*
X29178238Y-11866619D01*
X27749666Y-12866619D02*
X27559190Y-12866619D01*
X27463952Y-12819000D01*
X27368714Y-12723761D01*
X27321095Y-12533285D01*
X27321095Y-12199952D01*
X27368714Y-12009476D01*
X27463952Y-11914238D01*
X27559190Y-11866619D01*
X27749666Y-11866619D01*
X27844904Y-11914238D01*
X27940142Y-12009476D01*
X27987761Y-12199952D01*
X27987761Y-12533285D01*
X27940142Y-12723761D01*
X27844904Y-12819000D01*
X27749666Y-12866619D01*
X26892523Y-12866619D02*
X26892523Y-12057095D01*
X26844904Y-11961857D01*
X26797285Y-11914238D01*
X26702047Y-11866619D01*
X26511571Y-11866619D01*
X26416333Y-11914238D01*
X26368714Y-11961857D01*
X26321095Y-12057095D01*
X26321095Y-12866619D01*
X25987761Y-12866619D02*
X25416333Y-12866619D01*
X25702047Y-11866619D02*
X25702047Y-12866619D01*
X24463214Y-12247571D02*
X23701309Y-12247571D01*
X24082261Y-11866619D02*
X24082261Y-12628523D01*
X22748928Y-12866619D02*
X23225119Y-12866619D01*
X23272738Y-12390428D01*
X23225119Y-12438047D01*
X23129880Y-12485666D01*
X22891785Y-12485666D01*
X22796547Y-12438047D01*
X22748928Y-12390428D01*
X22701309Y-12295190D01*
X22701309Y-12057095D01*
X22748928Y-11961857D01*
X22796547Y-11914238D01*
X22891785Y-11866619D01*
X23129880Y-11866619D01*
X23225119Y-11914238D01*
X23272738Y-11961857D01*
X22415595Y-12866619D02*
X22082261Y-11866619D01*
X21748928Y-12866619D01*
X14025500Y-29718095D02*
X14073119Y-29622857D01*
X14073119Y-29480000D01*
X14025500Y-29337142D01*
X13930261Y-29241904D01*
X13835023Y-29194285D01*
X13644547Y-29146666D01*
X13501690Y-29146666D01*
X13311214Y-29194285D01*
X13215976Y-29241904D01*
X13120738Y-29337142D01*
X13073119Y-29480000D01*
X13073119Y-29575238D01*
X13120738Y-29718095D01*
X13168357Y-29765714D01*
X13501690Y-29765714D01*
X13501690Y-29575238D01*
X13073119Y-30194285D02*
X14073119Y-30194285D01*
X13073119Y-30765714D01*
X14073119Y-30765714D01*
X13073119Y-31241904D02*
X14073119Y-31241904D01*
X14073119Y-31480000D01*
X14025500Y-31622857D01*
X13930261Y-31718095D01*
X13835023Y-31765714D01*
X13644547Y-31813333D01*
X13501690Y-31813333D01*
X13311214Y-31765714D01*
X13215976Y-31718095D01*
X13120738Y-31622857D01*
X13073119Y-31480000D01*
X13073119Y-31241904D01*
X13454071Y-24114285D02*
X13454071Y-24876190D01*
X13073119Y-24495238D02*
X13835023Y-24495238D01*
X14073119Y-25828571D02*
X14073119Y-25352380D01*
X13596928Y-25304761D01*
X13644547Y-25352380D01*
X13692166Y-25447619D01*
X13692166Y-25685714D01*
X13644547Y-25780952D01*
X13596928Y-25828571D01*
X13501690Y-25876190D01*
X13263595Y-25876190D01*
X13168357Y-25828571D01*
X13120738Y-25780952D01*
X13073119Y-25685714D01*
X13073119Y-25447619D01*
X13120738Y-25352380D01*
X13168357Y-25304761D01*
X14073119Y-26161904D02*
X13073119Y-26495238D01*
X14073119Y-26828571D01*
X74803095Y-76462000D02*
X74707857Y-76414380D01*
X74565000Y-76414380D01*
X74422142Y-76462000D01*
X74326904Y-76557238D01*
X74279285Y-76652476D01*
X74231666Y-76842952D01*
X74231666Y-76985809D01*
X74279285Y-77176285D01*
X74326904Y-77271523D01*
X74422142Y-77366761D01*
X74565000Y-77414380D01*
X74660238Y-77414380D01*
X74803095Y-77366761D01*
X74850714Y-77319142D01*
X74850714Y-76985809D01*
X74660238Y-76985809D01*
X75279285Y-77414380D02*
X75279285Y-76414380D01*
X75850714Y-77414380D01*
X75850714Y-76414380D01*
X76326904Y-77414380D02*
X76326904Y-76414380D01*
X76565000Y-76414380D01*
X76707857Y-76462000D01*
X76803095Y-76557238D01*
X76850714Y-76652476D01*
X76898333Y-76842952D01*
X76898333Y-76985809D01*
X76850714Y-77176285D01*
X76803095Y-77271523D01*
X76707857Y-77366761D01*
X76565000Y-77414380D01*
X76326904Y-77414380D01*
X71231190Y-77414380D02*
X71231190Y-76414380D01*
X71707380Y-77414380D02*
X71707380Y-76414380D01*
X72278809Y-77414380D01*
X72278809Y-76414380D01*
X66659285Y-77033428D02*
X67421190Y-77033428D01*
X67040238Y-77414380D02*
X67040238Y-76652476D01*
X68373571Y-76414380D02*
X67897380Y-76414380D01*
X67849761Y-76890571D01*
X67897380Y-76842952D01*
X67992619Y-76795333D01*
X68230714Y-76795333D01*
X68325952Y-76842952D01*
X68373571Y-76890571D01*
X68421190Y-76985809D01*
X68421190Y-77223904D01*
X68373571Y-77319142D01*
X68325952Y-77366761D01*
X68230714Y-77414380D01*
X67992619Y-77414380D01*
X67897380Y-77366761D01*
X67849761Y-77319142D01*
X68706904Y-76414380D02*
X69040238Y-77414380D01*
X69373571Y-76414380D01*
X59166190Y-77452380D02*
X59166190Y-76452380D01*
X59642380Y-77452380D02*
X59642380Y-76452380D01*
X60213809Y-77452380D01*
X60213809Y-76452380D01*
X54594285Y-77071428D02*
X55356190Y-77071428D01*
X54975238Y-77452380D02*
X54975238Y-76690476D01*
X56308571Y-76452380D02*
X55832380Y-76452380D01*
X55784761Y-76928571D01*
X55832380Y-76880952D01*
X55927619Y-76833333D01*
X56165714Y-76833333D01*
X56260952Y-76880952D01*
X56308571Y-76928571D01*
X56356190Y-77023809D01*
X56356190Y-77261904D01*
X56308571Y-77357142D01*
X56260952Y-77404761D01*
X56165714Y-77452380D01*
X55927619Y-77452380D01*
X55832380Y-77404761D01*
X55784761Y-77357142D01*
X56641904Y-76452380D02*
X56975238Y-77452380D01*
X57308571Y-76452380D01*
X42964285Y-77071428D02*
X43726190Y-77071428D01*
X43345238Y-77452380D02*
X43345238Y-76690476D01*
X44678571Y-76452380D02*
X44202380Y-76452380D01*
X44154761Y-76928571D01*
X44202380Y-76880952D01*
X44297619Y-76833333D01*
X44535714Y-76833333D01*
X44630952Y-76880952D01*
X44678571Y-76928571D01*
X44726190Y-77023809D01*
X44726190Y-77261904D01*
X44678571Y-77357142D01*
X44630952Y-77404761D01*
X44535714Y-77452380D01*
X44297619Y-77452380D01*
X44202380Y-77404761D01*
X44154761Y-77357142D01*
X45011904Y-76452380D02*
X45345238Y-77452380D01*
X45678571Y-76452380D01*
X46815500Y-77414380D02*
X46815500Y-76414380D01*
X47196452Y-76414380D01*
X47291690Y-76462000D01*
X47339309Y-76509619D01*
X47386928Y-76604857D01*
X47386928Y-76747714D01*
X47339309Y-76842952D01*
X47291690Y-76890571D01*
X47196452Y-76938190D01*
X46815500Y-76938190D01*
X47815500Y-77414380D02*
X47815500Y-76414380D01*
X48863119Y-77414380D02*
X48529785Y-76938190D01*
X48291690Y-77414380D02*
X48291690Y-76414380D01*
X48672642Y-76414380D01*
X48767880Y-76462000D01*
X48815500Y-76509619D01*
X48863119Y-76604857D01*
X48863119Y-76747714D01*
X48815500Y-76842952D01*
X48767880Y-76890571D01*
X48672642Y-76938190D01*
X48291690Y-76938190D01*
X50488095Y-76500000D02*
X50392857Y-76452380D01*
X50250000Y-76452380D01*
X50107142Y-76500000D01*
X50011904Y-76595238D01*
X49964285Y-76690476D01*
X49916666Y-76880952D01*
X49916666Y-77023809D01*
X49964285Y-77214285D01*
X50011904Y-77309523D01*
X50107142Y-77404761D01*
X50250000Y-77452380D01*
X50345238Y-77452380D01*
X50488095Y-77404761D01*
X50535714Y-77357142D01*
X50535714Y-77023809D01*
X50345238Y-77023809D01*
X50964285Y-77452380D02*
X50964285Y-76452380D01*
X51535714Y-77452380D01*
X51535714Y-76452380D01*
X52011904Y-77452380D02*
X52011904Y-76452380D01*
X52250000Y-76452380D01*
X52392857Y-76500000D01*
X52488095Y-76595238D01*
X52535714Y-76690476D01*
X52583333Y-76880952D01*
X52583333Y-77023809D01*
X52535714Y-77214285D01*
X52488095Y-77309523D01*
X52392857Y-77404761D01*
X52250000Y-77452380D01*
X52011904Y-77452380D01*
X14518095Y-21042380D02*
X15184761Y-21042380D01*
X14518095Y-22042380D01*
X15184761Y-22042380D01*
X15994285Y-22042380D02*
X15994285Y-21518571D01*
X15946666Y-21423333D01*
X15851428Y-21375714D01*
X15660952Y-21375714D01*
X15565714Y-21423333D01*
X15994285Y-21994761D02*
X15899047Y-22042380D01*
X15660952Y-22042380D01*
X15565714Y-21994761D01*
X15518095Y-21899523D01*
X15518095Y-21804285D01*
X15565714Y-21709047D01*
X15660952Y-21661428D01*
X15899047Y-21661428D01*
X15994285Y-21613809D01*
X16422857Y-21994761D02*
X16518095Y-22042380D01*
X16708571Y-22042380D01*
X16803809Y-21994761D01*
X16851428Y-21899523D01*
X16851428Y-21851904D01*
X16803809Y-21756666D01*
X16708571Y-21709047D01*
X16565714Y-21709047D01*
X16470476Y-21661428D01*
X16422857Y-21566190D01*
X16422857Y-21518571D01*
X16470476Y-21423333D01*
X16565714Y-21375714D01*
X16708571Y-21375714D01*
X16803809Y-21423333D01*
X17280000Y-22042380D02*
X17280000Y-21375714D01*
X17280000Y-21042380D02*
X17232380Y-21090000D01*
X17280000Y-21137619D01*
X17327619Y-21090000D01*
X17280000Y-21042380D01*
X17280000Y-21137619D01*
X17899047Y-22042380D02*
X17803809Y-21994761D01*
X17756190Y-21899523D01*
X17756190Y-21042380D01*
X18708571Y-22042380D02*
X18708571Y-21518571D01*
X18660952Y-21423333D01*
X18565714Y-21375714D01*
X18375238Y-21375714D01*
X18280000Y-21423333D01*
X18708571Y-21994761D02*
X18613333Y-22042380D01*
X18375238Y-22042380D01*
X18280000Y-21994761D01*
X18232380Y-21899523D01*
X18232380Y-21804285D01*
X18280000Y-21709047D01*
X18375238Y-21661428D01*
X18613333Y-21661428D01*
X18708571Y-21613809D01*
X19184761Y-21375714D02*
X19184761Y-22042380D01*
X19184761Y-21470952D02*
X19232380Y-21423333D01*
X19327619Y-21375714D01*
X19470476Y-21375714D01*
X19565714Y-21423333D01*
X19613333Y-21518571D01*
X19613333Y-22042380D01*
X20089523Y-22042380D02*
X20089523Y-21375714D01*
X20089523Y-21042380D02*
X20041904Y-21090000D01*
X20089523Y-21137619D01*
X20137142Y-21090000D01*
X20089523Y-21042380D01*
X20089523Y-21137619D01*
X20946666Y-21994761D02*
X20851428Y-22042380D01*
X20660952Y-22042380D01*
X20565714Y-21994761D01*
X20518095Y-21899523D01*
X20518095Y-21518571D01*
X20565714Y-21423333D01*
X20660952Y-21375714D01*
X20851428Y-21375714D01*
X20946666Y-21423333D01*
X20994285Y-21518571D01*
X20994285Y-21613809D01*
X20518095Y-21709047D01*
D11*
X73575000Y-48380000D02*
X73575000Y-46170000D01*
X75345000Y-50150000D02*
G75*
G03X75345000Y-50150000I-1770000J0D01*
G01*
D12*
X79689000Y-63306000D02*
X79689000Y-60646000D01*
X72009000Y-63306000D02*
X79689000Y-63306000D01*
X72009000Y-60646000D02*
X79689000Y-60646000D01*
X72009000Y-63306000D02*
X72009000Y-60646000D01*
X70739000Y-63306000D02*
X69409000Y-63306000D01*
X69409000Y-63306000D02*
X69409000Y-61976000D01*
X90850281Y-62605671D02*
G75*
G02X87305000Y-40160000I-45281J11495671D01*
G01*
X87278616Y-40161754D02*
G75*
G03X87805000Y-39410000I-273616J751754D01*
G01*
X90759719Y-62605671D02*
G75*
G03X94305000Y-40160000I45281J11495671D01*
G01*
X94331384Y-40161754D02*
G75*
G02X93805000Y-39410000I273616J751754D01*
G01*
X93805000Y-33710000D02*
X93805000Y-39410000D01*
X87805000Y-33710000D02*
X93805000Y-33710000D01*
X87805000Y-33710000D02*
X87805000Y-39410000D01*
X21729000Y-39160267D02*
X21729000Y-38817733D01*
X22749000Y-39160267D02*
X22749000Y-38817733D01*
X36955000Y-33318267D02*
X36955000Y-32975733D01*
X37975000Y-33318267D02*
X37975000Y-32975733D01*
X63320000Y-25580000D02*
X67270000Y-25580000D01*
X73840000Y-25580000D02*
X69890000Y-25580000D01*
X73840000Y-16124437D02*
X73840000Y-25580000D01*
X63320000Y-16124437D02*
X63320000Y-25580000D01*
X64384437Y-15060000D02*
X67270000Y-15060000D01*
X72775563Y-15060000D02*
X69890000Y-15060000D01*
X72775563Y-15060000D02*
X73840000Y-16124437D01*
X64384437Y-15060000D02*
X63320000Y-16124437D01*
X54475000Y-25320000D02*
X54475000Y-21260000D01*
X52205000Y-25320000D02*
X54475000Y-25320000D01*
X52205000Y-21260000D02*
X52205000Y-25320000D01*
X57285000Y-21260000D02*
X57285000Y-25320000D01*
X57285000Y-25320000D02*
X59555000Y-25320000D01*
X59555000Y-25320000D02*
X59555000Y-21260000D01*
X91429000Y-65563000D02*
X91429000Y-63723000D01*
X91429000Y-63723000D02*
X88149000Y-63723000D01*
X88149000Y-63723000D02*
X88149000Y-65563000D01*
X88149000Y-65563000D02*
X91429000Y-65563000D01*
X92609000Y-64643000D02*
X91429000Y-64643000D01*
X86969000Y-64643000D02*
X88149000Y-64643000D01*
X90853000Y-65563000D02*
X90853000Y-63723000D01*
X90733000Y-65563000D02*
X90733000Y-63723000D01*
X90973000Y-65563000D02*
X90973000Y-63723000D01*
X29042000Y-63659500D02*
X29042000Y-65499500D01*
X29282000Y-63659500D02*
X29282000Y-65499500D01*
X29162000Y-63659500D02*
X29162000Y-65499500D01*
X33046000Y-64579500D02*
X31866000Y-64579500D01*
X27406000Y-64579500D02*
X28586000Y-64579500D01*
X31866000Y-63659500D02*
X28586000Y-63659500D01*
X31866000Y-65499500D02*
X31866000Y-63659500D01*
X28586000Y-65499500D02*
X31866000Y-65499500D01*
X28586000Y-63659500D02*
X28586000Y-65499500D01*
X69470264Y-72894721D02*
G75*
G02X68580000Y-73150000I-890264J1424721D01*
G01*
X70005505Y-70579807D02*
G75*
G02X70005000Y-72361000I-1425505J-890193D01*
G01*
X67690106Y-70044642D02*
G75*
G02X69446000Y-70030000I889894J-1425358D01*
G01*
X67154642Y-72359894D02*
G75*
G02X67140000Y-70604000I1425358J889894D01*
G01*
X68608674Y-73150099D02*
G75*
G02X67714000Y-72910000I-28674J1680099D01*
G01*
X73760000Y-71470000D02*
G75*
G03X73760000Y-71470000I-1680000J0D01*
G01*
X77260000Y-71470000D02*
G75*
G03X77260000Y-71470000I-1680000J0D01*
G01*
X66770000Y-75570000D02*
X77390000Y-75570000D01*
X66770000Y-74470000D02*
X77390000Y-74470000D01*
X66770000Y-68310000D02*
X77390000Y-68310000D01*
X66770000Y-76030000D02*
X77390000Y-76030000D01*
X66770000Y-68310000D02*
X66770000Y-76030000D01*
X77390000Y-68310000D02*
X77390000Y-76030000D01*
X73355000Y-70401000D02*
X73226000Y-70529000D01*
X71105000Y-72651000D02*
X71011000Y-72744000D01*
X73150000Y-70195000D02*
X73056000Y-70289000D01*
X70935000Y-72411000D02*
X70806000Y-72539000D01*
X76855000Y-70401000D02*
X76726000Y-70529000D01*
X74605000Y-72651000D02*
X74511000Y-72744000D01*
X76650000Y-70195000D02*
X76556000Y-70289000D01*
X74435000Y-72411000D02*
X74306000Y-72539000D01*
X66530000Y-75630000D02*
X66530000Y-76270000D01*
X66530000Y-76270000D02*
X66930000Y-76270000D01*
X42400000Y-76270000D02*
X42800000Y-76270000D01*
X42400000Y-75630000D02*
X42400000Y-76270000D01*
X50305000Y-72411000D02*
X50176000Y-72539000D01*
X52520000Y-70195000D02*
X52426000Y-70289000D01*
X50475000Y-72651000D02*
X50381000Y-72744000D01*
X52725000Y-70401000D02*
X52596000Y-70529000D01*
X46805000Y-72411000D02*
X46676000Y-72539000D01*
X49020000Y-70195000D02*
X48926000Y-70289000D01*
X46975000Y-72651000D02*
X46881000Y-72744000D01*
X49225000Y-70401000D02*
X49096000Y-70529000D01*
X53260000Y-68310000D02*
X53260000Y-76030000D01*
X42640000Y-68310000D02*
X42640000Y-76030000D01*
X42640000Y-76030000D02*
X53260000Y-76030000D01*
X42640000Y-68310000D02*
X53260000Y-68310000D01*
X42640000Y-74470000D02*
X53260000Y-74470000D01*
X42640000Y-75570000D02*
X53260000Y-75570000D01*
X53130000Y-71470000D02*
G75*
G03X53130000Y-71470000I-1680000J0D01*
G01*
X49630000Y-71470000D02*
G75*
G03X49630000Y-71470000I-1680000J0D01*
G01*
X44478674Y-73150099D02*
G75*
G02X43584000Y-72910000I-28674J1680099D01*
G01*
X43024642Y-72359894D02*
G75*
G02X43010000Y-70604000I1425358J889894D01*
G01*
X43560106Y-70044642D02*
G75*
G02X45316000Y-70030000I889894J-1425358D01*
G01*
X45875505Y-70579807D02*
G75*
G02X45875000Y-72361000I-1425505J-890193D01*
G01*
X45340264Y-72894721D02*
G75*
G02X44450000Y-73150000I-890264J1424721D01*
G01*
X35620000Y-44510000D02*
X35620000Y-39310000D01*
X27940000Y-44510000D02*
X35620000Y-44510000D01*
X25340000Y-39310000D02*
X35620000Y-39310000D01*
X27940000Y-44510000D02*
X27940000Y-41910000D01*
X27940000Y-41910000D02*
X25340000Y-41910000D01*
X25340000Y-41910000D02*
X25340000Y-39310000D01*
X26670000Y-44510000D02*
X25340000Y-44510000D01*
X25340000Y-44510000D02*
X25340000Y-43180000D01*
X16704000Y-36833500D02*
X18034000Y-36833500D01*
X16704000Y-38163500D02*
X16704000Y-36833500D01*
X16704000Y-39433500D02*
X19364000Y-39433500D01*
X19364000Y-39433500D02*
X19364000Y-47113500D01*
X16704000Y-39433500D02*
X16704000Y-47113500D01*
X16704000Y-47113500D02*
X19364000Y-47113500D01*
X63207608Y-59051154D02*
G75*
G02X65413000Y-62143000I-1064608J-3091846D01*
G01*
X59229171Y-63626968D02*
G75*
G02X61079000Y-59051000I2913829J1483968D01*
G01*
X63628202Y-65056387D02*
G75*
G02X60659000Y-65057000I-1485202J2913387D01*
G01*
X65413075Y-62086137D02*
G75*
G02X65057000Y-63628000I-3270075J-56863D01*
G01*
X93110000Y-72850000D02*
X93110000Y-71350000D01*
X91860000Y-68850000D02*
X87360000Y-68850000D01*
X86110000Y-71350000D02*
X86110000Y-72850000D01*
X87360000Y-75350000D02*
X91860000Y-75350000D01*
X28051000Y-75192000D02*
X32551000Y-75192000D01*
X26801000Y-71192000D02*
X26801000Y-72692000D01*
X32551000Y-68692000D02*
X28051000Y-68692000D01*
X33801000Y-72692000D02*
X33801000Y-71192000D01*
X34226000Y-37750000D02*
X34226000Y-33750000D01*
X26226000Y-37750000D02*
X34226000Y-37750000D01*
X26226000Y-33750000D02*
X26226000Y-37750000D01*
X34226000Y-37750000D02*
X26226000Y-37750000D01*
X26226000Y-33750000D02*
X34226000Y-33750000D01*
X26226000Y-29178000D02*
X34226000Y-29178000D01*
X34226000Y-33178000D02*
X26226000Y-33178000D01*
X26226000Y-29178000D02*
X26226000Y-33178000D01*
X26226000Y-33178000D02*
X34226000Y-33178000D01*
X34226000Y-33178000D02*
X34226000Y-29178000D01*
X35163000Y-23435000D02*
G75*
G02X33163000Y-23435000I-1000000J0D01*
G01*
X33163000Y-23435000D02*
X31513000Y-23435000D01*
X31513000Y-23435000D02*
X31513000Y-28635000D01*
X31513000Y-28635000D02*
X36813000Y-28635000D01*
X36813000Y-28635000D02*
X36813000Y-23435000D01*
X36813000Y-23435000D02*
X35163000Y-23435000D01*
X79140000Y-22230000D02*
X80400000Y-22230000D01*
X85960000Y-22230000D02*
X84700000Y-22230000D01*
X79140000Y-18470000D02*
X79140000Y-22230000D01*
X85960000Y-16220000D02*
X85960000Y-22230000D01*
X57970000Y-44635000D02*
X57970000Y-44860000D01*
X65220000Y-44635000D02*
X65220000Y-44960000D01*
X65220000Y-51885000D02*
X65220000Y-51560000D01*
X57970000Y-51885000D02*
X57970000Y-51560000D01*
X57970000Y-44635000D02*
X58295000Y-44635000D01*
X57970000Y-51885000D02*
X58295000Y-51885000D01*
X65220000Y-51885000D02*
X64895000Y-51885000D01*
X65220000Y-44635000D02*
X64895000Y-44635000D01*
X57970000Y-44860000D02*
X56545000Y-44860000D01*
X61595000Y-39390000D02*
X63545000Y-39390000D01*
X61595000Y-39390000D02*
X59645000Y-39390000D01*
X61595000Y-34270000D02*
X63545000Y-34270000D01*
X61595000Y-34270000D02*
X58145000Y-34270000D01*
X55230000Y-55120000D02*
X55230000Y-61520000D01*
X50180000Y-55120000D02*
X50180000Y-61520000D01*
X50180000Y-55120000D02*
G75*
G02X55230000Y-55120000I2525000J0D01*
G01*
X50180000Y-61520000D02*
G75*
G03X55230000Y-61520000I2525000J0D01*
G01*
X53445000Y-34010000D02*
X46545000Y-34010000D01*
X46545000Y-34010000D02*
X46545000Y-36470000D01*
X46545000Y-36470000D02*
X53445000Y-36470000D01*
X53445000Y-36470000D02*
X53445000Y-34010000D01*
X53445000Y-34890000D02*
X54345000Y-34290000D01*
X54345000Y-34290000D02*
X54545000Y-34290000D01*
X53445000Y-35590000D02*
X54345000Y-36190000D01*
X54345000Y-36190000D02*
X54545000Y-36190000D01*
X81947936Y-27030000D02*
X83152064Y-27030000D01*
X81947936Y-28850000D02*
X83152064Y-28850000D01*
X88140000Y-20491267D02*
X88140000Y-20148733D01*
X87120000Y-20491267D02*
X87120000Y-20148733D01*
X68705000Y-45548733D02*
X68705000Y-45891267D01*
X69725000Y-45548733D02*
X69725000Y-45891267D01*
X46401233Y-55370000D02*
X46743767Y-55370000D01*
X46401233Y-56390000D02*
X46743767Y-56390000D01*
X46743767Y-60450000D02*
X46401233Y-60450000D01*
X46743767Y-61470000D02*
X46401233Y-61470000D01*
X53850000Y-16338733D02*
X53850000Y-16681267D01*
X52830000Y-16338733D02*
X52830000Y-16681267D01*
X57910000Y-16338733D02*
X57910000Y-16681267D01*
X58930000Y-16338733D02*
X58930000Y-16681267D01*
X67689000Y-41028767D02*
X67689000Y-40686233D01*
X68709000Y-41028767D02*
X68709000Y-40686233D01*
X47413000Y-18288000D02*
G75*
G03X47413000Y-18288000I-4360000J0D01*
G01*
X89559000Y-29988000D02*
X89559000Y-14208000D01*
X89559000Y-14208000D02*
X98909000Y-14208000D01*
X98909000Y-14208000D02*
X98909000Y-29988000D01*
X98909000Y-29988000D02*
X89559000Y-29988000D01*
X99159000Y-30238000D02*
X99159000Y-27698000D01*
X99159000Y-30238000D02*
X96619000Y-30238000D01*
X57405264Y-72894721D02*
G75*
G02X56515000Y-73150000I-890264J1424721D01*
G01*
X57940505Y-70579807D02*
G75*
G02X57940000Y-72361000I-1425505J-890193D01*
G01*
X55625106Y-70044642D02*
G75*
G02X57381000Y-70030000I889894J-1425358D01*
G01*
X55089642Y-72359894D02*
G75*
G02X55075000Y-70604000I1425358J889894D01*
G01*
X56543674Y-73150099D02*
G75*
G02X55649000Y-72910000I-28674J1680099D01*
G01*
X61695000Y-71470000D02*
G75*
G03X61695000Y-71470000I-1680000J0D01*
G01*
X65195000Y-71470000D02*
G75*
G03X65195000Y-71470000I-1680000J0D01*
G01*
X54705000Y-75570000D02*
X65325000Y-75570000D01*
X54705000Y-74470000D02*
X65325000Y-74470000D01*
X54705000Y-68310000D02*
X65325000Y-68310000D01*
X54705000Y-76030000D02*
X65325000Y-76030000D01*
X54705000Y-68310000D02*
X54705000Y-76030000D01*
X65325000Y-68310000D02*
X65325000Y-76030000D01*
X61290000Y-70401000D02*
X61161000Y-70529000D01*
X59040000Y-72651000D02*
X58946000Y-72744000D01*
X61085000Y-70195000D02*
X60991000Y-70289000D01*
X58870000Y-72411000D02*
X58741000Y-72539000D01*
X64790000Y-70401000D02*
X64661000Y-70529000D01*
X62540000Y-72651000D02*
X62446000Y-72744000D01*
X64585000Y-70195000D02*
X64491000Y-70289000D01*
X62370000Y-72411000D02*
X62241000Y-72539000D01*
X54465000Y-75630000D02*
X54465000Y-76270000D01*
X54465000Y-76270000D02*
X54865000Y-76270000D01*
X33374288Y-15915648D02*
G75*
G02X34163000Y-15719000I788712J-1483352D01*
G01*
X32679047Y-18188088D02*
G75*
G02X32679000Y-16610000I1483953J789088D01*
G01*
X34952088Y-18882953D02*
G75*
G02X33374000Y-18883000I-789088J1483953D01*
G01*
X35646953Y-16609912D02*
G75*
G02X35647000Y-18188000I-1483953J-789088D01*
G01*
X34133617Y-15718550D02*
G75*
G02X34952000Y-15915000I29383J-1680450D01*
G01*
X35063000Y-20399000D02*
G75*
G03X35063000Y-20399000I-900000J0D01*
G01*
X30843000Y-17399000D02*
G75*
G03X30843000Y-17399000I-1680000J0D01*
G01*
X30063000Y-20399000D02*
G75*
G03X30063000Y-20399000I-900000J0D01*
G01*
X25843000Y-17399000D02*
G75*
G03X25843000Y-17399000I-1680000J0D01*
G01*
X25063000Y-20399000D02*
G75*
G03X25063000Y-20399000I-900000J0D01*
G01*
X36723000Y-14899000D02*
X21603000Y-14899000D01*
X36723000Y-22459000D02*
X21603000Y-22459000D01*
X36723000Y-13339000D02*
X21603000Y-13339000D01*
X36723000Y-22459000D02*
X36723000Y-13339000D01*
X21603000Y-22459000D02*
X21603000Y-13339000D01*
X27888000Y-18468000D02*
X27982000Y-18375000D01*
X30173000Y-16183000D02*
X30232000Y-16125000D01*
X28093000Y-18674000D02*
X28152000Y-18615000D01*
X30343000Y-16423000D02*
X30437000Y-16330000D01*
X22888000Y-18468000D02*
X22982000Y-18375000D01*
X25173000Y-16183000D02*
X25232000Y-16125000D01*
X23093000Y-18674000D02*
X23152000Y-18615000D01*
X25343000Y-16423000D02*
X25437000Y-16330000D01*
X36963000Y-14839000D02*
X36963000Y-13099000D01*
X36963000Y-13099000D02*
X35463000Y-13099000D01*
X16931648Y-26823712D02*
G75*
G02X16735000Y-26035000I1483352J788712D01*
G01*
X19204088Y-27518953D02*
G75*
G02X17626000Y-27519000I-789088J1483953D01*
G01*
X19898953Y-25245912D02*
G75*
G02X19899000Y-26824000I-1483953J-789088D01*
G01*
X17625912Y-24551047D02*
G75*
G02X19204000Y-24551000I789088J-1483953D01*
G01*
X16734550Y-26064383D02*
G75*
G02X16931000Y-25246000I1680450J29383D01*
G01*
X22315000Y-26035000D02*
G75*
G03X22315000Y-26035000I-900000J0D01*
G01*
X20095000Y-31035000D02*
G75*
G03X20095000Y-31035000I-1680000J0D01*
G01*
X22315000Y-31035000D02*
G75*
G03X22315000Y-31035000I-900000J0D01*
G01*
X15915000Y-23475000D02*
X15915000Y-33595000D01*
X23475000Y-23475000D02*
X23475000Y-33595000D01*
X14355000Y-23475000D02*
X14355000Y-33595000D01*
X23475000Y-23475000D02*
X14355000Y-23475000D01*
X23475000Y-33595000D02*
X14355000Y-33595000D01*
X19484000Y-32310000D02*
X19391000Y-32216000D01*
X17199000Y-30025000D02*
X17141000Y-29966000D01*
X19690000Y-32105000D02*
X19631000Y-32046000D01*
X17439000Y-29855000D02*
X17346000Y-29761000D01*
X15855000Y-23235000D02*
X14115000Y-23235000D01*
X14115000Y-23235000D02*
X14115000Y-24735000D01*
D11*
X72315000Y-47861252D02*
X72315000Y-47338748D01*
X74535000Y-47861252D02*
X74535000Y-47338748D01*
D13*
X71257380Y-48943333D02*
X70781190Y-49276666D01*
X71257380Y-49514761D02*
X70257380Y-49514761D01*
X70257380Y-49133809D01*
X70305000Y-49038571D01*
X70352619Y-48990952D01*
X70447857Y-48943333D01*
X70590714Y-48943333D01*
X70685952Y-48990952D01*
X70733571Y-49038571D01*
X70781190Y-49133809D01*
X70781190Y-49514761D01*
X70733571Y-48514761D02*
X70733571Y-48181428D01*
X71257380Y-48038571D02*
X71257380Y-48514761D01*
X70257380Y-48514761D01*
X70257380Y-48038571D01*
X70733571Y-47276666D02*
X70733571Y-47610000D01*
X71257380Y-47610000D02*
X70257380Y-47610000D01*
X70257380Y-47133809D01*
X70257380Y-46610000D02*
X70495476Y-46610000D01*
X70400238Y-46848095D02*
X70495476Y-46610000D01*
X70400238Y-46371904D01*
X70685952Y-46752857D02*
X70495476Y-46610000D01*
X70685952Y-46467142D01*
X70257380Y-45848095D02*
X70495476Y-45848095D01*
X70400238Y-46086190D02*
X70495476Y-45848095D01*
X70400238Y-45610000D01*
X70685952Y-45990952D02*
X70495476Y-45848095D01*
X70685952Y-45705238D01*
D10*
X67861380Y-62309333D02*
X68575666Y-62309333D01*
X68718523Y-62356952D01*
X68813761Y-62452190D01*
X68861380Y-62595047D01*
X68861380Y-62690285D01*
X67861380Y-61928380D02*
X67861380Y-61261714D01*
X68861380Y-61690285D01*
X96877285Y-37012571D02*
X97020142Y-37060190D01*
X97067761Y-37107809D01*
X97115380Y-37203047D01*
X97115380Y-37345904D01*
X97067761Y-37441142D01*
X97020142Y-37488761D01*
X96924904Y-37536380D01*
X96543952Y-37536380D01*
X96543952Y-36536380D01*
X96877285Y-36536380D01*
X96972523Y-36584000D01*
X97020142Y-36631619D01*
X97067761Y-36726857D01*
X97067761Y-36822095D01*
X97020142Y-36917333D01*
X96972523Y-36964952D01*
X96877285Y-37012571D01*
X96543952Y-37012571D01*
X97401095Y-36536380D02*
X97972523Y-36536380D01*
X97686809Y-37536380D02*
X97686809Y-36536380D01*
X98829666Y-37536380D02*
X98258238Y-37536380D01*
X98543952Y-37536380D02*
X98543952Y-36536380D01*
X98448714Y-36679238D01*
X98353476Y-36774476D01*
X98258238Y-36822095D01*
X90876428Y-39040952D02*
X90876428Y-38279047D01*
X91257380Y-38660000D02*
X90495476Y-38660000D01*
X24106142Y-39631857D02*
X24153761Y-39679476D01*
X24201380Y-39822333D01*
X24201380Y-39917571D01*
X24153761Y-40060428D01*
X24058523Y-40155666D01*
X23963285Y-40203285D01*
X23772809Y-40250904D01*
X23629952Y-40250904D01*
X23439476Y-40203285D01*
X23344238Y-40155666D01*
X23249000Y-40060428D01*
X23201380Y-39917571D01*
X23201380Y-39822333D01*
X23249000Y-39679476D01*
X23296619Y-39631857D01*
X24201380Y-38679476D02*
X24201380Y-39250904D01*
X24201380Y-38965190D02*
X23201380Y-38965190D01*
X23344238Y-39060428D01*
X23439476Y-39155666D01*
X23487095Y-39250904D01*
X23296619Y-38298523D02*
X23249000Y-38250904D01*
X23201380Y-38155666D01*
X23201380Y-37917571D01*
X23249000Y-37822333D01*
X23296619Y-37774714D01*
X23391857Y-37727095D01*
X23487095Y-37727095D01*
X23629952Y-37774714D01*
X24201380Y-38346142D01*
X24201380Y-37727095D01*
X39314380Y-33853357D02*
X38838190Y-34186690D01*
X39314380Y-34424785D02*
X38314380Y-34424785D01*
X38314380Y-34043833D01*
X38362000Y-33948595D01*
X38409619Y-33900976D01*
X38504857Y-33853357D01*
X38647714Y-33853357D01*
X38742952Y-33900976D01*
X38790571Y-33948595D01*
X38838190Y-34043833D01*
X38838190Y-34424785D01*
X39314380Y-32900976D02*
X39314380Y-33472404D01*
X39314380Y-33186690D02*
X38314380Y-33186690D01*
X38457238Y-33281928D01*
X38552476Y-33377166D01*
X38600095Y-33472404D01*
X38647714Y-32043833D02*
X39314380Y-32043833D01*
X38266761Y-32281928D02*
X38981047Y-32520023D01*
X38981047Y-31900976D01*
X75137142Y-20486666D02*
X75184761Y-20534285D01*
X75232380Y-20677142D01*
X75232380Y-20772380D01*
X75184761Y-20915238D01*
X75089523Y-21010476D01*
X74994285Y-21058095D01*
X74803809Y-21105714D01*
X74660952Y-21105714D01*
X74470476Y-21058095D01*
X74375238Y-21010476D01*
X74280000Y-20915238D01*
X74232380Y-20772380D01*
X74232380Y-20677142D01*
X74280000Y-20534285D01*
X74327619Y-20486666D01*
X74327619Y-20105714D02*
X74280000Y-20058095D01*
X74232380Y-19962857D01*
X74232380Y-19724761D01*
X74280000Y-19629523D01*
X74327619Y-19581904D01*
X74422857Y-19534285D01*
X74518095Y-19534285D01*
X74660952Y-19581904D01*
X75232380Y-20153333D01*
X75232380Y-19534285D01*
X50442904Y-23439380D02*
X50442904Y-22439380D01*
X50681000Y-22439380D01*
X50823857Y-22487000D01*
X50919095Y-22582238D01*
X50966714Y-22677476D01*
X51014333Y-22867952D01*
X51014333Y-23010809D01*
X50966714Y-23201285D01*
X50919095Y-23296523D01*
X50823857Y-23391761D01*
X50681000Y-23439380D01*
X50442904Y-23439380D01*
X51966714Y-23439380D02*
X51395285Y-23439380D01*
X51681000Y-23439380D02*
X51681000Y-22439380D01*
X51585761Y-22582238D01*
X51490523Y-22677476D01*
X51395285Y-22725095D01*
X55395904Y-23375880D02*
X55395904Y-22375880D01*
X55634000Y-22375880D01*
X55776857Y-22423500D01*
X55872095Y-22518738D01*
X55919714Y-22613976D01*
X55967333Y-22804452D01*
X55967333Y-22947309D01*
X55919714Y-23137785D01*
X55872095Y-23233023D01*
X55776857Y-23328261D01*
X55634000Y-23375880D01*
X55395904Y-23375880D01*
X56348285Y-22471119D02*
X56395904Y-22423500D01*
X56491142Y-22375880D01*
X56729238Y-22375880D01*
X56824476Y-22423500D01*
X56872095Y-22471119D01*
X56919714Y-22566357D01*
X56919714Y-22661595D01*
X56872095Y-22804452D01*
X56300666Y-23375880D01*
X56919714Y-23375880D01*
X82891404Y-65095380D02*
X82891404Y-64095380D01*
X83129500Y-64095380D01*
X83272357Y-64143000D01*
X83367595Y-64238238D01*
X83415214Y-64333476D01*
X83462833Y-64523952D01*
X83462833Y-64666809D01*
X83415214Y-64857285D01*
X83367595Y-64952523D01*
X83272357Y-65047761D01*
X83129500Y-65095380D01*
X82891404Y-65095380D01*
X83796166Y-64095380D02*
X84415214Y-64095380D01*
X84081880Y-64476333D01*
X84224738Y-64476333D01*
X84319976Y-64523952D01*
X84367595Y-64571571D01*
X84415214Y-64666809D01*
X84415214Y-64904904D01*
X84367595Y-65000142D01*
X84319976Y-65047761D01*
X84224738Y-65095380D01*
X83939023Y-65095380D01*
X83843785Y-65047761D01*
X83796166Y-65000142D01*
X93337095Y-66845380D02*
X93337095Y-65845380D01*
X93908523Y-66845380D02*
X93479952Y-66273952D01*
X93908523Y-65845380D02*
X93337095Y-66416809D01*
X29487904Y-63111880D02*
X29487904Y-62111880D01*
X29726000Y-62111880D01*
X29868857Y-62159500D01*
X29964095Y-62254738D01*
X30011714Y-62349976D01*
X30059333Y-62540452D01*
X30059333Y-62683309D01*
X30011714Y-62873785D01*
X29964095Y-62969023D01*
X29868857Y-63064261D01*
X29726000Y-63111880D01*
X29487904Y-63111880D01*
X30916476Y-62445214D02*
X30916476Y-63111880D01*
X30678380Y-62064261D02*
X30440285Y-62778547D01*
X31059333Y-62778547D01*
X26154095Y-63281880D02*
X26154095Y-62281880D01*
X26725523Y-63281880D02*
X26296952Y-62710452D01*
X26725523Y-62281880D02*
X26154095Y-62853309D01*
X103726095Y-15438380D02*
X103726095Y-14438380D01*
X103726095Y-14914571D02*
X104297523Y-14914571D01*
X104297523Y-15438380D02*
X104297523Y-14438380D01*
X105297523Y-15438380D02*
X104726095Y-15438380D01*
X105011809Y-15438380D02*
X105011809Y-14438380D01*
X104916571Y-14581238D01*
X104821333Y-14676476D01*
X104726095Y-14724095D01*
X103759095Y-75001380D02*
X103759095Y-74001380D01*
X103759095Y-74477571D02*
X104330523Y-74477571D01*
X104330523Y-75001380D02*
X104330523Y-74001380D01*
X104759095Y-74096619D02*
X104806714Y-74049000D01*
X104901952Y-74001380D01*
X105140047Y-74001380D01*
X105235285Y-74049000D01*
X105282904Y-74096619D01*
X105330523Y-74191857D01*
X105330523Y-74287095D01*
X105282904Y-74429952D01*
X104711476Y-75001380D01*
X105330523Y-75001380D01*
X15360095Y-75001380D02*
X15360095Y-74001380D01*
X15360095Y-74477571D02*
X15931523Y-74477571D01*
X15931523Y-75001380D02*
X15931523Y-74001380D01*
X16312476Y-74001380D02*
X16931523Y-74001380D01*
X16598190Y-74382333D01*
X16741047Y-74382333D01*
X16836285Y-74429952D01*
X16883904Y-74477571D01*
X16931523Y-74572809D01*
X16931523Y-74810904D01*
X16883904Y-74906142D01*
X16836285Y-74953761D01*
X16741047Y-75001380D01*
X16455333Y-75001380D01*
X16360095Y-74953761D01*
X16312476Y-74906142D01*
X15367095Y-15438380D02*
X15367095Y-14438380D01*
X15367095Y-14914571D02*
X15938523Y-14914571D01*
X15938523Y-15438380D02*
X15938523Y-14438380D01*
X16843285Y-14771714D02*
X16843285Y-15438380D01*
X16605190Y-14390761D02*
X16367095Y-15105047D01*
X16986142Y-15105047D01*
X65492380Y-73993333D02*
X66206666Y-73993333D01*
X66349523Y-74040952D01*
X66444761Y-74136190D01*
X66492380Y-74279047D01*
X66492380Y-74374285D01*
X65492380Y-73612380D02*
X65492380Y-72993333D01*
X65873333Y-73326666D01*
X65873333Y-73183809D01*
X65920952Y-73088571D01*
X65968571Y-73040952D01*
X66063809Y-72993333D01*
X66301904Y-72993333D01*
X66397142Y-73040952D01*
X66444761Y-73088571D01*
X66492380Y-73183809D01*
X66492380Y-73469523D01*
X66444761Y-73564761D01*
X66397142Y-73612380D01*
X41362380Y-73993333D02*
X42076666Y-73993333D01*
X42219523Y-74040952D01*
X42314761Y-74136190D01*
X42362380Y-74279047D01*
X42362380Y-74374285D01*
X41362380Y-73040952D02*
X41362380Y-73517142D01*
X41838571Y-73564761D01*
X41790952Y-73517142D01*
X41743333Y-73421904D01*
X41743333Y-73183809D01*
X41790952Y-73088571D01*
X41838571Y-73040952D01*
X41933809Y-72993333D01*
X42171904Y-72993333D01*
X42267142Y-73040952D01*
X42314761Y-73088571D01*
X42362380Y-73183809D01*
X42362380Y-73421904D01*
X42314761Y-73517142D01*
X42267142Y-73564761D01*
X23796666Y-41298880D02*
X23796666Y-42013166D01*
X23749047Y-42156023D01*
X23653809Y-42251261D01*
X23510952Y-42298880D01*
X23415714Y-42298880D01*
X24415714Y-41727452D02*
X24320476Y-41679833D01*
X24272857Y-41632214D01*
X24225238Y-41536976D01*
X24225238Y-41489357D01*
X24272857Y-41394119D01*
X24320476Y-41346500D01*
X24415714Y-41298880D01*
X24606190Y-41298880D01*
X24701428Y-41346500D01*
X24749047Y-41394119D01*
X24796666Y-41489357D01*
X24796666Y-41536976D01*
X24749047Y-41632214D01*
X24701428Y-41679833D01*
X24606190Y-41727452D01*
X24415714Y-41727452D01*
X24320476Y-41775071D01*
X24272857Y-41822690D01*
X24225238Y-41917928D01*
X24225238Y-42108404D01*
X24272857Y-42203642D01*
X24320476Y-42251261D01*
X24415714Y-42298880D01*
X24606190Y-42298880D01*
X24701428Y-42251261D01*
X24749047Y-42203642D01*
X24796666Y-42108404D01*
X24796666Y-41917928D01*
X24749047Y-41822690D01*
X24701428Y-41775071D01*
X24606190Y-41727452D01*
X17700666Y-35285880D02*
X17700666Y-36000166D01*
X17653047Y-36143023D01*
X17557809Y-36238261D01*
X17414952Y-36285880D01*
X17319714Y-36285880D01*
X18224476Y-36285880D02*
X18414952Y-36285880D01*
X18510190Y-36238261D01*
X18557809Y-36190642D01*
X18653047Y-36047785D01*
X18700666Y-35857309D01*
X18700666Y-35476357D01*
X18653047Y-35381119D01*
X18605428Y-35333500D01*
X18510190Y-35285880D01*
X18319714Y-35285880D01*
X18224476Y-35333500D01*
X18176857Y-35381119D01*
X18129238Y-35476357D01*
X18129238Y-35714452D01*
X18176857Y-35809690D01*
X18224476Y-35857309D01*
X18319714Y-35904928D01*
X18510190Y-35904928D01*
X18605428Y-35857309D01*
X18653047Y-35809690D01*
X18700666Y-35714452D01*
X58035380Y-62738238D02*
X57559190Y-63071571D01*
X58035380Y-63309666D02*
X57035380Y-63309666D01*
X57035380Y-62928714D01*
X57083000Y-62833476D01*
X57130619Y-62785857D01*
X57225857Y-62738238D01*
X57368714Y-62738238D01*
X57463952Y-62785857D01*
X57511571Y-62833476D01*
X57559190Y-62928714D01*
X57559190Y-63309666D01*
X57035380Y-62452523D02*
X58035380Y-62119190D01*
X57035380Y-61785857D01*
X58035380Y-60928714D02*
X58035380Y-61500142D01*
X58035380Y-61214428D02*
X57035380Y-61214428D01*
X57178238Y-61309666D01*
X57273476Y-61404904D01*
X57321095Y-61500142D01*
X88276666Y-68254761D02*
X88419523Y-68302380D01*
X88657619Y-68302380D01*
X88752857Y-68254761D01*
X88800476Y-68207142D01*
X88848095Y-68111904D01*
X88848095Y-68016666D01*
X88800476Y-67921428D01*
X88752857Y-67873809D01*
X88657619Y-67826190D01*
X88467142Y-67778571D01*
X88371904Y-67730952D01*
X88324285Y-67683333D01*
X88276666Y-67588095D01*
X88276666Y-67492857D01*
X88324285Y-67397619D01*
X88371904Y-67350000D01*
X88467142Y-67302380D01*
X88705238Y-67302380D01*
X88848095Y-67350000D01*
X89181428Y-67302380D02*
X89419523Y-68302380D01*
X89610000Y-67588095D01*
X89800476Y-68302380D01*
X90038571Y-67302380D01*
X90943333Y-68302380D02*
X90371904Y-68302380D01*
X90657619Y-68302380D02*
X90657619Y-67302380D01*
X90562380Y-67445238D01*
X90467142Y-67540476D01*
X90371904Y-67588095D01*
X28967666Y-68096761D02*
X29110523Y-68144380D01*
X29348619Y-68144380D01*
X29443857Y-68096761D01*
X29491476Y-68049142D01*
X29539095Y-67953904D01*
X29539095Y-67858666D01*
X29491476Y-67763428D01*
X29443857Y-67715809D01*
X29348619Y-67668190D01*
X29158142Y-67620571D01*
X29062904Y-67572952D01*
X29015285Y-67525333D01*
X28967666Y-67430095D01*
X28967666Y-67334857D01*
X29015285Y-67239619D01*
X29062904Y-67192000D01*
X29158142Y-67144380D01*
X29396238Y-67144380D01*
X29539095Y-67192000D01*
X29872428Y-67144380D02*
X30110523Y-68144380D01*
X30301000Y-67430095D01*
X30491476Y-68144380D01*
X30729571Y-67144380D01*
X31062904Y-67239619D02*
X31110523Y-67192000D01*
X31205761Y-67144380D01*
X31443857Y-67144380D01*
X31539095Y-67192000D01*
X31586714Y-67239619D01*
X31634333Y-67334857D01*
X31634333Y-67430095D01*
X31586714Y-67572952D01*
X31015285Y-68144380D01*
X31634333Y-68144380D01*
X36980761Y-38036333D02*
X37028380Y-37893476D01*
X37028380Y-37655380D01*
X36980761Y-37560142D01*
X36933142Y-37512523D01*
X36837904Y-37464904D01*
X36742666Y-37464904D01*
X36647428Y-37512523D01*
X36599809Y-37560142D01*
X36552190Y-37655380D01*
X36504571Y-37845857D01*
X36456952Y-37941095D01*
X36409333Y-37988714D01*
X36314095Y-38036333D01*
X36218857Y-38036333D01*
X36123619Y-37988714D01*
X36076000Y-37941095D01*
X36028380Y-37845857D01*
X36028380Y-37607761D01*
X36076000Y-37464904D01*
X36028380Y-37131571D02*
X37028380Y-36893476D01*
X36314095Y-36703000D01*
X37028380Y-36512523D01*
X36028380Y-36274428D01*
X36028380Y-35988714D02*
X36028380Y-35369666D01*
X36409333Y-35703000D01*
X36409333Y-35560142D01*
X36456952Y-35464904D01*
X36504571Y-35417285D01*
X36599809Y-35369666D01*
X36837904Y-35369666D01*
X36933142Y-35417285D01*
X36980761Y-35464904D01*
X37028380Y-35560142D01*
X37028380Y-35845857D01*
X36980761Y-35941095D01*
X36933142Y-35988714D01*
X36980761Y-31813333D02*
X37028380Y-31670476D01*
X37028380Y-31432380D01*
X36980761Y-31337142D01*
X36933142Y-31289523D01*
X36837904Y-31241904D01*
X36742666Y-31241904D01*
X36647428Y-31289523D01*
X36599809Y-31337142D01*
X36552190Y-31432380D01*
X36504571Y-31622857D01*
X36456952Y-31718095D01*
X36409333Y-31765714D01*
X36314095Y-31813333D01*
X36218857Y-31813333D01*
X36123619Y-31765714D01*
X36076000Y-31718095D01*
X36028380Y-31622857D01*
X36028380Y-31384761D01*
X36076000Y-31241904D01*
X36028380Y-30908571D02*
X37028380Y-30670476D01*
X36314095Y-30480000D01*
X37028380Y-30289523D01*
X36028380Y-30051428D01*
X36361714Y-29241904D02*
X37028380Y-29241904D01*
X35980761Y-29480000D02*
X36695047Y-29718095D01*
X36695047Y-29099047D01*
X39243095Y-25487380D02*
X39243095Y-26296904D01*
X39290714Y-26392142D01*
X39338333Y-26439761D01*
X39433571Y-26487380D01*
X39624047Y-26487380D01*
X39719285Y-26439761D01*
X39766904Y-26392142D01*
X39814523Y-26296904D01*
X39814523Y-25487380D01*
X40814523Y-26487380D02*
X40243095Y-26487380D01*
X40528809Y-26487380D02*
X40528809Y-25487380D01*
X40433571Y-25630238D01*
X40338333Y-25725476D01*
X40243095Y-25773095D01*
X85344095Y-23074380D02*
X85344095Y-23883904D01*
X85391714Y-23979142D01*
X85439333Y-24026761D01*
X85534571Y-24074380D01*
X85725047Y-24074380D01*
X85820285Y-24026761D01*
X85867904Y-23979142D01*
X85915523Y-23883904D01*
X85915523Y-23074380D01*
X86344095Y-23169619D02*
X86391714Y-23122000D01*
X86486952Y-23074380D01*
X86725047Y-23074380D01*
X86820285Y-23122000D01*
X86867904Y-23169619D01*
X86915523Y-23264857D01*
X86915523Y-23360095D01*
X86867904Y-23502952D01*
X86296476Y-24074380D01*
X86915523Y-24074380D01*
X65849595Y-52855880D02*
X65849595Y-53665404D01*
X65897214Y-53760642D01*
X65944833Y-53808261D01*
X66040071Y-53855880D01*
X66230547Y-53855880D01*
X66325785Y-53808261D01*
X66373404Y-53760642D01*
X66421023Y-53665404D01*
X66421023Y-52855880D01*
X66801976Y-52855880D02*
X67421023Y-52855880D01*
X67087690Y-53236833D01*
X67230547Y-53236833D01*
X67325785Y-53284452D01*
X67373404Y-53332071D01*
X67421023Y-53427309D01*
X67421023Y-53665404D01*
X67373404Y-53760642D01*
X67325785Y-53808261D01*
X67230547Y-53855880D01*
X66944833Y-53855880D01*
X66849595Y-53808261D01*
X66801976Y-53760642D01*
X60833095Y-32882380D02*
X60833095Y-33691904D01*
X60880714Y-33787142D01*
X60928333Y-33834761D01*
X61023571Y-33882380D01*
X61214047Y-33882380D01*
X61309285Y-33834761D01*
X61356904Y-33787142D01*
X61404523Y-33691904D01*
X61404523Y-32882380D01*
X62309285Y-33215714D02*
X62309285Y-33882380D01*
X62071190Y-32834761D02*
X61833095Y-33549047D01*
X62452142Y-33549047D01*
X56206190Y-58796190D02*
X56682380Y-58796190D01*
X55682380Y-59129523D02*
X56206190Y-58796190D01*
X55682380Y-58462857D01*
X56682380Y-57605714D02*
X56682380Y-58177142D01*
X56682380Y-57891428D02*
X55682380Y-57891428D01*
X55825238Y-57986666D01*
X55920476Y-58081904D01*
X55968095Y-58177142D01*
X49434809Y-32742190D02*
X49434809Y-33218380D01*
X49101476Y-32218380D02*
X49434809Y-32742190D01*
X49768142Y-32218380D01*
X50053857Y-32313619D02*
X50101476Y-32266000D01*
X50196714Y-32218380D01*
X50434809Y-32218380D01*
X50530047Y-32266000D01*
X50577666Y-32313619D01*
X50625285Y-32408857D01*
X50625285Y-32504095D01*
X50577666Y-32646952D01*
X50006238Y-33218380D01*
X50625285Y-33218380D01*
X82383333Y-26477142D02*
X82335714Y-26524761D01*
X82192857Y-26572380D01*
X82097619Y-26572380D01*
X81954761Y-26524761D01*
X81859523Y-26429523D01*
X81811904Y-26334285D01*
X81764285Y-26143809D01*
X81764285Y-26000952D01*
X81811904Y-25810476D01*
X81859523Y-25715238D01*
X81954761Y-25620000D01*
X82097619Y-25572380D01*
X82192857Y-25572380D01*
X82335714Y-25620000D01*
X82383333Y-25667619D01*
X83240476Y-25905714D02*
X83240476Y-26572380D01*
X83002380Y-25524761D02*
X82764285Y-26239047D01*
X83383333Y-26239047D01*
X87987142Y-17311666D02*
X88034761Y-17359285D01*
X88082380Y-17502142D01*
X88082380Y-17597380D01*
X88034761Y-17740238D01*
X87939523Y-17835476D01*
X87844285Y-17883095D01*
X87653809Y-17930714D01*
X87510952Y-17930714D01*
X87320476Y-17883095D01*
X87225238Y-17835476D01*
X87130000Y-17740238D01*
X87082380Y-17597380D01*
X87082380Y-17502142D01*
X87130000Y-17359285D01*
X87177619Y-17311666D01*
X87082380Y-16406904D02*
X87082380Y-16883095D01*
X87558571Y-16930714D01*
X87510952Y-16883095D01*
X87463333Y-16787857D01*
X87463333Y-16549761D01*
X87510952Y-16454523D01*
X87558571Y-16406904D01*
X87653809Y-16359285D01*
X87891904Y-16359285D01*
X87987142Y-16406904D01*
X88034761Y-16454523D01*
X88082380Y-16549761D01*
X88082380Y-16787857D01*
X88034761Y-16883095D01*
X87987142Y-16930714D01*
X71002142Y-45886666D02*
X71049761Y-45934285D01*
X71097380Y-46077142D01*
X71097380Y-46172380D01*
X71049761Y-46315238D01*
X70954523Y-46410476D01*
X70859285Y-46458095D01*
X70668809Y-46505714D01*
X70525952Y-46505714D01*
X70335476Y-46458095D01*
X70240238Y-46410476D01*
X70145000Y-46315238D01*
X70097380Y-46172380D01*
X70097380Y-46077142D01*
X70145000Y-45934285D01*
X70192619Y-45886666D01*
X71097380Y-45410476D02*
X71097380Y-45220000D01*
X71049761Y-45124761D01*
X71002142Y-45077142D01*
X70859285Y-44981904D01*
X70668809Y-44934285D01*
X70287857Y-44934285D01*
X70192619Y-44981904D01*
X70145000Y-45029523D01*
X70097380Y-45124761D01*
X70097380Y-45315238D01*
X70145000Y-45410476D01*
X70192619Y-45458095D01*
X70287857Y-45505714D01*
X70525952Y-45505714D01*
X70621190Y-45458095D01*
X70668809Y-45410476D01*
X70716428Y-45315238D01*
X70716428Y-45124761D01*
X70668809Y-45029523D01*
X70621190Y-44981904D01*
X70525952Y-44934285D01*
X45929642Y-54807142D02*
X45882023Y-54854761D01*
X45739166Y-54902380D01*
X45643928Y-54902380D01*
X45501071Y-54854761D01*
X45405833Y-54759523D01*
X45358214Y-54664285D01*
X45310595Y-54473809D01*
X45310595Y-54330952D01*
X45358214Y-54140476D01*
X45405833Y-54045238D01*
X45501071Y-53950000D01*
X45643928Y-53902380D01*
X45739166Y-53902380D01*
X45882023Y-53950000D01*
X45929642Y-53997619D01*
X46882023Y-54902380D02*
X46310595Y-54902380D01*
X46596309Y-54902380D02*
X46596309Y-53902380D01*
X46501071Y-54045238D01*
X46405833Y-54140476D01*
X46310595Y-54188095D01*
X47786785Y-53902380D02*
X47310595Y-53902380D01*
X47262976Y-54378571D01*
X47310595Y-54330952D01*
X47405833Y-54283333D01*
X47643928Y-54283333D01*
X47739166Y-54330952D01*
X47786785Y-54378571D01*
X47834404Y-54473809D01*
X47834404Y-54711904D01*
X47786785Y-54807142D01*
X47739166Y-54854761D01*
X47643928Y-54902380D01*
X47405833Y-54902380D01*
X47310595Y-54854761D01*
X47262976Y-54807142D01*
X45929642Y-62747142D02*
X45882023Y-62794761D01*
X45739166Y-62842380D01*
X45643928Y-62842380D01*
X45501071Y-62794761D01*
X45405833Y-62699523D01*
X45358214Y-62604285D01*
X45310595Y-62413809D01*
X45310595Y-62270952D01*
X45358214Y-62080476D01*
X45405833Y-61985238D01*
X45501071Y-61890000D01*
X45643928Y-61842380D01*
X45739166Y-61842380D01*
X45882023Y-61890000D01*
X45929642Y-61937619D01*
X46882023Y-62842380D02*
X46310595Y-62842380D01*
X46596309Y-62842380D02*
X46596309Y-61842380D01*
X46501071Y-61985238D01*
X46405833Y-62080476D01*
X46310595Y-62128095D01*
X47739166Y-61842380D02*
X47548690Y-61842380D01*
X47453452Y-61890000D01*
X47405833Y-61937619D01*
X47310595Y-62080476D01*
X47262976Y-62270952D01*
X47262976Y-62651904D01*
X47310595Y-62747142D01*
X47358214Y-62794761D01*
X47453452Y-62842380D01*
X47643928Y-62842380D01*
X47739166Y-62794761D01*
X47786785Y-62747142D01*
X47834404Y-62651904D01*
X47834404Y-62413809D01*
X47786785Y-62318571D01*
X47739166Y-62270952D01*
X47643928Y-62223333D01*
X47453452Y-62223333D01*
X47358214Y-62270952D01*
X47310595Y-62318571D01*
X47262976Y-62413809D01*
X51649333Y-16962380D02*
X51316000Y-16486190D01*
X51077904Y-16962380D02*
X51077904Y-15962380D01*
X51458857Y-15962380D01*
X51554095Y-16010000D01*
X51601714Y-16057619D01*
X51649333Y-16152857D01*
X51649333Y-16295714D01*
X51601714Y-16390952D01*
X51554095Y-16438571D01*
X51458857Y-16486190D01*
X51077904Y-16486190D01*
X52030285Y-16057619D02*
X52077904Y-16010000D01*
X52173142Y-15962380D01*
X52411238Y-15962380D01*
X52506476Y-16010000D01*
X52554095Y-16057619D01*
X52601714Y-16152857D01*
X52601714Y-16248095D01*
X52554095Y-16390952D01*
X51982666Y-16962380D01*
X52601714Y-16962380D01*
X56792833Y-16962380D02*
X56459500Y-16486190D01*
X56221404Y-16962380D02*
X56221404Y-15962380D01*
X56602357Y-15962380D01*
X56697595Y-16010000D01*
X56745214Y-16057619D01*
X56792833Y-16152857D01*
X56792833Y-16295714D01*
X56745214Y-16390952D01*
X56697595Y-16438571D01*
X56602357Y-16486190D01*
X56221404Y-16486190D01*
X57126166Y-15962380D02*
X57745214Y-15962380D01*
X57411880Y-16343333D01*
X57554738Y-16343333D01*
X57649976Y-16390952D01*
X57697595Y-16438571D01*
X57745214Y-16533809D01*
X57745214Y-16771904D01*
X57697595Y-16867142D01*
X57649976Y-16914761D01*
X57554738Y-16962380D01*
X57269023Y-16962380D01*
X57173785Y-16914761D01*
X57126166Y-16867142D01*
X67221380Y-41024166D02*
X66745190Y-41357500D01*
X67221380Y-41595595D02*
X66221380Y-41595595D01*
X66221380Y-41214642D01*
X66269000Y-41119404D01*
X66316619Y-41071785D01*
X66411857Y-41024166D01*
X66554714Y-41024166D01*
X66649952Y-41071785D01*
X66697571Y-41119404D01*
X66745190Y-41214642D01*
X66745190Y-41595595D01*
X66221380Y-40690833D02*
X66221380Y-40024166D01*
X67221380Y-40452738D01*
X39481166Y-13581071D02*
X39147833Y-13581071D01*
X39147833Y-14104880D02*
X39147833Y-13104880D01*
X39624023Y-13104880D01*
X40528785Y-14104880D02*
X39957357Y-14104880D01*
X40243071Y-14104880D02*
X40243071Y-13104880D01*
X40147833Y-13247738D01*
X40052595Y-13342976D01*
X39957357Y-13390595D01*
X93900666Y-30694380D02*
X93900666Y-31408666D01*
X93853047Y-31551523D01*
X93757809Y-31646761D01*
X93614952Y-31694380D01*
X93519714Y-31694380D01*
X94805428Y-30694380D02*
X94614952Y-30694380D01*
X94519714Y-30742000D01*
X94472095Y-30789619D01*
X94376857Y-30932476D01*
X94329238Y-31122952D01*
X94329238Y-31503904D01*
X94376857Y-31599142D01*
X94424476Y-31646761D01*
X94519714Y-31694380D01*
X94710190Y-31694380D01*
X94805428Y-31646761D01*
X94853047Y-31599142D01*
X94900666Y-31503904D01*
X94900666Y-31265809D01*
X94853047Y-31170571D01*
X94805428Y-31122952D01*
X94710190Y-31075333D01*
X94519714Y-31075333D01*
X94424476Y-31122952D01*
X94376857Y-31170571D01*
X94329238Y-31265809D01*
X53427380Y-73993333D02*
X54141666Y-73993333D01*
X54284523Y-74040952D01*
X54379761Y-74136190D01*
X54427380Y-74279047D01*
X54427380Y-74374285D01*
X53760714Y-73088571D02*
X54427380Y-73088571D01*
X53379761Y-73326666D02*
X54094047Y-73564761D01*
X54094047Y-72945714D01*
X27860666Y-22947380D02*
X27860666Y-23661666D01*
X27813047Y-23804523D01*
X27717809Y-23899761D01*
X27574952Y-23947380D01*
X27479714Y-23947380D01*
X28860666Y-23947380D02*
X28289238Y-23947380D01*
X28574952Y-23947380D02*
X28574952Y-22947380D01*
X28479714Y-23090238D01*
X28384476Y-23185476D01*
X28289238Y-23233095D01*
X24141666Y-27773380D02*
X24141666Y-28487666D01*
X24094047Y-28630523D01*
X23998809Y-28725761D01*
X23855952Y-28773380D01*
X23760714Y-28773380D01*
X24570238Y-27868619D02*
X24617857Y-27821000D01*
X24713095Y-27773380D01*
X24951190Y-27773380D01*
X25046428Y-27821000D01*
X25094047Y-27868619D01*
X25141666Y-27963857D01*
X25141666Y-28059095D01*
X25094047Y-28201952D01*
X24522619Y-28773380D01*
X25141666Y-28773380D01*
D13*
X71827380Y-47766666D02*
X71827380Y-48242857D01*
X70827380Y-48242857D01*
X71827380Y-46909523D02*
X71827380Y-47480952D01*
X71827380Y-47195238D02*
X70827380Y-47195238D01*
X70970238Y-47290476D01*
X71065476Y-47385714D01*
X71113095Y-47480952D01*
M02*
