G04 #@! TF.GenerationSoftware,KiCad,Pcbnew,(5.1.5)-3*
G04 #@! TF.CreationDate,2020-04-30T19:49:24+02:00*
G04 #@! TF.ProjectId,PONG_Display,504f4e47-5f44-4697-9370-6c61792e6b69,rev?*
G04 #@! TF.SameCoordinates,Original*
G04 #@! TF.FileFunction,Soldermask,Top*
G04 #@! TF.FilePolarity,Negative*
%FSLAX46Y46*%
G04 Gerber Fmt 4.6, Leading zero omitted, Abs format (unit mm)*
G04 Created by KiCad (PCBNEW (5.1.5)-3) date 2020-04-30 19:49:24*
%MOMM*%
%LPD*%
G04 APERTURE LIST*
%ADD10C,0.100000*%
G04 APERTURE END LIST*
D10*
G36*
X104977475Y-71834903D02*
G01*
X105323437Y-71903719D01*
X105824087Y-72111095D01*
X106004561Y-72231684D01*
X106274660Y-72412158D01*
X106657842Y-72795340D01*
X106838316Y-73065439D01*
X106958905Y-73245913D01*
X107166281Y-73746563D01*
X107166281Y-73746564D01*
X107272000Y-74278049D01*
X107272000Y-74819951D01*
X107236186Y-75000000D01*
X107166281Y-75351437D01*
X106958905Y-75852087D01*
X106902521Y-75936471D01*
X106657842Y-76302660D01*
X106274660Y-76685842D01*
X106011774Y-76861496D01*
X105824087Y-76986905D01*
X105323437Y-77194281D01*
X105057693Y-77247141D01*
X104791951Y-77300000D01*
X104250049Y-77300000D01*
X103984307Y-77247141D01*
X103718563Y-77194281D01*
X103217913Y-76986905D01*
X103030226Y-76861496D01*
X102767340Y-76685842D01*
X102384158Y-76302660D01*
X102139479Y-75936471D01*
X102083095Y-75852087D01*
X101875719Y-75351437D01*
X101805814Y-75000000D01*
X101770000Y-74819951D01*
X101770000Y-74278049D01*
X101875719Y-73746564D01*
X101875719Y-73746563D01*
X102083095Y-73245913D01*
X102203684Y-73065439D01*
X102384158Y-72795340D01*
X102767340Y-72412158D01*
X103037439Y-72231684D01*
X103217913Y-72111095D01*
X103718563Y-71903719D01*
X104064525Y-71834903D01*
X104250049Y-71798000D01*
X104791951Y-71798000D01*
X104977475Y-71834903D01*
G37*
G36*
X16578475Y-71834903D02*
G01*
X16924437Y-71903719D01*
X17425087Y-72111095D01*
X17605561Y-72231684D01*
X17875660Y-72412158D01*
X18258842Y-72795340D01*
X18439316Y-73065439D01*
X18559905Y-73245913D01*
X18767281Y-73746563D01*
X18767281Y-73746564D01*
X18873000Y-74278049D01*
X18873000Y-74819951D01*
X18837186Y-75000000D01*
X18767281Y-75351437D01*
X18559905Y-75852087D01*
X18503521Y-75936471D01*
X18258842Y-76302660D01*
X17875660Y-76685842D01*
X17612774Y-76861496D01*
X17425087Y-76986905D01*
X16924437Y-77194281D01*
X16658693Y-77247141D01*
X16392951Y-77300000D01*
X15851049Y-77300000D01*
X15585307Y-77247141D01*
X15319563Y-77194281D01*
X14818913Y-76986905D01*
X14631226Y-76861496D01*
X14368340Y-76685842D01*
X13985158Y-76302660D01*
X13740479Y-75936471D01*
X13684095Y-75852087D01*
X13476719Y-75351437D01*
X13406814Y-75000000D01*
X13371000Y-74819951D01*
X13371000Y-74278049D01*
X13476719Y-73746564D01*
X13476719Y-73746563D01*
X13684095Y-73245913D01*
X13804684Y-73065439D01*
X13985158Y-72795340D01*
X14368340Y-72412158D01*
X14638439Y-72231684D01*
X14818913Y-72111095D01*
X15319563Y-71903719D01*
X15665525Y-71834903D01*
X15851049Y-71798000D01*
X16392951Y-71798000D01*
X16578475Y-71834903D01*
G37*
G36*
X86666564Y-73339389D02*
G01*
X86857833Y-73418615D01*
X86857835Y-73418616D01*
X87029973Y-73533635D01*
X87176365Y-73680027D01*
X87220824Y-73746564D01*
X87291385Y-73852167D01*
X87370611Y-74043436D01*
X87411000Y-74246484D01*
X87411000Y-74453516D01*
X87370611Y-74656564D01*
X87302934Y-74819950D01*
X87291384Y-74847835D01*
X87176365Y-75019973D01*
X87029973Y-75166365D01*
X86857835Y-75281384D01*
X86857834Y-75281385D01*
X86857833Y-75281385D01*
X86666564Y-75360611D01*
X86463516Y-75401000D01*
X86256484Y-75401000D01*
X86053436Y-75360611D01*
X85862167Y-75281385D01*
X85862166Y-75281385D01*
X85862165Y-75281384D01*
X85690027Y-75166365D01*
X85543635Y-75019973D01*
X85428616Y-74847835D01*
X85417066Y-74819950D01*
X85349389Y-74656564D01*
X85309000Y-74453516D01*
X85309000Y-74246484D01*
X85349389Y-74043436D01*
X85428615Y-73852167D01*
X85499177Y-73746564D01*
X85543635Y-73680027D01*
X85690027Y-73533635D01*
X85862165Y-73418616D01*
X85862167Y-73418615D01*
X86053436Y-73339389D01*
X86256484Y-73299000D01*
X86463516Y-73299000D01*
X86666564Y-73339389D01*
G37*
G36*
X93166564Y-73339389D02*
G01*
X93357833Y-73418615D01*
X93357835Y-73418616D01*
X93529973Y-73533635D01*
X93676365Y-73680027D01*
X93720824Y-73746564D01*
X93791385Y-73852167D01*
X93870611Y-74043436D01*
X93911000Y-74246484D01*
X93911000Y-74453516D01*
X93870611Y-74656564D01*
X93802934Y-74819950D01*
X93791384Y-74847835D01*
X93676365Y-75019973D01*
X93529973Y-75166365D01*
X93357835Y-75281384D01*
X93357834Y-75281385D01*
X93357833Y-75281385D01*
X93166564Y-75360611D01*
X92963516Y-75401000D01*
X92756484Y-75401000D01*
X92553436Y-75360611D01*
X92362167Y-75281385D01*
X92362166Y-75281385D01*
X92362165Y-75281384D01*
X92190027Y-75166365D01*
X92043635Y-75019973D01*
X91928616Y-74847835D01*
X91917066Y-74819950D01*
X91849389Y-74656564D01*
X91809000Y-74453516D01*
X91809000Y-74246484D01*
X91849389Y-74043436D01*
X91928615Y-73852167D01*
X91999177Y-73746564D01*
X92043635Y-73680027D01*
X92190027Y-73533635D01*
X92362165Y-73418616D01*
X92362167Y-73418615D01*
X92553436Y-73339389D01*
X92756484Y-73299000D01*
X92963516Y-73299000D01*
X93166564Y-73339389D01*
G37*
G36*
X33857564Y-73181389D02*
G01*
X34019973Y-73248661D01*
X34048835Y-73260616D01*
X34220973Y-73375635D01*
X34367365Y-73522027D01*
X34482385Y-73694167D01*
X34561611Y-73885436D01*
X34602000Y-74088484D01*
X34602000Y-74295516D01*
X34561611Y-74498564D01*
X34559119Y-74504580D01*
X34482384Y-74689835D01*
X34367365Y-74861973D01*
X34220973Y-75008365D01*
X34048835Y-75123384D01*
X34048834Y-75123385D01*
X34048833Y-75123385D01*
X33857564Y-75202611D01*
X33654516Y-75243000D01*
X33447484Y-75243000D01*
X33244436Y-75202611D01*
X33053167Y-75123385D01*
X33053166Y-75123385D01*
X33053165Y-75123384D01*
X32881027Y-75008365D01*
X32734635Y-74861973D01*
X32619616Y-74689835D01*
X32542881Y-74504580D01*
X32540389Y-74498564D01*
X32500000Y-74295516D01*
X32500000Y-74088484D01*
X32540389Y-73885436D01*
X32619615Y-73694167D01*
X32734635Y-73522027D01*
X32881027Y-73375635D01*
X33053165Y-73260616D01*
X33082027Y-73248661D01*
X33244436Y-73181389D01*
X33447484Y-73141000D01*
X33654516Y-73141000D01*
X33857564Y-73181389D01*
G37*
G36*
X27357564Y-73181389D02*
G01*
X27519973Y-73248661D01*
X27548835Y-73260616D01*
X27720973Y-73375635D01*
X27867365Y-73522027D01*
X27982385Y-73694167D01*
X28061611Y-73885436D01*
X28102000Y-74088484D01*
X28102000Y-74295516D01*
X28061611Y-74498564D01*
X28059119Y-74504580D01*
X27982384Y-74689835D01*
X27867365Y-74861973D01*
X27720973Y-75008365D01*
X27548835Y-75123384D01*
X27548834Y-75123385D01*
X27548833Y-75123385D01*
X27357564Y-75202611D01*
X27154516Y-75243000D01*
X26947484Y-75243000D01*
X26744436Y-75202611D01*
X26553167Y-75123385D01*
X26553166Y-75123385D01*
X26553165Y-75123384D01*
X26381027Y-75008365D01*
X26234635Y-74861973D01*
X26119616Y-74689835D01*
X26042881Y-74504580D01*
X26040389Y-74498564D01*
X26000000Y-74295516D01*
X26000000Y-74088484D01*
X26040389Y-73885436D01*
X26119615Y-73694167D01*
X26234635Y-73522027D01*
X26381027Y-73375635D01*
X26553165Y-73260616D01*
X26582027Y-73248661D01*
X26744436Y-73181389D01*
X26947484Y-73141000D01*
X27154516Y-73141000D01*
X27357564Y-73181389D01*
G37*
G36*
X63879903Y-70267075D02*
G01*
X64074876Y-70347835D01*
X64107571Y-70361378D01*
X64312466Y-70498285D01*
X64486715Y-70672534D01*
X64623622Y-70877429D01*
X64623623Y-70877431D01*
X64717925Y-71105097D01*
X64766000Y-71346787D01*
X64766000Y-71593213D01*
X64717925Y-71834903D01*
X64623622Y-72062571D01*
X64486715Y-72267466D01*
X64312466Y-72441715D01*
X64107571Y-72578622D01*
X64107570Y-72578623D01*
X64107569Y-72578623D01*
X63879903Y-72672925D01*
X63638214Y-72721000D01*
X63391786Y-72721000D01*
X63150097Y-72672925D01*
X62922431Y-72578623D01*
X62922430Y-72578623D01*
X62922429Y-72578622D01*
X62717534Y-72441715D01*
X62543285Y-72267466D01*
X62406378Y-72062571D01*
X62312075Y-71834903D01*
X62264000Y-71593213D01*
X62264000Y-71346787D01*
X62312075Y-71105097D01*
X62406377Y-70877431D01*
X62406378Y-70877429D01*
X62543285Y-70672534D01*
X62717534Y-70498285D01*
X62922429Y-70361378D01*
X62955125Y-70347835D01*
X63150097Y-70267075D01*
X63391786Y-70219000D01*
X63638214Y-70219000D01*
X63879903Y-70267075D01*
G37*
G36*
X69831000Y-72721000D02*
G01*
X67329000Y-72721000D01*
X67329000Y-70219000D01*
X69831000Y-70219000D01*
X69831000Y-72721000D01*
G37*
G36*
X75944903Y-70267075D02*
G01*
X76139876Y-70347835D01*
X76172571Y-70361378D01*
X76377466Y-70498285D01*
X76551715Y-70672534D01*
X76688622Y-70877429D01*
X76688623Y-70877431D01*
X76782925Y-71105097D01*
X76831000Y-71346787D01*
X76831000Y-71593213D01*
X76782925Y-71834903D01*
X76688622Y-72062571D01*
X76551715Y-72267466D01*
X76377466Y-72441715D01*
X76172571Y-72578622D01*
X76172570Y-72578623D01*
X76172569Y-72578623D01*
X75944903Y-72672925D01*
X75703214Y-72721000D01*
X75456786Y-72721000D01*
X75215097Y-72672925D01*
X74987431Y-72578623D01*
X74987430Y-72578623D01*
X74987429Y-72578622D01*
X74782534Y-72441715D01*
X74608285Y-72267466D01*
X74471378Y-72062571D01*
X74377075Y-71834903D01*
X74329000Y-71593213D01*
X74329000Y-71346787D01*
X74377075Y-71105097D01*
X74471377Y-70877431D01*
X74471378Y-70877429D01*
X74608285Y-70672534D01*
X74782534Y-70498285D01*
X74987429Y-70361378D01*
X75020125Y-70347835D01*
X75215097Y-70267075D01*
X75456786Y-70219000D01*
X75703214Y-70219000D01*
X75944903Y-70267075D01*
G37*
G36*
X51814903Y-70267075D02*
G01*
X52009876Y-70347835D01*
X52042571Y-70361378D01*
X52247466Y-70498285D01*
X52421715Y-70672534D01*
X52558622Y-70877429D01*
X52558623Y-70877431D01*
X52652925Y-71105097D01*
X52701000Y-71346787D01*
X52701000Y-71593213D01*
X52652925Y-71834903D01*
X52558622Y-72062571D01*
X52421715Y-72267466D01*
X52247466Y-72441715D01*
X52042571Y-72578622D01*
X52042570Y-72578623D01*
X52042569Y-72578623D01*
X51814903Y-72672925D01*
X51573214Y-72721000D01*
X51326786Y-72721000D01*
X51085097Y-72672925D01*
X50857431Y-72578623D01*
X50857430Y-72578623D01*
X50857429Y-72578622D01*
X50652534Y-72441715D01*
X50478285Y-72267466D01*
X50341378Y-72062571D01*
X50247075Y-71834903D01*
X50199000Y-71593213D01*
X50199000Y-71346787D01*
X50247075Y-71105097D01*
X50341377Y-70877431D01*
X50341378Y-70877429D01*
X50478285Y-70672534D01*
X50652534Y-70498285D01*
X50857429Y-70361378D01*
X50890125Y-70347835D01*
X51085097Y-70267075D01*
X51326786Y-70219000D01*
X51573214Y-70219000D01*
X51814903Y-70267075D01*
G37*
G36*
X45701000Y-72721000D02*
G01*
X43199000Y-72721000D01*
X43199000Y-70219000D01*
X45701000Y-70219000D01*
X45701000Y-72721000D01*
G37*
G36*
X60379903Y-70267075D02*
G01*
X60574876Y-70347835D01*
X60607571Y-70361378D01*
X60812466Y-70498285D01*
X60986715Y-70672534D01*
X61123622Y-70877429D01*
X61123623Y-70877431D01*
X61217925Y-71105097D01*
X61266000Y-71346787D01*
X61266000Y-71593213D01*
X61217925Y-71834903D01*
X61123622Y-72062571D01*
X60986715Y-72267466D01*
X60812466Y-72441715D01*
X60607571Y-72578622D01*
X60607570Y-72578623D01*
X60607569Y-72578623D01*
X60379903Y-72672925D01*
X60138214Y-72721000D01*
X59891786Y-72721000D01*
X59650097Y-72672925D01*
X59422431Y-72578623D01*
X59422430Y-72578623D01*
X59422429Y-72578622D01*
X59217534Y-72441715D01*
X59043285Y-72267466D01*
X58906378Y-72062571D01*
X58812075Y-71834903D01*
X58764000Y-71593213D01*
X58764000Y-71346787D01*
X58812075Y-71105097D01*
X58906377Y-70877431D01*
X58906378Y-70877429D01*
X59043285Y-70672534D01*
X59217534Y-70498285D01*
X59422429Y-70361378D01*
X59455125Y-70347835D01*
X59650097Y-70267075D01*
X59891786Y-70219000D01*
X60138214Y-70219000D01*
X60379903Y-70267075D01*
G37*
G36*
X57766000Y-72721000D02*
G01*
X55264000Y-72721000D01*
X55264000Y-70219000D01*
X57766000Y-70219000D01*
X57766000Y-72721000D01*
G37*
G36*
X72444903Y-70267075D02*
G01*
X72639876Y-70347835D01*
X72672571Y-70361378D01*
X72877466Y-70498285D01*
X73051715Y-70672534D01*
X73188622Y-70877429D01*
X73188623Y-70877431D01*
X73282925Y-71105097D01*
X73331000Y-71346787D01*
X73331000Y-71593213D01*
X73282925Y-71834903D01*
X73188622Y-72062571D01*
X73051715Y-72267466D01*
X72877466Y-72441715D01*
X72672571Y-72578622D01*
X72672570Y-72578623D01*
X72672569Y-72578623D01*
X72444903Y-72672925D01*
X72203214Y-72721000D01*
X71956786Y-72721000D01*
X71715097Y-72672925D01*
X71487431Y-72578623D01*
X71487430Y-72578623D01*
X71487429Y-72578622D01*
X71282534Y-72441715D01*
X71108285Y-72267466D01*
X70971378Y-72062571D01*
X70877075Y-71834903D01*
X70829000Y-71593213D01*
X70829000Y-71346787D01*
X70877075Y-71105097D01*
X70971377Y-70877431D01*
X70971378Y-70877429D01*
X71108285Y-70672534D01*
X71282534Y-70498285D01*
X71487429Y-70361378D01*
X71520125Y-70347835D01*
X71715097Y-70267075D01*
X71956786Y-70219000D01*
X72203214Y-70219000D01*
X72444903Y-70267075D01*
G37*
G36*
X48314903Y-70267075D02*
G01*
X48509876Y-70347835D01*
X48542571Y-70361378D01*
X48747466Y-70498285D01*
X48921715Y-70672534D01*
X49058622Y-70877429D01*
X49058623Y-70877431D01*
X49152925Y-71105097D01*
X49201000Y-71346787D01*
X49201000Y-71593213D01*
X49152925Y-71834903D01*
X49058622Y-72062571D01*
X48921715Y-72267466D01*
X48747466Y-72441715D01*
X48542571Y-72578622D01*
X48542570Y-72578623D01*
X48542569Y-72578623D01*
X48314903Y-72672925D01*
X48073214Y-72721000D01*
X47826786Y-72721000D01*
X47585097Y-72672925D01*
X47357431Y-72578623D01*
X47357430Y-72578623D01*
X47357429Y-72578622D01*
X47152534Y-72441715D01*
X46978285Y-72267466D01*
X46841378Y-72062571D01*
X46747075Y-71834903D01*
X46699000Y-71593213D01*
X46699000Y-71346787D01*
X46747075Y-71105097D01*
X46841377Y-70877431D01*
X46841378Y-70877429D01*
X46978285Y-70672534D01*
X47152534Y-70498285D01*
X47357429Y-70361378D01*
X47390125Y-70347835D01*
X47585097Y-70267075D01*
X47826786Y-70219000D01*
X48073214Y-70219000D01*
X48314903Y-70267075D01*
G37*
G36*
X86666564Y-68839389D02*
G01*
X86857833Y-68918615D01*
X86857835Y-68918616D01*
X87012600Y-69022027D01*
X87029973Y-69033635D01*
X87176365Y-69180027D01*
X87291385Y-69352167D01*
X87370611Y-69543436D01*
X87411000Y-69746484D01*
X87411000Y-69953516D01*
X87370611Y-70156564D01*
X87344749Y-70219000D01*
X87291384Y-70347835D01*
X87176365Y-70519973D01*
X87029973Y-70666365D01*
X86857835Y-70781384D01*
X86857834Y-70781385D01*
X86857833Y-70781385D01*
X86666564Y-70860611D01*
X86463516Y-70901000D01*
X86256484Y-70901000D01*
X86053436Y-70860611D01*
X85862167Y-70781385D01*
X85862166Y-70781385D01*
X85862165Y-70781384D01*
X85690027Y-70666365D01*
X85543635Y-70519973D01*
X85428616Y-70347835D01*
X85375251Y-70219000D01*
X85349389Y-70156564D01*
X85309000Y-69953516D01*
X85309000Y-69746484D01*
X85349389Y-69543436D01*
X85428615Y-69352167D01*
X85543635Y-69180027D01*
X85690027Y-69033635D01*
X85707400Y-69022027D01*
X85862165Y-68918616D01*
X85862167Y-68918615D01*
X86053436Y-68839389D01*
X86256484Y-68799000D01*
X86463516Y-68799000D01*
X86666564Y-68839389D01*
G37*
G36*
X93166564Y-68839389D02*
G01*
X93357833Y-68918615D01*
X93357835Y-68918616D01*
X93512600Y-69022027D01*
X93529973Y-69033635D01*
X93676365Y-69180027D01*
X93791385Y-69352167D01*
X93870611Y-69543436D01*
X93911000Y-69746484D01*
X93911000Y-69953516D01*
X93870611Y-70156564D01*
X93844749Y-70219000D01*
X93791384Y-70347835D01*
X93676365Y-70519973D01*
X93529973Y-70666365D01*
X93357835Y-70781384D01*
X93357834Y-70781385D01*
X93357833Y-70781385D01*
X93166564Y-70860611D01*
X92963516Y-70901000D01*
X92756484Y-70901000D01*
X92553436Y-70860611D01*
X92362167Y-70781385D01*
X92362166Y-70781385D01*
X92362165Y-70781384D01*
X92190027Y-70666365D01*
X92043635Y-70519973D01*
X91928616Y-70347835D01*
X91875251Y-70219000D01*
X91849389Y-70156564D01*
X91809000Y-69953516D01*
X91809000Y-69746484D01*
X91849389Y-69543436D01*
X91928615Y-69352167D01*
X92043635Y-69180027D01*
X92190027Y-69033635D01*
X92207400Y-69022027D01*
X92362165Y-68918616D01*
X92362167Y-68918615D01*
X92553436Y-68839389D01*
X92756484Y-68799000D01*
X92963516Y-68799000D01*
X93166564Y-68839389D01*
G37*
G36*
X33857564Y-68681389D02*
G01*
X34048833Y-68760615D01*
X34048835Y-68760616D01*
X34220973Y-68875635D01*
X34367365Y-69022027D01*
X34482385Y-69194167D01*
X34561611Y-69385436D01*
X34602000Y-69588484D01*
X34602000Y-69795516D01*
X34561611Y-69998564D01*
X34496165Y-70156564D01*
X34482384Y-70189835D01*
X34367365Y-70361973D01*
X34220973Y-70508365D01*
X34048835Y-70623384D01*
X34048834Y-70623385D01*
X34048833Y-70623385D01*
X33857564Y-70702611D01*
X33654516Y-70743000D01*
X33447484Y-70743000D01*
X33244436Y-70702611D01*
X33053167Y-70623385D01*
X33053166Y-70623385D01*
X33053165Y-70623384D01*
X32881027Y-70508365D01*
X32734635Y-70361973D01*
X32619616Y-70189835D01*
X32605835Y-70156564D01*
X32540389Y-69998564D01*
X32500000Y-69795516D01*
X32500000Y-69588484D01*
X32540389Y-69385436D01*
X32619615Y-69194167D01*
X32734635Y-69022027D01*
X32881027Y-68875635D01*
X33053165Y-68760616D01*
X33053167Y-68760615D01*
X33244436Y-68681389D01*
X33447484Y-68641000D01*
X33654516Y-68641000D01*
X33857564Y-68681389D01*
G37*
G36*
X27357564Y-68681389D02*
G01*
X27548833Y-68760615D01*
X27548835Y-68760616D01*
X27720973Y-68875635D01*
X27867365Y-69022027D01*
X27982385Y-69194167D01*
X28061611Y-69385436D01*
X28102000Y-69588484D01*
X28102000Y-69795516D01*
X28061611Y-69998564D01*
X27996165Y-70156564D01*
X27982384Y-70189835D01*
X27867365Y-70361973D01*
X27720973Y-70508365D01*
X27548835Y-70623384D01*
X27548834Y-70623385D01*
X27548833Y-70623385D01*
X27357564Y-70702611D01*
X27154516Y-70743000D01*
X26947484Y-70743000D01*
X26744436Y-70702611D01*
X26553167Y-70623385D01*
X26553166Y-70623385D01*
X26553165Y-70623384D01*
X26381027Y-70508365D01*
X26234635Y-70361973D01*
X26119616Y-70189835D01*
X26105835Y-70156564D01*
X26040389Y-69998564D01*
X26000000Y-69795516D01*
X26000000Y-69588484D01*
X26040389Y-69385436D01*
X26119615Y-69194167D01*
X26234635Y-69022027D01*
X26381027Y-68875635D01*
X26553165Y-68760616D01*
X26553167Y-68760615D01*
X26744436Y-68681389D01*
X26947484Y-68641000D01*
X27154516Y-68641000D01*
X27357564Y-68681389D01*
G37*
G36*
X19771142Y-64496242D02*
G01*
X19919101Y-64557529D01*
X20052255Y-64646499D01*
X20165501Y-64759745D01*
X20254471Y-64892899D01*
X20315758Y-65040858D01*
X20347000Y-65197925D01*
X20347000Y-65358075D01*
X20315758Y-65515142D01*
X20254471Y-65663101D01*
X20165501Y-65796255D01*
X20052255Y-65909501D01*
X19919101Y-65998471D01*
X19771142Y-66059758D01*
X19614075Y-66091000D01*
X19453925Y-66091000D01*
X19296858Y-66059758D01*
X19148899Y-65998471D01*
X19015745Y-65909501D01*
X18902499Y-65796255D01*
X18813529Y-65663101D01*
X18752242Y-65515142D01*
X18721000Y-65358075D01*
X18721000Y-65197925D01*
X18752242Y-65040858D01*
X18813529Y-64892899D01*
X18902499Y-64759745D01*
X19015745Y-64646499D01*
X19148899Y-64557529D01*
X19296858Y-64496242D01*
X19453925Y-64465000D01*
X19614075Y-64465000D01*
X19771142Y-64496242D01*
G37*
G36*
X59894143Y-63815087D02*
G01*
X60050838Y-63879992D01*
X60191853Y-63974215D01*
X60311785Y-64094147D01*
X60406008Y-64235162D01*
X60470913Y-64391857D01*
X60504000Y-64558198D01*
X60504000Y-64727802D01*
X60470913Y-64894143D01*
X60406008Y-65050838D01*
X60311785Y-65191853D01*
X60191853Y-65311785D01*
X60050838Y-65406008D01*
X59894143Y-65470913D01*
X59727802Y-65504000D01*
X59558198Y-65504000D01*
X59391857Y-65470913D01*
X59235162Y-65406008D01*
X59094147Y-65311785D01*
X58974215Y-65191853D01*
X58879992Y-65050838D01*
X58815087Y-64894143D01*
X58782000Y-64727802D01*
X58782000Y-64558198D01*
X58815087Y-64391857D01*
X58879992Y-64235162D01*
X58974215Y-64094147D01*
X59094147Y-63974215D01*
X59235162Y-63879992D01*
X59391857Y-63815087D01*
X59558198Y-63782000D01*
X59727802Y-63782000D01*
X59894143Y-63815087D01*
G37*
G36*
X64894143Y-63815087D02*
G01*
X65050838Y-63879992D01*
X65191853Y-63974215D01*
X65311785Y-64094147D01*
X65406008Y-64235162D01*
X65470913Y-64391857D01*
X65504000Y-64558198D01*
X65504000Y-64727802D01*
X65470913Y-64894143D01*
X65406008Y-65050838D01*
X65311785Y-65191853D01*
X65191853Y-65311785D01*
X65050838Y-65406008D01*
X64894143Y-65470913D01*
X64727802Y-65504000D01*
X64558198Y-65504000D01*
X64391857Y-65470913D01*
X64235162Y-65406008D01*
X64094147Y-65311785D01*
X63974215Y-65191853D01*
X63879992Y-65050838D01*
X63815087Y-64894143D01*
X63782000Y-64727802D01*
X63782000Y-64558198D01*
X63815087Y-64391857D01*
X63879992Y-64235162D01*
X63974215Y-64094147D01*
X64094147Y-63974215D01*
X64235162Y-63879992D01*
X64391857Y-63815087D01*
X64558198Y-63782000D01*
X64727802Y-63782000D01*
X64894143Y-63815087D01*
G37*
G36*
X86212642Y-63872781D02*
G01*
X86358414Y-63933162D01*
X86358416Y-63933163D01*
X86489608Y-64020822D01*
X86601178Y-64132392D01*
X86688837Y-64263584D01*
X86688838Y-64263586D01*
X86749219Y-64409358D01*
X86780000Y-64564107D01*
X86780000Y-64721893D01*
X86749219Y-64876642D01*
X86688838Y-65022414D01*
X86688837Y-65022416D01*
X86601178Y-65153608D01*
X86489608Y-65265178D01*
X86358416Y-65352837D01*
X86358415Y-65352838D01*
X86358414Y-65352838D01*
X86212642Y-65413219D01*
X86057893Y-65444000D01*
X85900107Y-65444000D01*
X85745358Y-65413219D01*
X85599586Y-65352838D01*
X85599585Y-65352838D01*
X85599584Y-65352837D01*
X85468392Y-65265178D01*
X85356822Y-65153608D01*
X85269163Y-65022416D01*
X85269162Y-65022414D01*
X85208781Y-64876642D01*
X85178000Y-64721893D01*
X85178000Y-64564107D01*
X85208781Y-64409358D01*
X85269162Y-64263586D01*
X85269163Y-64263584D01*
X85356822Y-64132392D01*
X85468392Y-64020822D01*
X85599584Y-63933163D01*
X85599586Y-63933162D01*
X85745358Y-63872781D01*
X85900107Y-63842000D01*
X86057893Y-63842000D01*
X86212642Y-63872781D01*
G37*
G36*
X94400000Y-65444000D02*
G01*
X92798000Y-65444000D01*
X92798000Y-63842000D01*
X94400000Y-63842000D01*
X94400000Y-65444000D01*
G37*
G36*
X34269642Y-63809281D02*
G01*
X34415414Y-63869662D01*
X34415416Y-63869663D01*
X34546608Y-63957322D01*
X34658178Y-64068892D01*
X34745837Y-64200084D01*
X34745838Y-64200086D01*
X34806219Y-64345858D01*
X34837000Y-64500607D01*
X34837000Y-64658393D01*
X34806219Y-64813142D01*
X34745838Y-64958914D01*
X34745837Y-64958916D01*
X34658178Y-65090108D01*
X34546608Y-65201678D01*
X34415416Y-65289337D01*
X34415415Y-65289338D01*
X34415414Y-65289338D01*
X34269642Y-65349719D01*
X34114893Y-65380500D01*
X33957107Y-65380500D01*
X33802358Y-65349719D01*
X33656586Y-65289338D01*
X33656585Y-65289338D01*
X33656584Y-65289337D01*
X33525392Y-65201678D01*
X33413822Y-65090108D01*
X33326163Y-64958916D01*
X33326162Y-64958914D01*
X33265781Y-64813142D01*
X33235000Y-64658393D01*
X33235000Y-64500607D01*
X33265781Y-64345858D01*
X33326162Y-64200086D01*
X33326163Y-64200084D01*
X33413822Y-64068892D01*
X33525392Y-63957322D01*
X33656584Y-63869663D01*
X33656586Y-63869662D01*
X33802358Y-63809281D01*
X33957107Y-63778500D01*
X34114893Y-63778500D01*
X34269642Y-63809281D01*
G37*
G36*
X27217000Y-65380500D02*
G01*
X25615000Y-65380500D01*
X25615000Y-63778500D01*
X27217000Y-63778500D01*
X27217000Y-65380500D01*
G37*
G36*
X19771142Y-61956242D02*
G01*
X19919101Y-62017529D01*
X20052255Y-62106499D01*
X20165501Y-62219745D01*
X20254471Y-62352899D01*
X20315758Y-62500858D01*
X20347000Y-62657925D01*
X20347000Y-62818075D01*
X20315758Y-62975142D01*
X20254471Y-63123101D01*
X20165501Y-63256255D01*
X20052255Y-63369501D01*
X19919101Y-63458471D01*
X19771142Y-63519758D01*
X19614075Y-63551000D01*
X19453925Y-63551000D01*
X19296858Y-63519758D01*
X19148899Y-63458471D01*
X19015745Y-63369501D01*
X18902499Y-63256255D01*
X18813529Y-63123101D01*
X18752242Y-62975142D01*
X18721000Y-62818075D01*
X18721000Y-62657925D01*
X18752242Y-62500858D01*
X18813529Y-62352899D01*
X18902499Y-62219745D01*
X19015745Y-62106499D01*
X19148899Y-62017529D01*
X19296858Y-61956242D01*
X19453925Y-61925000D01*
X19614075Y-61925000D01*
X19771142Y-61956242D01*
G37*
G36*
X71640000Y-62877000D02*
G01*
X69838000Y-62877000D01*
X69838000Y-61075000D01*
X71640000Y-61075000D01*
X71640000Y-62877000D01*
G37*
G36*
X78472512Y-61079927D02*
G01*
X78621812Y-61109624D01*
X78785784Y-61177544D01*
X78933354Y-61276147D01*
X79058853Y-61401646D01*
X79157456Y-61549216D01*
X79225376Y-61713188D01*
X79260000Y-61887259D01*
X79260000Y-62064741D01*
X79225376Y-62238812D01*
X79157456Y-62402784D01*
X79058853Y-62550354D01*
X78933354Y-62675853D01*
X78785784Y-62774456D01*
X78621812Y-62842376D01*
X78472512Y-62872073D01*
X78447742Y-62877000D01*
X78270258Y-62877000D01*
X78245488Y-62872073D01*
X78096188Y-62842376D01*
X77932216Y-62774456D01*
X77784646Y-62675853D01*
X77659147Y-62550354D01*
X77560544Y-62402784D01*
X77492624Y-62238812D01*
X77458000Y-62064741D01*
X77458000Y-61887259D01*
X77492624Y-61713188D01*
X77560544Y-61549216D01*
X77659147Y-61401646D01*
X77784646Y-61276147D01*
X77932216Y-61177544D01*
X78096188Y-61109624D01*
X78245488Y-61079927D01*
X78270258Y-61075000D01*
X78447742Y-61075000D01*
X78472512Y-61079927D01*
G37*
G36*
X75932512Y-61079927D02*
G01*
X76081812Y-61109624D01*
X76245784Y-61177544D01*
X76393354Y-61276147D01*
X76518853Y-61401646D01*
X76617456Y-61549216D01*
X76685376Y-61713188D01*
X76720000Y-61887259D01*
X76720000Y-62064741D01*
X76685376Y-62238812D01*
X76617456Y-62402784D01*
X76518853Y-62550354D01*
X76393354Y-62675853D01*
X76245784Y-62774456D01*
X76081812Y-62842376D01*
X75932512Y-62872073D01*
X75907742Y-62877000D01*
X75730258Y-62877000D01*
X75705488Y-62872073D01*
X75556188Y-62842376D01*
X75392216Y-62774456D01*
X75244646Y-62675853D01*
X75119147Y-62550354D01*
X75020544Y-62402784D01*
X74952624Y-62238812D01*
X74918000Y-62064741D01*
X74918000Y-61887259D01*
X74952624Y-61713188D01*
X75020544Y-61549216D01*
X75119147Y-61401646D01*
X75244646Y-61276147D01*
X75392216Y-61177544D01*
X75556188Y-61109624D01*
X75705488Y-61079927D01*
X75730258Y-61075000D01*
X75907742Y-61075000D01*
X75932512Y-61079927D01*
G37*
G36*
X73392512Y-61079927D02*
G01*
X73541812Y-61109624D01*
X73705784Y-61177544D01*
X73853354Y-61276147D01*
X73978853Y-61401646D01*
X74077456Y-61549216D01*
X74145376Y-61713188D01*
X74180000Y-61887259D01*
X74180000Y-62064741D01*
X74145376Y-62238812D01*
X74077456Y-62402784D01*
X73978853Y-62550354D01*
X73853354Y-62675853D01*
X73705784Y-62774456D01*
X73541812Y-62842376D01*
X73392512Y-62872073D01*
X73367742Y-62877000D01*
X73190258Y-62877000D01*
X73165488Y-62872073D01*
X73016188Y-62842376D01*
X72852216Y-62774456D01*
X72704646Y-62675853D01*
X72579147Y-62550354D01*
X72480544Y-62402784D01*
X72412624Y-62238812D01*
X72378000Y-62064741D01*
X72378000Y-61887259D01*
X72412624Y-61713188D01*
X72480544Y-61549216D01*
X72579147Y-61401646D01*
X72704646Y-61276147D01*
X72852216Y-61177544D01*
X73016188Y-61109624D01*
X73165488Y-61079927D01*
X73190258Y-61075000D01*
X73367742Y-61075000D01*
X73392512Y-61079927D01*
G37*
G36*
X52938642Y-59989781D02*
G01*
X53084414Y-60050162D01*
X53084416Y-60050163D01*
X53215608Y-60137822D01*
X53327178Y-60249392D01*
X53346343Y-60278075D01*
X53414838Y-60380586D01*
X53475219Y-60526358D01*
X53506000Y-60681107D01*
X53506000Y-60838893D01*
X53475219Y-60993642D01*
X53468029Y-61011000D01*
X53414837Y-61139416D01*
X53327178Y-61270608D01*
X53215608Y-61382178D01*
X53084416Y-61469837D01*
X53084415Y-61469838D01*
X53084414Y-61469838D01*
X52938642Y-61530219D01*
X52783893Y-61561000D01*
X52626107Y-61561000D01*
X52471358Y-61530219D01*
X52325586Y-61469838D01*
X52325585Y-61469838D01*
X52325584Y-61469837D01*
X52194392Y-61382178D01*
X52082822Y-61270608D01*
X51995163Y-61139416D01*
X51941971Y-61011000D01*
X51934781Y-60993642D01*
X51904000Y-60838893D01*
X51904000Y-60681107D01*
X51934781Y-60526358D01*
X51995162Y-60380586D01*
X52063657Y-60278075D01*
X52082822Y-60249392D01*
X52194392Y-60137822D01*
X52325584Y-60050163D01*
X52325586Y-60050162D01*
X52471358Y-59989781D01*
X52626107Y-59959000D01*
X52783893Y-59959000D01*
X52938642Y-59989781D01*
G37*
G36*
X46111999Y-60438445D02*
G01*
X46149495Y-60449820D01*
X46184054Y-60468292D01*
X46214347Y-60493153D01*
X46239208Y-60523446D01*
X46257680Y-60558005D01*
X46269055Y-60595501D01*
X46273500Y-60640638D01*
X46273500Y-61279362D01*
X46269055Y-61324499D01*
X46257680Y-61361995D01*
X46239208Y-61396554D01*
X46214347Y-61426847D01*
X46184054Y-61451708D01*
X46149495Y-61470180D01*
X46111999Y-61481555D01*
X46066862Y-61486000D01*
X45328138Y-61486000D01*
X45283001Y-61481555D01*
X45245505Y-61470180D01*
X45210946Y-61451708D01*
X45180653Y-61426847D01*
X45155792Y-61396554D01*
X45137320Y-61361995D01*
X45125945Y-61324499D01*
X45121500Y-61279362D01*
X45121500Y-60640638D01*
X45125945Y-60595501D01*
X45137320Y-60558005D01*
X45155792Y-60523446D01*
X45180653Y-60493153D01*
X45210946Y-60468292D01*
X45245505Y-60449820D01*
X45283001Y-60438445D01*
X45328138Y-60434000D01*
X46066862Y-60434000D01*
X46111999Y-60438445D01*
G37*
G36*
X47861999Y-60438445D02*
G01*
X47899495Y-60449820D01*
X47934054Y-60468292D01*
X47964347Y-60493153D01*
X47989208Y-60523446D01*
X48007680Y-60558005D01*
X48019055Y-60595501D01*
X48023500Y-60640638D01*
X48023500Y-61279362D01*
X48019055Y-61324499D01*
X48007680Y-61361995D01*
X47989208Y-61396554D01*
X47964347Y-61426847D01*
X47934054Y-61451708D01*
X47899495Y-61470180D01*
X47861999Y-61481555D01*
X47816862Y-61486000D01*
X47078138Y-61486000D01*
X47033001Y-61481555D01*
X46995505Y-61470180D01*
X46960946Y-61451708D01*
X46930653Y-61426847D01*
X46905792Y-61396554D01*
X46887320Y-61361995D01*
X46875945Y-61324499D01*
X46871500Y-61279362D01*
X46871500Y-60640638D01*
X46875945Y-60595501D01*
X46887320Y-60558005D01*
X46905792Y-60523446D01*
X46930653Y-60493153D01*
X46960946Y-60468292D01*
X46995505Y-60449820D01*
X47033001Y-60438445D01*
X47078138Y-60434000D01*
X47816862Y-60434000D01*
X47861999Y-60438445D01*
G37*
G36*
X19771142Y-59416242D02*
G01*
X19919101Y-59477529D01*
X20052255Y-59566499D01*
X20165501Y-59679745D01*
X20254471Y-59812899D01*
X20315758Y-59960858D01*
X20347000Y-60117925D01*
X20347000Y-60278075D01*
X20315758Y-60435142D01*
X20254471Y-60583101D01*
X20165501Y-60716255D01*
X20052255Y-60829501D01*
X19919101Y-60918471D01*
X19771142Y-60979758D01*
X19614075Y-61011000D01*
X19453925Y-61011000D01*
X19296858Y-60979758D01*
X19148899Y-60918471D01*
X19015745Y-60829501D01*
X18902499Y-60716255D01*
X18813529Y-60583101D01*
X18752242Y-60435142D01*
X18721000Y-60278075D01*
X18721000Y-60117925D01*
X18752242Y-59960858D01*
X18813529Y-59812899D01*
X18902499Y-59679745D01*
X19015745Y-59566499D01*
X19148899Y-59477529D01*
X19296858Y-59416242D01*
X19453925Y-59385000D01*
X19614075Y-59385000D01*
X19771142Y-59416242D01*
G37*
G36*
X62394143Y-58815087D02*
G01*
X62550838Y-58879992D01*
X62691853Y-58974215D01*
X62811785Y-59094147D01*
X62906008Y-59235162D01*
X62970913Y-59391857D01*
X63004000Y-59558198D01*
X63004000Y-59727802D01*
X62970913Y-59894143D01*
X62906008Y-60050838D01*
X62811785Y-60191853D01*
X62691853Y-60311785D01*
X62550838Y-60406008D01*
X62394143Y-60470913D01*
X62227802Y-60504000D01*
X62058198Y-60504000D01*
X61891857Y-60470913D01*
X61735162Y-60406008D01*
X61594147Y-60311785D01*
X61474215Y-60191853D01*
X61379992Y-60050838D01*
X61315087Y-59894143D01*
X61282000Y-59727802D01*
X61282000Y-59558198D01*
X61315087Y-59391857D01*
X61379992Y-59235162D01*
X61474215Y-59094147D01*
X61594147Y-58974215D01*
X61735162Y-58879992D01*
X61891857Y-58815087D01*
X62058198Y-58782000D01*
X62227802Y-58782000D01*
X62394143Y-58815087D01*
G37*
G36*
X91107585Y-54878802D02*
G01*
X91257410Y-54908604D01*
X91539674Y-55025521D01*
X91793705Y-55195259D01*
X92009741Y-55411295D01*
X92179479Y-55665326D01*
X92235721Y-55801108D01*
X92296396Y-55947591D01*
X92346477Y-56199362D01*
X92356000Y-56247240D01*
X92356000Y-56552760D01*
X92296396Y-56852410D01*
X92179479Y-57134674D01*
X92009741Y-57388705D01*
X91793705Y-57604741D01*
X91539674Y-57774479D01*
X91257410Y-57891396D01*
X91107585Y-57921198D01*
X90957761Y-57951000D01*
X90652239Y-57951000D01*
X90502415Y-57921198D01*
X90352590Y-57891396D01*
X90070326Y-57774479D01*
X89816295Y-57604741D01*
X89600259Y-57388705D01*
X89430521Y-57134674D01*
X89313604Y-56852410D01*
X89254000Y-56552760D01*
X89254000Y-56247240D01*
X89263524Y-56199362D01*
X89313604Y-55947591D01*
X89374279Y-55801108D01*
X89430521Y-55665326D01*
X89600259Y-55411295D01*
X89816295Y-55195259D01*
X90070326Y-55025521D01*
X90352590Y-54908604D01*
X90502415Y-54878802D01*
X90652239Y-54849000D01*
X90957761Y-54849000D01*
X91107585Y-54878802D01*
G37*
G36*
X52938642Y-55109781D02*
G01*
X53084414Y-55170162D01*
X53084416Y-55170163D01*
X53215608Y-55257822D01*
X53327178Y-55369392D01*
X53394993Y-55470885D01*
X53414838Y-55500586D01*
X53475219Y-55646358D01*
X53506000Y-55801107D01*
X53506000Y-55958893D01*
X53475219Y-56113642D01*
X53414838Y-56259414D01*
X53414837Y-56259416D01*
X53327178Y-56390608D01*
X53215608Y-56502178D01*
X53084416Y-56589837D01*
X53084415Y-56589838D01*
X53084414Y-56589838D01*
X52938642Y-56650219D01*
X52783893Y-56681000D01*
X52626107Y-56681000D01*
X52471358Y-56650219D01*
X52325586Y-56589838D01*
X52325585Y-56589838D01*
X52325584Y-56589837D01*
X52194392Y-56502178D01*
X52082822Y-56390608D01*
X51995163Y-56259416D01*
X51995162Y-56259414D01*
X51934781Y-56113642D01*
X51904000Y-55958893D01*
X51904000Y-55801107D01*
X51934781Y-55646358D01*
X51995162Y-55500586D01*
X52015007Y-55470885D01*
X52082822Y-55369392D01*
X52194392Y-55257822D01*
X52325584Y-55170163D01*
X52325586Y-55170162D01*
X52471358Y-55109781D01*
X52626107Y-55079000D01*
X52783893Y-55079000D01*
X52938642Y-55109781D01*
G37*
G36*
X46111999Y-55358445D02*
G01*
X46149495Y-55369820D01*
X46184054Y-55388292D01*
X46214347Y-55413153D01*
X46239208Y-55443446D01*
X46257680Y-55478005D01*
X46269055Y-55515501D01*
X46273500Y-55560638D01*
X46273500Y-56199362D01*
X46269055Y-56244499D01*
X46257680Y-56281995D01*
X46239208Y-56316554D01*
X46214347Y-56346847D01*
X46184054Y-56371708D01*
X46149495Y-56390180D01*
X46111999Y-56401555D01*
X46066862Y-56406000D01*
X45328138Y-56406000D01*
X45283001Y-56401555D01*
X45245505Y-56390180D01*
X45210946Y-56371708D01*
X45180653Y-56346847D01*
X45155792Y-56316554D01*
X45137320Y-56281995D01*
X45125945Y-56244499D01*
X45121500Y-56199362D01*
X45121500Y-55560638D01*
X45125945Y-55515501D01*
X45137320Y-55478005D01*
X45155792Y-55443446D01*
X45180653Y-55413153D01*
X45210946Y-55388292D01*
X45245505Y-55369820D01*
X45283001Y-55358445D01*
X45328138Y-55354000D01*
X46066862Y-55354000D01*
X46111999Y-55358445D01*
G37*
G36*
X47861999Y-55358445D02*
G01*
X47899495Y-55369820D01*
X47934054Y-55388292D01*
X47964347Y-55413153D01*
X47989208Y-55443446D01*
X48007680Y-55478005D01*
X48019055Y-55515501D01*
X48023500Y-55560638D01*
X48023500Y-56199362D01*
X48019055Y-56244499D01*
X48007680Y-56281995D01*
X47989208Y-56316554D01*
X47964347Y-56346847D01*
X47934054Y-56371708D01*
X47899495Y-56390180D01*
X47861999Y-56401555D01*
X47816862Y-56406000D01*
X47078138Y-56406000D01*
X47033001Y-56401555D01*
X46995505Y-56390180D01*
X46960946Y-56371708D01*
X46930653Y-56346847D01*
X46905792Y-56316554D01*
X46887320Y-56281995D01*
X46875945Y-56244499D01*
X46871500Y-56199362D01*
X46871500Y-55560638D01*
X46875945Y-55515501D01*
X46887320Y-55478005D01*
X46905792Y-55443446D01*
X46930653Y-55413153D01*
X46960946Y-55388292D01*
X46995505Y-55369820D01*
X47033001Y-55358445D01*
X47078138Y-55354000D01*
X47816862Y-55354000D01*
X47861999Y-55358445D01*
G37*
G36*
X20205000Y-54241000D02*
G01*
X18403000Y-54241000D01*
X18403000Y-52439000D01*
X20205000Y-52439000D01*
X20205000Y-54241000D01*
G37*
G36*
X64721000Y-53361000D02*
G01*
X58469000Y-53361000D01*
X58469000Y-51659000D01*
X64721000Y-51659000D01*
X64721000Y-53361000D01*
G37*
G36*
X19417512Y-49903927D02*
G01*
X19566812Y-49933624D01*
X19730784Y-50001544D01*
X19878354Y-50100147D01*
X20003853Y-50225646D01*
X20102456Y-50373216D01*
X20170376Y-50537188D01*
X20205000Y-50711259D01*
X20205000Y-50888741D01*
X20170376Y-51062812D01*
X20102456Y-51226784D01*
X20003853Y-51374354D01*
X19878354Y-51499853D01*
X19730784Y-51598456D01*
X19566812Y-51666376D01*
X19417512Y-51696073D01*
X19392742Y-51701000D01*
X19215258Y-51701000D01*
X19190488Y-51696073D01*
X19041188Y-51666376D01*
X18877216Y-51598456D01*
X18729646Y-51499853D01*
X18604147Y-51374354D01*
X18505544Y-51226784D01*
X18437624Y-51062812D01*
X18403000Y-50888741D01*
X18403000Y-50711259D01*
X18437624Y-50537188D01*
X18505544Y-50373216D01*
X18604147Y-50225646D01*
X18729646Y-50100147D01*
X18877216Y-50001544D01*
X19041188Y-49933624D01*
X19190488Y-49903927D01*
X19215258Y-49899000D01*
X19392742Y-49899000D01*
X19417512Y-49903927D01*
G37*
G36*
X66696000Y-51386000D02*
G01*
X64994000Y-51386000D01*
X64994000Y-45134000D01*
X66696000Y-45134000D01*
X66696000Y-51386000D01*
G37*
G36*
X58196000Y-51386000D02*
G01*
X56494000Y-51386000D01*
X56494000Y-45134000D01*
X58196000Y-45134000D01*
X58196000Y-51386000D01*
G37*
G36*
X68436499Y-49579445D02*
G01*
X68473995Y-49590820D01*
X68508554Y-49609292D01*
X68538847Y-49634153D01*
X68563708Y-49664446D01*
X68582180Y-49699005D01*
X68593555Y-49736501D01*
X68598000Y-49781638D01*
X68598000Y-50520362D01*
X68593555Y-50565499D01*
X68582180Y-50602995D01*
X68563708Y-50637554D01*
X68538847Y-50667847D01*
X68508554Y-50692708D01*
X68473995Y-50711180D01*
X68436499Y-50722555D01*
X68391362Y-50727000D01*
X67752638Y-50727000D01*
X67707501Y-50722555D01*
X67670005Y-50711180D01*
X67635446Y-50692708D01*
X67605153Y-50667847D01*
X67580292Y-50637554D01*
X67561820Y-50602995D01*
X67550445Y-50565499D01*
X67546000Y-50520362D01*
X67546000Y-49781638D01*
X67550445Y-49736501D01*
X67561820Y-49699005D01*
X67580292Y-49664446D01*
X67605153Y-49634153D01*
X67635446Y-49609292D01*
X67670005Y-49590820D01*
X67707501Y-49579445D01*
X67752638Y-49575000D01*
X68391362Y-49575000D01*
X68436499Y-49579445D01*
G37*
G36*
X75161604Y-48003347D02*
G01*
X75198144Y-48014432D01*
X75231821Y-48032433D01*
X75261341Y-48056659D01*
X75285567Y-48086179D01*
X75303568Y-48119856D01*
X75314653Y-48156396D01*
X75319000Y-48200538D01*
X75319000Y-49149462D01*
X75314653Y-49193604D01*
X75303568Y-49230144D01*
X75285567Y-49263821D01*
X75261341Y-49293341D01*
X75231821Y-49317567D01*
X75198144Y-49335568D01*
X75161604Y-49346653D01*
X75117462Y-49351000D01*
X73218538Y-49351000D01*
X73174396Y-49346653D01*
X73137856Y-49335568D01*
X73104179Y-49317567D01*
X73074659Y-49293341D01*
X73050433Y-49263821D01*
X73032432Y-49230144D01*
X73021347Y-49193604D01*
X73017000Y-49149462D01*
X73017000Y-48200538D01*
X73021347Y-48156396D01*
X73032432Y-48119856D01*
X73050433Y-48086179D01*
X73074659Y-48056659D01*
X73104179Y-48032433D01*
X73137856Y-48014432D01*
X73174396Y-48003347D01*
X73218538Y-47999000D01*
X75117462Y-47999000D01*
X75161604Y-48003347D01*
G37*
G36*
X19417512Y-47363927D02*
G01*
X19566812Y-47393624D01*
X19730784Y-47461544D01*
X19878354Y-47560147D01*
X20003853Y-47685646D01*
X20102456Y-47833216D01*
X20170376Y-47997188D01*
X20200073Y-48146488D01*
X20203939Y-48165922D01*
X20205000Y-48171259D01*
X20205000Y-48348741D01*
X20170376Y-48522812D01*
X20102456Y-48686784D01*
X20003853Y-48834354D01*
X19878354Y-48959853D01*
X19730784Y-49058456D01*
X19566812Y-49126376D01*
X19417512Y-49156073D01*
X19392742Y-49161000D01*
X19215258Y-49161000D01*
X19190488Y-49156073D01*
X19041188Y-49126376D01*
X18877216Y-49058456D01*
X18729646Y-48959853D01*
X18604147Y-48834354D01*
X18505544Y-48686784D01*
X18437624Y-48522812D01*
X18403000Y-48348741D01*
X18403000Y-48171259D01*
X18404062Y-48165922D01*
X18407927Y-48146488D01*
X18437624Y-47997188D01*
X18505544Y-47833216D01*
X18604147Y-47685646D01*
X18729646Y-47560147D01*
X18877216Y-47461544D01*
X19041188Y-47393624D01*
X19190488Y-47363927D01*
X19215258Y-47359000D01*
X19392742Y-47359000D01*
X19417512Y-47363927D01*
G37*
G36*
X68436499Y-47829445D02*
G01*
X68473995Y-47840820D01*
X68508554Y-47859292D01*
X68538847Y-47884153D01*
X68563708Y-47914446D01*
X68582180Y-47949005D01*
X68593555Y-47986501D01*
X68598000Y-48031638D01*
X68598000Y-48770362D01*
X68593555Y-48815499D01*
X68582180Y-48852995D01*
X68563708Y-48887554D01*
X68538847Y-48917847D01*
X68508554Y-48942708D01*
X68473995Y-48961180D01*
X68436499Y-48972555D01*
X68391362Y-48977000D01*
X67752638Y-48977000D01*
X67707501Y-48972555D01*
X67670005Y-48961180D01*
X67635446Y-48942708D01*
X67605153Y-48917847D01*
X67580292Y-48887554D01*
X67561820Y-48852995D01*
X67550445Y-48815499D01*
X67546000Y-48770362D01*
X67546000Y-48031638D01*
X67550445Y-47986501D01*
X67561820Y-47949005D01*
X67580292Y-47914446D01*
X67605153Y-47884153D01*
X67635446Y-47859292D01*
X67670005Y-47840820D01*
X67707501Y-47829445D01*
X67752638Y-47825000D01*
X68391362Y-47825000D01*
X68436499Y-47829445D01*
G37*
G36*
X75161604Y-45853347D02*
G01*
X75198144Y-45864432D01*
X75231821Y-45882433D01*
X75261341Y-45906659D01*
X75285567Y-45936179D01*
X75303568Y-45969856D01*
X75314653Y-46006396D01*
X75319000Y-46050538D01*
X75319000Y-46999462D01*
X75314653Y-47043604D01*
X75303568Y-47080144D01*
X75285567Y-47113821D01*
X75261341Y-47143341D01*
X75231821Y-47167567D01*
X75198144Y-47185568D01*
X75161604Y-47196653D01*
X75117462Y-47201000D01*
X73218538Y-47201000D01*
X73174396Y-47196653D01*
X73137856Y-47185568D01*
X73104179Y-47167567D01*
X73074659Y-47143341D01*
X73050433Y-47113821D01*
X73032432Y-47080144D01*
X73021347Y-47043604D01*
X73017000Y-46999462D01*
X73017000Y-46050538D01*
X73021347Y-46006396D01*
X73032432Y-45969856D01*
X73050433Y-45936179D01*
X73074659Y-45906659D01*
X73104179Y-45882433D01*
X73137856Y-45864432D01*
X73174396Y-45853347D01*
X73218538Y-45849000D01*
X75117462Y-45849000D01*
X75161604Y-45853347D01*
G37*
G36*
X69579499Y-46023445D02*
G01*
X69616995Y-46034820D01*
X69651554Y-46053292D01*
X69681847Y-46078153D01*
X69706708Y-46108446D01*
X69725180Y-46143005D01*
X69736555Y-46180501D01*
X69741000Y-46225638D01*
X69741000Y-46964362D01*
X69736555Y-47009499D01*
X69725180Y-47046995D01*
X69706708Y-47081554D01*
X69681847Y-47111847D01*
X69651554Y-47136708D01*
X69616995Y-47155180D01*
X69579499Y-47166555D01*
X69534362Y-47171000D01*
X68895638Y-47171000D01*
X68850501Y-47166555D01*
X68813005Y-47155180D01*
X68778446Y-47136708D01*
X68748153Y-47111847D01*
X68723292Y-47081554D01*
X68704820Y-47046995D01*
X68693445Y-47009499D01*
X68689000Y-46964362D01*
X68689000Y-46225638D01*
X68693445Y-46180501D01*
X68704820Y-46143005D01*
X68723292Y-46108446D01*
X68748153Y-46078153D01*
X68778446Y-46053292D01*
X68813005Y-46034820D01*
X68850501Y-46023445D01*
X68895638Y-46019000D01*
X69534362Y-46019000D01*
X69579499Y-46023445D01*
G37*
G36*
X19417512Y-44823927D02*
G01*
X19566812Y-44853624D01*
X19730784Y-44921544D01*
X19878354Y-45020147D01*
X20003853Y-45145646D01*
X20102456Y-45293216D01*
X20170376Y-45457188D01*
X20205000Y-45631259D01*
X20205000Y-45808741D01*
X20170376Y-45982812D01*
X20102456Y-46146784D01*
X20003853Y-46294354D01*
X19878354Y-46419853D01*
X19730784Y-46518456D01*
X19566812Y-46586376D01*
X19417512Y-46616073D01*
X19392742Y-46621000D01*
X19215258Y-46621000D01*
X19190488Y-46616073D01*
X19041188Y-46586376D01*
X18877216Y-46518456D01*
X18729646Y-46419853D01*
X18604147Y-46294354D01*
X18505544Y-46146784D01*
X18437624Y-45982812D01*
X18403000Y-45808741D01*
X18403000Y-45631259D01*
X18437624Y-45457188D01*
X18505544Y-45293216D01*
X18604147Y-45145646D01*
X18729646Y-45020147D01*
X18877216Y-44921544D01*
X19041188Y-44853624D01*
X19190488Y-44823927D01*
X19215258Y-44819000D01*
X19392742Y-44819000D01*
X19417512Y-44823927D01*
G37*
G36*
X69579499Y-44273445D02*
G01*
X69616995Y-44284820D01*
X69651554Y-44303292D01*
X69681847Y-44328153D01*
X69706708Y-44358446D01*
X69725180Y-44393005D01*
X69736555Y-44430501D01*
X69741000Y-44475638D01*
X69741000Y-45214362D01*
X69736555Y-45259499D01*
X69725180Y-45296995D01*
X69706708Y-45331554D01*
X69681847Y-45361847D01*
X69651554Y-45386708D01*
X69616995Y-45405180D01*
X69579499Y-45416555D01*
X69534362Y-45421000D01*
X68895638Y-45421000D01*
X68850501Y-45416555D01*
X68813005Y-45405180D01*
X68778446Y-45386708D01*
X68748153Y-45361847D01*
X68723292Y-45331554D01*
X68704820Y-45296995D01*
X68693445Y-45259499D01*
X68689000Y-45214362D01*
X68689000Y-44475638D01*
X68693445Y-44430501D01*
X68704820Y-44393005D01*
X68723292Y-44358446D01*
X68748153Y-44328153D01*
X68778446Y-44303292D01*
X68813005Y-44284820D01*
X68850501Y-44273445D01*
X68895638Y-44269000D01*
X69534362Y-44269000D01*
X69579499Y-44273445D01*
G37*
G36*
X64721000Y-44861000D02*
G01*
X58469000Y-44861000D01*
X58469000Y-43159000D01*
X64721000Y-43159000D01*
X64721000Y-44861000D01*
G37*
G36*
X29323512Y-42283927D02*
G01*
X29472812Y-42313624D01*
X29636784Y-42381544D01*
X29784354Y-42480147D01*
X29909853Y-42605646D01*
X30008456Y-42753216D01*
X30076376Y-42917188D01*
X30111000Y-43091259D01*
X30111000Y-43268741D01*
X30076376Y-43442812D01*
X30008456Y-43606784D01*
X29909853Y-43754354D01*
X29784354Y-43879853D01*
X29636784Y-43978456D01*
X29472812Y-44046376D01*
X29323512Y-44076073D01*
X29298742Y-44081000D01*
X29121258Y-44081000D01*
X29096488Y-44076073D01*
X28947188Y-44046376D01*
X28783216Y-43978456D01*
X28635646Y-43879853D01*
X28510147Y-43754354D01*
X28411544Y-43606784D01*
X28343624Y-43442812D01*
X28309000Y-43268741D01*
X28309000Y-43091259D01*
X28343624Y-42917188D01*
X28411544Y-42753216D01*
X28510147Y-42605646D01*
X28635646Y-42480147D01*
X28783216Y-42381544D01*
X28947188Y-42313624D01*
X29096488Y-42283927D01*
X29121258Y-42279000D01*
X29298742Y-42279000D01*
X29323512Y-42283927D01*
G37*
G36*
X27571000Y-44081000D02*
G01*
X25769000Y-44081000D01*
X25769000Y-42279000D01*
X27571000Y-42279000D01*
X27571000Y-44081000D01*
G37*
G36*
X31863512Y-42283927D02*
G01*
X32012812Y-42313624D01*
X32176784Y-42381544D01*
X32324354Y-42480147D01*
X32449853Y-42605646D01*
X32548456Y-42753216D01*
X32616376Y-42917188D01*
X32651000Y-43091259D01*
X32651000Y-43268741D01*
X32616376Y-43442812D01*
X32548456Y-43606784D01*
X32449853Y-43754354D01*
X32324354Y-43879853D01*
X32176784Y-43978456D01*
X32012812Y-44046376D01*
X31863512Y-44076073D01*
X31838742Y-44081000D01*
X31661258Y-44081000D01*
X31636488Y-44076073D01*
X31487188Y-44046376D01*
X31323216Y-43978456D01*
X31175646Y-43879853D01*
X31050147Y-43754354D01*
X30951544Y-43606784D01*
X30883624Y-43442812D01*
X30849000Y-43268741D01*
X30849000Y-43091259D01*
X30883624Y-42917188D01*
X30951544Y-42753216D01*
X31050147Y-42605646D01*
X31175646Y-42480147D01*
X31323216Y-42381544D01*
X31487188Y-42313624D01*
X31636488Y-42283927D01*
X31661258Y-42279000D01*
X31838742Y-42279000D01*
X31863512Y-42283927D01*
G37*
G36*
X34403512Y-42283927D02*
G01*
X34552812Y-42313624D01*
X34716784Y-42381544D01*
X34864354Y-42480147D01*
X34989853Y-42605646D01*
X35088456Y-42753216D01*
X35156376Y-42917188D01*
X35191000Y-43091259D01*
X35191000Y-43268741D01*
X35156376Y-43442812D01*
X35088456Y-43606784D01*
X34989853Y-43754354D01*
X34864354Y-43879853D01*
X34716784Y-43978456D01*
X34552812Y-44046376D01*
X34403512Y-44076073D01*
X34378742Y-44081000D01*
X34201258Y-44081000D01*
X34176488Y-44076073D01*
X34027188Y-44046376D01*
X33863216Y-43978456D01*
X33715646Y-43879853D01*
X33590147Y-43754354D01*
X33491544Y-43606784D01*
X33423624Y-43442812D01*
X33389000Y-43268741D01*
X33389000Y-43091259D01*
X33423624Y-42917188D01*
X33491544Y-42753216D01*
X33590147Y-42605646D01*
X33715646Y-42480147D01*
X33863216Y-42381544D01*
X34027188Y-42313624D01*
X34176488Y-42283927D01*
X34201258Y-42279000D01*
X34378742Y-42279000D01*
X34403512Y-42283927D01*
G37*
G36*
X68563499Y-41160945D02*
G01*
X68600995Y-41172320D01*
X68635554Y-41190792D01*
X68665847Y-41215653D01*
X68690708Y-41245946D01*
X68709180Y-41280505D01*
X68720555Y-41318001D01*
X68725000Y-41363138D01*
X68725000Y-42101862D01*
X68720555Y-42146999D01*
X68709180Y-42184495D01*
X68690708Y-42219054D01*
X68665847Y-42249347D01*
X68635554Y-42274208D01*
X68600995Y-42292680D01*
X68563499Y-42304055D01*
X68518362Y-42308500D01*
X67879638Y-42308500D01*
X67834501Y-42304055D01*
X67797005Y-42292680D01*
X67762446Y-42274208D01*
X67732153Y-42249347D01*
X67707292Y-42219054D01*
X67688820Y-42184495D01*
X67677445Y-42146999D01*
X67673000Y-42101862D01*
X67673000Y-41363138D01*
X67677445Y-41318001D01*
X67688820Y-41280505D01*
X67707292Y-41245946D01*
X67732153Y-41215653D01*
X67762446Y-41190792D01*
X67797005Y-41172320D01*
X67834501Y-41160945D01*
X67879638Y-41156500D01*
X68518362Y-41156500D01*
X68563499Y-41160945D01*
G37*
G36*
X26783512Y-39743927D02*
G01*
X26932812Y-39773624D01*
X27096784Y-39841544D01*
X27244354Y-39940147D01*
X27369853Y-40065646D01*
X27468456Y-40213216D01*
X27536376Y-40377188D01*
X27571000Y-40551259D01*
X27571000Y-40728741D01*
X27536376Y-40902812D01*
X27468456Y-41066784D01*
X27369853Y-41214354D01*
X27244354Y-41339853D01*
X27096784Y-41438456D01*
X26932812Y-41506376D01*
X26783512Y-41536073D01*
X26758742Y-41541000D01*
X26581258Y-41541000D01*
X26556488Y-41536073D01*
X26407188Y-41506376D01*
X26243216Y-41438456D01*
X26095646Y-41339853D01*
X25970147Y-41214354D01*
X25871544Y-41066784D01*
X25803624Y-40902812D01*
X25769000Y-40728741D01*
X25769000Y-40551259D01*
X25803624Y-40377188D01*
X25871544Y-40213216D01*
X25970147Y-40065646D01*
X26095646Y-39940147D01*
X26243216Y-39841544D01*
X26407188Y-39773624D01*
X26556488Y-39743927D01*
X26581258Y-39739000D01*
X26758742Y-39739000D01*
X26783512Y-39743927D01*
G37*
G36*
X29323512Y-39743927D02*
G01*
X29472812Y-39773624D01*
X29636784Y-39841544D01*
X29784354Y-39940147D01*
X29909853Y-40065646D01*
X30008456Y-40213216D01*
X30076376Y-40377188D01*
X30111000Y-40551259D01*
X30111000Y-40728741D01*
X30076376Y-40902812D01*
X30008456Y-41066784D01*
X29909853Y-41214354D01*
X29784354Y-41339853D01*
X29636784Y-41438456D01*
X29472812Y-41506376D01*
X29323512Y-41536073D01*
X29298742Y-41541000D01*
X29121258Y-41541000D01*
X29096488Y-41536073D01*
X28947188Y-41506376D01*
X28783216Y-41438456D01*
X28635646Y-41339853D01*
X28510147Y-41214354D01*
X28411544Y-41066784D01*
X28343624Y-40902812D01*
X28309000Y-40728741D01*
X28309000Y-40551259D01*
X28343624Y-40377188D01*
X28411544Y-40213216D01*
X28510147Y-40065646D01*
X28635646Y-39940147D01*
X28783216Y-39841544D01*
X28947188Y-39773624D01*
X29096488Y-39743927D01*
X29121258Y-39739000D01*
X29298742Y-39739000D01*
X29323512Y-39743927D01*
G37*
G36*
X34403512Y-39743927D02*
G01*
X34552812Y-39773624D01*
X34716784Y-39841544D01*
X34864354Y-39940147D01*
X34989853Y-40065646D01*
X35088456Y-40213216D01*
X35156376Y-40377188D01*
X35191000Y-40551259D01*
X35191000Y-40728741D01*
X35156376Y-40902812D01*
X35088456Y-41066784D01*
X34989853Y-41214354D01*
X34864354Y-41339853D01*
X34716784Y-41438456D01*
X34552812Y-41506376D01*
X34403512Y-41536073D01*
X34378742Y-41541000D01*
X34201258Y-41541000D01*
X34176488Y-41536073D01*
X34027188Y-41506376D01*
X33863216Y-41438456D01*
X33715646Y-41339853D01*
X33590147Y-41214354D01*
X33491544Y-41066784D01*
X33423624Y-40902812D01*
X33389000Y-40728741D01*
X33389000Y-40551259D01*
X33423624Y-40377188D01*
X33491544Y-40213216D01*
X33590147Y-40065646D01*
X33715646Y-39940147D01*
X33863216Y-39841544D01*
X34027188Y-39773624D01*
X34176488Y-39743927D01*
X34201258Y-39739000D01*
X34378742Y-39739000D01*
X34403512Y-39743927D01*
G37*
G36*
X31863512Y-39743927D02*
G01*
X32012812Y-39773624D01*
X32176784Y-39841544D01*
X32324354Y-39940147D01*
X32449853Y-40065646D01*
X32548456Y-40213216D01*
X32616376Y-40377188D01*
X32651000Y-40551259D01*
X32651000Y-40728741D01*
X32616376Y-40902812D01*
X32548456Y-41066784D01*
X32449853Y-41214354D01*
X32324354Y-41339853D01*
X32176784Y-41438456D01*
X32012812Y-41506376D01*
X31863512Y-41536073D01*
X31838742Y-41541000D01*
X31661258Y-41541000D01*
X31636488Y-41536073D01*
X31487188Y-41506376D01*
X31323216Y-41438456D01*
X31175646Y-41339853D01*
X31050147Y-41214354D01*
X30951544Y-41066784D01*
X30883624Y-40902812D01*
X30849000Y-40728741D01*
X30849000Y-40551259D01*
X30883624Y-40377188D01*
X30951544Y-40213216D01*
X31050147Y-40065646D01*
X31175646Y-39940147D01*
X31323216Y-39841544D01*
X31487188Y-39773624D01*
X31636488Y-39743927D01*
X31661258Y-39739000D01*
X31838742Y-39739000D01*
X31863512Y-39743927D01*
G37*
G36*
X68563499Y-39410945D02*
G01*
X68600995Y-39422320D01*
X68635554Y-39440792D01*
X68665847Y-39465653D01*
X68690708Y-39495946D01*
X68709180Y-39530505D01*
X68720555Y-39568001D01*
X68725000Y-39613138D01*
X68725000Y-40351862D01*
X68720555Y-40396999D01*
X68709180Y-40434495D01*
X68690708Y-40469054D01*
X68665847Y-40499347D01*
X68635554Y-40524208D01*
X68600995Y-40542680D01*
X68563499Y-40554055D01*
X68518362Y-40558500D01*
X67879638Y-40558500D01*
X67834501Y-40554055D01*
X67797005Y-40542680D01*
X67762446Y-40524208D01*
X67732153Y-40499347D01*
X67707292Y-40469054D01*
X67688820Y-40434495D01*
X67677445Y-40396999D01*
X67673000Y-40351862D01*
X67673000Y-39613138D01*
X67677445Y-39568001D01*
X67688820Y-39530505D01*
X67707292Y-39495946D01*
X67732153Y-39465653D01*
X67762446Y-39440792D01*
X67797005Y-39422320D01*
X67834501Y-39410945D01*
X67879638Y-39406500D01*
X68518362Y-39406500D01*
X68563499Y-39410945D01*
G37*
G36*
X23224499Y-39165445D02*
G01*
X23261995Y-39176820D01*
X23296554Y-39195292D01*
X23326847Y-39220153D01*
X23351708Y-39250446D01*
X23370180Y-39285005D01*
X23381555Y-39322501D01*
X23386000Y-39367638D01*
X23386000Y-40106362D01*
X23381555Y-40151499D01*
X23370180Y-40188995D01*
X23351708Y-40223554D01*
X23326847Y-40253847D01*
X23296554Y-40278708D01*
X23261995Y-40297180D01*
X23224499Y-40308555D01*
X23179362Y-40313000D01*
X22540638Y-40313000D01*
X22495501Y-40308555D01*
X22458005Y-40297180D01*
X22423446Y-40278708D01*
X22393153Y-40253847D01*
X22368292Y-40223554D01*
X22349820Y-40188995D01*
X22338445Y-40151499D01*
X22334000Y-40106362D01*
X22334000Y-39367638D01*
X22338445Y-39322501D01*
X22349820Y-39285005D01*
X22368292Y-39250446D01*
X22393153Y-39220153D01*
X22423446Y-39195292D01*
X22458005Y-39176820D01*
X22495501Y-39165445D01*
X22540638Y-39161000D01*
X23179362Y-39161000D01*
X23224499Y-39165445D01*
G37*
G36*
X60054928Y-38386764D02*
G01*
X60076009Y-38393160D01*
X60095445Y-38403548D01*
X60112476Y-38417524D01*
X60126452Y-38434555D01*
X60136840Y-38453991D01*
X60143236Y-38475072D01*
X60146000Y-38503140D01*
X60146000Y-38966860D01*
X60143236Y-38994928D01*
X60136840Y-39016009D01*
X60126452Y-39035445D01*
X60112476Y-39052476D01*
X60095445Y-39066452D01*
X60076009Y-39076840D01*
X60054928Y-39083236D01*
X60026860Y-39086000D01*
X58213140Y-39086000D01*
X58185072Y-39083236D01*
X58163991Y-39076840D01*
X58144555Y-39066452D01*
X58127524Y-39052476D01*
X58113548Y-39035445D01*
X58103160Y-39016009D01*
X58096764Y-38994928D01*
X58094000Y-38966860D01*
X58094000Y-38503140D01*
X58096764Y-38475072D01*
X58103160Y-38453991D01*
X58113548Y-38434555D01*
X58127524Y-38417524D01*
X58144555Y-38403548D01*
X58163991Y-38393160D01*
X58185072Y-38386764D01*
X58213140Y-38384000D01*
X60026860Y-38384000D01*
X60054928Y-38386764D01*
G37*
G36*
X65004928Y-38386764D02*
G01*
X65026009Y-38393160D01*
X65045445Y-38403548D01*
X65062476Y-38417524D01*
X65076452Y-38434555D01*
X65086840Y-38453991D01*
X65093236Y-38475072D01*
X65096000Y-38503140D01*
X65096000Y-38966860D01*
X65093236Y-38994928D01*
X65086840Y-39016009D01*
X65076452Y-39035445D01*
X65062476Y-39052476D01*
X65045445Y-39066452D01*
X65026009Y-39076840D01*
X65004928Y-39083236D01*
X64976860Y-39086000D01*
X63163140Y-39086000D01*
X63135072Y-39083236D01*
X63113991Y-39076840D01*
X63094555Y-39066452D01*
X63077524Y-39052476D01*
X63063548Y-39035445D01*
X63053160Y-39016009D01*
X63046764Y-38994928D01*
X63044000Y-38966860D01*
X63044000Y-38503140D01*
X63046764Y-38475072D01*
X63053160Y-38453991D01*
X63063548Y-38434555D01*
X63077524Y-38417524D01*
X63094555Y-38403548D01*
X63113991Y-38393160D01*
X63135072Y-38386764D01*
X63163140Y-38384000D01*
X64976860Y-38384000D01*
X65004928Y-38386764D01*
G37*
G36*
X23224499Y-37415445D02*
G01*
X23261995Y-37426820D01*
X23296554Y-37445292D01*
X23326847Y-37470153D01*
X23351708Y-37500446D01*
X23370180Y-37535005D01*
X23381555Y-37572501D01*
X23386000Y-37617638D01*
X23386000Y-38356362D01*
X23381555Y-38401499D01*
X23370180Y-38438995D01*
X23351708Y-38473554D01*
X23326847Y-38503847D01*
X23296554Y-38528708D01*
X23261995Y-38547180D01*
X23224499Y-38558555D01*
X23179362Y-38563000D01*
X22540638Y-38563000D01*
X22495501Y-38558555D01*
X22458005Y-38547180D01*
X22423446Y-38528708D01*
X22393153Y-38503847D01*
X22368292Y-38473554D01*
X22349820Y-38438995D01*
X22338445Y-38401499D01*
X22334000Y-38356362D01*
X22334000Y-37617638D01*
X22338445Y-37572501D01*
X22349820Y-37535005D01*
X22368292Y-37500446D01*
X22393153Y-37470153D01*
X22423446Y-37445292D01*
X22458005Y-37426820D01*
X22495501Y-37415445D01*
X22540638Y-37411000D01*
X23179362Y-37411000D01*
X23224499Y-37415445D01*
G37*
G36*
X65004928Y-37116764D02*
G01*
X65026009Y-37123160D01*
X65045445Y-37133548D01*
X65062476Y-37147524D01*
X65076452Y-37164555D01*
X65086840Y-37183991D01*
X65093236Y-37205072D01*
X65096000Y-37233140D01*
X65096000Y-37696860D01*
X65093236Y-37724928D01*
X65086840Y-37746009D01*
X65076452Y-37765445D01*
X65062476Y-37782476D01*
X65045445Y-37796452D01*
X65026009Y-37806840D01*
X65004928Y-37813236D01*
X64976860Y-37816000D01*
X63163140Y-37816000D01*
X63135072Y-37813236D01*
X63113991Y-37806840D01*
X63094555Y-37796452D01*
X63077524Y-37782476D01*
X63063548Y-37765445D01*
X63053160Y-37746009D01*
X63046764Y-37724928D01*
X63044000Y-37696860D01*
X63044000Y-37233140D01*
X63046764Y-37205072D01*
X63053160Y-37183991D01*
X63063548Y-37164555D01*
X63077524Y-37147524D01*
X63094555Y-37133548D01*
X63113991Y-37123160D01*
X63135072Y-37116764D01*
X63163140Y-37114000D01*
X64976860Y-37114000D01*
X65004928Y-37116764D01*
G37*
G36*
X60054928Y-37116764D02*
G01*
X60076009Y-37123160D01*
X60095445Y-37133548D01*
X60112476Y-37147524D01*
X60126452Y-37164555D01*
X60136840Y-37183991D01*
X60143236Y-37205072D01*
X60146000Y-37233140D01*
X60146000Y-37696860D01*
X60143236Y-37724928D01*
X60136840Y-37746009D01*
X60126452Y-37765445D01*
X60112476Y-37782476D01*
X60095445Y-37796452D01*
X60076009Y-37806840D01*
X60054928Y-37813236D01*
X60026860Y-37816000D01*
X58213140Y-37816000D01*
X58185072Y-37813236D01*
X58163991Y-37806840D01*
X58144555Y-37796452D01*
X58127524Y-37782476D01*
X58113548Y-37765445D01*
X58103160Y-37746009D01*
X58096764Y-37724928D01*
X58094000Y-37696860D01*
X58094000Y-37233140D01*
X58096764Y-37205072D01*
X58103160Y-37183991D01*
X58113548Y-37164555D01*
X58127524Y-37147524D01*
X58144555Y-37133548D01*
X58163991Y-37123160D01*
X58185072Y-37116764D01*
X58213140Y-37114000D01*
X60026860Y-37114000D01*
X60054928Y-37116764D01*
G37*
G36*
X92356000Y-37461000D02*
G01*
X89254000Y-37461000D01*
X89254000Y-34359000D01*
X92356000Y-34359000D01*
X92356000Y-37461000D01*
G37*
G36*
X55405721Y-35660174D02*
G01*
X55505995Y-35701709D01*
X55550812Y-35731655D01*
X55596242Y-35762010D01*
X55672990Y-35838758D01*
X55693915Y-35870075D01*
X55733291Y-35929005D01*
X55774826Y-36029279D01*
X55796000Y-36135730D01*
X55796000Y-36244270D01*
X55774826Y-36350721D01*
X55733291Y-36450995D01*
X55716577Y-36476009D01*
X55672990Y-36541242D01*
X55596242Y-36617990D01*
X55550812Y-36648345D01*
X55505995Y-36678291D01*
X55405721Y-36719826D01*
X55299270Y-36741000D01*
X55190730Y-36741000D01*
X55084279Y-36719826D01*
X54984005Y-36678291D01*
X54939188Y-36648345D01*
X54893758Y-36617990D01*
X54817010Y-36541242D01*
X54773423Y-36476009D01*
X54756709Y-36450995D01*
X54715174Y-36350721D01*
X54694000Y-36244270D01*
X54694000Y-36135730D01*
X54715174Y-36029279D01*
X54756709Y-35929005D01*
X54796085Y-35870075D01*
X54817010Y-35838758D01*
X54893758Y-35762010D01*
X54939188Y-35731655D01*
X54984005Y-35701709D01*
X55084279Y-35660174D01*
X55190730Y-35639000D01*
X55299270Y-35639000D01*
X55405721Y-35660174D01*
G37*
G36*
X33003142Y-35008242D02*
G01*
X33151101Y-35069529D01*
X33284255Y-35158499D01*
X33397501Y-35271745D01*
X33486471Y-35404899D01*
X33547758Y-35552858D01*
X33579000Y-35709925D01*
X33579000Y-35870075D01*
X33547758Y-36027142D01*
X33486471Y-36175101D01*
X33397501Y-36308255D01*
X33284255Y-36421501D01*
X33151101Y-36510471D01*
X33003142Y-36571758D01*
X32846075Y-36603000D01*
X32685925Y-36603000D01*
X32528858Y-36571758D01*
X32380899Y-36510471D01*
X32247745Y-36421501D01*
X32134499Y-36308255D01*
X32045529Y-36175101D01*
X31984242Y-36027142D01*
X31953000Y-35870075D01*
X31953000Y-35709925D01*
X31984242Y-35552858D01*
X32045529Y-35404899D01*
X32134499Y-35271745D01*
X32247745Y-35158499D01*
X32380899Y-35069529D01*
X32528858Y-35008242D01*
X32685925Y-34977000D01*
X32846075Y-34977000D01*
X33003142Y-35008242D01*
G37*
G36*
X30463142Y-35008242D02*
G01*
X30611101Y-35069529D01*
X30744255Y-35158499D01*
X30857501Y-35271745D01*
X30946471Y-35404899D01*
X31007758Y-35552858D01*
X31039000Y-35709925D01*
X31039000Y-35870075D01*
X31007758Y-36027142D01*
X30946471Y-36175101D01*
X30857501Y-36308255D01*
X30744255Y-36421501D01*
X30611101Y-36510471D01*
X30463142Y-36571758D01*
X30306075Y-36603000D01*
X30145925Y-36603000D01*
X29988858Y-36571758D01*
X29840899Y-36510471D01*
X29707745Y-36421501D01*
X29594499Y-36308255D01*
X29505529Y-36175101D01*
X29444242Y-36027142D01*
X29413000Y-35870075D01*
X29413000Y-35709925D01*
X29444242Y-35552858D01*
X29505529Y-35404899D01*
X29594499Y-35271745D01*
X29707745Y-35158499D01*
X29840899Y-35069529D01*
X29988858Y-35008242D01*
X30145925Y-34977000D01*
X30306075Y-34977000D01*
X30463142Y-35008242D01*
G37*
G36*
X27923142Y-35008242D02*
G01*
X28071101Y-35069529D01*
X28204255Y-35158499D01*
X28317501Y-35271745D01*
X28406471Y-35404899D01*
X28467758Y-35552858D01*
X28499000Y-35709925D01*
X28499000Y-35870075D01*
X28467758Y-36027142D01*
X28406471Y-36175101D01*
X28317501Y-36308255D01*
X28204255Y-36421501D01*
X28071101Y-36510471D01*
X27923142Y-36571758D01*
X27766075Y-36603000D01*
X27605925Y-36603000D01*
X27448858Y-36571758D01*
X27300899Y-36510471D01*
X27167745Y-36421501D01*
X27054499Y-36308255D01*
X26965529Y-36175101D01*
X26904242Y-36027142D01*
X26873000Y-35870075D01*
X26873000Y-35709925D01*
X26904242Y-35552858D01*
X26965529Y-35404899D01*
X27054499Y-35271745D01*
X27167745Y-35158499D01*
X27300899Y-35069529D01*
X27448858Y-35008242D01*
X27605925Y-34977000D01*
X27766075Y-34977000D01*
X27923142Y-35008242D01*
G37*
G36*
X60054928Y-35846764D02*
G01*
X60076009Y-35853160D01*
X60095445Y-35863548D01*
X60112476Y-35877524D01*
X60126452Y-35894555D01*
X60136840Y-35913991D01*
X60143236Y-35935072D01*
X60146000Y-35963140D01*
X60146000Y-36426860D01*
X60143236Y-36454928D01*
X60136840Y-36476009D01*
X60126452Y-36495445D01*
X60112476Y-36512476D01*
X60095445Y-36526452D01*
X60076009Y-36536840D01*
X60054928Y-36543236D01*
X60026860Y-36546000D01*
X58213140Y-36546000D01*
X58185072Y-36543236D01*
X58163991Y-36536840D01*
X58144555Y-36526452D01*
X58127524Y-36512476D01*
X58113548Y-36495445D01*
X58103160Y-36476009D01*
X58096764Y-36454928D01*
X58094000Y-36426860D01*
X58094000Y-35963140D01*
X58096764Y-35935072D01*
X58103160Y-35913991D01*
X58113548Y-35894555D01*
X58127524Y-35877524D01*
X58144555Y-35863548D01*
X58163991Y-35853160D01*
X58185072Y-35846764D01*
X58213140Y-35844000D01*
X60026860Y-35844000D01*
X60054928Y-35846764D01*
G37*
G36*
X65004928Y-35846764D02*
G01*
X65026009Y-35853160D01*
X65045445Y-35863548D01*
X65062476Y-35877524D01*
X65076452Y-35894555D01*
X65086840Y-35913991D01*
X65093236Y-35935072D01*
X65096000Y-35963140D01*
X65096000Y-36426860D01*
X65093236Y-36454928D01*
X65086840Y-36476009D01*
X65076452Y-36495445D01*
X65062476Y-36512476D01*
X65045445Y-36526452D01*
X65026009Y-36536840D01*
X65004928Y-36543236D01*
X64976860Y-36546000D01*
X63163140Y-36546000D01*
X63135072Y-36543236D01*
X63113991Y-36536840D01*
X63094555Y-36526452D01*
X63077524Y-36512476D01*
X63063548Y-36495445D01*
X63053160Y-36476009D01*
X63046764Y-36454928D01*
X63044000Y-36426860D01*
X63044000Y-35963140D01*
X63046764Y-35935072D01*
X63053160Y-35913991D01*
X63063548Y-35894555D01*
X63077524Y-35877524D01*
X63094555Y-35863548D01*
X63113991Y-35853160D01*
X63135072Y-35846764D01*
X63163140Y-35844000D01*
X64976860Y-35844000D01*
X65004928Y-35846764D01*
G37*
G36*
X76945142Y-34500242D02*
G01*
X77093101Y-34561529D01*
X77226255Y-34650499D01*
X77339501Y-34763745D01*
X77428471Y-34896899D01*
X77489758Y-35044858D01*
X77521000Y-35201925D01*
X77521000Y-35362075D01*
X77489758Y-35519142D01*
X77428471Y-35667101D01*
X77339501Y-35800255D01*
X77226255Y-35913501D01*
X77093101Y-36002471D01*
X76945142Y-36063758D01*
X76788075Y-36095000D01*
X76627925Y-36095000D01*
X76470858Y-36063758D01*
X76322899Y-36002471D01*
X76189745Y-35913501D01*
X76076499Y-35800255D01*
X75987529Y-35667101D01*
X75926242Y-35519142D01*
X75895000Y-35362075D01*
X75895000Y-35201925D01*
X75926242Y-35044858D01*
X75987529Y-34896899D01*
X76076499Y-34763745D01*
X76189745Y-34650499D01*
X76322899Y-34561529D01*
X76470858Y-34500242D01*
X76627925Y-34469000D01*
X76788075Y-34469000D01*
X76945142Y-34500242D01*
G37*
G36*
X79485142Y-34500242D02*
G01*
X79633101Y-34561529D01*
X79766255Y-34650499D01*
X79879501Y-34763745D01*
X79968471Y-34896899D01*
X80029758Y-35044858D01*
X80061000Y-35201925D01*
X80061000Y-35362075D01*
X80029758Y-35519142D01*
X79968471Y-35667101D01*
X79879501Y-35800255D01*
X79766255Y-35913501D01*
X79633101Y-36002471D01*
X79485142Y-36063758D01*
X79328075Y-36095000D01*
X79167925Y-36095000D01*
X79010858Y-36063758D01*
X78862899Y-36002471D01*
X78729745Y-35913501D01*
X78616499Y-35800255D01*
X78527529Y-35667101D01*
X78466242Y-35519142D01*
X78435000Y-35362075D01*
X78435000Y-35201925D01*
X78466242Y-35044858D01*
X78527529Y-34896899D01*
X78616499Y-34763745D01*
X78729745Y-34650499D01*
X78862899Y-34561529D01*
X79010858Y-34500242D01*
X79167925Y-34469000D01*
X79328075Y-34469000D01*
X79485142Y-34500242D01*
G37*
G36*
X82025142Y-34500242D02*
G01*
X82173101Y-34561529D01*
X82306255Y-34650499D01*
X82419501Y-34763745D01*
X82508471Y-34896899D01*
X82569758Y-35044858D01*
X82601000Y-35201925D01*
X82601000Y-35362075D01*
X82569758Y-35519142D01*
X82508471Y-35667101D01*
X82419501Y-35800255D01*
X82306255Y-35913501D01*
X82173101Y-36002471D01*
X82025142Y-36063758D01*
X81868075Y-36095000D01*
X81707925Y-36095000D01*
X81550858Y-36063758D01*
X81402899Y-36002471D01*
X81269745Y-35913501D01*
X81156499Y-35800255D01*
X81067529Y-35667101D01*
X81006242Y-35519142D01*
X80975000Y-35362075D01*
X80975000Y-35201925D01*
X81006242Y-35044858D01*
X81067529Y-34896899D01*
X81156499Y-34763745D01*
X81269745Y-34650499D01*
X81402899Y-34561529D01*
X81550858Y-34500242D01*
X81707925Y-34469000D01*
X81868075Y-34469000D01*
X82025142Y-34500242D01*
G37*
G36*
X60054928Y-34576764D02*
G01*
X60076009Y-34583160D01*
X60095445Y-34593548D01*
X60112476Y-34607524D01*
X60126452Y-34624555D01*
X60136840Y-34643991D01*
X60143236Y-34665072D01*
X60146000Y-34693140D01*
X60146000Y-35156860D01*
X60143236Y-35184928D01*
X60136840Y-35206009D01*
X60126452Y-35225445D01*
X60112476Y-35242476D01*
X60095445Y-35256452D01*
X60076009Y-35266840D01*
X60054928Y-35273236D01*
X60026860Y-35276000D01*
X58213140Y-35276000D01*
X58185072Y-35273236D01*
X58163991Y-35266840D01*
X58144555Y-35256452D01*
X58127524Y-35242476D01*
X58113548Y-35225445D01*
X58103160Y-35206009D01*
X58096764Y-35184928D01*
X58094000Y-35156860D01*
X58094000Y-34693140D01*
X58096764Y-34665072D01*
X58103160Y-34643991D01*
X58113548Y-34624555D01*
X58127524Y-34607524D01*
X58144555Y-34593548D01*
X58163991Y-34583160D01*
X58185072Y-34576764D01*
X58213140Y-34574000D01*
X60026860Y-34574000D01*
X60054928Y-34576764D01*
G37*
G36*
X65004928Y-34576764D02*
G01*
X65026009Y-34583160D01*
X65045445Y-34593548D01*
X65062476Y-34607524D01*
X65076452Y-34624555D01*
X65086840Y-34643991D01*
X65093236Y-34665072D01*
X65096000Y-34693140D01*
X65096000Y-35156860D01*
X65093236Y-35184928D01*
X65086840Y-35206009D01*
X65076452Y-35225445D01*
X65062476Y-35242476D01*
X65045445Y-35256452D01*
X65026009Y-35266840D01*
X65004928Y-35273236D01*
X64976860Y-35276000D01*
X63163140Y-35276000D01*
X63135072Y-35273236D01*
X63113991Y-35266840D01*
X63094555Y-35256452D01*
X63077524Y-35242476D01*
X63063548Y-35225445D01*
X63053160Y-35206009D01*
X63046764Y-35184928D01*
X63044000Y-35156860D01*
X63044000Y-34693140D01*
X63046764Y-34665072D01*
X63053160Y-34643991D01*
X63063548Y-34624555D01*
X63077524Y-34607524D01*
X63094555Y-34593548D01*
X63113991Y-34583160D01*
X63135072Y-34576764D01*
X63163140Y-34574000D01*
X64976860Y-34574000D01*
X65004928Y-34576764D01*
G37*
G36*
X55405721Y-33760174D02*
G01*
X55505995Y-33801709D01*
X55505996Y-33801710D01*
X55596242Y-33862010D01*
X55672990Y-33938758D01*
X55672991Y-33938760D01*
X55733291Y-34029005D01*
X55774826Y-34129279D01*
X55796000Y-34235730D01*
X55796000Y-34344270D01*
X55774826Y-34450721D01*
X55733291Y-34550995D01*
X55733290Y-34550996D01*
X55672990Y-34641242D01*
X55596242Y-34717990D01*
X55550812Y-34748345D01*
X55505995Y-34778291D01*
X55405721Y-34819826D01*
X55299270Y-34841000D01*
X55190730Y-34841000D01*
X55084279Y-34819826D01*
X54984005Y-34778291D01*
X54939188Y-34748345D01*
X54893758Y-34717990D01*
X54817010Y-34641242D01*
X54756710Y-34550996D01*
X54756709Y-34550995D01*
X54715174Y-34450721D01*
X54694000Y-34344270D01*
X54694000Y-34235730D01*
X54715174Y-34129279D01*
X54756709Y-34029005D01*
X54817009Y-33938760D01*
X54817010Y-33938758D01*
X54893758Y-33862010D01*
X54984004Y-33801710D01*
X54984005Y-33801709D01*
X55084279Y-33760174D01*
X55190730Y-33739000D01*
X55299270Y-33739000D01*
X55405721Y-33760174D01*
G37*
G36*
X37829499Y-33450445D02*
G01*
X37866995Y-33461820D01*
X37901554Y-33480292D01*
X37931847Y-33505153D01*
X37956708Y-33535446D01*
X37975180Y-33570005D01*
X37986555Y-33607501D01*
X37991000Y-33652638D01*
X37991000Y-34391362D01*
X37986555Y-34436499D01*
X37975180Y-34473995D01*
X37956708Y-34508554D01*
X37931847Y-34538847D01*
X37901554Y-34563708D01*
X37866995Y-34582180D01*
X37829499Y-34593555D01*
X37784362Y-34598000D01*
X37145638Y-34598000D01*
X37100501Y-34593555D01*
X37063005Y-34582180D01*
X37028446Y-34563708D01*
X36998153Y-34538847D01*
X36973292Y-34508554D01*
X36954820Y-34473995D01*
X36943445Y-34436499D01*
X36939000Y-34391362D01*
X36939000Y-33652638D01*
X36943445Y-33607501D01*
X36954820Y-33570005D01*
X36973292Y-33535446D01*
X36998153Y-33505153D01*
X37028446Y-33480292D01*
X37063005Y-33461820D01*
X37100501Y-33450445D01*
X37145638Y-33446000D01*
X37784362Y-33446000D01*
X37829499Y-33450445D01*
G37*
G36*
X37829499Y-31700445D02*
G01*
X37866995Y-31711820D01*
X37901554Y-31730292D01*
X37931847Y-31755153D01*
X37956708Y-31785446D01*
X37975180Y-31820005D01*
X37986555Y-31857501D01*
X37991000Y-31902638D01*
X37991000Y-32641362D01*
X37986555Y-32686499D01*
X37975180Y-32723995D01*
X37956708Y-32758554D01*
X37931847Y-32788847D01*
X37901554Y-32813708D01*
X37866995Y-32832180D01*
X37829499Y-32843555D01*
X37784362Y-32848000D01*
X37145638Y-32848000D01*
X37100501Y-32843555D01*
X37063005Y-32832180D01*
X37028446Y-32813708D01*
X36998153Y-32788847D01*
X36973292Y-32758554D01*
X36954820Y-32723995D01*
X36943445Y-32686499D01*
X36939000Y-32641362D01*
X36939000Y-31902638D01*
X36943445Y-31857501D01*
X36954820Y-31820005D01*
X36973292Y-31785446D01*
X36998153Y-31755153D01*
X37028446Y-31730292D01*
X37063005Y-31711820D01*
X37100501Y-31700445D01*
X37145638Y-31696000D01*
X37784362Y-31696000D01*
X37829499Y-31700445D01*
G37*
G36*
X18794487Y-29783996D02*
G01*
X19031253Y-29882068D01*
X19031255Y-29882069D01*
X19244339Y-30024447D01*
X19425553Y-30205661D01*
X19567932Y-30418747D01*
X19666004Y-30655513D01*
X19716000Y-30906861D01*
X19716000Y-31163139D01*
X19666004Y-31414487D01*
X19587877Y-31603101D01*
X19567931Y-31651255D01*
X19425553Y-31864339D01*
X19244339Y-32045553D01*
X19031255Y-32187931D01*
X19031254Y-32187932D01*
X19031253Y-32187932D01*
X18794487Y-32286004D01*
X18543139Y-32336000D01*
X18286861Y-32336000D01*
X18035513Y-32286004D01*
X17798747Y-32187932D01*
X17798746Y-32187932D01*
X17798745Y-32187931D01*
X17585661Y-32045553D01*
X17404447Y-31864339D01*
X17262069Y-31651255D01*
X17242123Y-31603101D01*
X17163996Y-31414487D01*
X17114000Y-31163139D01*
X17114000Y-30906861D01*
X17163996Y-30655513D01*
X17262068Y-30418747D01*
X17404447Y-30205661D01*
X17585661Y-30024447D01*
X17798745Y-29882069D01*
X17798747Y-29882068D01*
X18035513Y-29783996D01*
X18286861Y-29734000D01*
X18543139Y-29734000D01*
X18794487Y-29783996D01*
G37*
G36*
X30463142Y-30436242D02*
G01*
X30611101Y-30497529D01*
X30744255Y-30586499D01*
X30857501Y-30699745D01*
X30946471Y-30832899D01*
X31007758Y-30980858D01*
X31039000Y-31137925D01*
X31039000Y-31298075D01*
X31007758Y-31455142D01*
X30946471Y-31603101D01*
X30857501Y-31736255D01*
X30744255Y-31849501D01*
X30611101Y-31938471D01*
X30463142Y-31999758D01*
X30306075Y-32031000D01*
X30145925Y-32031000D01*
X29988858Y-31999758D01*
X29840899Y-31938471D01*
X29707745Y-31849501D01*
X29594499Y-31736255D01*
X29505529Y-31603101D01*
X29444242Y-31455142D01*
X29413000Y-31298075D01*
X29413000Y-31137925D01*
X29444242Y-30980858D01*
X29505529Y-30832899D01*
X29594499Y-30699745D01*
X29707745Y-30586499D01*
X29840899Y-30497529D01*
X29988858Y-30436242D01*
X30145925Y-30405000D01*
X30306075Y-30405000D01*
X30463142Y-30436242D01*
G37*
G36*
X33003142Y-30436242D02*
G01*
X33151101Y-30497529D01*
X33284255Y-30586499D01*
X33397501Y-30699745D01*
X33486471Y-30832899D01*
X33547758Y-30980858D01*
X33579000Y-31137925D01*
X33579000Y-31298075D01*
X33547758Y-31455142D01*
X33486471Y-31603101D01*
X33397501Y-31736255D01*
X33284255Y-31849501D01*
X33151101Y-31938471D01*
X33003142Y-31999758D01*
X32846075Y-32031000D01*
X32685925Y-32031000D01*
X32528858Y-31999758D01*
X32380899Y-31938471D01*
X32247745Y-31849501D01*
X32134499Y-31736255D01*
X32045529Y-31603101D01*
X31984242Y-31455142D01*
X31953000Y-31298075D01*
X31953000Y-31137925D01*
X31984242Y-30980858D01*
X32045529Y-30832899D01*
X32134499Y-30699745D01*
X32247745Y-30586499D01*
X32380899Y-30497529D01*
X32528858Y-30436242D01*
X32685925Y-30405000D01*
X32846075Y-30405000D01*
X33003142Y-30436242D01*
G37*
G36*
X27923142Y-30436242D02*
G01*
X28071101Y-30497529D01*
X28204255Y-30586499D01*
X28317501Y-30699745D01*
X28406471Y-30832899D01*
X28467758Y-30980858D01*
X28499000Y-31137925D01*
X28499000Y-31298075D01*
X28467758Y-31455142D01*
X28406471Y-31603101D01*
X28317501Y-31736255D01*
X28204255Y-31849501D01*
X28071101Y-31938471D01*
X27923142Y-31999758D01*
X27766075Y-32031000D01*
X27605925Y-32031000D01*
X27448858Y-31999758D01*
X27300899Y-31938471D01*
X27167745Y-31849501D01*
X27054499Y-31736255D01*
X26965529Y-31603101D01*
X26904242Y-31455142D01*
X26873000Y-31298075D01*
X26873000Y-31137925D01*
X26904242Y-30980858D01*
X26965529Y-30832899D01*
X27054499Y-30699745D01*
X27167745Y-30586499D01*
X27300899Y-30497529D01*
X27448858Y-30436242D01*
X27605925Y-30405000D01*
X27766075Y-30405000D01*
X27923142Y-30436242D01*
G37*
G36*
X81675562Y-27018181D02*
G01*
X81710481Y-27028774D01*
X81742663Y-27045976D01*
X81770873Y-27069127D01*
X81794024Y-27097337D01*
X81811226Y-27129519D01*
X81821819Y-27164438D01*
X81826000Y-27206895D01*
X81826000Y-28673105D01*
X81821819Y-28715562D01*
X81811226Y-28750481D01*
X81794024Y-28782663D01*
X81770873Y-28810873D01*
X81742663Y-28834024D01*
X81710481Y-28851226D01*
X81675562Y-28861819D01*
X81633105Y-28866000D01*
X80491895Y-28866000D01*
X80449438Y-28861819D01*
X80414519Y-28851226D01*
X80382337Y-28834024D01*
X80354127Y-28810873D01*
X80330976Y-28782663D01*
X80313774Y-28750481D01*
X80303181Y-28715562D01*
X80299000Y-28673105D01*
X80299000Y-27206895D01*
X80303181Y-27164438D01*
X80313774Y-27129519D01*
X80330976Y-27097337D01*
X80354127Y-27069127D01*
X80382337Y-27045976D01*
X80414519Y-27028774D01*
X80449438Y-27018181D01*
X80491895Y-27014000D01*
X81633105Y-27014000D01*
X81675562Y-27018181D01*
G37*
G36*
X84650562Y-27018181D02*
G01*
X84685481Y-27028774D01*
X84717663Y-27045976D01*
X84745873Y-27069127D01*
X84769024Y-27097337D01*
X84786226Y-27129519D01*
X84796819Y-27164438D01*
X84801000Y-27206895D01*
X84801000Y-28673105D01*
X84796819Y-28715562D01*
X84786226Y-28750481D01*
X84769024Y-28782663D01*
X84745873Y-28810873D01*
X84717663Y-28834024D01*
X84685481Y-28851226D01*
X84650562Y-28861819D01*
X84608105Y-28866000D01*
X83466895Y-28866000D01*
X83424438Y-28861819D01*
X83389519Y-28851226D01*
X83357337Y-28834024D01*
X83329127Y-28810873D01*
X83305976Y-28782663D01*
X83288774Y-28750481D01*
X83278181Y-28715562D01*
X83274000Y-28673105D01*
X83274000Y-27206895D01*
X83278181Y-27164438D01*
X83288774Y-27129519D01*
X83305976Y-27097337D01*
X83329127Y-27069127D01*
X83357337Y-27045976D01*
X83389519Y-27028774D01*
X83424438Y-27018181D01*
X83466895Y-27014000D01*
X84608105Y-27014000D01*
X84650562Y-27018181D01*
G37*
G36*
X30601228Y-26486703D02*
G01*
X30756100Y-26550853D01*
X30895481Y-26643985D01*
X31014015Y-26762519D01*
X31107147Y-26901900D01*
X31171297Y-27056772D01*
X31204000Y-27221184D01*
X31204000Y-27388816D01*
X31171297Y-27553228D01*
X31107147Y-27708100D01*
X31014015Y-27847481D01*
X30895481Y-27966015D01*
X30756100Y-28059147D01*
X30601228Y-28123297D01*
X30436816Y-28156000D01*
X30269184Y-28156000D01*
X30104772Y-28123297D01*
X29949900Y-28059147D01*
X29810519Y-27966015D01*
X29691985Y-27847481D01*
X29598853Y-27708100D01*
X29534703Y-27553228D01*
X29502000Y-27388816D01*
X29502000Y-27221184D01*
X29534703Y-27056772D01*
X29598853Y-26901900D01*
X29691985Y-26762519D01*
X29810519Y-26643985D01*
X29949900Y-26550853D01*
X30104772Y-26486703D01*
X30269184Y-26454000D01*
X30436816Y-26454000D01*
X30601228Y-26486703D01*
G37*
G36*
X38221228Y-26486703D02*
G01*
X38376100Y-26550853D01*
X38515481Y-26643985D01*
X38634015Y-26762519D01*
X38727147Y-26901900D01*
X38791297Y-27056772D01*
X38824000Y-27221184D01*
X38824000Y-27388816D01*
X38791297Y-27553228D01*
X38727147Y-27708100D01*
X38634015Y-27847481D01*
X38515481Y-27966015D01*
X38376100Y-28059147D01*
X38221228Y-28123297D01*
X38056816Y-28156000D01*
X37889184Y-28156000D01*
X37724772Y-28123297D01*
X37569900Y-28059147D01*
X37430519Y-27966015D01*
X37311985Y-27847481D01*
X37218853Y-27708100D01*
X37154703Y-27553228D01*
X37122000Y-27388816D01*
X37122000Y-27221184D01*
X37154703Y-27056772D01*
X37218853Y-26901900D01*
X37311985Y-26762519D01*
X37430519Y-26643985D01*
X37569900Y-26550853D01*
X37724772Y-26486703D01*
X37889184Y-26454000D01*
X38056816Y-26454000D01*
X38221228Y-26486703D01*
G37*
G36*
X19716000Y-27336000D02*
G01*
X17114000Y-27336000D01*
X17114000Y-24734000D01*
X19716000Y-24734000D01*
X19716000Y-27336000D01*
G37*
G36*
X69546536Y-22372800D02*
G01*
X69577738Y-22382265D01*
X69606486Y-22397631D01*
X69631687Y-22418313D01*
X69652369Y-22443514D01*
X69667735Y-22472262D01*
X69677200Y-22503464D01*
X69681000Y-22542046D01*
X69681000Y-26897954D01*
X69677200Y-26936536D01*
X69667735Y-26967738D01*
X69652369Y-26996486D01*
X69631687Y-27021687D01*
X69606486Y-27042369D01*
X69577738Y-27057735D01*
X69546536Y-27067200D01*
X69507954Y-27071000D01*
X67652046Y-27071000D01*
X67613464Y-27067200D01*
X67582262Y-27057735D01*
X67553514Y-27042369D01*
X67528313Y-27021687D01*
X67507631Y-26996486D01*
X67492265Y-26967738D01*
X67482800Y-26936536D01*
X67479000Y-26897954D01*
X67479000Y-22542046D01*
X67482800Y-22503464D01*
X67492265Y-22472262D01*
X67507631Y-22443514D01*
X67528313Y-22418313D01*
X67553514Y-22397631D01*
X67582262Y-22382265D01*
X67613464Y-22372800D01*
X67652046Y-22369000D01*
X69507954Y-22369000D01*
X69546536Y-22372800D01*
G37*
G36*
X38221228Y-23946703D02*
G01*
X38376100Y-24010853D01*
X38515481Y-24103985D01*
X38634015Y-24222519D01*
X38727147Y-24361900D01*
X38791297Y-24516772D01*
X38824000Y-24681184D01*
X38824000Y-24848816D01*
X38791297Y-25013228D01*
X38727147Y-25168100D01*
X38634015Y-25307481D01*
X38515481Y-25426015D01*
X38376100Y-25519147D01*
X38221228Y-25583297D01*
X38056816Y-25616000D01*
X37889184Y-25616000D01*
X37724772Y-25583297D01*
X37569900Y-25519147D01*
X37430519Y-25426015D01*
X37311985Y-25307481D01*
X37218853Y-25168100D01*
X37154703Y-25013228D01*
X37122000Y-24848816D01*
X37122000Y-24681184D01*
X37154703Y-24516772D01*
X37218853Y-24361900D01*
X37311985Y-24222519D01*
X37430519Y-24103985D01*
X37569900Y-24010853D01*
X37724772Y-23946703D01*
X37889184Y-23914000D01*
X38056816Y-23914000D01*
X38221228Y-23946703D01*
G37*
G36*
X31204000Y-25616000D02*
G01*
X29502000Y-25616000D01*
X29502000Y-23914000D01*
X31204000Y-23914000D01*
X31204000Y-25616000D01*
G37*
G36*
X93230778Y-23758547D02*
G01*
X93397224Y-23827491D01*
X93547022Y-23927583D01*
X93674417Y-24054978D01*
X93774509Y-24204776D01*
X93843453Y-24371222D01*
X93878600Y-24547918D01*
X93878600Y-24728082D01*
X93843453Y-24904778D01*
X93774509Y-25071224D01*
X93674417Y-25221022D01*
X93547022Y-25348417D01*
X93397224Y-25448509D01*
X93230778Y-25517453D01*
X93054082Y-25552600D01*
X92873918Y-25552600D01*
X92697222Y-25517453D01*
X92530776Y-25448509D01*
X92380978Y-25348417D01*
X92253583Y-25221022D01*
X92153491Y-25071224D01*
X92084547Y-24904778D01*
X92049400Y-24728082D01*
X92049400Y-24547918D01*
X92084547Y-24371222D01*
X92153491Y-24204776D01*
X92253583Y-24054978D01*
X92380978Y-23927583D01*
X92530776Y-23827491D01*
X92697222Y-23758547D01*
X92873918Y-23723400D01*
X93054082Y-23723400D01*
X93230778Y-23758547D01*
G37*
G36*
X96418600Y-25552600D02*
G01*
X94589400Y-25552600D01*
X94589400Y-23723400D01*
X96418600Y-23723400D01*
X96418600Y-25552600D01*
G37*
G36*
X59195562Y-23588181D02*
G01*
X59230481Y-23598774D01*
X59262663Y-23615976D01*
X59290873Y-23639127D01*
X59314024Y-23667337D01*
X59331226Y-23699519D01*
X59341819Y-23734438D01*
X59346000Y-23776895D01*
X59346000Y-24918105D01*
X59341819Y-24960562D01*
X59331226Y-24995481D01*
X59314024Y-25027663D01*
X59290873Y-25055873D01*
X59262663Y-25079024D01*
X59230481Y-25096226D01*
X59195562Y-25106819D01*
X59153105Y-25111000D01*
X57686895Y-25111000D01*
X57644438Y-25106819D01*
X57609519Y-25096226D01*
X57577337Y-25079024D01*
X57549127Y-25055873D01*
X57525976Y-25027663D01*
X57508774Y-24995481D01*
X57498181Y-24960562D01*
X57494000Y-24918105D01*
X57494000Y-23776895D01*
X57498181Y-23734438D01*
X57508774Y-23699519D01*
X57525976Y-23667337D01*
X57549127Y-23639127D01*
X57577337Y-23615976D01*
X57609519Y-23598774D01*
X57644438Y-23588181D01*
X57686895Y-23584000D01*
X59153105Y-23584000D01*
X59195562Y-23588181D01*
G37*
G36*
X54115562Y-23588181D02*
G01*
X54150481Y-23598774D01*
X54182663Y-23615976D01*
X54210873Y-23639127D01*
X54234024Y-23667337D01*
X54251226Y-23699519D01*
X54261819Y-23734438D01*
X54266000Y-23776895D01*
X54266000Y-24918105D01*
X54261819Y-24960562D01*
X54251226Y-24995481D01*
X54234024Y-25027663D01*
X54210873Y-25055873D01*
X54182663Y-25079024D01*
X54150481Y-25096226D01*
X54115562Y-25106819D01*
X54073105Y-25111000D01*
X52606895Y-25111000D01*
X52564438Y-25106819D01*
X52529519Y-25096226D01*
X52497337Y-25079024D01*
X52469127Y-25055873D01*
X52445976Y-25027663D01*
X52428774Y-24995481D01*
X52418181Y-24960562D01*
X52414000Y-24918105D01*
X52414000Y-23776895D01*
X52418181Y-23734438D01*
X52428774Y-23699519D01*
X52445976Y-23667337D01*
X52469127Y-23639127D01*
X52497337Y-23615976D01*
X52529519Y-23598774D01*
X52564438Y-23588181D01*
X52606895Y-23584000D01*
X54073105Y-23584000D01*
X54115562Y-23588181D01*
G37*
G36*
X84501000Y-24521000D02*
G01*
X80599000Y-24521000D01*
X80599000Y-22419000D01*
X84501000Y-22419000D01*
X84501000Y-24521000D01*
G37*
G36*
X95770778Y-21218547D02*
G01*
X95937224Y-21287491D01*
X96087022Y-21387583D01*
X96214417Y-21514978D01*
X96314509Y-21664776D01*
X96383453Y-21831222D01*
X96418600Y-22007918D01*
X96418600Y-22188082D01*
X96383453Y-22364778D01*
X96314509Y-22531224D01*
X96214417Y-22681022D01*
X96087022Y-22808417D01*
X95937224Y-22908509D01*
X95770778Y-22977453D01*
X95594082Y-23012600D01*
X95413918Y-23012600D01*
X95237222Y-22977453D01*
X95070776Y-22908509D01*
X94920978Y-22808417D01*
X94793583Y-22681022D01*
X94693491Y-22531224D01*
X94624547Y-22364778D01*
X94589400Y-22188082D01*
X94589400Y-22007918D01*
X94624547Y-21831222D01*
X94693491Y-21664776D01*
X94793583Y-21514978D01*
X94920978Y-21387583D01*
X95070776Y-21287491D01*
X95237222Y-21218547D01*
X95413918Y-21183400D01*
X95594082Y-21183400D01*
X95770778Y-21218547D01*
G37*
G36*
X93230778Y-21218547D02*
G01*
X93397224Y-21287491D01*
X93547022Y-21387583D01*
X93674417Y-21514978D01*
X93774509Y-21664776D01*
X93843453Y-21831222D01*
X93878600Y-22007918D01*
X93878600Y-22188082D01*
X93843453Y-22364778D01*
X93774509Y-22531224D01*
X93674417Y-22681022D01*
X93547022Y-22808417D01*
X93397224Y-22908509D01*
X93230778Y-22977453D01*
X93054082Y-23012600D01*
X92873918Y-23012600D01*
X92697222Y-22977453D01*
X92530776Y-22908509D01*
X92380978Y-22808417D01*
X92253583Y-22681022D01*
X92153491Y-22531224D01*
X92084547Y-22364778D01*
X92049400Y-22188082D01*
X92049400Y-22007918D01*
X92084547Y-21831222D01*
X92153491Y-21664776D01*
X92253583Y-21514978D01*
X92380978Y-21387583D01*
X92530776Y-21287491D01*
X92697222Y-21218547D01*
X92873918Y-21183400D01*
X93054082Y-21183400D01*
X93230778Y-21218547D01*
G37*
G36*
X59195562Y-20613181D02*
G01*
X59230481Y-20623774D01*
X59262663Y-20640976D01*
X59290873Y-20664127D01*
X59314024Y-20692337D01*
X59331226Y-20724519D01*
X59341819Y-20759438D01*
X59346000Y-20801895D01*
X59346000Y-21943105D01*
X59341819Y-21985562D01*
X59331226Y-22020481D01*
X59314024Y-22052663D01*
X59290873Y-22080873D01*
X59262663Y-22104024D01*
X59230481Y-22121226D01*
X59195562Y-22131819D01*
X59153105Y-22136000D01*
X57686895Y-22136000D01*
X57644438Y-22131819D01*
X57609519Y-22121226D01*
X57577337Y-22104024D01*
X57549127Y-22080873D01*
X57525976Y-22052663D01*
X57508774Y-22020481D01*
X57498181Y-21985562D01*
X57494000Y-21943105D01*
X57494000Y-20801895D01*
X57498181Y-20759438D01*
X57508774Y-20724519D01*
X57525976Y-20692337D01*
X57549127Y-20664127D01*
X57577337Y-20640976D01*
X57609519Y-20623774D01*
X57644438Y-20613181D01*
X57686895Y-20609000D01*
X59153105Y-20609000D01*
X59195562Y-20613181D01*
G37*
G36*
X54115562Y-20613181D02*
G01*
X54150481Y-20623774D01*
X54182663Y-20640976D01*
X54210873Y-20664127D01*
X54234024Y-20692337D01*
X54251226Y-20724519D01*
X54261819Y-20759438D01*
X54266000Y-20801895D01*
X54266000Y-21943105D01*
X54261819Y-21985562D01*
X54251226Y-22020481D01*
X54234024Y-22052663D01*
X54210873Y-22080873D01*
X54182663Y-22104024D01*
X54150481Y-22121226D01*
X54115562Y-22131819D01*
X54073105Y-22136000D01*
X52606895Y-22136000D01*
X52564438Y-22131819D01*
X52529519Y-22121226D01*
X52497337Y-22104024D01*
X52469127Y-22080873D01*
X52445976Y-22052663D01*
X52428774Y-22020481D01*
X52418181Y-21985562D01*
X52414000Y-21943105D01*
X52414000Y-20801895D01*
X52418181Y-20759438D01*
X52428774Y-20724519D01*
X52445976Y-20692337D01*
X52469127Y-20664127D01*
X52497337Y-20640976D01*
X52529519Y-20623774D01*
X52564438Y-20613181D01*
X52606895Y-20609000D01*
X54073105Y-20609000D01*
X54115562Y-20613181D01*
G37*
G36*
X87994499Y-20623445D02*
G01*
X88031995Y-20634820D01*
X88066554Y-20653292D01*
X88096847Y-20678153D01*
X88121708Y-20708446D01*
X88140180Y-20743005D01*
X88151555Y-20780501D01*
X88156000Y-20825638D01*
X88156000Y-21564362D01*
X88151555Y-21609499D01*
X88140180Y-21646995D01*
X88121708Y-21681554D01*
X88096847Y-21711847D01*
X88066554Y-21736708D01*
X88031995Y-21755180D01*
X87994499Y-21766555D01*
X87949362Y-21771000D01*
X87310638Y-21771000D01*
X87265501Y-21766555D01*
X87228005Y-21755180D01*
X87193446Y-21736708D01*
X87163153Y-21711847D01*
X87138292Y-21681554D01*
X87119820Y-21646995D01*
X87108445Y-21609499D01*
X87104000Y-21564362D01*
X87104000Y-20825638D01*
X87108445Y-20780501D01*
X87119820Y-20743005D01*
X87138292Y-20708446D01*
X87163153Y-20678153D01*
X87193446Y-20653292D01*
X87228005Y-20634820D01*
X87265501Y-20623445D01*
X87310638Y-20619000D01*
X87949362Y-20619000D01*
X87994499Y-20623445D01*
G37*
G36*
X93230778Y-18678547D02*
G01*
X93397224Y-18747491D01*
X93547022Y-18847583D01*
X93674417Y-18974978D01*
X93774509Y-19124776D01*
X93843453Y-19291222D01*
X93878600Y-19467918D01*
X93878600Y-19648082D01*
X93843453Y-19824778D01*
X93774509Y-19991224D01*
X93674417Y-20141022D01*
X93547022Y-20268417D01*
X93397224Y-20368509D01*
X93230778Y-20437453D01*
X93054082Y-20472600D01*
X92873918Y-20472600D01*
X92697222Y-20437453D01*
X92530776Y-20368509D01*
X92380978Y-20268417D01*
X92253583Y-20141022D01*
X92153491Y-19991224D01*
X92084547Y-19824778D01*
X92049400Y-19648082D01*
X92049400Y-19467918D01*
X92084547Y-19291222D01*
X92153491Y-19124776D01*
X92253583Y-18974978D01*
X92380978Y-18847583D01*
X92530776Y-18747491D01*
X92697222Y-18678547D01*
X92873918Y-18643400D01*
X93054082Y-18643400D01*
X93230778Y-18678547D01*
G37*
G36*
X95770778Y-18678547D02*
G01*
X95937224Y-18747491D01*
X96087022Y-18847583D01*
X96214417Y-18974978D01*
X96314509Y-19124776D01*
X96383453Y-19291222D01*
X96418600Y-19467918D01*
X96418600Y-19648082D01*
X96383453Y-19824778D01*
X96314509Y-19991224D01*
X96214417Y-20141022D01*
X96087022Y-20268417D01*
X95937224Y-20368509D01*
X95770778Y-20437453D01*
X95594082Y-20472600D01*
X95413918Y-20472600D01*
X95237222Y-20437453D01*
X95070776Y-20368509D01*
X94920978Y-20268417D01*
X94793583Y-20141022D01*
X94693491Y-19991224D01*
X94624547Y-19824778D01*
X94589400Y-19648082D01*
X94589400Y-19467918D01*
X94624547Y-19291222D01*
X94693491Y-19124776D01*
X94793583Y-18974978D01*
X94920978Y-18847583D01*
X95070776Y-18747491D01*
X95237222Y-18678547D01*
X95413918Y-18643400D01*
X95594082Y-18643400D01*
X95770778Y-18678547D01*
G37*
G36*
X87994499Y-18873445D02*
G01*
X88031995Y-18884820D01*
X88066554Y-18903292D01*
X88096847Y-18928153D01*
X88121708Y-18958446D01*
X88140180Y-18993005D01*
X88151555Y-19030501D01*
X88156000Y-19075638D01*
X88156000Y-19814362D01*
X88151555Y-19859499D01*
X88140180Y-19896995D01*
X88121708Y-19931554D01*
X88096847Y-19961847D01*
X88066554Y-19986708D01*
X88031995Y-20005180D01*
X87994499Y-20016555D01*
X87949362Y-20021000D01*
X87310638Y-20021000D01*
X87265501Y-20016555D01*
X87228005Y-20005180D01*
X87193446Y-19986708D01*
X87163153Y-19961847D01*
X87138292Y-19931554D01*
X87119820Y-19896995D01*
X87108445Y-19859499D01*
X87104000Y-19814362D01*
X87104000Y-19075638D01*
X87108445Y-19030501D01*
X87119820Y-18993005D01*
X87138292Y-18958446D01*
X87163153Y-18928153D01*
X87193446Y-18903292D01*
X87228005Y-18884820D01*
X87265501Y-18873445D01*
X87310638Y-18869000D01*
X87949362Y-18869000D01*
X87994499Y-18873445D01*
G37*
G36*
X40819564Y-17277389D02*
G01*
X41010833Y-17356615D01*
X41010835Y-17356616D01*
X41182973Y-17471635D01*
X41329365Y-17618027D01*
X41436582Y-17778488D01*
X41444385Y-17790167D01*
X41523611Y-17981436D01*
X41564000Y-18184484D01*
X41564000Y-18391516D01*
X41523611Y-18594564D01*
X41460266Y-18747492D01*
X41444384Y-18785835D01*
X41329365Y-18957973D01*
X41182973Y-19104365D01*
X41010835Y-19219384D01*
X41010834Y-19219385D01*
X41010833Y-19219385D01*
X40819564Y-19298611D01*
X40616516Y-19339000D01*
X40409484Y-19339000D01*
X40206436Y-19298611D01*
X40015167Y-19219385D01*
X40015166Y-19219385D01*
X40015165Y-19219384D01*
X39843027Y-19104365D01*
X39696635Y-18957973D01*
X39581616Y-18785835D01*
X39565734Y-18747492D01*
X39502389Y-18594564D01*
X39462000Y-18391516D01*
X39462000Y-18184484D01*
X39502389Y-17981436D01*
X39581615Y-17790167D01*
X39589419Y-17778488D01*
X39696635Y-17618027D01*
X39843027Y-17471635D01*
X40015165Y-17356616D01*
X40015167Y-17356615D01*
X40206436Y-17277389D01*
X40409484Y-17237000D01*
X40616516Y-17237000D01*
X40819564Y-17277389D01*
G37*
G36*
X45899564Y-17277389D02*
G01*
X46090833Y-17356615D01*
X46090835Y-17356616D01*
X46262973Y-17471635D01*
X46409365Y-17618027D01*
X46516582Y-17778488D01*
X46524385Y-17790167D01*
X46603611Y-17981436D01*
X46644000Y-18184484D01*
X46644000Y-18391516D01*
X46603611Y-18594564D01*
X46540266Y-18747492D01*
X46524384Y-18785835D01*
X46409365Y-18957973D01*
X46262973Y-19104365D01*
X46090835Y-19219384D01*
X46090834Y-19219385D01*
X46090833Y-19219385D01*
X45899564Y-19298611D01*
X45696516Y-19339000D01*
X45489484Y-19339000D01*
X45286436Y-19298611D01*
X45095167Y-19219385D01*
X45095166Y-19219385D01*
X45095165Y-19219384D01*
X44923027Y-19104365D01*
X44776635Y-18957973D01*
X44661616Y-18785835D01*
X44645734Y-18747492D01*
X44582389Y-18594564D01*
X44542000Y-18391516D01*
X44542000Y-18184484D01*
X44582389Y-17981436D01*
X44661615Y-17790167D01*
X44669419Y-17778488D01*
X44776635Y-17618027D01*
X44923027Y-17471635D01*
X45095165Y-17356616D01*
X45095167Y-17356615D01*
X45286436Y-17277389D01*
X45489484Y-17237000D01*
X45696516Y-17237000D01*
X45899564Y-17277389D01*
G37*
G36*
X29542487Y-16147996D02*
G01*
X29779253Y-16246068D01*
X29779255Y-16246069D01*
X29992339Y-16388447D01*
X30173553Y-16569661D01*
X30306216Y-16768205D01*
X30315932Y-16782747D01*
X30414004Y-17019513D01*
X30464000Y-17270861D01*
X30464000Y-17527139D01*
X30414004Y-17778487D01*
X30318581Y-18008857D01*
X30315931Y-18015255D01*
X30173553Y-18228339D01*
X29992339Y-18409553D01*
X29779255Y-18551931D01*
X29779254Y-18551932D01*
X29779253Y-18551932D01*
X29542487Y-18650004D01*
X29291139Y-18700000D01*
X29034861Y-18700000D01*
X28783513Y-18650004D01*
X28546747Y-18551932D01*
X28546746Y-18551932D01*
X28546745Y-18551931D01*
X28333661Y-18409553D01*
X28152447Y-18228339D01*
X28010069Y-18015255D01*
X28007419Y-18008857D01*
X27911996Y-17778487D01*
X27862000Y-17527139D01*
X27862000Y-17270861D01*
X27911996Y-17019513D01*
X28010068Y-16782747D01*
X28019785Y-16768205D01*
X28152447Y-16569661D01*
X28333661Y-16388447D01*
X28546745Y-16246069D01*
X28546747Y-16246068D01*
X28783513Y-16147996D01*
X29034861Y-16098000D01*
X29291139Y-16098000D01*
X29542487Y-16147996D01*
G37*
G36*
X35464000Y-18700000D02*
G01*
X32862000Y-18700000D01*
X32862000Y-16098000D01*
X35464000Y-16098000D01*
X35464000Y-18700000D01*
G37*
G36*
X24542487Y-16147996D02*
G01*
X24779253Y-16246068D01*
X24779255Y-16246069D01*
X24992339Y-16388447D01*
X25173553Y-16569661D01*
X25306216Y-16768205D01*
X25315932Y-16782747D01*
X25414004Y-17019513D01*
X25464000Y-17270861D01*
X25464000Y-17527139D01*
X25414004Y-17778487D01*
X25318581Y-18008857D01*
X25315931Y-18015255D01*
X25173553Y-18228339D01*
X24992339Y-18409553D01*
X24779255Y-18551931D01*
X24779254Y-18551932D01*
X24779253Y-18551932D01*
X24542487Y-18650004D01*
X24291139Y-18700000D01*
X24034861Y-18700000D01*
X23783513Y-18650004D01*
X23546747Y-18551932D01*
X23546746Y-18551932D01*
X23546745Y-18551931D01*
X23333661Y-18409553D01*
X23152447Y-18228339D01*
X23010069Y-18015255D01*
X23007419Y-18008857D01*
X22911996Y-17778487D01*
X22862000Y-17527139D01*
X22862000Y-17270861D01*
X22911996Y-17019513D01*
X23010068Y-16782747D01*
X23019785Y-16768205D01*
X23152447Y-16569661D01*
X23333661Y-16388447D01*
X23546745Y-16246069D01*
X23546747Y-16246068D01*
X23783513Y-16147996D01*
X24034861Y-16098000D01*
X24291139Y-16098000D01*
X24542487Y-16147996D01*
G37*
G36*
X69546536Y-13572800D02*
G01*
X69577738Y-13582265D01*
X69606486Y-13597631D01*
X69631687Y-13618313D01*
X69652369Y-13643514D01*
X69667735Y-13672262D01*
X69677200Y-13703464D01*
X69681000Y-13742046D01*
X69681000Y-18097954D01*
X69677200Y-18136536D01*
X69667735Y-18167738D01*
X69652369Y-18196486D01*
X69631687Y-18221687D01*
X69606486Y-18242369D01*
X69577738Y-18257735D01*
X69546536Y-18267200D01*
X69507954Y-18271000D01*
X67652046Y-18271000D01*
X67613464Y-18267200D01*
X67582262Y-18257735D01*
X67553514Y-18242369D01*
X67528313Y-18221687D01*
X67507631Y-18196486D01*
X67492265Y-18167738D01*
X67482800Y-18136536D01*
X67479000Y-18097954D01*
X67479000Y-13742046D01*
X67482800Y-13703464D01*
X67492265Y-13672262D01*
X67507631Y-13643514D01*
X67528313Y-13618313D01*
X67553514Y-13597631D01*
X67582262Y-13582265D01*
X67613464Y-13572800D01*
X67652046Y-13569000D01*
X69507954Y-13569000D01*
X69546536Y-13572800D01*
G37*
G36*
X81051000Y-18221000D02*
G01*
X79449000Y-18221000D01*
X79449000Y-16119000D01*
X81051000Y-16119000D01*
X81051000Y-18221000D01*
G37*
G36*
X85651000Y-18221000D02*
G01*
X84049000Y-18221000D01*
X84049000Y-16119000D01*
X85651000Y-16119000D01*
X85651000Y-18221000D01*
G37*
G36*
X83351000Y-18221000D02*
G01*
X81749000Y-18221000D01*
X81749000Y-16119000D01*
X83351000Y-16119000D01*
X83351000Y-18221000D01*
G37*
G36*
X58784499Y-16813445D02*
G01*
X58821995Y-16824820D01*
X58856554Y-16843292D01*
X58886847Y-16868153D01*
X58911708Y-16898446D01*
X58930180Y-16933005D01*
X58941555Y-16970501D01*
X58946000Y-17015638D01*
X58946000Y-17754362D01*
X58941555Y-17799499D01*
X58930180Y-17836995D01*
X58911708Y-17871554D01*
X58886847Y-17901847D01*
X58856554Y-17926708D01*
X58821995Y-17945180D01*
X58784499Y-17956555D01*
X58739362Y-17961000D01*
X58100638Y-17961000D01*
X58055501Y-17956555D01*
X58018005Y-17945180D01*
X57983446Y-17926708D01*
X57953153Y-17901847D01*
X57928292Y-17871554D01*
X57909820Y-17836995D01*
X57898445Y-17799499D01*
X57894000Y-17754362D01*
X57894000Y-17015638D01*
X57898445Y-16970501D01*
X57909820Y-16933005D01*
X57928292Y-16898446D01*
X57953153Y-16868153D01*
X57983446Y-16843292D01*
X58018005Y-16824820D01*
X58055501Y-16813445D01*
X58100638Y-16809000D01*
X58739362Y-16809000D01*
X58784499Y-16813445D01*
G37*
G36*
X53704499Y-16813445D02*
G01*
X53741995Y-16824820D01*
X53776554Y-16843292D01*
X53806847Y-16868153D01*
X53831708Y-16898446D01*
X53850180Y-16933005D01*
X53861555Y-16970501D01*
X53866000Y-17015638D01*
X53866000Y-17754362D01*
X53861555Y-17799499D01*
X53850180Y-17836995D01*
X53831708Y-17871554D01*
X53806847Y-17901847D01*
X53776554Y-17926708D01*
X53741995Y-17945180D01*
X53704499Y-17956555D01*
X53659362Y-17961000D01*
X53020638Y-17961000D01*
X52975501Y-17956555D01*
X52938005Y-17945180D01*
X52903446Y-17926708D01*
X52873153Y-17901847D01*
X52848292Y-17871554D01*
X52829820Y-17836995D01*
X52818445Y-17799499D01*
X52814000Y-17754362D01*
X52814000Y-17015638D01*
X52818445Y-16970501D01*
X52829820Y-16933005D01*
X52848292Y-16898446D01*
X52873153Y-16868153D01*
X52903446Y-16843292D01*
X52938005Y-16824820D01*
X52975501Y-16813445D01*
X53020638Y-16809000D01*
X53659362Y-16809000D01*
X53704499Y-16813445D01*
G37*
G36*
X16665693Y-12287859D02*
G01*
X16931437Y-12340719D01*
X17432087Y-12548095D01*
X17612561Y-12668684D01*
X17882660Y-12849158D01*
X18265842Y-13232340D01*
X18446316Y-13502439D01*
X18566905Y-13682913D01*
X18700363Y-14005109D01*
X18774281Y-14183564D01*
X18880000Y-14715049D01*
X18880000Y-15256951D01*
X18844186Y-15437000D01*
X18774281Y-15788437D01*
X18566905Y-16289087D01*
X18451160Y-16462311D01*
X18265842Y-16739660D01*
X17882660Y-17122842D01*
X17661133Y-17270861D01*
X17432087Y-17423905D01*
X16931437Y-17631281D01*
X16665693Y-17684141D01*
X16399951Y-17737000D01*
X15858049Y-17737000D01*
X15592307Y-17684141D01*
X15326563Y-17631281D01*
X14825913Y-17423905D01*
X14596867Y-17270861D01*
X14375340Y-17122842D01*
X13992158Y-16739660D01*
X13806840Y-16462311D01*
X13691095Y-16289087D01*
X13483719Y-15788437D01*
X13413814Y-15437000D01*
X13378000Y-15256951D01*
X13378000Y-14715049D01*
X13483719Y-14183564D01*
X13557637Y-14005109D01*
X13691095Y-13682913D01*
X13811684Y-13502439D01*
X13992158Y-13232340D01*
X14375340Y-12849158D01*
X14645439Y-12668684D01*
X14825913Y-12548095D01*
X15326563Y-12340719D01*
X15592307Y-12287859D01*
X15858049Y-12235000D01*
X16399951Y-12235000D01*
X16665693Y-12287859D01*
G37*
G36*
X105057693Y-12287859D02*
G01*
X105323437Y-12340719D01*
X105824087Y-12548095D01*
X106004561Y-12668684D01*
X106274660Y-12849158D01*
X106657842Y-13232340D01*
X106838316Y-13502439D01*
X106958905Y-13682913D01*
X107092363Y-14005109D01*
X107166281Y-14183564D01*
X107272000Y-14715049D01*
X107272000Y-15256951D01*
X107236186Y-15437000D01*
X107166281Y-15788437D01*
X106958905Y-16289087D01*
X106843160Y-16462311D01*
X106657842Y-16739660D01*
X106274660Y-17122842D01*
X106053133Y-17270861D01*
X105824087Y-17423905D01*
X105323437Y-17631281D01*
X105057694Y-17684140D01*
X104791951Y-17737000D01*
X104250049Y-17737000D01*
X103984307Y-17684141D01*
X103718563Y-17631281D01*
X103217913Y-17423905D01*
X102988867Y-17270861D01*
X102767340Y-17122842D01*
X102384158Y-16739660D01*
X102198840Y-16462311D01*
X102083095Y-16289087D01*
X101875719Y-15788437D01*
X101805814Y-15437000D01*
X101770000Y-15256951D01*
X101770000Y-14715049D01*
X101875719Y-14183564D01*
X101949637Y-14005109D01*
X102083095Y-13682913D01*
X102203684Y-13502439D01*
X102384158Y-13232340D01*
X102767340Y-12849158D01*
X103037439Y-12668684D01*
X103217913Y-12548095D01*
X103718563Y-12340719D01*
X103984307Y-12287859D01*
X104250049Y-12235000D01*
X104791951Y-12235000D01*
X105057693Y-12287859D01*
G37*
G36*
X53704499Y-15063445D02*
G01*
X53741995Y-15074820D01*
X53776554Y-15093292D01*
X53806847Y-15118153D01*
X53831708Y-15148446D01*
X53850180Y-15183005D01*
X53861555Y-15220501D01*
X53866000Y-15265638D01*
X53866000Y-16004362D01*
X53861555Y-16049499D01*
X53850180Y-16086995D01*
X53831708Y-16121554D01*
X53806847Y-16151847D01*
X53776554Y-16176708D01*
X53741995Y-16195180D01*
X53704499Y-16206555D01*
X53659362Y-16211000D01*
X53020638Y-16211000D01*
X52975501Y-16206555D01*
X52938005Y-16195180D01*
X52903446Y-16176708D01*
X52873153Y-16151847D01*
X52848292Y-16121554D01*
X52829820Y-16086995D01*
X52818445Y-16049499D01*
X52814000Y-16004362D01*
X52814000Y-15265638D01*
X52818445Y-15220501D01*
X52829820Y-15183005D01*
X52848292Y-15148446D01*
X52873153Y-15118153D01*
X52903446Y-15093292D01*
X52938005Y-15074820D01*
X52975501Y-15063445D01*
X53020638Y-15059000D01*
X53659362Y-15059000D01*
X53704499Y-15063445D01*
G37*
G36*
X58784499Y-15063445D02*
G01*
X58821995Y-15074820D01*
X58856554Y-15093292D01*
X58886847Y-15118153D01*
X58911708Y-15148446D01*
X58930180Y-15183005D01*
X58941555Y-15220501D01*
X58946000Y-15265638D01*
X58946000Y-16004362D01*
X58941555Y-16049499D01*
X58930180Y-16086995D01*
X58911708Y-16121554D01*
X58886847Y-16151847D01*
X58856554Y-16176708D01*
X58821995Y-16195180D01*
X58784499Y-16206555D01*
X58739362Y-16211000D01*
X58100638Y-16211000D01*
X58055501Y-16206555D01*
X58018005Y-16195180D01*
X57983446Y-16176708D01*
X57953153Y-16151847D01*
X57928292Y-16121554D01*
X57909820Y-16086995D01*
X57898445Y-16049499D01*
X57894000Y-16004362D01*
X57894000Y-15265638D01*
X57898445Y-15220501D01*
X57909820Y-15183005D01*
X57928292Y-15148446D01*
X57953153Y-15118153D01*
X57983446Y-15093292D01*
X58018005Y-15074820D01*
X58055501Y-15063445D01*
X58100638Y-15059000D01*
X58739362Y-15059000D01*
X58784499Y-15063445D01*
G37*
M02*
