M48
; DRILL file {KiCad (5.1.5)-3} date 29.04.2020 21:26:28
; FORMAT={-:-/ absolute / metric / decimal}
; #@! TF.CreationDate,2020-04-29T21:26:28+02:00
; #@! TF.GenerationSoftware,Kicad,Pcbnew,(5.1.5)-3
; #@! TF.FileFunction,Plated,1,2,PTH
FMAT,2
METRIC
T1C0.400
T2C0.500
T3C0.750
T4C0.762
T5C0.800
T6C0.900
T7C1.000
T8C1.016
T9C1.100
T10C1.200
T11C1.300
T12C1.500
T13C2.700
%
G90
G05
T1
X15.24Y-24.13
X15.24Y-25.4
X15.24Y-26.67
X16.51Y-22.86
X16.51Y-24.13
X16.51Y-25.4
X16.51Y-26.67
X17.78Y-22.86
X17.78Y-24.13
X19.05Y-22.86
X19.05Y-24.13
X20.32Y-20.32
X20.32Y-22.86
X20.32Y-24.13
X20.32Y-25.4
X20.325Y-26.65
X21.59Y-19.05
X21.59Y-20.32
X21.59Y-21.59
X21.59Y-22.86
X21.59Y-24.13
X21.59Y-25.4
X21.59Y-26.67
X22.225Y-15.875
X22.86Y-19.05
X22.86Y-20.32
X22.86Y-21.59
X22.86Y-22.86
X22.86Y-24.13
X22.86Y-25.4
X22.86Y-26.67
X24.13Y-20.32
X24.13Y-21.59
X24.13Y-22.86
X24.13Y-24.13
X24.13Y-25.4
X24.13Y-26.67
X25.4Y-19.05
X25.4Y-20.32
X25.4Y-21.59
X25.4Y-22.86
X25.4Y-24.13
X25.4Y-25.4
X25.4Y-26.67
X30.0Y-50.25
X36.83Y-52.705
X38.291Y-35.75
X41.51Y-34.055
X59.055Y-46.355
X61.145Y-42.01
X61.595Y-37.465
X62.865Y-50.8
X63.5Y-48.895
X64.135Y-41.91
X64.25Y-55.5
X67.945Y-45.72
X67.945Y-46.99
X67.945Y-50.165
X68.075Y-48.26
X70.525Y-49.85
T2
X14.097Y-74.549
X14.69Y-73.117
X14.69Y-75.981
X16.122Y-72.524
X16.122Y-76.574
X17.554Y-73.117
X17.554Y-75.981
X18.147Y-74.549
X55.245Y-34.29
X55.245Y-36.19
X102.496Y-14.986
X103.089Y-13.554
X103.089Y-16.418
X104.521Y-12.961
X104.521Y-17.011
X105.953Y-13.554
X105.953Y-16.418
X106.546Y-14.986
X14.104Y-14.986
X14.697Y-13.554
X14.697Y-16.418
X16.129Y-12.961
X16.129Y-17.011
X17.561Y-13.554
X17.561Y-16.418
X18.154Y-14.986
X102.496Y-74.549
X103.089Y-73.117
X103.089Y-75.981
X104.521Y-72.524
X104.521Y-76.574
X105.953Y-73.117
X105.953Y-75.981
X106.546Y-74.549
T3
X26.416Y-64.579
X34.036Y-64.579
X85.979Y-64.643
X93.599Y-64.643
T4
X27.686Y-35.79
X30.226Y-35.79
X32.766Y-35.79
X27.686Y-31.218
X30.226Y-31.218
X32.766Y-31.218
T5
X73.575Y-45.07
X73.575Y-50.15
X30.353Y-24.765
X30.353Y-27.305
X37.973Y-24.765
X37.973Y-27.305
X52.705Y-55.88
X52.705Y-60.76
T6
X59.643Y-64.643
X62.143Y-59.643
X64.643Y-64.643
T7
X15.0Y-69.5
X15.25Y-19.5
X18.0Y-48.75
X21.5Y-75.75
X22.86Y-51.435
X24.13Y-45.085
X27.5Y-38.0
X29.845Y-52.705
X30.0Y-61.75
X30.25Y-22.25
X30.337Y-48.26
X30.48Y-55.245
X34.75Y-31.5
X36.115Y-33.147
X37.75Y-62.0
X40.005Y-59.055
X41.0Y-71.75
X41.593Y-35.75
X41.91Y-29.718
X43.5Y-43.5
X44.0Y-67.0
X44.45Y-40.64
X46.75Y-47.5
X47.5Y-32.75
X48.25Y-22.75
X49.75Y-58.25
X50.165Y-50.8
X53.75Y-71.75
X53.975Y-47.625
X53.975Y-50.8
X55.662Y-15.022
X56.0Y-19.5
X56.5Y-43.0
X56.75Y-37.75
X57.0Y-63.5
X60.325Y-17.145
X60.75Y-48.25
X61.75Y-23.0
X65.75Y-71.5
X66.04Y-15.022
X66.04Y-37.465
X66.04Y-43.815
X66.257Y-34.072
X68.5Y-59.0
X69.5Y-38.25
X71.12Y-34.925
X72.5Y-64.25
X78.0Y-71.75
X79.75Y-38.5
X80.01Y-18.18
X81.062Y-15.022
X81.25Y-47.25
X82.25Y-75.0
X85.5Y-20.25
X87.75Y-25.75
X89.5Y-61.5
X97.75Y-75.0
X98.25Y-44.5
X100.203Y-26.543
X40.513Y-18.288
X45.593Y-18.288
X26.67Y-40.64
X26.67Y-43.18
X29.21Y-40.64
X29.21Y-43.18
X31.75Y-40.64
X31.75Y-43.18
X34.29Y-40.64
X34.29Y-43.18
X70.739Y-61.976
X73.279Y-61.976
X75.819Y-61.976
X78.359Y-61.976
X18.034Y-38.163
X18.034Y-40.703
X18.034Y-43.243
X18.034Y-45.783
T8
X92.964Y-19.558
X92.964Y-22.098
X92.964Y-24.638
X95.504Y-19.558
X95.504Y-22.098
X95.504Y-24.638
T9
X27.051Y-69.692
X27.051Y-74.192
X33.551Y-69.692
X33.551Y-74.192
X86.36Y-69.85
X86.36Y-74.35
X92.86Y-69.85
X92.86Y-74.35
T10
X56.515Y-71.47
X60.015Y-71.47
X63.515Y-71.47
X68.58Y-71.47
X72.08Y-71.47
X75.58Y-71.47
X44.45Y-71.47
X47.95Y-71.47
X51.45Y-71.47
T11
X18.415Y-26.035
X18.415Y-31.035
X24.163Y-17.399
X29.163Y-17.399
X34.163Y-17.399
T12
X90.805Y-35.91
X90.805Y-56.4
T13
X16.129Y-14.986
X104.521Y-74.549
X16.122Y-74.549
X104.521Y-14.986
T0
M30
