M48
; DRILL file {KiCad (5.1.5)-3} date 01.05.2020 12:34:28
; FORMAT={-:-/ absolute / inch / decimal}
; #@! TF.CreationDate,2020-05-01T12:34:28+02:00
; #@! TF.GenerationSoftware,Kicad,Pcbnew,(5.1.5)-3
; #@! TF.FileFunction,Plated,1,2,PTH
FMAT,2
INCH
T1C0.0157
T2C0.0197
T3C0.0295
T4C0.0300
T5C0.0315
T6C0.0354
T7C0.0394
T8C0.0400
T9C0.0433
T10C0.0472
T11C0.0512
T12C0.0591
T13C0.1063
%
G90
G05
T1
X0.5906Y-2.7362
X0.6Y-0.95
X0.6Y-1.0
X0.6Y-1.05
X0.6004Y-0.7677
X0.65Y-0.9
X0.65Y-0.95
X0.65Y-1.0
X0.65Y-1.05
X0.7Y-0.9
X0.7Y-0.95
X0.7087Y-1.4
X0.75Y-0.9
X0.75Y-0.95
X0.76Y-1.62
X0.8Y-0.8
X0.8Y-0.9
X0.8Y-0.95
X0.8Y-1.0
X0.8002Y-1.0492
X0.8465Y-2.9823
X0.85Y-0.75
X0.85Y-0.8
X0.85Y-0.85
X0.85Y-0.9
X0.85Y-0.95
X0.85Y-1.0
X0.85Y-1.05
X0.875Y-0.625
X0.9Y-0.75
X0.9Y-0.8
X0.9Y-0.85
X0.9Y-0.9
X0.9Y-0.95
X0.9Y-1.0
X0.9Y-1.05
X0.92Y-2.11
X0.95Y-0.8
X0.95Y-0.85
X0.95Y-0.9
X0.95Y-0.95
X0.95Y-1.0
X0.95Y-1.05
X0.95Y-1.775
X1.0Y-0.75
X1.0Y-0.8
X1.0Y-0.85
X1.0Y-0.9
X1.0Y-0.95
X1.0Y-1.0
X1.0Y-1.05
X1.0827Y-1.4961
X1.175Y-2.075
X1.1811Y-1.9783
X1.1811Y-2.4311
X1.1909Y-0.876
X1.1944Y-1.9
X1.2Y-2.175
X1.3681Y-1.2402
X1.4219Y-1.305
X1.45Y-2.075
X1.4862Y-2.4409
X1.5075Y-1.4075
X1.575Y-2.325
X1.61Y-1.3
X1.6142Y-2.8248
X1.6375Y-1.4075
X1.71Y-0.95
X1.7126Y-1.7126
X1.73Y-1.18
X1.7323Y-2.6378
X1.79Y-1.58
X1.8406Y-1.8701
X1.8701Y-1.2894
X1.8996Y-0.8957
X1.9587Y-2.2933
X1.975Y-2.0
X2.1161Y-2.8248
X2.125Y-1.875
X2.125Y-2.0
X2.2047Y-0.7677
X2.2244Y-1.6929
X2.2343Y-1.4862
X2.2441Y-2.5
X2.325Y-1.825
X2.3917Y-1.8996
X2.4073Y-1.6539
X2.42Y-0.77
X2.425Y-1.43
X2.4311Y-0.9055
X2.475Y-2.0
X2.5Y-1.925
X2.525Y-1.65
X2.5295Y-2.185
X2.5886Y-2.815
X2.6Y-1.475
X2.6Y-1.725
X2.6086Y-1.3414
X2.675Y-1.8
X2.675Y-1.85
X2.6969Y-2.3228
X2.7362Y-1.5059
X2.75Y-1.92
X2.8Y-1.375
X2.8543Y-2.5295
X2.94Y-1.1
X3.0709Y-2.8248
X3.15Y-0.7157
X3.1914Y-0.5914
X3.1988Y-1.8602
X3.2382Y-2.9528
X3.33Y-1.56
X3.3661Y-0.7972
X3.4547Y-1.0138
X3.5236Y-2.4213
X3.8484Y-2.9528
X3.8681Y-1.752
X3.945Y-1.045
T2
X4.0353Y-2.935
X4.0586Y-2.8786
X4.0586Y-2.9914
X4.115Y-2.8553
X4.115Y-3.0147
X4.1714Y-2.8786
X4.1714Y-2.9914
X4.1947Y-2.935
X0.5553Y-0.59
X0.5786Y-0.5336
X0.5786Y-0.6464
X0.635Y-0.5103
X0.635Y-0.6697
X0.6914Y-0.5336
X0.6914Y-0.6464
X0.7147Y-0.59
X0.555Y-2.935
X0.5784Y-2.8786
X0.5784Y-2.9914
X0.6347Y-2.8553
X0.6347Y-3.0147
X0.6911Y-2.8786
X0.6911Y-2.9914
X0.7144Y-2.935
X2.175Y-1.35
X2.175Y-1.4248
X4.0353Y-0.59
X4.0586Y-0.5336
X4.0586Y-0.6464
X4.115Y-0.5103
X4.115Y-0.6697
X4.1714Y-0.5336
X4.1714Y-0.6464
X4.1947Y-0.59
T3
X3.385Y-2.545
X3.685Y-2.545
X1.04Y-2.5425
X1.34Y-2.5425
T4
X1.09Y-1.2291
X1.19Y-1.2291
X1.29Y-1.2291
X3.02Y-1.3891
X3.12Y-1.3891
X3.22Y-1.3891
X1.09Y-1.4091
X1.19Y-1.4091
X1.29Y-1.4091
X0.7691Y-2.37
X0.7691Y-2.47
X0.7691Y-2.57
T5
X2.075Y-2.2
X2.075Y-2.3921
X1.195Y-0.975
X1.195Y-1.075
X1.495Y-0.975
X1.495Y-1.075
T6
X2.3481Y-2.545
X2.4466Y-2.3481
X2.545Y-2.545
T7
X0.76Y-1.8
X0.76Y-1.9
X0.76Y-2.0
X0.76Y-2.1
X1.595Y-0.72
X1.795Y-0.72
X1.05Y-1.6
X1.05Y-1.7
X1.15Y-1.6
X1.15Y-1.7
X1.25Y-1.6
X1.25Y-1.7
X1.35Y-1.6
X1.35Y-1.7
X2.785Y-2.44
X2.885Y-2.44
X2.985Y-2.44
X3.085Y-2.44
T8
X3.66Y-0.77
X3.66Y-0.87
X3.66Y-0.97
X3.76Y-0.77
X3.76Y-0.87
X3.76Y-0.97
T9
X1.065Y-2.7438
X1.065Y-2.9209
X1.3209Y-2.7438
X1.3209Y-2.9209
X3.4Y-2.75
X3.4Y-2.9272
X3.6559Y-2.75
X3.6559Y-2.9272
T10
X2.7Y-2.8138
X2.8378Y-2.8138
X2.9756Y-2.8138
X2.225Y-2.8138
X2.3628Y-2.8138
X2.5006Y-2.8138
X1.75Y-2.8138
X1.8878Y-2.8138
X2.0256Y-2.8138
T11
X0.725Y-1.025
X0.725Y-1.2219
X0.9513Y-0.685
X1.1481Y-0.685
X1.345Y-0.685
T12
X3.575Y-1.4138
X3.575Y-2.2205
T13
X4.115Y-2.935
X0.635Y-0.59
X0.6347Y-2.935
X4.115Y-0.59
T0
M30
