G04 #@! TF.GenerationSoftware,KiCad,Pcbnew,(5.1.5)-3*
G04 #@! TF.CreationDate,2020-04-29T21:26:39+02:00*
G04 #@! TF.ProjectId,PONG_Display,504f4e47-5f44-4697-9370-6c61792e6b69,rev?*
G04 #@! TF.SameCoordinates,Original*
G04 #@! TF.FileFunction,Paste,Top*
G04 #@! TF.FilePolarity,Positive*
%FSLAX46Y46*%
G04 Gerber Fmt 4.6, Leading zero omitted, Abs format (unit mm)*
G04 Created by KiCad (PCBNEW (5.1.5)-3) date 2020-04-29 21:26:39*
%MOMM*%
%LPD*%
G04 APERTURE LIST*
%ADD10C,0.100000*%
%ADD11R,3.800000X2.000000*%
%ADD12R,1.500000X2.000000*%
%ADD13R,1.600000X0.550000*%
%ADD14R,0.550000X1.600000*%
G04 APERTURE END LIST*
D10*
G36*
X22499779Y-39340144D02*
G01*
X22522834Y-39343563D01*
X22545443Y-39349227D01*
X22567387Y-39357079D01*
X22588457Y-39367044D01*
X22608448Y-39379026D01*
X22627168Y-39392910D01*
X22644438Y-39408562D01*
X22660090Y-39425832D01*
X22673974Y-39444552D01*
X22685956Y-39464543D01*
X22695921Y-39485613D01*
X22703773Y-39507557D01*
X22709437Y-39530166D01*
X22712856Y-39553221D01*
X22714000Y-39576500D01*
X22714000Y-40151500D01*
X22712856Y-40174779D01*
X22709437Y-40197834D01*
X22703773Y-40220443D01*
X22695921Y-40242387D01*
X22685956Y-40263457D01*
X22673974Y-40283448D01*
X22660090Y-40302168D01*
X22644438Y-40319438D01*
X22627168Y-40335090D01*
X22608448Y-40348974D01*
X22588457Y-40360956D01*
X22567387Y-40370921D01*
X22545443Y-40378773D01*
X22522834Y-40384437D01*
X22499779Y-40387856D01*
X22476500Y-40389000D01*
X22001500Y-40389000D01*
X21978221Y-40387856D01*
X21955166Y-40384437D01*
X21932557Y-40378773D01*
X21910613Y-40370921D01*
X21889543Y-40360956D01*
X21869552Y-40348974D01*
X21850832Y-40335090D01*
X21833562Y-40319438D01*
X21817910Y-40302168D01*
X21804026Y-40283448D01*
X21792044Y-40263457D01*
X21782079Y-40242387D01*
X21774227Y-40220443D01*
X21768563Y-40197834D01*
X21765144Y-40174779D01*
X21764000Y-40151500D01*
X21764000Y-39576500D01*
X21765144Y-39553221D01*
X21768563Y-39530166D01*
X21774227Y-39507557D01*
X21782079Y-39485613D01*
X21792044Y-39464543D01*
X21804026Y-39444552D01*
X21817910Y-39425832D01*
X21833562Y-39408562D01*
X21850832Y-39392910D01*
X21869552Y-39379026D01*
X21889543Y-39367044D01*
X21910613Y-39357079D01*
X21932557Y-39349227D01*
X21955166Y-39343563D01*
X21978221Y-39340144D01*
X22001500Y-39339000D01*
X22476500Y-39339000D01*
X22499779Y-39340144D01*
G37*
G36*
X22499779Y-37590144D02*
G01*
X22522834Y-37593563D01*
X22545443Y-37599227D01*
X22567387Y-37607079D01*
X22588457Y-37617044D01*
X22608448Y-37629026D01*
X22627168Y-37642910D01*
X22644438Y-37658562D01*
X22660090Y-37675832D01*
X22673974Y-37694552D01*
X22685956Y-37714543D01*
X22695921Y-37735613D01*
X22703773Y-37757557D01*
X22709437Y-37780166D01*
X22712856Y-37803221D01*
X22714000Y-37826500D01*
X22714000Y-38401500D01*
X22712856Y-38424779D01*
X22709437Y-38447834D01*
X22703773Y-38470443D01*
X22695921Y-38492387D01*
X22685956Y-38513457D01*
X22673974Y-38533448D01*
X22660090Y-38552168D01*
X22644438Y-38569438D01*
X22627168Y-38585090D01*
X22608448Y-38598974D01*
X22588457Y-38610956D01*
X22567387Y-38620921D01*
X22545443Y-38628773D01*
X22522834Y-38634437D01*
X22499779Y-38637856D01*
X22476500Y-38639000D01*
X22001500Y-38639000D01*
X21978221Y-38637856D01*
X21955166Y-38634437D01*
X21932557Y-38628773D01*
X21910613Y-38620921D01*
X21889543Y-38610956D01*
X21869552Y-38598974D01*
X21850832Y-38585090D01*
X21833562Y-38569438D01*
X21817910Y-38552168D01*
X21804026Y-38533448D01*
X21792044Y-38513457D01*
X21782079Y-38492387D01*
X21774227Y-38470443D01*
X21768563Y-38447834D01*
X21765144Y-38424779D01*
X21764000Y-38401500D01*
X21764000Y-37826500D01*
X21765144Y-37803221D01*
X21768563Y-37780166D01*
X21774227Y-37757557D01*
X21782079Y-37735613D01*
X21792044Y-37714543D01*
X21804026Y-37694552D01*
X21817910Y-37675832D01*
X21833562Y-37658562D01*
X21850832Y-37642910D01*
X21869552Y-37629026D01*
X21889543Y-37617044D01*
X21910613Y-37607079D01*
X21932557Y-37599227D01*
X21955166Y-37593563D01*
X21978221Y-37590144D01*
X22001500Y-37589000D01*
X22476500Y-37589000D01*
X22499779Y-37590144D01*
G37*
G36*
X37725779Y-33498144D02*
G01*
X37748834Y-33501563D01*
X37771443Y-33507227D01*
X37793387Y-33515079D01*
X37814457Y-33525044D01*
X37834448Y-33537026D01*
X37853168Y-33550910D01*
X37870438Y-33566562D01*
X37886090Y-33583832D01*
X37899974Y-33602552D01*
X37911956Y-33622543D01*
X37921921Y-33643613D01*
X37929773Y-33665557D01*
X37935437Y-33688166D01*
X37938856Y-33711221D01*
X37940000Y-33734500D01*
X37940000Y-34309500D01*
X37938856Y-34332779D01*
X37935437Y-34355834D01*
X37929773Y-34378443D01*
X37921921Y-34400387D01*
X37911956Y-34421457D01*
X37899974Y-34441448D01*
X37886090Y-34460168D01*
X37870438Y-34477438D01*
X37853168Y-34493090D01*
X37834448Y-34506974D01*
X37814457Y-34518956D01*
X37793387Y-34528921D01*
X37771443Y-34536773D01*
X37748834Y-34542437D01*
X37725779Y-34545856D01*
X37702500Y-34547000D01*
X37227500Y-34547000D01*
X37204221Y-34545856D01*
X37181166Y-34542437D01*
X37158557Y-34536773D01*
X37136613Y-34528921D01*
X37115543Y-34518956D01*
X37095552Y-34506974D01*
X37076832Y-34493090D01*
X37059562Y-34477438D01*
X37043910Y-34460168D01*
X37030026Y-34441448D01*
X37018044Y-34421457D01*
X37008079Y-34400387D01*
X37000227Y-34378443D01*
X36994563Y-34355834D01*
X36991144Y-34332779D01*
X36990000Y-34309500D01*
X36990000Y-33734500D01*
X36991144Y-33711221D01*
X36994563Y-33688166D01*
X37000227Y-33665557D01*
X37008079Y-33643613D01*
X37018044Y-33622543D01*
X37030026Y-33602552D01*
X37043910Y-33583832D01*
X37059562Y-33566562D01*
X37076832Y-33550910D01*
X37095552Y-33537026D01*
X37115543Y-33525044D01*
X37136613Y-33515079D01*
X37158557Y-33507227D01*
X37181166Y-33501563D01*
X37204221Y-33498144D01*
X37227500Y-33497000D01*
X37702500Y-33497000D01*
X37725779Y-33498144D01*
G37*
G36*
X37725779Y-31748144D02*
G01*
X37748834Y-31751563D01*
X37771443Y-31757227D01*
X37793387Y-31765079D01*
X37814457Y-31775044D01*
X37834448Y-31787026D01*
X37853168Y-31800910D01*
X37870438Y-31816562D01*
X37886090Y-31833832D01*
X37899974Y-31852552D01*
X37911956Y-31872543D01*
X37921921Y-31893613D01*
X37929773Y-31915557D01*
X37935437Y-31938166D01*
X37938856Y-31961221D01*
X37940000Y-31984500D01*
X37940000Y-32559500D01*
X37938856Y-32582779D01*
X37935437Y-32605834D01*
X37929773Y-32628443D01*
X37921921Y-32650387D01*
X37911956Y-32671457D01*
X37899974Y-32691448D01*
X37886090Y-32710168D01*
X37870438Y-32727438D01*
X37853168Y-32743090D01*
X37834448Y-32756974D01*
X37814457Y-32768956D01*
X37793387Y-32778921D01*
X37771443Y-32786773D01*
X37748834Y-32792437D01*
X37725779Y-32795856D01*
X37702500Y-32797000D01*
X37227500Y-32797000D01*
X37204221Y-32795856D01*
X37181166Y-32792437D01*
X37158557Y-32786773D01*
X37136613Y-32778921D01*
X37115543Y-32768956D01*
X37095552Y-32756974D01*
X37076832Y-32743090D01*
X37059562Y-32727438D01*
X37043910Y-32710168D01*
X37030026Y-32691448D01*
X37018044Y-32671457D01*
X37008079Y-32650387D01*
X37000227Y-32628443D01*
X36994563Y-32605834D01*
X36991144Y-32582779D01*
X36990000Y-32559500D01*
X36990000Y-31984500D01*
X36991144Y-31961221D01*
X36994563Y-31938166D01*
X37000227Y-31915557D01*
X37008079Y-31893613D01*
X37018044Y-31872543D01*
X37030026Y-31852552D01*
X37043910Y-31833832D01*
X37059562Y-31816562D01*
X37076832Y-31800910D01*
X37095552Y-31787026D01*
X37115543Y-31775044D01*
X37136613Y-31765079D01*
X37158557Y-31757227D01*
X37181166Y-31751563D01*
X37204221Y-31748144D01*
X37227500Y-31747000D01*
X37702500Y-31747000D01*
X37725779Y-31748144D01*
G37*
G36*
X69404504Y-13621204D02*
G01*
X69428773Y-13624804D01*
X69452571Y-13630765D01*
X69475671Y-13639030D01*
X69497849Y-13649520D01*
X69518893Y-13662133D01*
X69538598Y-13676747D01*
X69556777Y-13693223D01*
X69573253Y-13711402D01*
X69587867Y-13731107D01*
X69600480Y-13752151D01*
X69610970Y-13774329D01*
X69619235Y-13797429D01*
X69625196Y-13821227D01*
X69628796Y-13845496D01*
X69630000Y-13870000D01*
X69630000Y-17970000D01*
X69628796Y-17994504D01*
X69625196Y-18018773D01*
X69619235Y-18042571D01*
X69610970Y-18065671D01*
X69600480Y-18087849D01*
X69587867Y-18108893D01*
X69573253Y-18128598D01*
X69556777Y-18146777D01*
X69538598Y-18163253D01*
X69518893Y-18177867D01*
X69497849Y-18190480D01*
X69475671Y-18200970D01*
X69452571Y-18209235D01*
X69428773Y-18215196D01*
X69404504Y-18218796D01*
X69380000Y-18220000D01*
X67780000Y-18220000D01*
X67755496Y-18218796D01*
X67731227Y-18215196D01*
X67707429Y-18209235D01*
X67684329Y-18200970D01*
X67662151Y-18190480D01*
X67641107Y-18177867D01*
X67621402Y-18163253D01*
X67603223Y-18146777D01*
X67586747Y-18128598D01*
X67572133Y-18108893D01*
X67559520Y-18087849D01*
X67549030Y-18065671D01*
X67540765Y-18042571D01*
X67534804Y-18018773D01*
X67531204Y-17994504D01*
X67530000Y-17970000D01*
X67530000Y-13870000D01*
X67531204Y-13845496D01*
X67534804Y-13821227D01*
X67540765Y-13797429D01*
X67549030Y-13774329D01*
X67559520Y-13752151D01*
X67572133Y-13731107D01*
X67586747Y-13711402D01*
X67603223Y-13693223D01*
X67621402Y-13676747D01*
X67641107Y-13662133D01*
X67662151Y-13649520D01*
X67684329Y-13639030D01*
X67707429Y-13630765D01*
X67731227Y-13624804D01*
X67755496Y-13621204D01*
X67780000Y-13620000D01*
X69380000Y-13620000D01*
X69404504Y-13621204D01*
G37*
G36*
X69404504Y-22421204D02*
G01*
X69428773Y-22424804D01*
X69452571Y-22430765D01*
X69475671Y-22439030D01*
X69497849Y-22449520D01*
X69518893Y-22462133D01*
X69538598Y-22476747D01*
X69556777Y-22493223D01*
X69573253Y-22511402D01*
X69587867Y-22531107D01*
X69600480Y-22552151D01*
X69610970Y-22574329D01*
X69619235Y-22597429D01*
X69625196Y-22621227D01*
X69628796Y-22645496D01*
X69630000Y-22670000D01*
X69630000Y-26770000D01*
X69628796Y-26794504D01*
X69625196Y-26818773D01*
X69619235Y-26842571D01*
X69610970Y-26865671D01*
X69600480Y-26887849D01*
X69587867Y-26908893D01*
X69573253Y-26928598D01*
X69556777Y-26946777D01*
X69538598Y-26963253D01*
X69518893Y-26977867D01*
X69497849Y-26990480D01*
X69475671Y-27000970D01*
X69452571Y-27009235D01*
X69428773Y-27015196D01*
X69404504Y-27018796D01*
X69380000Y-27020000D01*
X67780000Y-27020000D01*
X67755496Y-27018796D01*
X67731227Y-27015196D01*
X67707429Y-27009235D01*
X67684329Y-27000970D01*
X67662151Y-26990480D01*
X67641107Y-26977867D01*
X67621402Y-26963253D01*
X67603223Y-26946777D01*
X67586747Y-26928598D01*
X67572133Y-26908893D01*
X67559520Y-26887849D01*
X67549030Y-26865671D01*
X67540765Y-26842571D01*
X67534804Y-26818773D01*
X67531204Y-26794504D01*
X67530000Y-26770000D01*
X67530000Y-22670000D01*
X67531204Y-22645496D01*
X67534804Y-22621227D01*
X67540765Y-22597429D01*
X67549030Y-22574329D01*
X67559520Y-22552151D01*
X67572133Y-22531107D01*
X67586747Y-22511402D01*
X67603223Y-22493223D01*
X67621402Y-22476747D01*
X67641107Y-22462133D01*
X67662151Y-22449520D01*
X67684329Y-22439030D01*
X67707429Y-22430765D01*
X67731227Y-22424804D01*
X67755496Y-22421204D01*
X67780000Y-22420000D01*
X69380000Y-22420000D01*
X69404504Y-22421204D01*
G37*
G36*
X53989504Y-20661204D02*
G01*
X54013773Y-20664804D01*
X54037571Y-20670765D01*
X54060671Y-20679030D01*
X54082849Y-20689520D01*
X54103893Y-20702133D01*
X54123598Y-20716747D01*
X54141777Y-20733223D01*
X54158253Y-20751402D01*
X54172867Y-20771107D01*
X54185480Y-20792151D01*
X54195970Y-20814329D01*
X54204235Y-20837429D01*
X54210196Y-20861227D01*
X54213796Y-20885496D01*
X54215000Y-20910000D01*
X54215000Y-21835000D01*
X54213796Y-21859504D01*
X54210196Y-21883773D01*
X54204235Y-21907571D01*
X54195970Y-21930671D01*
X54185480Y-21952849D01*
X54172867Y-21973893D01*
X54158253Y-21993598D01*
X54141777Y-22011777D01*
X54123598Y-22028253D01*
X54103893Y-22042867D01*
X54082849Y-22055480D01*
X54060671Y-22065970D01*
X54037571Y-22074235D01*
X54013773Y-22080196D01*
X53989504Y-22083796D01*
X53965000Y-22085000D01*
X52715000Y-22085000D01*
X52690496Y-22083796D01*
X52666227Y-22080196D01*
X52642429Y-22074235D01*
X52619329Y-22065970D01*
X52597151Y-22055480D01*
X52576107Y-22042867D01*
X52556402Y-22028253D01*
X52538223Y-22011777D01*
X52521747Y-21993598D01*
X52507133Y-21973893D01*
X52494520Y-21952849D01*
X52484030Y-21930671D01*
X52475765Y-21907571D01*
X52469804Y-21883773D01*
X52466204Y-21859504D01*
X52465000Y-21835000D01*
X52465000Y-20910000D01*
X52466204Y-20885496D01*
X52469804Y-20861227D01*
X52475765Y-20837429D01*
X52484030Y-20814329D01*
X52494520Y-20792151D01*
X52507133Y-20771107D01*
X52521747Y-20751402D01*
X52538223Y-20733223D01*
X52556402Y-20716747D01*
X52576107Y-20702133D01*
X52597151Y-20689520D01*
X52619329Y-20679030D01*
X52642429Y-20670765D01*
X52666227Y-20664804D01*
X52690496Y-20661204D01*
X52715000Y-20660000D01*
X53965000Y-20660000D01*
X53989504Y-20661204D01*
G37*
G36*
X53989504Y-23636204D02*
G01*
X54013773Y-23639804D01*
X54037571Y-23645765D01*
X54060671Y-23654030D01*
X54082849Y-23664520D01*
X54103893Y-23677133D01*
X54123598Y-23691747D01*
X54141777Y-23708223D01*
X54158253Y-23726402D01*
X54172867Y-23746107D01*
X54185480Y-23767151D01*
X54195970Y-23789329D01*
X54204235Y-23812429D01*
X54210196Y-23836227D01*
X54213796Y-23860496D01*
X54215000Y-23885000D01*
X54215000Y-24810000D01*
X54213796Y-24834504D01*
X54210196Y-24858773D01*
X54204235Y-24882571D01*
X54195970Y-24905671D01*
X54185480Y-24927849D01*
X54172867Y-24948893D01*
X54158253Y-24968598D01*
X54141777Y-24986777D01*
X54123598Y-25003253D01*
X54103893Y-25017867D01*
X54082849Y-25030480D01*
X54060671Y-25040970D01*
X54037571Y-25049235D01*
X54013773Y-25055196D01*
X53989504Y-25058796D01*
X53965000Y-25060000D01*
X52715000Y-25060000D01*
X52690496Y-25058796D01*
X52666227Y-25055196D01*
X52642429Y-25049235D01*
X52619329Y-25040970D01*
X52597151Y-25030480D01*
X52576107Y-25017867D01*
X52556402Y-25003253D01*
X52538223Y-24986777D01*
X52521747Y-24968598D01*
X52507133Y-24948893D01*
X52494520Y-24927849D01*
X52484030Y-24905671D01*
X52475765Y-24882571D01*
X52469804Y-24858773D01*
X52466204Y-24834504D01*
X52465000Y-24810000D01*
X52465000Y-23885000D01*
X52466204Y-23860496D01*
X52469804Y-23836227D01*
X52475765Y-23812429D01*
X52484030Y-23789329D01*
X52494520Y-23767151D01*
X52507133Y-23746107D01*
X52521747Y-23726402D01*
X52538223Y-23708223D01*
X52556402Y-23691747D01*
X52576107Y-23677133D01*
X52597151Y-23664520D01*
X52619329Y-23654030D01*
X52642429Y-23645765D01*
X52666227Y-23639804D01*
X52690496Y-23636204D01*
X52715000Y-23635000D01*
X53965000Y-23635000D01*
X53989504Y-23636204D01*
G37*
G36*
X59069504Y-23636204D02*
G01*
X59093773Y-23639804D01*
X59117571Y-23645765D01*
X59140671Y-23654030D01*
X59162849Y-23664520D01*
X59183893Y-23677133D01*
X59203598Y-23691747D01*
X59221777Y-23708223D01*
X59238253Y-23726402D01*
X59252867Y-23746107D01*
X59265480Y-23767151D01*
X59275970Y-23789329D01*
X59284235Y-23812429D01*
X59290196Y-23836227D01*
X59293796Y-23860496D01*
X59295000Y-23885000D01*
X59295000Y-24810000D01*
X59293796Y-24834504D01*
X59290196Y-24858773D01*
X59284235Y-24882571D01*
X59275970Y-24905671D01*
X59265480Y-24927849D01*
X59252867Y-24948893D01*
X59238253Y-24968598D01*
X59221777Y-24986777D01*
X59203598Y-25003253D01*
X59183893Y-25017867D01*
X59162849Y-25030480D01*
X59140671Y-25040970D01*
X59117571Y-25049235D01*
X59093773Y-25055196D01*
X59069504Y-25058796D01*
X59045000Y-25060000D01*
X57795000Y-25060000D01*
X57770496Y-25058796D01*
X57746227Y-25055196D01*
X57722429Y-25049235D01*
X57699329Y-25040970D01*
X57677151Y-25030480D01*
X57656107Y-25017867D01*
X57636402Y-25003253D01*
X57618223Y-24986777D01*
X57601747Y-24968598D01*
X57587133Y-24948893D01*
X57574520Y-24927849D01*
X57564030Y-24905671D01*
X57555765Y-24882571D01*
X57549804Y-24858773D01*
X57546204Y-24834504D01*
X57545000Y-24810000D01*
X57545000Y-23885000D01*
X57546204Y-23860496D01*
X57549804Y-23836227D01*
X57555765Y-23812429D01*
X57564030Y-23789329D01*
X57574520Y-23767151D01*
X57587133Y-23746107D01*
X57601747Y-23726402D01*
X57618223Y-23708223D01*
X57636402Y-23691747D01*
X57656107Y-23677133D01*
X57677151Y-23664520D01*
X57699329Y-23654030D01*
X57722429Y-23645765D01*
X57746227Y-23639804D01*
X57770496Y-23636204D01*
X57795000Y-23635000D01*
X59045000Y-23635000D01*
X59069504Y-23636204D01*
G37*
G36*
X59069504Y-20661204D02*
G01*
X59093773Y-20664804D01*
X59117571Y-20670765D01*
X59140671Y-20679030D01*
X59162849Y-20689520D01*
X59183893Y-20702133D01*
X59203598Y-20716747D01*
X59221777Y-20733223D01*
X59238253Y-20751402D01*
X59252867Y-20771107D01*
X59265480Y-20792151D01*
X59275970Y-20814329D01*
X59284235Y-20837429D01*
X59290196Y-20861227D01*
X59293796Y-20885496D01*
X59295000Y-20910000D01*
X59295000Y-21835000D01*
X59293796Y-21859504D01*
X59290196Y-21883773D01*
X59284235Y-21907571D01*
X59275970Y-21930671D01*
X59265480Y-21952849D01*
X59252867Y-21973893D01*
X59238253Y-21993598D01*
X59221777Y-22011777D01*
X59203598Y-22028253D01*
X59183893Y-22042867D01*
X59162849Y-22055480D01*
X59140671Y-22065970D01*
X59117571Y-22074235D01*
X59093773Y-22080196D01*
X59069504Y-22083796D01*
X59045000Y-22085000D01*
X57795000Y-22085000D01*
X57770496Y-22083796D01*
X57746227Y-22080196D01*
X57722429Y-22074235D01*
X57699329Y-22065970D01*
X57677151Y-22055480D01*
X57656107Y-22042867D01*
X57636402Y-22028253D01*
X57618223Y-22011777D01*
X57601747Y-21993598D01*
X57587133Y-21973893D01*
X57574520Y-21952849D01*
X57564030Y-21930671D01*
X57555765Y-21907571D01*
X57549804Y-21883773D01*
X57546204Y-21859504D01*
X57545000Y-21835000D01*
X57545000Y-20910000D01*
X57546204Y-20885496D01*
X57549804Y-20861227D01*
X57555765Y-20837429D01*
X57564030Y-20814329D01*
X57574520Y-20792151D01*
X57587133Y-20771107D01*
X57601747Y-20751402D01*
X57618223Y-20733223D01*
X57636402Y-20716747D01*
X57656107Y-20702133D01*
X57677151Y-20689520D01*
X57699329Y-20679030D01*
X57722429Y-20670765D01*
X57746227Y-20664804D01*
X57770496Y-20661204D01*
X57795000Y-20660000D01*
X59045000Y-20660000D01*
X59069504Y-20661204D01*
G37*
D11*
X82550000Y-23470000D03*
D12*
X82550000Y-17170000D03*
X80250000Y-17170000D03*
X84850000Y-17170000D03*
D13*
X57345000Y-45460000D03*
X57345000Y-46260000D03*
X57345000Y-47060000D03*
X57345000Y-47860000D03*
X57345000Y-48660000D03*
X57345000Y-49460000D03*
X57345000Y-50260000D03*
X57345000Y-51060000D03*
D14*
X58795000Y-52510000D03*
X59595000Y-52510000D03*
X60395000Y-52510000D03*
X61195000Y-52510000D03*
X61995000Y-52510000D03*
X62795000Y-52510000D03*
X63595000Y-52510000D03*
X64395000Y-52510000D03*
D13*
X65845000Y-51060000D03*
X65845000Y-50260000D03*
X65845000Y-49460000D03*
X65845000Y-48660000D03*
X65845000Y-47860000D03*
X65845000Y-47060000D03*
X65845000Y-46260000D03*
X65845000Y-45460000D03*
D14*
X64395000Y-44010000D03*
X63595000Y-44010000D03*
X62795000Y-44010000D03*
X61995000Y-44010000D03*
X61195000Y-44010000D03*
X60395000Y-44010000D03*
X59595000Y-44010000D03*
X58795000Y-44010000D03*
D10*
G36*
X59959703Y-34625722D02*
G01*
X59974264Y-34627882D01*
X59988543Y-34631459D01*
X60002403Y-34636418D01*
X60015710Y-34642712D01*
X60028336Y-34650280D01*
X60040159Y-34659048D01*
X60051066Y-34668934D01*
X60060952Y-34679841D01*
X60069720Y-34691664D01*
X60077288Y-34704290D01*
X60083582Y-34717597D01*
X60088541Y-34731457D01*
X60092118Y-34745736D01*
X60094278Y-34760297D01*
X60095000Y-34775000D01*
X60095000Y-35075000D01*
X60094278Y-35089703D01*
X60092118Y-35104264D01*
X60088541Y-35118543D01*
X60083582Y-35132403D01*
X60077288Y-35145710D01*
X60069720Y-35158336D01*
X60060952Y-35170159D01*
X60051066Y-35181066D01*
X60040159Y-35190952D01*
X60028336Y-35199720D01*
X60015710Y-35207288D01*
X60002403Y-35213582D01*
X59988543Y-35218541D01*
X59974264Y-35222118D01*
X59959703Y-35224278D01*
X59945000Y-35225000D01*
X58295000Y-35225000D01*
X58280297Y-35224278D01*
X58265736Y-35222118D01*
X58251457Y-35218541D01*
X58237597Y-35213582D01*
X58224290Y-35207288D01*
X58211664Y-35199720D01*
X58199841Y-35190952D01*
X58188934Y-35181066D01*
X58179048Y-35170159D01*
X58170280Y-35158336D01*
X58162712Y-35145710D01*
X58156418Y-35132403D01*
X58151459Y-35118543D01*
X58147882Y-35104264D01*
X58145722Y-35089703D01*
X58145000Y-35075000D01*
X58145000Y-34775000D01*
X58145722Y-34760297D01*
X58147882Y-34745736D01*
X58151459Y-34731457D01*
X58156418Y-34717597D01*
X58162712Y-34704290D01*
X58170280Y-34691664D01*
X58179048Y-34679841D01*
X58188934Y-34668934D01*
X58199841Y-34659048D01*
X58211664Y-34650280D01*
X58224290Y-34642712D01*
X58237597Y-34636418D01*
X58251457Y-34631459D01*
X58265736Y-34627882D01*
X58280297Y-34625722D01*
X58295000Y-34625000D01*
X59945000Y-34625000D01*
X59959703Y-34625722D01*
G37*
G36*
X59959703Y-35895722D02*
G01*
X59974264Y-35897882D01*
X59988543Y-35901459D01*
X60002403Y-35906418D01*
X60015710Y-35912712D01*
X60028336Y-35920280D01*
X60040159Y-35929048D01*
X60051066Y-35938934D01*
X60060952Y-35949841D01*
X60069720Y-35961664D01*
X60077288Y-35974290D01*
X60083582Y-35987597D01*
X60088541Y-36001457D01*
X60092118Y-36015736D01*
X60094278Y-36030297D01*
X60095000Y-36045000D01*
X60095000Y-36345000D01*
X60094278Y-36359703D01*
X60092118Y-36374264D01*
X60088541Y-36388543D01*
X60083582Y-36402403D01*
X60077288Y-36415710D01*
X60069720Y-36428336D01*
X60060952Y-36440159D01*
X60051066Y-36451066D01*
X60040159Y-36460952D01*
X60028336Y-36469720D01*
X60015710Y-36477288D01*
X60002403Y-36483582D01*
X59988543Y-36488541D01*
X59974264Y-36492118D01*
X59959703Y-36494278D01*
X59945000Y-36495000D01*
X58295000Y-36495000D01*
X58280297Y-36494278D01*
X58265736Y-36492118D01*
X58251457Y-36488541D01*
X58237597Y-36483582D01*
X58224290Y-36477288D01*
X58211664Y-36469720D01*
X58199841Y-36460952D01*
X58188934Y-36451066D01*
X58179048Y-36440159D01*
X58170280Y-36428336D01*
X58162712Y-36415710D01*
X58156418Y-36402403D01*
X58151459Y-36388543D01*
X58147882Y-36374264D01*
X58145722Y-36359703D01*
X58145000Y-36345000D01*
X58145000Y-36045000D01*
X58145722Y-36030297D01*
X58147882Y-36015736D01*
X58151459Y-36001457D01*
X58156418Y-35987597D01*
X58162712Y-35974290D01*
X58170280Y-35961664D01*
X58179048Y-35949841D01*
X58188934Y-35938934D01*
X58199841Y-35929048D01*
X58211664Y-35920280D01*
X58224290Y-35912712D01*
X58237597Y-35906418D01*
X58251457Y-35901459D01*
X58265736Y-35897882D01*
X58280297Y-35895722D01*
X58295000Y-35895000D01*
X59945000Y-35895000D01*
X59959703Y-35895722D01*
G37*
G36*
X59959703Y-37165722D02*
G01*
X59974264Y-37167882D01*
X59988543Y-37171459D01*
X60002403Y-37176418D01*
X60015710Y-37182712D01*
X60028336Y-37190280D01*
X60040159Y-37199048D01*
X60051066Y-37208934D01*
X60060952Y-37219841D01*
X60069720Y-37231664D01*
X60077288Y-37244290D01*
X60083582Y-37257597D01*
X60088541Y-37271457D01*
X60092118Y-37285736D01*
X60094278Y-37300297D01*
X60095000Y-37315000D01*
X60095000Y-37615000D01*
X60094278Y-37629703D01*
X60092118Y-37644264D01*
X60088541Y-37658543D01*
X60083582Y-37672403D01*
X60077288Y-37685710D01*
X60069720Y-37698336D01*
X60060952Y-37710159D01*
X60051066Y-37721066D01*
X60040159Y-37730952D01*
X60028336Y-37739720D01*
X60015710Y-37747288D01*
X60002403Y-37753582D01*
X59988543Y-37758541D01*
X59974264Y-37762118D01*
X59959703Y-37764278D01*
X59945000Y-37765000D01*
X58295000Y-37765000D01*
X58280297Y-37764278D01*
X58265736Y-37762118D01*
X58251457Y-37758541D01*
X58237597Y-37753582D01*
X58224290Y-37747288D01*
X58211664Y-37739720D01*
X58199841Y-37730952D01*
X58188934Y-37721066D01*
X58179048Y-37710159D01*
X58170280Y-37698336D01*
X58162712Y-37685710D01*
X58156418Y-37672403D01*
X58151459Y-37658543D01*
X58147882Y-37644264D01*
X58145722Y-37629703D01*
X58145000Y-37615000D01*
X58145000Y-37315000D01*
X58145722Y-37300297D01*
X58147882Y-37285736D01*
X58151459Y-37271457D01*
X58156418Y-37257597D01*
X58162712Y-37244290D01*
X58170280Y-37231664D01*
X58179048Y-37219841D01*
X58188934Y-37208934D01*
X58199841Y-37199048D01*
X58211664Y-37190280D01*
X58224290Y-37182712D01*
X58237597Y-37176418D01*
X58251457Y-37171459D01*
X58265736Y-37167882D01*
X58280297Y-37165722D01*
X58295000Y-37165000D01*
X59945000Y-37165000D01*
X59959703Y-37165722D01*
G37*
G36*
X59959703Y-38435722D02*
G01*
X59974264Y-38437882D01*
X59988543Y-38441459D01*
X60002403Y-38446418D01*
X60015710Y-38452712D01*
X60028336Y-38460280D01*
X60040159Y-38469048D01*
X60051066Y-38478934D01*
X60060952Y-38489841D01*
X60069720Y-38501664D01*
X60077288Y-38514290D01*
X60083582Y-38527597D01*
X60088541Y-38541457D01*
X60092118Y-38555736D01*
X60094278Y-38570297D01*
X60095000Y-38585000D01*
X60095000Y-38885000D01*
X60094278Y-38899703D01*
X60092118Y-38914264D01*
X60088541Y-38928543D01*
X60083582Y-38942403D01*
X60077288Y-38955710D01*
X60069720Y-38968336D01*
X60060952Y-38980159D01*
X60051066Y-38991066D01*
X60040159Y-39000952D01*
X60028336Y-39009720D01*
X60015710Y-39017288D01*
X60002403Y-39023582D01*
X59988543Y-39028541D01*
X59974264Y-39032118D01*
X59959703Y-39034278D01*
X59945000Y-39035000D01*
X58295000Y-39035000D01*
X58280297Y-39034278D01*
X58265736Y-39032118D01*
X58251457Y-39028541D01*
X58237597Y-39023582D01*
X58224290Y-39017288D01*
X58211664Y-39009720D01*
X58199841Y-39000952D01*
X58188934Y-38991066D01*
X58179048Y-38980159D01*
X58170280Y-38968336D01*
X58162712Y-38955710D01*
X58156418Y-38942403D01*
X58151459Y-38928543D01*
X58147882Y-38914264D01*
X58145722Y-38899703D01*
X58145000Y-38885000D01*
X58145000Y-38585000D01*
X58145722Y-38570297D01*
X58147882Y-38555736D01*
X58151459Y-38541457D01*
X58156418Y-38527597D01*
X58162712Y-38514290D01*
X58170280Y-38501664D01*
X58179048Y-38489841D01*
X58188934Y-38478934D01*
X58199841Y-38469048D01*
X58211664Y-38460280D01*
X58224290Y-38452712D01*
X58237597Y-38446418D01*
X58251457Y-38441459D01*
X58265736Y-38437882D01*
X58280297Y-38435722D01*
X58295000Y-38435000D01*
X59945000Y-38435000D01*
X59959703Y-38435722D01*
G37*
G36*
X64909703Y-38435722D02*
G01*
X64924264Y-38437882D01*
X64938543Y-38441459D01*
X64952403Y-38446418D01*
X64965710Y-38452712D01*
X64978336Y-38460280D01*
X64990159Y-38469048D01*
X65001066Y-38478934D01*
X65010952Y-38489841D01*
X65019720Y-38501664D01*
X65027288Y-38514290D01*
X65033582Y-38527597D01*
X65038541Y-38541457D01*
X65042118Y-38555736D01*
X65044278Y-38570297D01*
X65045000Y-38585000D01*
X65045000Y-38885000D01*
X65044278Y-38899703D01*
X65042118Y-38914264D01*
X65038541Y-38928543D01*
X65033582Y-38942403D01*
X65027288Y-38955710D01*
X65019720Y-38968336D01*
X65010952Y-38980159D01*
X65001066Y-38991066D01*
X64990159Y-39000952D01*
X64978336Y-39009720D01*
X64965710Y-39017288D01*
X64952403Y-39023582D01*
X64938543Y-39028541D01*
X64924264Y-39032118D01*
X64909703Y-39034278D01*
X64895000Y-39035000D01*
X63245000Y-39035000D01*
X63230297Y-39034278D01*
X63215736Y-39032118D01*
X63201457Y-39028541D01*
X63187597Y-39023582D01*
X63174290Y-39017288D01*
X63161664Y-39009720D01*
X63149841Y-39000952D01*
X63138934Y-38991066D01*
X63129048Y-38980159D01*
X63120280Y-38968336D01*
X63112712Y-38955710D01*
X63106418Y-38942403D01*
X63101459Y-38928543D01*
X63097882Y-38914264D01*
X63095722Y-38899703D01*
X63095000Y-38885000D01*
X63095000Y-38585000D01*
X63095722Y-38570297D01*
X63097882Y-38555736D01*
X63101459Y-38541457D01*
X63106418Y-38527597D01*
X63112712Y-38514290D01*
X63120280Y-38501664D01*
X63129048Y-38489841D01*
X63138934Y-38478934D01*
X63149841Y-38469048D01*
X63161664Y-38460280D01*
X63174290Y-38452712D01*
X63187597Y-38446418D01*
X63201457Y-38441459D01*
X63215736Y-38437882D01*
X63230297Y-38435722D01*
X63245000Y-38435000D01*
X64895000Y-38435000D01*
X64909703Y-38435722D01*
G37*
G36*
X64909703Y-37165722D02*
G01*
X64924264Y-37167882D01*
X64938543Y-37171459D01*
X64952403Y-37176418D01*
X64965710Y-37182712D01*
X64978336Y-37190280D01*
X64990159Y-37199048D01*
X65001066Y-37208934D01*
X65010952Y-37219841D01*
X65019720Y-37231664D01*
X65027288Y-37244290D01*
X65033582Y-37257597D01*
X65038541Y-37271457D01*
X65042118Y-37285736D01*
X65044278Y-37300297D01*
X65045000Y-37315000D01*
X65045000Y-37615000D01*
X65044278Y-37629703D01*
X65042118Y-37644264D01*
X65038541Y-37658543D01*
X65033582Y-37672403D01*
X65027288Y-37685710D01*
X65019720Y-37698336D01*
X65010952Y-37710159D01*
X65001066Y-37721066D01*
X64990159Y-37730952D01*
X64978336Y-37739720D01*
X64965710Y-37747288D01*
X64952403Y-37753582D01*
X64938543Y-37758541D01*
X64924264Y-37762118D01*
X64909703Y-37764278D01*
X64895000Y-37765000D01*
X63245000Y-37765000D01*
X63230297Y-37764278D01*
X63215736Y-37762118D01*
X63201457Y-37758541D01*
X63187597Y-37753582D01*
X63174290Y-37747288D01*
X63161664Y-37739720D01*
X63149841Y-37730952D01*
X63138934Y-37721066D01*
X63129048Y-37710159D01*
X63120280Y-37698336D01*
X63112712Y-37685710D01*
X63106418Y-37672403D01*
X63101459Y-37658543D01*
X63097882Y-37644264D01*
X63095722Y-37629703D01*
X63095000Y-37615000D01*
X63095000Y-37315000D01*
X63095722Y-37300297D01*
X63097882Y-37285736D01*
X63101459Y-37271457D01*
X63106418Y-37257597D01*
X63112712Y-37244290D01*
X63120280Y-37231664D01*
X63129048Y-37219841D01*
X63138934Y-37208934D01*
X63149841Y-37199048D01*
X63161664Y-37190280D01*
X63174290Y-37182712D01*
X63187597Y-37176418D01*
X63201457Y-37171459D01*
X63215736Y-37167882D01*
X63230297Y-37165722D01*
X63245000Y-37165000D01*
X64895000Y-37165000D01*
X64909703Y-37165722D01*
G37*
G36*
X64909703Y-35895722D02*
G01*
X64924264Y-35897882D01*
X64938543Y-35901459D01*
X64952403Y-35906418D01*
X64965710Y-35912712D01*
X64978336Y-35920280D01*
X64990159Y-35929048D01*
X65001066Y-35938934D01*
X65010952Y-35949841D01*
X65019720Y-35961664D01*
X65027288Y-35974290D01*
X65033582Y-35987597D01*
X65038541Y-36001457D01*
X65042118Y-36015736D01*
X65044278Y-36030297D01*
X65045000Y-36045000D01*
X65045000Y-36345000D01*
X65044278Y-36359703D01*
X65042118Y-36374264D01*
X65038541Y-36388543D01*
X65033582Y-36402403D01*
X65027288Y-36415710D01*
X65019720Y-36428336D01*
X65010952Y-36440159D01*
X65001066Y-36451066D01*
X64990159Y-36460952D01*
X64978336Y-36469720D01*
X64965710Y-36477288D01*
X64952403Y-36483582D01*
X64938543Y-36488541D01*
X64924264Y-36492118D01*
X64909703Y-36494278D01*
X64895000Y-36495000D01*
X63245000Y-36495000D01*
X63230297Y-36494278D01*
X63215736Y-36492118D01*
X63201457Y-36488541D01*
X63187597Y-36483582D01*
X63174290Y-36477288D01*
X63161664Y-36469720D01*
X63149841Y-36460952D01*
X63138934Y-36451066D01*
X63129048Y-36440159D01*
X63120280Y-36428336D01*
X63112712Y-36415710D01*
X63106418Y-36402403D01*
X63101459Y-36388543D01*
X63097882Y-36374264D01*
X63095722Y-36359703D01*
X63095000Y-36345000D01*
X63095000Y-36045000D01*
X63095722Y-36030297D01*
X63097882Y-36015736D01*
X63101459Y-36001457D01*
X63106418Y-35987597D01*
X63112712Y-35974290D01*
X63120280Y-35961664D01*
X63129048Y-35949841D01*
X63138934Y-35938934D01*
X63149841Y-35929048D01*
X63161664Y-35920280D01*
X63174290Y-35912712D01*
X63187597Y-35906418D01*
X63201457Y-35901459D01*
X63215736Y-35897882D01*
X63230297Y-35895722D01*
X63245000Y-35895000D01*
X64895000Y-35895000D01*
X64909703Y-35895722D01*
G37*
G36*
X64909703Y-34625722D02*
G01*
X64924264Y-34627882D01*
X64938543Y-34631459D01*
X64952403Y-34636418D01*
X64965710Y-34642712D01*
X64978336Y-34650280D01*
X64990159Y-34659048D01*
X65001066Y-34668934D01*
X65010952Y-34679841D01*
X65019720Y-34691664D01*
X65027288Y-34704290D01*
X65033582Y-34717597D01*
X65038541Y-34731457D01*
X65042118Y-34745736D01*
X65044278Y-34760297D01*
X65045000Y-34775000D01*
X65045000Y-35075000D01*
X65044278Y-35089703D01*
X65042118Y-35104264D01*
X65038541Y-35118543D01*
X65033582Y-35132403D01*
X65027288Y-35145710D01*
X65019720Y-35158336D01*
X65010952Y-35170159D01*
X65001066Y-35181066D01*
X64990159Y-35190952D01*
X64978336Y-35199720D01*
X64965710Y-35207288D01*
X64952403Y-35213582D01*
X64938543Y-35218541D01*
X64924264Y-35222118D01*
X64909703Y-35224278D01*
X64895000Y-35225000D01*
X63245000Y-35225000D01*
X63230297Y-35224278D01*
X63215736Y-35222118D01*
X63201457Y-35218541D01*
X63187597Y-35213582D01*
X63174290Y-35207288D01*
X63161664Y-35199720D01*
X63149841Y-35190952D01*
X63138934Y-35181066D01*
X63129048Y-35170159D01*
X63120280Y-35158336D01*
X63112712Y-35145710D01*
X63106418Y-35132403D01*
X63101459Y-35118543D01*
X63097882Y-35104264D01*
X63095722Y-35089703D01*
X63095000Y-35075000D01*
X63095000Y-34775000D01*
X63095722Y-34760297D01*
X63097882Y-34745736D01*
X63101459Y-34731457D01*
X63106418Y-34717597D01*
X63112712Y-34704290D01*
X63120280Y-34691664D01*
X63129048Y-34679841D01*
X63138934Y-34668934D01*
X63149841Y-34659048D01*
X63161664Y-34650280D01*
X63174290Y-34642712D01*
X63187597Y-34636418D01*
X63201457Y-34631459D01*
X63215736Y-34627882D01*
X63230297Y-34625722D01*
X63245000Y-34625000D01*
X64895000Y-34625000D01*
X64909703Y-34625722D01*
G37*
G36*
X81549504Y-27066204D02*
G01*
X81573773Y-27069804D01*
X81597571Y-27075765D01*
X81620671Y-27084030D01*
X81642849Y-27094520D01*
X81663893Y-27107133D01*
X81683598Y-27121747D01*
X81701777Y-27138223D01*
X81718253Y-27156402D01*
X81732867Y-27176107D01*
X81745480Y-27197151D01*
X81755970Y-27219329D01*
X81764235Y-27242429D01*
X81770196Y-27266227D01*
X81773796Y-27290496D01*
X81775000Y-27315000D01*
X81775000Y-28565000D01*
X81773796Y-28589504D01*
X81770196Y-28613773D01*
X81764235Y-28637571D01*
X81755970Y-28660671D01*
X81745480Y-28682849D01*
X81732867Y-28703893D01*
X81718253Y-28723598D01*
X81701777Y-28741777D01*
X81683598Y-28758253D01*
X81663893Y-28772867D01*
X81642849Y-28785480D01*
X81620671Y-28795970D01*
X81597571Y-28804235D01*
X81573773Y-28810196D01*
X81549504Y-28813796D01*
X81525000Y-28815000D01*
X80600000Y-28815000D01*
X80575496Y-28813796D01*
X80551227Y-28810196D01*
X80527429Y-28804235D01*
X80504329Y-28795970D01*
X80482151Y-28785480D01*
X80461107Y-28772867D01*
X80441402Y-28758253D01*
X80423223Y-28741777D01*
X80406747Y-28723598D01*
X80392133Y-28703893D01*
X80379520Y-28682849D01*
X80369030Y-28660671D01*
X80360765Y-28637571D01*
X80354804Y-28613773D01*
X80351204Y-28589504D01*
X80350000Y-28565000D01*
X80350000Y-27315000D01*
X80351204Y-27290496D01*
X80354804Y-27266227D01*
X80360765Y-27242429D01*
X80369030Y-27219329D01*
X80379520Y-27197151D01*
X80392133Y-27176107D01*
X80406747Y-27156402D01*
X80423223Y-27138223D01*
X80441402Y-27121747D01*
X80461107Y-27107133D01*
X80482151Y-27094520D01*
X80504329Y-27084030D01*
X80527429Y-27075765D01*
X80551227Y-27069804D01*
X80575496Y-27066204D01*
X80600000Y-27065000D01*
X81525000Y-27065000D01*
X81549504Y-27066204D01*
G37*
G36*
X84524504Y-27066204D02*
G01*
X84548773Y-27069804D01*
X84572571Y-27075765D01*
X84595671Y-27084030D01*
X84617849Y-27094520D01*
X84638893Y-27107133D01*
X84658598Y-27121747D01*
X84676777Y-27138223D01*
X84693253Y-27156402D01*
X84707867Y-27176107D01*
X84720480Y-27197151D01*
X84730970Y-27219329D01*
X84739235Y-27242429D01*
X84745196Y-27266227D01*
X84748796Y-27290496D01*
X84750000Y-27315000D01*
X84750000Y-28565000D01*
X84748796Y-28589504D01*
X84745196Y-28613773D01*
X84739235Y-28637571D01*
X84730970Y-28660671D01*
X84720480Y-28682849D01*
X84707867Y-28703893D01*
X84693253Y-28723598D01*
X84676777Y-28741777D01*
X84658598Y-28758253D01*
X84638893Y-28772867D01*
X84617849Y-28785480D01*
X84595671Y-28795970D01*
X84572571Y-28804235D01*
X84548773Y-28810196D01*
X84524504Y-28813796D01*
X84500000Y-28815000D01*
X83575000Y-28815000D01*
X83550496Y-28813796D01*
X83526227Y-28810196D01*
X83502429Y-28804235D01*
X83479329Y-28795970D01*
X83457151Y-28785480D01*
X83436107Y-28772867D01*
X83416402Y-28758253D01*
X83398223Y-28741777D01*
X83381747Y-28723598D01*
X83367133Y-28703893D01*
X83354520Y-28682849D01*
X83344030Y-28660671D01*
X83335765Y-28637571D01*
X83329804Y-28613773D01*
X83326204Y-28589504D01*
X83325000Y-28565000D01*
X83325000Y-27315000D01*
X83326204Y-27290496D01*
X83329804Y-27266227D01*
X83335765Y-27242429D01*
X83344030Y-27219329D01*
X83354520Y-27197151D01*
X83367133Y-27176107D01*
X83381747Y-27156402D01*
X83398223Y-27138223D01*
X83416402Y-27121747D01*
X83436107Y-27107133D01*
X83457151Y-27094520D01*
X83479329Y-27084030D01*
X83502429Y-27075765D01*
X83526227Y-27069804D01*
X83550496Y-27066204D01*
X83575000Y-27065000D01*
X84500000Y-27065000D01*
X84524504Y-27066204D01*
G37*
G36*
X87890779Y-18921144D02*
G01*
X87913834Y-18924563D01*
X87936443Y-18930227D01*
X87958387Y-18938079D01*
X87979457Y-18948044D01*
X87999448Y-18960026D01*
X88018168Y-18973910D01*
X88035438Y-18989562D01*
X88051090Y-19006832D01*
X88064974Y-19025552D01*
X88076956Y-19045543D01*
X88086921Y-19066613D01*
X88094773Y-19088557D01*
X88100437Y-19111166D01*
X88103856Y-19134221D01*
X88105000Y-19157500D01*
X88105000Y-19732500D01*
X88103856Y-19755779D01*
X88100437Y-19778834D01*
X88094773Y-19801443D01*
X88086921Y-19823387D01*
X88076956Y-19844457D01*
X88064974Y-19864448D01*
X88051090Y-19883168D01*
X88035438Y-19900438D01*
X88018168Y-19916090D01*
X87999448Y-19929974D01*
X87979457Y-19941956D01*
X87958387Y-19951921D01*
X87936443Y-19959773D01*
X87913834Y-19965437D01*
X87890779Y-19968856D01*
X87867500Y-19970000D01*
X87392500Y-19970000D01*
X87369221Y-19968856D01*
X87346166Y-19965437D01*
X87323557Y-19959773D01*
X87301613Y-19951921D01*
X87280543Y-19941956D01*
X87260552Y-19929974D01*
X87241832Y-19916090D01*
X87224562Y-19900438D01*
X87208910Y-19883168D01*
X87195026Y-19864448D01*
X87183044Y-19844457D01*
X87173079Y-19823387D01*
X87165227Y-19801443D01*
X87159563Y-19778834D01*
X87156144Y-19755779D01*
X87155000Y-19732500D01*
X87155000Y-19157500D01*
X87156144Y-19134221D01*
X87159563Y-19111166D01*
X87165227Y-19088557D01*
X87173079Y-19066613D01*
X87183044Y-19045543D01*
X87195026Y-19025552D01*
X87208910Y-19006832D01*
X87224562Y-18989562D01*
X87241832Y-18973910D01*
X87260552Y-18960026D01*
X87280543Y-18948044D01*
X87301613Y-18938079D01*
X87323557Y-18930227D01*
X87346166Y-18924563D01*
X87369221Y-18921144D01*
X87392500Y-18920000D01*
X87867500Y-18920000D01*
X87890779Y-18921144D01*
G37*
G36*
X87890779Y-20671144D02*
G01*
X87913834Y-20674563D01*
X87936443Y-20680227D01*
X87958387Y-20688079D01*
X87979457Y-20698044D01*
X87999448Y-20710026D01*
X88018168Y-20723910D01*
X88035438Y-20739562D01*
X88051090Y-20756832D01*
X88064974Y-20775552D01*
X88076956Y-20795543D01*
X88086921Y-20816613D01*
X88094773Y-20838557D01*
X88100437Y-20861166D01*
X88103856Y-20884221D01*
X88105000Y-20907500D01*
X88105000Y-21482500D01*
X88103856Y-21505779D01*
X88100437Y-21528834D01*
X88094773Y-21551443D01*
X88086921Y-21573387D01*
X88076956Y-21594457D01*
X88064974Y-21614448D01*
X88051090Y-21633168D01*
X88035438Y-21650438D01*
X88018168Y-21666090D01*
X87999448Y-21679974D01*
X87979457Y-21691956D01*
X87958387Y-21701921D01*
X87936443Y-21709773D01*
X87913834Y-21715437D01*
X87890779Y-21718856D01*
X87867500Y-21720000D01*
X87392500Y-21720000D01*
X87369221Y-21718856D01*
X87346166Y-21715437D01*
X87323557Y-21709773D01*
X87301613Y-21701921D01*
X87280543Y-21691956D01*
X87260552Y-21679974D01*
X87241832Y-21666090D01*
X87224562Y-21650438D01*
X87208910Y-21633168D01*
X87195026Y-21614448D01*
X87183044Y-21594457D01*
X87173079Y-21573387D01*
X87165227Y-21551443D01*
X87159563Y-21528834D01*
X87156144Y-21505779D01*
X87155000Y-21482500D01*
X87155000Y-20907500D01*
X87156144Y-20884221D01*
X87159563Y-20861166D01*
X87165227Y-20838557D01*
X87173079Y-20816613D01*
X87183044Y-20795543D01*
X87195026Y-20775552D01*
X87208910Y-20756832D01*
X87224562Y-20739562D01*
X87241832Y-20723910D01*
X87260552Y-20710026D01*
X87280543Y-20698044D01*
X87301613Y-20688079D01*
X87323557Y-20680227D01*
X87346166Y-20674563D01*
X87369221Y-20671144D01*
X87392500Y-20670000D01*
X87867500Y-20670000D01*
X87890779Y-20671144D01*
G37*
G36*
X69475779Y-46071144D02*
G01*
X69498834Y-46074563D01*
X69521443Y-46080227D01*
X69543387Y-46088079D01*
X69564457Y-46098044D01*
X69584448Y-46110026D01*
X69603168Y-46123910D01*
X69620438Y-46139562D01*
X69636090Y-46156832D01*
X69649974Y-46175552D01*
X69661956Y-46195543D01*
X69671921Y-46216613D01*
X69679773Y-46238557D01*
X69685437Y-46261166D01*
X69688856Y-46284221D01*
X69690000Y-46307500D01*
X69690000Y-46882500D01*
X69688856Y-46905779D01*
X69685437Y-46928834D01*
X69679773Y-46951443D01*
X69671921Y-46973387D01*
X69661956Y-46994457D01*
X69649974Y-47014448D01*
X69636090Y-47033168D01*
X69620438Y-47050438D01*
X69603168Y-47066090D01*
X69584448Y-47079974D01*
X69564457Y-47091956D01*
X69543387Y-47101921D01*
X69521443Y-47109773D01*
X69498834Y-47115437D01*
X69475779Y-47118856D01*
X69452500Y-47120000D01*
X68977500Y-47120000D01*
X68954221Y-47118856D01*
X68931166Y-47115437D01*
X68908557Y-47109773D01*
X68886613Y-47101921D01*
X68865543Y-47091956D01*
X68845552Y-47079974D01*
X68826832Y-47066090D01*
X68809562Y-47050438D01*
X68793910Y-47033168D01*
X68780026Y-47014448D01*
X68768044Y-46994457D01*
X68758079Y-46973387D01*
X68750227Y-46951443D01*
X68744563Y-46928834D01*
X68741144Y-46905779D01*
X68740000Y-46882500D01*
X68740000Y-46307500D01*
X68741144Y-46284221D01*
X68744563Y-46261166D01*
X68750227Y-46238557D01*
X68758079Y-46216613D01*
X68768044Y-46195543D01*
X68780026Y-46175552D01*
X68793910Y-46156832D01*
X68809562Y-46139562D01*
X68826832Y-46123910D01*
X68845552Y-46110026D01*
X68865543Y-46098044D01*
X68886613Y-46088079D01*
X68908557Y-46080227D01*
X68931166Y-46074563D01*
X68954221Y-46071144D01*
X68977500Y-46070000D01*
X69452500Y-46070000D01*
X69475779Y-46071144D01*
G37*
G36*
X69475779Y-44321144D02*
G01*
X69498834Y-44324563D01*
X69521443Y-44330227D01*
X69543387Y-44338079D01*
X69564457Y-44348044D01*
X69584448Y-44360026D01*
X69603168Y-44373910D01*
X69620438Y-44389562D01*
X69636090Y-44406832D01*
X69649974Y-44425552D01*
X69661956Y-44445543D01*
X69671921Y-44466613D01*
X69679773Y-44488557D01*
X69685437Y-44511166D01*
X69688856Y-44534221D01*
X69690000Y-44557500D01*
X69690000Y-45132500D01*
X69688856Y-45155779D01*
X69685437Y-45178834D01*
X69679773Y-45201443D01*
X69671921Y-45223387D01*
X69661956Y-45244457D01*
X69649974Y-45264448D01*
X69636090Y-45283168D01*
X69620438Y-45300438D01*
X69603168Y-45316090D01*
X69584448Y-45329974D01*
X69564457Y-45341956D01*
X69543387Y-45351921D01*
X69521443Y-45359773D01*
X69498834Y-45365437D01*
X69475779Y-45368856D01*
X69452500Y-45370000D01*
X68977500Y-45370000D01*
X68954221Y-45368856D01*
X68931166Y-45365437D01*
X68908557Y-45359773D01*
X68886613Y-45351921D01*
X68865543Y-45341956D01*
X68845552Y-45329974D01*
X68826832Y-45316090D01*
X68809562Y-45300438D01*
X68793910Y-45283168D01*
X68780026Y-45264448D01*
X68768044Y-45244457D01*
X68758079Y-45223387D01*
X68750227Y-45201443D01*
X68744563Y-45178834D01*
X68741144Y-45155779D01*
X68740000Y-45132500D01*
X68740000Y-44557500D01*
X68741144Y-44534221D01*
X68744563Y-44511166D01*
X68750227Y-44488557D01*
X68758079Y-44466613D01*
X68768044Y-44445543D01*
X68780026Y-44425552D01*
X68793910Y-44406832D01*
X68809562Y-44389562D01*
X68826832Y-44373910D01*
X68845552Y-44360026D01*
X68865543Y-44348044D01*
X68886613Y-44338079D01*
X68908557Y-44330227D01*
X68931166Y-44324563D01*
X68954221Y-44321144D01*
X68977500Y-44320000D01*
X69452500Y-44320000D01*
X69475779Y-44321144D01*
G37*
G36*
X46008279Y-55406144D02*
G01*
X46031334Y-55409563D01*
X46053943Y-55415227D01*
X46075887Y-55423079D01*
X46096957Y-55433044D01*
X46116948Y-55445026D01*
X46135668Y-55458910D01*
X46152938Y-55474562D01*
X46168590Y-55491832D01*
X46182474Y-55510552D01*
X46194456Y-55530543D01*
X46204421Y-55551613D01*
X46212273Y-55573557D01*
X46217937Y-55596166D01*
X46221356Y-55619221D01*
X46222500Y-55642500D01*
X46222500Y-56117500D01*
X46221356Y-56140779D01*
X46217937Y-56163834D01*
X46212273Y-56186443D01*
X46204421Y-56208387D01*
X46194456Y-56229457D01*
X46182474Y-56249448D01*
X46168590Y-56268168D01*
X46152938Y-56285438D01*
X46135668Y-56301090D01*
X46116948Y-56314974D01*
X46096957Y-56326956D01*
X46075887Y-56336921D01*
X46053943Y-56344773D01*
X46031334Y-56350437D01*
X46008279Y-56353856D01*
X45985000Y-56355000D01*
X45410000Y-56355000D01*
X45386721Y-56353856D01*
X45363666Y-56350437D01*
X45341057Y-56344773D01*
X45319113Y-56336921D01*
X45298043Y-56326956D01*
X45278052Y-56314974D01*
X45259332Y-56301090D01*
X45242062Y-56285438D01*
X45226410Y-56268168D01*
X45212526Y-56249448D01*
X45200544Y-56229457D01*
X45190579Y-56208387D01*
X45182727Y-56186443D01*
X45177063Y-56163834D01*
X45173644Y-56140779D01*
X45172500Y-56117500D01*
X45172500Y-55642500D01*
X45173644Y-55619221D01*
X45177063Y-55596166D01*
X45182727Y-55573557D01*
X45190579Y-55551613D01*
X45200544Y-55530543D01*
X45212526Y-55510552D01*
X45226410Y-55491832D01*
X45242062Y-55474562D01*
X45259332Y-55458910D01*
X45278052Y-55445026D01*
X45298043Y-55433044D01*
X45319113Y-55423079D01*
X45341057Y-55415227D01*
X45363666Y-55409563D01*
X45386721Y-55406144D01*
X45410000Y-55405000D01*
X45985000Y-55405000D01*
X46008279Y-55406144D01*
G37*
G36*
X47758279Y-55406144D02*
G01*
X47781334Y-55409563D01*
X47803943Y-55415227D01*
X47825887Y-55423079D01*
X47846957Y-55433044D01*
X47866948Y-55445026D01*
X47885668Y-55458910D01*
X47902938Y-55474562D01*
X47918590Y-55491832D01*
X47932474Y-55510552D01*
X47944456Y-55530543D01*
X47954421Y-55551613D01*
X47962273Y-55573557D01*
X47967937Y-55596166D01*
X47971356Y-55619221D01*
X47972500Y-55642500D01*
X47972500Y-56117500D01*
X47971356Y-56140779D01*
X47967937Y-56163834D01*
X47962273Y-56186443D01*
X47954421Y-56208387D01*
X47944456Y-56229457D01*
X47932474Y-56249448D01*
X47918590Y-56268168D01*
X47902938Y-56285438D01*
X47885668Y-56301090D01*
X47866948Y-56314974D01*
X47846957Y-56326956D01*
X47825887Y-56336921D01*
X47803943Y-56344773D01*
X47781334Y-56350437D01*
X47758279Y-56353856D01*
X47735000Y-56355000D01*
X47160000Y-56355000D01*
X47136721Y-56353856D01*
X47113666Y-56350437D01*
X47091057Y-56344773D01*
X47069113Y-56336921D01*
X47048043Y-56326956D01*
X47028052Y-56314974D01*
X47009332Y-56301090D01*
X46992062Y-56285438D01*
X46976410Y-56268168D01*
X46962526Y-56249448D01*
X46950544Y-56229457D01*
X46940579Y-56208387D01*
X46932727Y-56186443D01*
X46927063Y-56163834D01*
X46923644Y-56140779D01*
X46922500Y-56117500D01*
X46922500Y-55642500D01*
X46923644Y-55619221D01*
X46927063Y-55596166D01*
X46932727Y-55573557D01*
X46940579Y-55551613D01*
X46950544Y-55530543D01*
X46962526Y-55510552D01*
X46976410Y-55491832D01*
X46992062Y-55474562D01*
X47009332Y-55458910D01*
X47028052Y-55445026D01*
X47048043Y-55433044D01*
X47069113Y-55423079D01*
X47091057Y-55415227D01*
X47113666Y-55409563D01*
X47136721Y-55406144D01*
X47160000Y-55405000D01*
X47735000Y-55405000D01*
X47758279Y-55406144D01*
G37*
G36*
X46008279Y-60486144D02*
G01*
X46031334Y-60489563D01*
X46053943Y-60495227D01*
X46075887Y-60503079D01*
X46096957Y-60513044D01*
X46116948Y-60525026D01*
X46135668Y-60538910D01*
X46152938Y-60554562D01*
X46168590Y-60571832D01*
X46182474Y-60590552D01*
X46194456Y-60610543D01*
X46204421Y-60631613D01*
X46212273Y-60653557D01*
X46217937Y-60676166D01*
X46221356Y-60699221D01*
X46222500Y-60722500D01*
X46222500Y-61197500D01*
X46221356Y-61220779D01*
X46217937Y-61243834D01*
X46212273Y-61266443D01*
X46204421Y-61288387D01*
X46194456Y-61309457D01*
X46182474Y-61329448D01*
X46168590Y-61348168D01*
X46152938Y-61365438D01*
X46135668Y-61381090D01*
X46116948Y-61394974D01*
X46096957Y-61406956D01*
X46075887Y-61416921D01*
X46053943Y-61424773D01*
X46031334Y-61430437D01*
X46008279Y-61433856D01*
X45985000Y-61435000D01*
X45410000Y-61435000D01*
X45386721Y-61433856D01*
X45363666Y-61430437D01*
X45341057Y-61424773D01*
X45319113Y-61416921D01*
X45298043Y-61406956D01*
X45278052Y-61394974D01*
X45259332Y-61381090D01*
X45242062Y-61365438D01*
X45226410Y-61348168D01*
X45212526Y-61329448D01*
X45200544Y-61309457D01*
X45190579Y-61288387D01*
X45182727Y-61266443D01*
X45177063Y-61243834D01*
X45173644Y-61220779D01*
X45172500Y-61197500D01*
X45172500Y-60722500D01*
X45173644Y-60699221D01*
X45177063Y-60676166D01*
X45182727Y-60653557D01*
X45190579Y-60631613D01*
X45200544Y-60610543D01*
X45212526Y-60590552D01*
X45226410Y-60571832D01*
X45242062Y-60554562D01*
X45259332Y-60538910D01*
X45278052Y-60525026D01*
X45298043Y-60513044D01*
X45319113Y-60503079D01*
X45341057Y-60495227D01*
X45363666Y-60489563D01*
X45386721Y-60486144D01*
X45410000Y-60485000D01*
X45985000Y-60485000D01*
X46008279Y-60486144D01*
G37*
G36*
X47758279Y-60486144D02*
G01*
X47781334Y-60489563D01*
X47803943Y-60495227D01*
X47825887Y-60503079D01*
X47846957Y-60513044D01*
X47866948Y-60525026D01*
X47885668Y-60538910D01*
X47902938Y-60554562D01*
X47918590Y-60571832D01*
X47932474Y-60590552D01*
X47944456Y-60610543D01*
X47954421Y-60631613D01*
X47962273Y-60653557D01*
X47967937Y-60676166D01*
X47971356Y-60699221D01*
X47972500Y-60722500D01*
X47972500Y-61197500D01*
X47971356Y-61220779D01*
X47967937Y-61243834D01*
X47962273Y-61266443D01*
X47954421Y-61288387D01*
X47944456Y-61309457D01*
X47932474Y-61329448D01*
X47918590Y-61348168D01*
X47902938Y-61365438D01*
X47885668Y-61381090D01*
X47866948Y-61394974D01*
X47846957Y-61406956D01*
X47825887Y-61416921D01*
X47803943Y-61424773D01*
X47781334Y-61430437D01*
X47758279Y-61433856D01*
X47735000Y-61435000D01*
X47160000Y-61435000D01*
X47136721Y-61433856D01*
X47113666Y-61430437D01*
X47091057Y-61424773D01*
X47069113Y-61416921D01*
X47048043Y-61406956D01*
X47028052Y-61394974D01*
X47009332Y-61381090D01*
X46992062Y-61365438D01*
X46976410Y-61348168D01*
X46962526Y-61329448D01*
X46950544Y-61309457D01*
X46940579Y-61288387D01*
X46932727Y-61266443D01*
X46927063Y-61243834D01*
X46923644Y-61220779D01*
X46922500Y-61197500D01*
X46922500Y-60722500D01*
X46923644Y-60699221D01*
X46927063Y-60676166D01*
X46932727Y-60653557D01*
X46940579Y-60631613D01*
X46950544Y-60610543D01*
X46962526Y-60590552D01*
X46976410Y-60571832D01*
X46992062Y-60554562D01*
X47009332Y-60538910D01*
X47028052Y-60525026D01*
X47048043Y-60513044D01*
X47069113Y-60503079D01*
X47091057Y-60495227D01*
X47113666Y-60489563D01*
X47136721Y-60486144D01*
X47160000Y-60485000D01*
X47735000Y-60485000D01*
X47758279Y-60486144D01*
G37*
G36*
X53600779Y-15111144D02*
G01*
X53623834Y-15114563D01*
X53646443Y-15120227D01*
X53668387Y-15128079D01*
X53689457Y-15138044D01*
X53709448Y-15150026D01*
X53728168Y-15163910D01*
X53745438Y-15179562D01*
X53761090Y-15196832D01*
X53774974Y-15215552D01*
X53786956Y-15235543D01*
X53796921Y-15256613D01*
X53804773Y-15278557D01*
X53810437Y-15301166D01*
X53813856Y-15324221D01*
X53815000Y-15347500D01*
X53815000Y-15922500D01*
X53813856Y-15945779D01*
X53810437Y-15968834D01*
X53804773Y-15991443D01*
X53796921Y-16013387D01*
X53786956Y-16034457D01*
X53774974Y-16054448D01*
X53761090Y-16073168D01*
X53745438Y-16090438D01*
X53728168Y-16106090D01*
X53709448Y-16119974D01*
X53689457Y-16131956D01*
X53668387Y-16141921D01*
X53646443Y-16149773D01*
X53623834Y-16155437D01*
X53600779Y-16158856D01*
X53577500Y-16160000D01*
X53102500Y-16160000D01*
X53079221Y-16158856D01*
X53056166Y-16155437D01*
X53033557Y-16149773D01*
X53011613Y-16141921D01*
X52990543Y-16131956D01*
X52970552Y-16119974D01*
X52951832Y-16106090D01*
X52934562Y-16090438D01*
X52918910Y-16073168D01*
X52905026Y-16054448D01*
X52893044Y-16034457D01*
X52883079Y-16013387D01*
X52875227Y-15991443D01*
X52869563Y-15968834D01*
X52866144Y-15945779D01*
X52865000Y-15922500D01*
X52865000Y-15347500D01*
X52866144Y-15324221D01*
X52869563Y-15301166D01*
X52875227Y-15278557D01*
X52883079Y-15256613D01*
X52893044Y-15235543D01*
X52905026Y-15215552D01*
X52918910Y-15196832D01*
X52934562Y-15179562D01*
X52951832Y-15163910D01*
X52970552Y-15150026D01*
X52990543Y-15138044D01*
X53011613Y-15128079D01*
X53033557Y-15120227D01*
X53056166Y-15114563D01*
X53079221Y-15111144D01*
X53102500Y-15110000D01*
X53577500Y-15110000D01*
X53600779Y-15111144D01*
G37*
G36*
X53600779Y-16861144D02*
G01*
X53623834Y-16864563D01*
X53646443Y-16870227D01*
X53668387Y-16878079D01*
X53689457Y-16888044D01*
X53709448Y-16900026D01*
X53728168Y-16913910D01*
X53745438Y-16929562D01*
X53761090Y-16946832D01*
X53774974Y-16965552D01*
X53786956Y-16985543D01*
X53796921Y-17006613D01*
X53804773Y-17028557D01*
X53810437Y-17051166D01*
X53813856Y-17074221D01*
X53815000Y-17097500D01*
X53815000Y-17672500D01*
X53813856Y-17695779D01*
X53810437Y-17718834D01*
X53804773Y-17741443D01*
X53796921Y-17763387D01*
X53786956Y-17784457D01*
X53774974Y-17804448D01*
X53761090Y-17823168D01*
X53745438Y-17840438D01*
X53728168Y-17856090D01*
X53709448Y-17869974D01*
X53689457Y-17881956D01*
X53668387Y-17891921D01*
X53646443Y-17899773D01*
X53623834Y-17905437D01*
X53600779Y-17908856D01*
X53577500Y-17910000D01*
X53102500Y-17910000D01*
X53079221Y-17908856D01*
X53056166Y-17905437D01*
X53033557Y-17899773D01*
X53011613Y-17891921D01*
X52990543Y-17881956D01*
X52970552Y-17869974D01*
X52951832Y-17856090D01*
X52934562Y-17840438D01*
X52918910Y-17823168D01*
X52905026Y-17804448D01*
X52893044Y-17784457D01*
X52883079Y-17763387D01*
X52875227Y-17741443D01*
X52869563Y-17718834D01*
X52866144Y-17695779D01*
X52865000Y-17672500D01*
X52865000Y-17097500D01*
X52866144Y-17074221D01*
X52869563Y-17051166D01*
X52875227Y-17028557D01*
X52883079Y-17006613D01*
X52893044Y-16985543D01*
X52905026Y-16965552D01*
X52918910Y-16946832D01*
X52934562Y-16929562D01*
X52951832Y-16913910D01*
X52970552Y-16900026D01*
X52990543Y-16888044D01*
X53011613Y-16878079D01*
X53033557Y-16870227D01*
X53056166Y-16864563D01*
X53079221Y-16861144D01*
X53102500Y-16860000D01*
X53577500Y-16860000D01*
X53600779Y-16861144D01*
G37*
G36*
X58680779Y-16861144D02*
G01*
X58703834Y-16864563D01*
X58726443Y-16870227D01*
X58748387Y-16878079D01*
X58769457Y-16888044D01*
X58789448Y-16900026D01*
X58808168Y-16913910D01*
X58825438Y-16929562D01*
X58841090Y-16946832D01*
X58854974Y-16965552D01*
X58866956Y-16985543D01*
X58876921Y-17006613D01*
X58884773Y-17028557D01*
X58890437Y-17051166D01*
X58893856Y-17074221D01*
X58895000Y-17097500D01*
X58895000Y-17672500D01*
X58893856Y-17695779D01*
X58890437Y-17718834D01*
X58884773Y-17741443D01*
X58876921Y-17763387D01*
X58866956Y-17784457D01*
X58854974Y-17804448D01*
X58841090Y-17823168D01*
X58825438Y-17840438D01*
X58808168Y-17856090D01*
X58789448Y-17869974D01*
X58769457Y-17881956D01*
X58748387Y-17891921D01*
X58726443Y-17899773D01*
X58703834Y-17905437D01*
X58680779Y-17908856D01*
X58657500Y-17910000D01*
X58182500Y-17910000D01*
X58159221Y-17908856D01*
X58136166Y-17905437D01*
X58113557Y-17899773D01*
X58091613Y-17891921D01*
X58070543Y-17881956D01*
X58050552Y-17869974D01*
X58031832Y-17856090D01*
X58014562Y-17840438D01*
X57998910Y-17823168D01*
X57985026Y-17804448D01*
X57973044Y-17784457D01*
X57963079Y-17763387D01*
X57955227Y-17741443D01*
X57949563Y-17718834D01*
X57946144Y-17695779D01*
X57945000Y-17672500D01*
X57945000Y-17097500D01*
X57946144Y-17074221D01*
X57949563Y-17051166D01*
X57955227Y-17028557D01*
X57963079Y-17006613D01*
X57973044Y-16985543D01*
X57985026Y-16965552D01*
X57998910Y-16946832D01*
X58014562Y-16929562D01*
X58031832Y-16913910D01*
X58050552Y-16900026D01*
X58070543Y-16888044D01*
X58091613Y-16878079D01*
X58113557Y-16870227D01*
X58136166Y-16864563D01*
X58159221Y-16861144D01*
X58182500Y-16860000D01*
X58657500Y-16860000D01*
X58680779Y-16861144D01*
G37*
G36*
X58680779Y-15111144D02*
G01*
X58703834Y-15114563D01*
X58726443Y-15120227D01*
X58748387Y-15128079D01*
X58769457Y-15138044D01*
X58789448Y-15150026D01*
X58808168Y-15163910D01*
X58825438Y-15179562D01*
X58841090Y-15196832D01*
X58854974Y-15215552D01*
X58866956Y-15235543D01*
X58876921Y-15256613D01*
X58884773Y-15278557D01*
X58890437Y-15301166D01*
X58893856Y-15324221D01*
X58895000Y-15347500D01*
X58895000Y-15922500D01*
X58893856Y-15945779D01*
X58890437Y-15968834D01*
X58884773Y-15991443D01*
X58876921Y-16013387D01*
X58866956Y-16034457D01*
X58854974Y-16054448D01*
X58841090Y-16073168D01*
X58825438Y-16090438D01*
X58808168Y-16106090D01*
X58789448Y-16119974D01*
X58769457Y-16131956D01*
X58748387Y-16141921D01*
X58726443Y-16149773D01*
X58703834Y-16155437D01*
X58680779Y-16158856D01*
X58657500Y-16160000D01*
X58182500Y-16160000D01*
X58159221Y-16158856D01*
X58136166Y-16155437D01*
X58113557Y-16149773D01*
X58091613Y-16141921D01*
X58070543Y-16131956D01*
X58050552Y-16119974D01*
X58031832Y-16106090D01*
X58014562Y-16090438D01*
X57998910Y-16073168D01*
X57985026Y-16054448D01*
X57973044Y-16034457D01*
X57963079Y-16013387D01*
X57955227Y-15991443D01*
X57949563Y-15968834D01*
X57946144Y-15945779D01*
X57945000Y-15922500D01*
X57945000Y-15347500D01*
X57946144Y-15324221D01*
X57949563Y-15301166D01*
X57955227Y-15278557D01*
X57963079Y-15256613D01*
X57973044Y-15235543D01*
X57985026Y-15215552D01*
X57998910Y-15196832D01*
X58014562Y-15179562D01*
X58031832Y-15163910D01*
X58050552Y-15150026D01*
X58070543Y-15138044D01*
X58091613Y-15128079D01*
X58113557Y-15120227D01*
X58136166Y-15114563D01*
X58159221Y-15111144D01*
X58182500Y-15110000D01*
X58657500Y-15110000D01*
X58680779Y-15111144D01*
G37*
G36*
X68459779Y-41208644D02*
G01*
X68482834Y-41212063D01*
X68505443Y-41217727D01*
X68527387Y-41225579D01*
X68548457Y-41235544D01*
X68568448Y-41247526D01*
X68587168Y-41261410D01*
X68604438Y-41277062D01*
X68620090Y-41294332D01*
X68633974Y-41313052D01*
X68645956Y-41333043D01*
X68655921Y-41354113D01*
X68663773Y-41376057D01*
X68669437Y-41398666D01*
X68672856Y-41421721D01*
X68674000Y-41445000D01*
X68674000Y-42020000D01*
X68672856Y-42043279D01*
X68669437Y-42066334D01*
X68663773Y-42088943D01*
X68655921Y-42110887D01*
X68645956Y-42131957D01*
X68633974Y-42151948D01*
X68620090Y-42170668D01*
X68604438Y-42187938D01*
X68587168Y-42203590D01*
X68568448Y-42217474D01*
X68548457Y-42229456D01*
X68527387Y-42239421D01*
X68505443Y-42247273D01*
X68482834Y-42252937D01*
X68459779Y-42256356D01*
X68436500Y-42257500D01*
X67961500Y-42257500D01*
X67938221Y-42256356D01*
X67915166Y-42252937D01*
X67892557Y-42247273D01*
X67870613Y-42239421D01*
X67849543Y-42229456D01*
X67829552Y-42217474D01*
X67810832Y-42203590D01*
X67793562Y-42187938D01*
X67777910Y-42170668D01*
X67764026Y-42151948D01*
X67752044Y-42131957D01*
X67742079Y-42110887D01*
X67734227Y-42088943D01*
X67728563Y-42066334D01*
X67725144Y-42043279D01*
X67724000Y-42020000D01*
X67724000Y-41445000D01*
X67725144Y-41421721D01*
X67728563Y-41398666D01*
X67734227Y-41376057D01*
X67742079Y-41354113D01*
X67752044Y-41333043D01*
X67764026Y-41313052D01*
X67777910Y-41294332D01*
X67793562Y-41277062D01*
X67810832Y-41261410D01*
X67829552Y-41247526D01*
X67849543Y-41235544D01*
X67870613Y-41225579D01*
X67892557Y-41217727D01*
X67915166Y-41212063D01*
X67938221Y-41208644D01*
X67961500Y-41207500D01*
X68436500Y-41207500D01*
X68459779Y-41208644D01*
G37*
G36*
X68459779Y-39458644D02*
G01*
X68482834Y-39462063D01*
X68505443Y-39467727D01*
X68527387Y-39475579D01*
X68548457Y-39485544D01*
X68568448Y-39497526D01*
X68587168Y-39511410D01*
X68604438Y-39527062D01*
X68620090Y-39544332D01*
X68633974Y-39563052D01*
X68645956Y-39583043D01*
X68655921Y-39604113D01*
X68663773Y-39626057D01*
X68669437Y-39648666D01*
X68672856Y-39671721D01*
X68674000Y-39695000D01*
X68674000Y-40270000D01*
X68672856Y-40293279D01*
X68669437Y-40316334D01*
X68663773Y-40338943D01*
X68655921Y-40360887D01*
X68645956Y-40381957D01*
X68633974Y-40401948D01*
X68620090Y-40420668D01*
X68604438Y-40437938D01*
X68587168Y-40453590D01*
X68568448Y-40467474D01*
X68548457Y-40479456D01*
X68527387Y-40489421D01*
X68505443Y-40497273D01*
X68482834Y-40502937D01*
X68459779Y-40506356D01*
X68436500Y-40507500D01*
X67961500Y-40507500D01*
X67938221Y-40506356D01*
X67915166Y-40502937D01*
X67892557Y-40497273D01*
X67870613Y-40489421D01*
X67849543Y-40479456D01*
X67829552Y-40467474D01*
X67810832Y-40453590D01*
X67793562Y-40437938D01*
X67777910Y-40420668D01*
X67764026Y-40401948D01*
X67752044Y-40381957D01*
X67742079Y-40360887D01*
X67734227Y-40338943D01*
X67728563Y-40316334D01*
X67725144Y-40293279D01*
X67724000Y-40270000D01*
X67724000Y-39695000D01*
X67725144Y-39671721D01*
X67728563Y-39648666D01*
X67734227Y-39626057D01*
X67742079Y-39604113D01*
X67752044Y-39583043D01*
X67764026Y-39563052D01*
X67777910Y-39544332D01*
X67793562Y-39527062D01*
X67810832Y-39511410D01*
X67829552Y-39497526D01*
X67849543Y-39485544D01*
X67870613Y-39475579D01*
X67892557Y-39467727D01*
X67915166Y-39462063D01*
X67938221Y-39458644D01*
X67961500Y-39457500D01*
X68436500Y-39457500D01*
X68459779Y-39458644D01*
G37*
G36*
X74299504Y-48051204D02*
G01*
X74323773Y-48054804D01*
X74347571Y-48060765D01*
X74370671Y-48069030D01*
X74392849Y-48079520D01*
X74413893Y-48092133D01*
X74433598Y-48106747D01*
X74451777Y-48123223D01*
X74468253Y-48141402D01*
X74482867Y-48161107D01*
X74495480Y-48182151D01*
X74505970Y-48204329D01*
X74514235Y-48227429D01*
X74520196Y-48251227D01*
X74523796Y-48275496D01*
X74525000Y-48300000D01*
X74525000Y-49050000D01*
X74523796Y-49074504D01*
X74520196Y-49098773D01*
X74514235Y-49122571D01*
X74505970Y-49145671D01*
X74495480Y-49167849D01*
X74482867Y-49188893D01*
X74468253Y-49208598D01*
X74451777Y-49226777D01*
X74433598Y-49243253D01*
X74413893Y-49257867D01*
X74392849Y-49270480D01*
X74370671Y-49280970D01*
X74347571Y-49289235D01*
X74323773Y-49295196D01*
X74299504Y-49298796D01*
X74275000Y-49300000D01*
X72575000Y-49300000D01*
X72550496Y-49298796D01*
X72526227Y-49295196D01*
X72502429Y-49289235D01*
X72479329Y-49280970D01*
X72457151Y-49270480D01*
X72436107Y-49257867D01*
X72416402Y-49243253D01*
X72398223Y-49226777D01*
X72381747Y-49208598D01*
X72367133Y-49188893D01*
X72354520Y-49167849D01*
X72344030Y-49145671D01*
X72335765Y-49122571D01*
X72329804Y-49098773D01*
X72326204Y-49074504D01*
X72325000Y-49050000D01*
X72325000Y-48300000D01*
X72326204Y-48275496D01*
X72329804Y-48251227D01*
X72335765Y-48227429D01*
X72344030Y-48204329D01*
X72354520Y-48182151D01*
X72367133Y-48161107D01*
X72381747Y-48141402D01*
X72398223Y-48123223D01*
X72416402Y-48106747D01*
X72436107Y-48092133D01*
X72457151Y-48079520D01*
X72479329Y-48069030D01*
X72502429Y-48060765D01*
X72526227Y-48054804D01*
X72550496Y-48051204D01*
X72575000Y-48050000D01*
X74275000Y-48050000D01*
X74299504Y-48051204D01*
G37*
G36*
X74299504Y-45901204D02*
G01*
X74323773Y-45904804D01*
X74347571Y-45910765D01*
X74370671Y-45919030D01*
X74392849Y-45929520D01*
X74413893Y-45942133D01*
X74433598Y-45956747D01*
X74451777Y-45973223D01*
X74468253Y-45991402D01*
X74482867Y-46011107D01*
X74495480Y-46032151D01*
X74505970Y-46054329D01*
X74514235Y-46077429D01*
X74520196Y-46101227D01*
X74523796Y-46125496D01*
X74525000Y-46150000D01*
X74525000Y-46900000D01*
X74523796Y-46924504D01*
X74520196Y-46948773D01*
X74514235Y-46972571D01*
X74505970Y-46995671D01*
X74495480Y-47017849D01*
X74482867Y-47038893D01*
X74468253Y-47058598D01*
X74451777Y-47076777D01*
X74433598Y-47093253D01*
X74413893Y-47107867D01*
X74392849Y-47120480D01*
X74370671Y-47130970D01*
X74347571Y-47139235D01*
X74323773Y-47145196D01*
X74299504Y-47148796D01*
X74275000Y-47150000D01*
X72575000Y-47150000D01*
X72550496Y-47148796D01*
X72526227Y-47145196D01*
X72502429Y-47139235D01*
X72479329Y-47130970D01*
X72457151Y-47120480D01*
X72436107Y-47107867D01*
X72416402Y-47093253D01*
X72398223Y-47076777D01*
X72381747Y-47058598D01*
X72367133Y-47038893D01*
X72354520Y-47017849D01*
X72344030Y-46995671D01*
X72335765Y-46972571D01*
X72329804Y-46948773D01*
X72326204Y-46924504D01*
X72325000Y-46900000D01*
X72325000Y-46150000D01*
X72326204Y-46125496D01*
X72329804Y-46101227D01*
X72335765Y-46077429D01*
X72344030Y-46054329D01*
X72354520Y-46032151D01*
X72367133Y-46011107D01*
X72381747Y-45991402D01*
X72398223Y-45973223D01*
X72416402Y-45956747D01*
X72436107Y-45942133D01*
X72457151Y-45929520D01*
X72479329Y-45919030D01*
X72502429Y-45910765D01*
X72526227Y-45904804D01*
X72550496Y-45901204D01*
X72575000Y-45900000D01*
X74275000Y-45900000D01*
X74299504Y-45901204D01*
G37*
M02*
